<svg width="140" height="140" viewBox="0 0 140 140" fill="none" xmlns="http://www.w3.org/2000/svg">
<g clip-path="url(#clip0)">
<path d="M120.996 28.3564H2.73438V106.227C2.73438 111.944 7.3675 116.577 13.0845 116.577H103.306L94.5429 89.0538L120.996 97.4746V28.3564Z" fill="white"/>
<path d="M13.0854 8.33447H110.65C116.366 8.33447 120.999 12.9679 120.999 18.6835V28.3556H2.73633V18.6835C2.73633 12.9681 7.36973 8.33447 13.0854 8.33447Z" fill="#C1A03E"/>
<path d="M94.543 89.0532L108.108 131.665L112.978 116.307L128.284 131.612L137.265 122.631L121.959 107.326L137.155 102.618L94.543 89.0532Z" fill="white"/>
<path d="M29.8412 66.9514C37.4617 66.9514 43.6394 60.7737 43.6394 53.1532C43.6394 45.5327 37.4617 39.355 29.8412 39.355C22.2206 39.355 16.043 45.5327 16.043 53.1532C16.043 60.7737 22.2206 66.9514 29.8412 66.9514Z" fill="#C1A03E"/>
<path d="M29.8412 105.265C37.4617 105.265 43.6394 99.0877 43.6394 91.4671C43.6394 83.8466 37.4617 77.6689 29.8412 77.6689C22.2206 77.6689 16.043 83.8466 16.043 91.4671C16.043 99.0877 22.2206 105.265 29.8412 105.265Z" fill="#C1A03E"/>
<path d="M17.4939 17.2974C16.9219 15.9244 15.2987 15.2482 13.9228 15.8208C12.5471 16.3934 11.8728 18.0135 12.4435 19.3919C13.0125 20.7667 14.6419 21.4383 16.0146 20.8685C17.3952 20.2953 18.0602 18.6782 17.4939 17.2974Z" fill="black"/>
<path d="M26.8488 17.3C26.2842 15.9213 24.6504 15.2516 23.2777 15.8207C21.901 16.3913 21.2294 18.0112 21.7984 19.389C22.3666 20.7652 23.9939 21.4412 25.3698 20.8683C26.7416 20.2971 27.4225 18.6759 26.8488 17.3Z" fill="black"/>
<path d="M36.7511 17.2996C36.1862 15.9204 34.5524 15.2535 33.18 15.8203C31.8021 16.3893 31.1322 18.0122 31.7007 19.3887C32.2692 20.7649 33.8961 21.4406 35.2721 20.868C36.6439 20.297 37.3248 18.6753 36.7511 17.2996Z" fill="black"/>
<path d="M139.199 120.698L127.098 108.597L137.965 105.23C139.093 104.881 139.886 103.81 139.89 102.629C139.895 101.448 139.111 100.371 137.985 100.013L123.73 95.4749V75.5607C123.73 74.0505 122.506 72.8263 120.996 72.8263C119.486 72.8263 118.262 74.0505 118.262 75.5607V93.7339L95.3734 86.4476C93.2958 85.7873 91.2784 87.8135 91.9376 89.8828L99.5657 113.842H13.0848C8.88508 113.842 5.46875 110.426 5.46875 106.226V31.0902H118.262V51.4835C118.262 52.9937 119.486 54.2178 120.996 54.2178C122.506 54.2178 123.73 52.9937 123.73 51.4835L123.733 18.6835C123.733 11.4694 117.864 5.6001 110.649 5.6001H13.0848C5.87043 5.6001 0.00136719 11.4694 0.00136719 18.6835L0 106.226C0 113.441 5.86988 119.311 13.0848 119.311H101.307L105.504 132.495C105.861 133.617 106.933 134.4 108.11 134.4C109.287 134.4 110.36 133.615 110.715 132.492L114.226 121.421L126.351 133.546C127.419 134.614 129.15 134.614 130.218 133.546L139.199 124.565C139.712 124.052 140 123.356 140 122.631C140 121.906 139.712 121.211 139.199 120.698ZM5.47012 18.6835C5.47012 14.4849 8.8859 11.0688 13.0848 11.0688H110.65C114.848 11.0688 118.264 14.4849 118.264 18.6835V25.6209H5.47012V18.6835ZM128.284 127.745L114.913 114.374C113.488 112.948 110.98 113.565 110.373 115.48L108.104 122.635L98.7536 93.2636L128.03 102.583L121.151 104.714C119.222 105.312 118.596 107.829 120.026 109.259L133.398 122.631L128.284 127.745Z" fill="black"/>
<path d="M32.0489 36.7708C31.3022 36.6707 30.5592 36.6201 29.8414 36.6201C20.7253 36.6201 13.3086 44.0368 13.3086 53.1527C13.3086 62.2686 20.7253 69.6853 29.8414 69.6853C37.6721 69.6853 44.4851 64.1216 46.041 56.4561C46.3415 54.9762 45.3855 53.533 43.9052 53.2323C42.4253 52.9323 40.9821 53.8877 40.6816 55.3681C39.6406 60.495 35.0819 64.2165 29.8412 64.2165C23.7402 64.2165 18.7771 59.2534 18.7771 53.1527C18.7771 47.052 23.7402 42.0889 29.8412 42.0889C30.3172 42.0889 30.8163 42.1233 31.324 42.1911C32.8192 42.3918 34.1965 41.3405 34.3966 39.8434C34.5968 38.3466 33.546 36.9707 32.0489 36.7708Z" fill="black"/>
<path d="M29.8414 108C38.9576 108 46.374 100.583 46.374 91.4674C46.374 82.3513 38.9576 74.9346 29.8414 74.9346C20.7253 74.9346 13.3086 82.3513 13.3086 91.4674C13.3086 100.583 20.7253 108 29.8414 108ZM29.8414 80.4031C35.9421 80.4031 40.9053 85.3662 40.9053 91.4672C40.9053 97.5678 35.9421 102.531 29.8414 102.531C23.7405 102.531 18.7773 97.5678 18.7773 91.4672C18.7773 85.3665 23.7405 80.4031 29.8414 80.4031Z" fill="black"/>
<path d="M100.265 43.4922H55.6562C54.1463 43.4922 52.9219 44.7164 52.9219 46.2266C52.9219 47.7368 54.1463 48.9609 55.6562 48.9609H100.265C101.775 48.9609 102.999 47.7368 102.999 46.2266C102.999 44.7164 101.775 43.4922 100.265 43.4922Z" fill="black"/>
<path d="M102.999 59.3633C102.999 57.8531 101.775 56.6289 100.265 56.6289H55.6562C54.1463 56.6289 52.9219 57.8531 52.9219 59.3633C52.9219 60.8735 54.1463 62.0977 55.6562 62.0977H100.265C101.775 62.0977 102.999 60.8735 102.999 59.3633Z" fill="black"/>
<path d="M55.6562 87.8091H80.8338C82.3438 87.8091 83.5682 86.5849 83.5682 85.0747C83.5682 83.5645 82.3438 82.3403 80.8338 82.3403H55.6562C54.1463 82.3403 52.9219 83.5645 52.9219 85.0747C52.9219 86.5849 54.1463 87.8091 55.6562 87.8091Z" fill="black"/>
<path d="M55.6562 100.945H83.5707C85.0806 100.945 86.305 99.7211 86.305 98.2109C86.305 96.7007 85.0806 95.4766 83.5707 95.4766H55.6562C54.1463 95.4766 52.9219 96.7007 52.9219 98.2109C52.9219 99.7211 54.1463 100.945 55.6562 100.945Z" fill="black"/>
<path d="M27.7677 49.612C26.6996 48.5442 24.9688 48.5442 23.9004 49.612C22.8327 50.6798 22.8327 52.4112 23.9004 53.4792L28.0917 57.6705C28.6257 58.2045 29.3254 58.4714 30.0252 58.4714C30.7249 58.4714 31.4246 58.2042 31.9586 57.6705L45.2431 44.386C46.3108 43.3183 46.3108 41.5869 45.2431 40.5191C44.1756 39.4513 42.4447 39.4513 41.3758 40.5191L30.0249 51.87L27.7677 49.612Z" fill="black"/>
<path d="M123.27 61.9828C122.634 61.0096 121.384 60.5579 120.269 60.8686C119.166 61.1762 118.361 62.1575 118.272 63.3C118.076 65.8364 121.305 67.2077 123.014 65.3472C123.855 64.4303 123.96 63.0169 123.27 61.9828Z" fill="black"/>
</g>
<defs>
<clipPath id="clip0">
<rect width="140" height="140" fill="white"/>
</clipPath>
</defs>
</svg>
