<svg width="140" height="140" viewBox="0 0 140 140" fill="none" xmlns="http://www.w3.org/2000/svg">
<g clip-path="url(#clip0)">
<path d="M24.0371 93.1928L15.1816 70.4217L34.1575 62.4097L41.7479 82.2289L24.0371 93.1928Z" fill="#C1A03E"/>
<path d="M105.419 60.8554L116.49 39.0755L135.112 47.8801L125.397 66.7494L105.419 60.8554Z" fill="#C1A03E"/>
<path d="M139.624 44.8208C139.168 43.8329 138.339 43.0662 137.319 42.6894C126.928 38.853 105.752 31.0346 95.4863 27.2442L99.7511 15.7093C100.537 13.5847 99.4511 11.2255 97.3262 10.4399C95.2016 9.65401 92.8427 10.7398 92.0568 12.8647C86.9775 26.6036 74.9314 59.1834 70 72.5217C65.086 59.2312 52.9673 26.4535 47.9429 12.8644C47.1573 10.7398 44.7981 9.65429 42.6735 10.4396C40.5486 11.2252 39.4633 13.5844 40.2486 15.709L44.5134 27.244C34.2065 31.0497 12.9869 38.8842 2.68105 42.6891C1.66058 43.0659 0.831516 43.8326 0.376242 44.8205C-0.079031 45.8085 -0.122781 46.9369 0.254016 47.9574C4.46741 59.3688 12.9371 82.3083 17.136 93.6803C17.5128 94.7007 18.2796 95.5298 19.2675 95.9851C19.8108 96.2355 20.3968 96.3613 20.9836 96.3613C21.464 96.3613 21.945 96.2768 22.4044 96.1073C32.801 92.2685 53.988 84.4455 64.2603 80.6526L65.6269 84.3492L50.8591 124.291C50.0735 126.416 51.1591 128.775 53.2839 129.56C53.7529 129.734 54.2333 129.816 54.7058 129.816C56.3735 129.816 57.9414 128.792 58.5534 127.136L70 96.1767L81.4466 127.136C82.0589 128.792 83.6265 129.816 85.2942 129.816C85.7664 129.816 86.2471 129.734 86.716 129.56C88.8409 128.775 89.9262 126.416 89.1409 124.291L74.3731 84.3492L75.7397 80.6526C86.0546 84.4613 107.283 92.2994 117.596 96.1073C118.055 96.2768 118.536 96.3613 119.016 96.3613C119.603 96.3613 120.189 96.2353 120.732 95.9851C121.721 95.5298 122.487 94.701 122.864 93.6805C127.077 82.2703 135.548 59.3286 139.746 47.9577C140.123 46.9372 140.079 45.8087 139.624 44.8208ZM125.03 64.1301L109.864 58.5304L115.464 43.3648L130.63 48.9642L125.03 64.1301ZM107.769 40.5232L102.169 55.6889L87.0354 50.1012L92.6417 34.9382L107.769 40.5232ZM52.9643 50.1012L37.8306 55.6889L32.2312 40.5232L47.358 34.9382L52.9643 50.1012ZM24.5361 43.3645L30.1355 58.5301L14.9693 64.1299L9.3696 48.9639L24.5361 43.3645ZM17.8109 71.8252L32.9771 66.2255L38.5768 81.3914L23.4109 86.9914L17.8109 71.8252ZM46.2719 78.5501L40.6722 63.3842L55.8091 57.7951L61.4154 72.9586L46.2719 78.5501ZM84.1909 57.7951L99.3278 63.3842L93.7281 78.5501L78.5843 72.9586L84.1909 57.7951ZM116.589 86.9914L101.423 81.3914L107.023 66.2255L122.189 71.8252L116.589 86.9914Z" fill="black"/>
</g>
<defs>
<clipPath id="clip0">
<rect width="140" height="140" fill="white"/>
</clipPath>
</defs>
</svg>
