<svg width="140" height="140" viewBox="0 0 140 140" fill="none" xmlns="http://www.w3.org/2000/svg">
<g clip-path="url(#clip0)">
<path d="M135.898 83.4709C133.633 83.4709 131.797 85.3081 131.797 87.5725V91.9656C131.797 104.256 121.852 114.224 109.539 114.224C97.2485 114.224 87.2809 104.28 87.2809 91.9656V87.5725C87.2809 85.3081 85.4448 83.4709 83.1793 83.4709C80.9138 83.4709 79.0778 85.3081 79.0778 87.5725V92.2583H30.4605C29.5013 92.2583 28.572 92.5937 27.835 93.2089L8.20311 109.568V23.8713C8.20311 15.2313 15.2313 8.20311 23.8713 8.20311H102.949C111.602 8.20311 118.617 15.2035 118.617 23.8713V59.6862C115.915 58.0114 112.796 57.112 109.539 57.112C99.9935 57.112 92.2572 64.8345 92.2572 74.393V91.9656C92.2572 101.511 99.9797 109.248 109.539 109.248C119.084 109.248 126.82 101.525 126.82 91.9656V23.8713C126.82 10.6875 116.155 0 102.949 0H23.8713C10.7089 0 0 10.7089 0 23.8713V118.326C0 121.754 4.02038 123.732 6.72698 121.477L31.9462 100.461H80.274C83.5168 111.693 93.226 120.519 105.438 122.153V131.797H96.3598C94.0944 131.797 92.2583 133.633 92.2583 135.898C92.2583 138.164 94.0944 140 96.3598 140H122.719C124.984 140 126.82 138.164 126.82 135.898C126.82 133.633 124.984 131.797 122.719 131.797H113.641V122.153C128.453 120.171 140 107.481 140 91.9656V87.5725C140 85.3081 138.164 83.4709 135.898 83.4709ZM118.617 78.7862V91.9656C118.617 94.3902 117.673 96.6706 115.96 98.385C114.243 100.099 111.963 101.045 109.539 101.045C107.115 101.045 104.834 100.1 103.12 98.3882C101.406 96.6706 100.46 94.3902 100.46 91.9667V74.393C100.46 71.9695 101.406 69.689 103.118 67.9747C104.834 66.2593 107.115 65.3151 109.539 65.3151C111.963 65.3151 114.243 66.2593 115.958 67.9726C117.672 69.688 118.617 71.9684 118.617 74.393V78.7862Z" fill="black"/>
<path d="M109.248 32.6582C109.248 30.3927 107.412 28.5566 105.146 28.5566H26.0684C23.804 28.5566 21.9668 30.3927 21.9668 32.6582C21.9668 34.9226 23.804 36.7598 26.0684 36.7598H105.146C107.412 36.7598 109.248 34.9226 109.248 32.6582Z" fill="black"/>
<path d="M82.8889 50.23C82.8889 47.9656 81.0528 46.1284 78.7873 46.1284H26.0684C23.804 46.1284 21.9668 47.9656 21.9668 50.23C21.9668 52.4955 23.804 54.3315 26.0684 54.3315H78.7873C81.0528 54.3315 82.8889 52.4955 82.8889 50.23Z" fill="#C1A03E"/>
<path d="M26.0684 63.7012C23.804 63.7012 21.9668 65.5373 21.9668 67.8027C21.9668 70.0671 23.804 71.9043 26.0684 71.9043H61.5063C63.7718 71.9043 65.6078 70.0671 65.6078 67.8027C65.6078 65.5373 63.7718 63.7012 61.5063 63.7012H26.0684Z" fill="black"/>
</g>
<defs>
<clipPath id="clip0">
<rect width="140" height="140" fill="white"/>
</clipPath>
</defs>
</svg>
