<svg width="140" height="140" viewBox="0 0 140 140" fill="none" xmlns="http://www.w3.org/2000/svg">
<g clip-path="url(#clip0)">
<path d="M24.6094 24.6094C26.8746 24.6094 28.7109 22.773 28.7109 20.5078C28.7109 18.2426 26.8746 16.4062 24.6094 16.4062C22.3441 16.4062 20.5078 18.2426 20.5078 20.5078C20.5078 22.773 22.3441 24.6094 24.6094 24.6094Z" fill="black"/>
<path d="M75.1953 0H15.0391C6.74652 0 0 6.74652 0 15.0391V124.961C0 133.253 6.74652 140 15.0391 140H75.1953C83.4879 140 90.2344 133.253 90.2344 124.961V15.0391C90.2344 6.74652 83.4879 0 75.1953 0ZM82.0312 124.961C82.0312 128.73 78.9646 131.797 75.1953 131.797H15.0391C11.2697 131.797 8.20312 128.73 8.20312 124.961V123.594H82.0312V124.961ZM82.0312 115.391H8.20312V15.0391C8.20312 11.2697 11.2697 8.20312 15.0391 8.20312H75.1953C78.9646 8.20312 82.0312 11.2697 82.0312 15.0391V115.391Z" fill="black"/>
<path d="M39.6484 24.6094H50.5859C52.8511 24.6094 54.6875 22.773 54.6875 20.5078C54.6875 18.2427 52.8511 16.4062 50.5859 16.4062H39.6484C37.3833 16.4062 35.5469 18.2427 35.5469 20.5078C35.5469 22.773 37.3833 24.6094 39.6484 24.6094Z" fill="black"/>
<path d="M56.4922 60.9539C58.7721 58.3168 60.1562 54.8844 60.1562 51.1328C60.1562 42.8403 53.4097 36.0938 45.1172 36.0938C36.8246 36.0938 30.0781 42.8403 30.0781 51.1328C30.0781 54.8844 31.4623 58.3168 33.7422 60.9539C26.6667 64.9428 21.875 72.5257 21.875 81.2109V83.9453C21.875 86.2105 23.7114 88.0469 25.9766 88.0469H64.2578C66.523 88.0469 68.3594 86.2105 68.3594 83.9453V81.2109C68.3594 72.5257 63.5677 64.9428 56.4922 60.9539ZM45.1172 44.2969C48.8865 44.2969 51.9531 47.3635 51.9531 51.1328C51.9531 54.9021 48.8865 57.9688 45.1172 57.9688C41.3479 57.9688 38.2812 54.9021 38.2812 51.1328C38.2812 47.3635 41.3479 44.2969 45.1172 44.2969ZM30.1396 79.8438C30.8323 72.1891 37.2851 66.1719 45.1172 66.1719C52.9493 66.1719 59.4021 72.1891 60.0947 79.8438H30.1396Z" fill="black"/>
<path d="M64.2578 96.25H25.9766C23.7114 96.25 21.875 98.0864 21.875 100.352C21.875 102.617 23.7114 104.453 25.9766 104.453H64.2578C66.523 104.453 68.3594 102.617 68.3594 100.352C68.3594 98.0864 66.523 96.25 64.2578 96.25Z" fill="#C1A03E"/>
<path d="M103.086 31.9517C105.351 31.9517 107.188 30.1153 107.188 27.8501C107.188 25.5849 105.351 23.7485 103.086 23.7485C100.821 23.7485 98.9844 25.5849 98.9844 27.8501C98.9844 30.1153 100.821 31.9517 103.086 31.9517Z" fill="black"/>
<path d="M117.588 13.3482C115.986 11.7464 113.389 11.7467 111.787 13.3482C110.185 14.95 110.185 17.5468 111.787 19.1486C116.585 23.9461 116.585 31.7527 111.787 36.5502C110.185 38.152 110.185 40.7488 111.787 42.3506C112.588 43.1515 113.638 43.5518 114.687 43.5518C115.737 43.5518 116.787 43.1513 117.587 42.3504C125.583 34.3545 125.583 21.3441 117.588 13.3482Z" fill="black"/>
<path d="M129.189 1.74871C127.588 0.146914 124.991 0.146914 123.389 1.74871C121.787 3.35051 121.787 5.94734 123.389 7.54914C128.812 12.9717 131.798 20.1817 131.798 27.8508C131.798 35.5199 128.812 42.7299 123.389 48.1527C121.787 49.7542 121.787 52.3513 123.389 53.9531C124.19 54.754 125.239 55.1546 126.289 55.1546C127.338 55.1546 128.388 54.754 129.189 53.9531C136.161 46.9807 140.001 37.7109 140.001 27.8508C140.001 17.9906 136.161 8.72082 129.189 1.74871Z" fill="black"/>
</g>
<defs>
<clipPath id="clip0">
<rect width="140" height="140" fill="white"/>
</clipPath>
</defs>
</svg>
