<svg width="140" height="140" viewBox="0 0 140 140" fill="none" xmlns="http://www.w3.org/2000/svg">
<g clip-path="url(#clip0)">
<path d="M17.8613 68.0688V32.3446L32.3441 28.9653V68.0688H17.8613Z" fill="#C1A03E"/>
<path d="M102.818 57.9551V45.0432L90.2822 32.5073L102.503 3.15326L94.9287 0L74.4175 49.2679L81.9916 52.4212L86.8716 40.6995L94.6136 48.4415V57.9551H45.3867V66.1596H53.5912V82.5686H70.0002V140H78.2047V131.796H119.227V140H127.432C127.432 137.617 127.432 60.0905 127.432 57.9551H102.818ZM61.7957 74.3641V66.1596H119.227V123.591H78.2047V74.3641H61.7957Z" fill="black"/>
<path d="M20.7728 74.3646H37.1818V25.1377H12.5684V140.001H20.7728V115.387H53.5908V140.001H61.7953V90.7736H20.7728V74.3646ZM20.7728 33.3422H28.9773V66.1601H20.7728V33.3422ZM53.5908 98.9781V107.183H20.7728V98.9781H53.5908Z" fill="black"/>
</g>
<defs>
<clipPath id="clip0">
<rect width="140" height="140" fill="white"/>
</clipPath>
</defs>
</svg>
