<svg width="360" height="360" viewBox="0 0 360 360" fill="none" xmlns="http://www.w3.org/2000/svg">
<path d="M255.038 64.728C255.038 64.728 209.772 38.5272 158.45 57.744C107.129 76.9607 74.9305 127.807 47.7865 168.286C20.6425 208.764 25.4665 255.852 58.2625 282.902C91.0585 309.953 120.103 284.184 170.726 291.895C221.35 299.606 233.77 309.463 280.051 287.928C326.333 266.393 344.434 198.921 319.248 141.962C294.062 85.0031 255.038 64.728 255.038 64.728Z" fill="#FDE23C"/>
<path opacity="0.7" d="M255.038 64.728C255.038 64.728 209.772 38.5272 158.45 57.744C107.129 76.9607 74.9305 127.807 47.7865 168.286C20.6425 208.764 25.4665 255.852 58.2625 282.902C91.0585 309.953 120.103 284.184 170.726 291.895C221.35 299.606 233.77 309.463 280.051 287.928C326.333 266.393 344.434 198.921 319.248 141.962C294.062 85.0031 255.038 64.728 255.038 64.728Z" fill="white"/>
<path d="M26.2151 295.2H328.406" stroke="#8F8F8F" stroke-linecap="round" stroke-linejoin="round"/>
<path d="M25.6322 288H338.825" stroke="#8F8F8F" stroke-linecap="round" stroke-linejoin="round"/>
<path d="M39.24 280.8H342.014" stroke="#8F8F8F" stroke-linecap="round" stroke-linejoin="round"/>
<path d="M28.5264 273.6H336.802" stroke="#8F8F8F" stroke-linecap="round" stroke-linejoin="round"/>
<path d="M32.8678 267.12H346.32" stroke="#8F8F8F" stroke-linecap="round" stroke-linejoin="round"/>
<path d="M24.4727 260.64H336.225" stroke="#8F8F8F" stroke-linecap="round" stroke-linejoin="round"/>
<path d="M30.5566 255.6H328.989" stroke="#8F8F8F" stroke-linecap="round" stroke-linejoin="round"/>
<path d="M24.1848 252H335.354" stroke="#8F8F8F" stroke-linecap="round" stroke-linejoin="round"/>
<path d="M29.9736 248.4H340.567" stroke="#8F8F8F" stroke-linecap="round" stroke-linejoin="round"/>
<path d="M20.88 302.4H341.719" stroke="#8F8F8F" stroke-linecap="round" stroke-linejoin="round"/>
<path d="M253.325 248.191H283.745V242.395H253.325V248.191Z" stroke="#8F8F8F" stroke-linecap="round" stroke-linejoin="round"/>
<path d="M257.062 242.431H279.994V238.471H257.062V242.431Z" stroke="#8F8F8F" stroke-linecap="round" stroke-linejoin="round"/>
<path d="M259.323 60.3145V238.507H277.74V60.3145" stroke="#8F8F8F" stroke-linecap="round" stroke-linejoin="round"/>
<path d="M274.745 208.274V238.601" stroke="#8F8F8F" stroke-linecap="round" stroke-linejoin="round"/>
<path d="M274.745 98.7048V197.222" stroke="#8F8F8F" stroke-linecap="round" stroke-linejoin="round"/>
<path d="M270.9 231.264V238.601" stroke="#8F8F8F" stroke-linecap="round" stroke-linejoin="round"/>
<path d="M270.9 135.454V224.503" stroke="#8F8F8F" stroke-linecap="round" stroke-linejoin="round"/>
<path d="M270.9 70.9777V129.37" stroke="#8F8F8F" stroke-linecap="round" stroke-linejoin="round"/>
<path d="M270.9 60.7177V66.9168" stroke="#8F8F8F" stroke-linecap="round" stroke-linejoin="round"/>
<path d="M262.742 60.7177V238.601" stroke="#8F8F8F" stroke-linecap="round" stroke-linejoin="round"/>
<path d="M301.889 248.191H332.309V242.395H301.889V248.191Z" stroke="#8F8F8F" stroke-linecap="round" stroke-linejoin="round"/>
<path d="M305.633 242.431H328.565V238.471H305.633V242.431Z" stroke="#8F8F8F" stroke-linecap="round" stroke-linejoin="round"/>
<path d="M307.886 60.3145V238.507H326.311V60.3145" stroke="#8F8F8F" stroke-linecap="round" stroke-linejoin="round"/>
<path d="M323.309 208.274V238.601" stroke="#8F8F8F" stroke-linecap="round" stroke-linejoin="round"/>
<path d="M323.309 98.7048V197.222" stroke="#8F8F8F" stroke-linecap="round" stroke-linejoin="round"/>
<path d="M319.471 231.264V238.601" stroke="#8F8F8F" stroke-linecap="round" stroke-linejoin="round"/>
<path d="M319.471 135.454V224.503" stroke="#8F8F8F" stroke-linecap="round" stroke-linejoin="round"/>
<path d="M319.471 70.9777V129.37" stroke="#8F8F8F" stroke-linecap="round" stroke-linejoin="round"/>
<path d="M319.471 60.7177V66.9168" stroke="#8F8F8F" stroke-linecap="round" stroke-linejoin="round"/>
<path d="M311.314 60.7177V238.601" stroke="#8F8F8F" stroke-linecap="round" stroke-linejoin="round"/>
<path d="M36.9937 248.191H67.4137V242.395H36.9937V248.191Z" stroke="#8F8F8F" stroke-linecap="round" stroke-linejoin="round"/>
<path d="M40.7377 242.431H63.6697V238.471H40.7377V242.431Z" stroke="#8F8F8F" stroke-linecap="round" stroke-linejoin="round"/>
<path d="M42.9912 60.3145V238.507H61.416V60.3145" stroke="#8F8F8F" stroke-linecap="round" stroke-linejoin="round"/>
<path d="M58.4137 208.274V238.601" stroke="#8F8F8F" stroke-linecap="round" stroke-linejoin="round"/>
<path d="M58.4137 98.7048V197.222" stroke="#8F8F8F" stroke-linecap="round" stroke-linejoin="round"/>
<path d="M54.576 231.264V238.601" stroke="#8F8F8F" stroke-linecap="round" stroke-linejoin="round"/>
<path d="M54.576 135.454V224.503" stroke="#8F8F8F" stroke-linecap="round" stroke-linejoin="round"/>
<path d="M54.576 70.9777V129.37" stroke="#8F8F8F" stroke-linecap="round" stroke-linejoin="round"/>
<path d="M54.576 60.7177V66.9168" stroke="#8F8F8F" stroke-linecap="round" stroke-linejoin="round"/>
<path d="M46.4113 60.7177V238.601" stroke="#8F8F8F" stroke-linecap="round" stroke-linejoin="round"/>
<path d="M249.178 242.402H218.758V248.199H249.178V242.402Z" stroke="#8F8F8F" stroke-linecap="round" stroke-linejoin="round"/>
<path d="M245.441 238.478H222.509V242.438H245.441V238.478Z" stroke="#8F8F8F" stroke-linecap="round" stroke-linejoin="round"/>
<path d="M243.18 60.3145V238.507H224.762V60.3145" stroke="#8F8F8F" stroke-linecap="round" stroke-linejoin="round"/>
<path d="M227.758 208.274V238.601" stroke="#8F8F8F" stroke-linecap="round" stroke-linejoin="round"/>
<path d="M227.758 98.7048V197.222" stroke="#8F8F8F" stroke-linecap="round" stroke-linejoin="round"/>
<path d="M227.758 60.7177V91.7137" stroke="#8F8F8F" stroke-linecap="round" stroke-linejoin="round"/>
<path d="M231.602 231.264V238.601" stroke="#8F8F8F" stroke-linecap="round" stroke-linejoin="round"/>
<path d="M231.602 135.454V224.503" stroke="#8F8F8F" stroke-linecap="round" stroke-linejoin="round"/>
<path d="M231.602 70.9777V129.37" stroke="#8F8F8F" stroke-linecap="round" stroke-linejoin="round"/>
<path d="M231.602 60.7177V66.9168" stroke="#8F8F8F" stroke-linecap="round" stroke-linejoin="round"/>
<path d="M239.76 60.7177V238.601" stroke="#8F8F8F" stroke-linecap="round" stroke-linejoin="round"/>
<path d="M116.338 248.191H146.758V242.395H116.338V248.191Z" stroke="#8F8F8F" stroke-linecap="round" stroke-linejoin="round"/>
<path d="M120.089 242.431H143.014V238.471H120.089V242.431Z" stroke="#8F8F8F" stroke-linecap="round" stroke-linejoin="round"/>
<path d="M122.335 60.3145V238.507H140.76V60.3145" stroke="#8F8F8F" stroke-linecap="round" stroke-linejoin="round"/>
<path d="M137.758 208.274V238.601" stroke="#8F8F8F" stroke-linecap="round" stroke-linejoin="round"/>
<path d="M137.758 98.7048V197.222" stroke="#8F8F8F" stroke-linecap="round" stroke-linejoin="round"/>
<path d="M137.758 60.7177V91.7137" stroke="#8F8F8F" stroke-linecap="round" stroke-linejoin="round"/>
<path d="M133.92 231.264V238.601" stroke="#8F8F8F" stroke-linecap="round" stroke-linejoin="round"/>
<path d="M133.92 135.454V224.503" stroke="#8F8F8F" stroke-linecap="round" stroke-linejoin="round"/>
<path d="M133.92 70.9777V129.37" stroke="#8F8F8F" stroke-linecap="round" stroke-linejoin="round"/>
<path d="M125.762 60.7177V238.601" stroke="#8F8F8F" stroke-linecap="round" stroke-linejoin="round"/>
<path d="M112.198 242.402H81.7776V248.199H112.198V242.402Z" stroke="#8F8F8F" stroke-linecap="round" stroke-linejoin="round"/>
<path d="M108.446 238.478H85.5215V242.438H108.446V238.478Z" stroke="#8F8F8F" stroke-linecap="round" stroke-linejoin="round"/>
<path d="M106.2 60.3145V238.507H87.7751V60.3145" stroke="#8F8F8F" stroke-linecap="round" stroke-linejoin="round"/>
<path d="M90.7776 208.274V238.601" stroke="#8F8F8F" stroke-linecap="round" stroke-linejoin="round"/>
<path d="M90.7776 98.7048V197.222" stroke="#8F8F8F" stroke-linecap="round" stroke-linejoin="round"/>
<path d="M90.7776 60.7177V91.7137" stroke="#8F8F8F" stroke-linecap="round" stroke-linejoin="round"/>
<path d="M94.6151 231.264V238.601" stroke="#8F8F8F" stroke-linecap="round" stroke-linejoin="round"/>
<path d="M94.6151 135.454V224.503" stroke="#8F8F8F" stroke-linecap="round" stroke-linejoin="round"/>
<path d="M94.6151 70.9777V129.37" stroke="#8F8F8F" stroke-linecap="round" stroke-linejoin="round"/>
<path d="M94.6151 60.7177V66.9168" stroke="#8F8F8F" stroke-linecap="round" stroke-linejoin="round"/>
<path d="M102.78 60.7177V238.601" stroke="#8F8F8F" stroke-linecap="round" stroke-linejoin="round"/>
<path d="M213.12 112.32H151.661V248.4H213.12V112.32Z" stroke="#8F8F8F" stroke-linecap="round" stroke-linejoin="round"/>
<path d="M207.576 165.139H183.938V179.467H207.576V165.139Z" stroke="#8F8F8F" stroke-linecap="round" stroke-linejoin="round"/>
<path d="M207.576 182.326H183.938V196.654H207.576V182.326Z" stroke="#8F8F8F" stroke-linecap="round" stroke-linejoin="round"/>
<path d="M207.576 147.946H183.938V162.274H207.576V147.946Z" stroke="#8F8F8F" stroke-linecap="round" stroke-linejoin="round"/>
<path d="M207.576 130.759H183.938V145.087H207.576V130.759Z" stroke="#8F8F8F" stroke-linecap="round" stroke-linejoin="round"/>
<path d="M207.576 199.512H183.938V213.84H207.576V199.512Z" stroke="#8F8F8F" stroke-linecap="round" stroke-linejoin="round"/>
<path d="M207.576 216.706H183.938V231.034H207.576V216.706Z" stroke="#8F8F8F" stroke-linecap="round" stroke-linejoin="round"/>
<path d="M207.576 117.684H183.938V127.894H207.576V117.684Z" stroke="#8F8F8F" stroke-linecap="round" stroke-linejoin="round"/>
<path d="M181.073 117.684H157.212V127.894H181.073V117.684Z" stroke="#8F8F8F" stroke-linecap="round" stroke-linejoin="round"/>
<path d="M181.073 199.512H157.212V213.84H181.073V199.512Z" stroke="#8F8F8F" stroke-linecap="round" stroke-linejoin="round"/>
<path d="M181.073 216.706H157.212V231.034H181.073V216.706Z" stroke="#8F8F8F" stroke-linecap="round" stroke-linejoin="round"/>
<path d="M181.073 147.946H157.212V162.274H181.073V147.946Z" stroke="#8F8F8F" stroke-linecap="round" stroke-linejoin="round"/>
<path d="M207.576 233.892H183.938V244.454H207.576V233.892Z" stroke="#8F8F8F" stroke-linecap="round" stroke-linejoin="round"/>
<path d="M181.073 233.892H157.212V244.454H181.073V233.892Z" stroke="#8F8F8F" stroke-linecap="round" stroke-linejoin="round"/>
<path d="M181.073 130.759H157.212V145.087H181.073V130.759Z" stroke="#8F8F8F" stroke-linecap="round" stroke-linejoin="round"/>
<path d="M181.073 182.326H157.212V196.654H181.073V182.326Z" stroke="#8F8F8F" stroke-linecap="round" stroke-linejoin="round"/>
<path d="M181.073 165.139H157.212V179.467H181.073V165.139Z" stroke="#8F8F8F" stroke-linecap="round" stroke-linejoin="round"/>
<path d="M219.038 98.3376H145.98V110.153H219.038V98.3376Z" stroke="#8F8F8F" stroke-linecap="round" stroke-linejoin="round"/>
<path d="M219.038 101.354H145.98V107.151H219.038V101.354Z" stroke="#8F8F8F" stroke-linecap="round" stroke-linejoin="round"/>
<path d="M295.725 157.961C295.725 157.961 293.213 158.616 291.787 157.414C290.361 156.211 290.347 152.928 292.01 150.631C293.673 148.334 300.974 144.151 305.784 143.849C310.593 143.546 317.052 146.009 317.707 148.99C318.362 151.97 314.316 165.722 314.316 165.722L311.148 167.688C308.826 165.988 306.598 164.163 304.473 162.223C302.719 160.508 300.686 159.103 298.461 158.069C297.571 157.817 296.633 157.78 295.725 157.961Z" fill="#263238" stroke="#263238" stroke-linecap="round" stroke-linejoin="round"/>
<path d="M307.951 259.006C308.403 260.052 308.743 261.143 308.966 262.26C309.285 263.638 309.691 264.995 310.183 266.321C310.183 266.321 311.306 287.035 311.097 291.197C310.889 295.358 310.896 297.396 310.593 297.677C310.291 297.958 306.425 298.994 304.293 299.707C302.162 300.42 299.412 301.637 300.427 302.148C301.442 302.659 316.793 302.148 316.793 302.148C316.793 302.148 317.808 302.753 318.009 301.025C318.211 299.297 316.793 298.282 317.196 295.848C317.599 293.414 320.148 286.092 320.753 280.728C321.357 275.364 320.349 263.981 320.349 262.051C320.349 260.122 320.551 257.882 320.551 257.882L307.951 259.006Z" fill="white" stroke="#263238" stroke-linecap="round" stroke-linejoin="round"/>
<path d="M318.009 301.054C318.057 300.625 318.016 300.191 317.887 299.779C316.526 299.902 313.337 300.139 313.337 300.139C312.945 299.596 312.605 299.018 312.321 298.411C312.257 298.249 312.162 298.101 312.039 297.976C311.917 297.851 311.771 297.752 311.61 297.685C311.449 297.618 311.276 297.584 311.101 297.585C310.926 297.586 310.754 297.622 310.593 297.691C310.291 297.994 306.425 299.009 304.293 299.722C302.162 300.434 299.412 301.651 300.427 302.162C301.442 302.674 316.793 302.162 316.793 302.162C316.793 302.162 317.808 302.782 318.009 301.054Z" fill="#FDE23C" stroke="#263238" stroke-linecap="round" stroke-linejoin="round"/>
<path d="M305.82 259.006C306.276 260.05 306.616 261.141 306.835 262.26C307.154 263.639 307.563 264.995 308.059 266.321C308.059 266.321 309.175 287.035 308.973 291.197C308.772 295.358 308.772 297.396 308.462 297.677C308.153 297.958 304.301 298.994 302.162 299.707C300.024 300.42 297.288 301.637 298.303 302.148C299.318 302.659 314.662 302.148 314.662 302.148C314.662 302.148 315.677 302.753 315.886 301.025C316.094 299.297 314.662 298.282 315.072 295.848C315.482 293.414 318.017 286.092 318.629 280.728C319.241 275.364 318.24 263.988 318.24 262.08C318.24 260.172 318.442 257.911 318.442 257.911L305.82 259.006Z" fill="white" stroke="#263238" stroke-linecap="round" stroke-linejoin="round"/>
<path d="M315.886 301.054C315.926 300.625 315.885 300.192 315.763 299.779C314.395 299.902 311.206 300.139 311.206 300.139C310.814 299.596 310.474 299.018 310.19 298.411C310.126 298.249 310.03 298.101 309.908 297.976C309.786 297.851 309.64 297.752 309.479 297.685C309.318 297.618 309.145 297.584 308.97 297.585C308.795 297.586 308.623 297.622 308.462 297.691C308.16 297.994 304.301 299.009 302.162 299.722C300.024 300.434 297.288 301.651 298.303 302.162C299.318 302.674 314.662 302.162 314.662 302.162C314.662 302.162 315.677 302.782 315.886 301.054Z" fill="#FDE23C" stroke="#263238" stroke-linecap="round" stroke-linejoin="round"/>
<path d="M277.437 191.412C277.437 191.412 280.872 191.513 283.32 186.71C283.32 186.71 291.355 206.014 294.199 209.153C295.89 211.024 297.724 212.76 299.686 214.344C299.686 214.344 299.095 218.556 296.806 220.421C294.516 222.286 292.889 219.83 292.889 219.83C292.889 219.83 286.812 208.562 283.478 204.71C280.145 200.858 274.464 193.342 274.464 193.342C275.343 192.54 276.347 191.888 277.437 191.412Z" fill="#FDE23C" stroke="#263238" stroke-linecap="round" stroke-linejoin="round"/>
<path d="M305.172 199.152C305.172 199.152 294.588 202.68 294.293 202.874C293.997 203.069 290.765 200.333 290.181 200.131C289.598 199.93 287.337 201.017 287.438 201.996C287.539 202.975 289.886 201.996 289.886 201.996C290.359 202.782 290.691 203.645 290.865 204.545C290.966 205.625 290.765 206.114 291.65 206.604C292.536 207.094 303.602 205.423 304.682 205.229C305.762 205.034 307.037 202.874 307.037 200.621C307.037 198.367 305.172 199.152 305.172 199.152Z" fill="white" stroke="#263238" stroke-linecap="round" stroke-linejoin="round"/>
<path d="M305.568 188.143C305.568 188.143 301.853 193.716 301.737 196.013C301.622 198.31 304.365 200.174 304.365 200.174C304.365 200.174 302.925 204.876 301.413 211.327C299.901 217.778 296.712 229.81 297.151 238.558C297.59 247.306 299.772 260.323 299.772 260.323H322.409C322.409 260.323 323.064 248.184 323.064 241.841C323.064 235.498 327.441 227.837 327.441 222.588C327.373 219.08 326.89 215.593 326.001 212.198C326.001 212.198 325.238 185.299 324.367 181.361C323.496 177.422 321.631 174.686 320.429 173.815C319.226 172.944 314.085 172.937 312.113 175.565C310.14 178.193 309.161 184.644 308.513 185.299C307.865 185.954 305.568 188.143 305.568 188.143Z" fill="#263238" stroke="#263238" stroke-linecap="round" stroke-linejoin="round"/>
<path d="M323.064 241.841C323.064 235.498 327.441 227.837 327.441 222.588C327.373 219.08 326.89 215.593 326.001 212.198C326.001 212.198 326.001 211.709 325.965 210.852C316.051 214.596 305.741 212.422 301.435 211.183C301.42 211.23 301.408 211.278 301.399 211.327C299.865 217.807 296.698 229.81 297.137 238.558C297.576 247.306 299.757 260.323 299.757 260.323H322.394C322.394 260.323 323.064 248.184 323.064 241.841Z" stroke="#263238" stroke-linecap="round" stroke-linejoin="round"/>
<path d="M314.424 228.607C305.676 222.041 309.506 215.374 309.506 215.374" stroke="white" stroke-linecap="round" stroke-linejoin="round"/>
<path d="M316.721 213.516C316.721 213.516 315.194 229.478 312.674 236.7C310.154 243.922 311.472 259.776 311.472 259.776" stroke="white" stroke-linecap="round" stroke-linejoin="round"/>
<path d="M302.724 150.192C302.724 150.192 295.286 154.8 295.2 156.24C295.197 158.491 295.492 160.733 296.078 162.907C296.626 164.765 297.389 166.298 296.842 167.17C296.294 168.041 295.747 168.379 296.842 168.919C297.345 169.213 297.904 169.399 298.483 169.466C298.483 169.466 301.219 174.715 301.982 175.046C302.746 175.378 306.576 173.081 306.576 173.081L309.312 174.715L305.28 189.238C305.28 189.238 307.44 191.642 310.198 187.704C312.955 183.766 313.078 178.193 314.683 176.443C316.289 174.694 320.695 174.578 320.695 174.578L314.46 164.498L312.163 163.058C312.163 163.058 314.136 157.486 312.934 155.628C311.731 153.77 309.211 155.628 308.556 157.262C307.901 158.897 307.57 159.998 307.57 159.998C306.207 159.748 304.907 159.229 303.746 158.472C301.997 157.262 299.153 158.357 300.024 154.966C300.414 153.135 301.356 151.469 302.724 150.192Z" fill="white" stroke="#263238" stroke-linecap="round" stroke-linejoin="round"/>
<path d="M312.127 163.094L310.269 163.642C310.269 163.642 311.148 166.162 310.493 167.58C309.979 168.545 309.238 169.371 308.333 169.985" stroke="#263238" stroke-linecap="round" stroke-linejoin="round"/>
<path d="M300.801 162.72C301.586 164.419 301.442 166.154 300.484 166.601C299.527 167.047 298.108 166.025 297.324 164.326C296.539 162.626 296.676 160.884 297.64 160.445C298.605 160.006 300.009 161.035 300.801 162.72Z" stroke="#263238" stroke-linecap="round" stroke-linejoin="round"/>
<path d="M300.802 162.734L307.973 157.961" stroke="#263238" stroke-linecap="round" stroke-linejoin="round"/>
<path d="M270.777 195.624L282.146 206.014L284.983 208.368L292.435 225.713L298.022 221.501C298.022 221.501 292.925 214.15 289.49 210.226C286.056 206.302 275.378 186.509 275.285 186.221C275.191 185.933 270.676 195.235 270.777 195.624Z" fill="#FDE23C" stroke="#263238" stroke-linecap="round" stroke-linejoin="round"/>
<path d="M320.659 177.53C320.659 177.53 315.741 178.301 314.755 182.57C313.768 186.84 314.647 205.43 314.647 205.43L293.428 205.862C293.428 205.862 290.145 202.478 288.835 201.931C287.524 201.384 285.012 201.816 285.012 201.816L286.322 202.802C286.322 202.802 281.944 205.099 281.728 205.754C281.512 206.41 281.397 206.633 282.168 207.288C282.756 207.736 283.422 208.071 284.133 208.274C284.531 208.874 284.896 209.494 285.228 210.132C285.336 210.456 283.917 210.679 285.12 211.334C286.322 211.99 288.619 210.132 290.16 209.477C291.102 209.074 292.1 208.814 293.119 208.706C293.119 208.706 304.819 211.442 310.831 211.55C316.843 211.658 323.848 212.99 324.72 212.321C325.591 211.651 325.706 210.787 325.706 209.477C325.706 208.166 326.8 188.597 325.814 183.996C324.828 179.395 324.72 177.206 320.659 177.53Z" fill="white" stroke="#263238" stroke-linecap="round" stroke-linejoin="round"/>
<path d="M179.208 196.761C179.208 196.761 176.127 208.447 175.911 209.513C175.695 210.578 176.868 212.486 178.675 212.594C180.483 212.702 182.715 211.529 184.198 209.088C185.681 206.647 187.495 199.951 187.495 199.951L179.208 196.761Z" fill="white" stroke="#263238" stroke-linecap="round" stroke-linejoin="round"/>
<path d="M227.448 194.746C227.448 194.746 231.379 207.281 231.588 207.914C231.797 208.548 230.206 210.254 227.448 209.83C224.691 209.405 225 210.046 223.848 208.022C222.696 205.999 219.276 199.31 219.276 199.31C220.328 198.291 221.468 197.366 222.682 196.546C224.157 195.679 225.769 195.07 227.448 194.746Z" fill="white" stroke="#263238" stroke-linecap="round" stroke-linejoin="round"/>
<path d="M221.04 263.52C220.564 264.611 220.21 265.75 219.982 266.918C219.649 268.36 219.223 269.779 218.707 271.166C218.707 271.166 217.534 286.358 217.75 290.714C217.966 295.07 217.959 297.194 218.283 297.518C218.607 297.842 222.639 298.901 224.871 299.642C227.103 300.384 229.968 301.658 228.903 302.191C227.837 302.724 211.795 302.191 211.795 302.191C211.795 302.191 210.737 302.832 210.521 301.025C210.305 299.218 211.795 298.145 211.371 295.603C210.946 293.062 208.289 285.408 207.655 279.763C207.022 274.118 208.08 268.718 208.08 266.695C208.08 264.672 207.864 262.339 207.864 262.339L221.04 263.52Z" fill="white" stroke="#263238" stroke-linecap="round" stroke-linejoin="round"/>
<path d="M210.55 300.996C210.504 300.545 210.548 300.09 210.679 299.657C212.119 299.786 215.439 300.038 215.439 300.038C215.848 299.47 216.205 298.865 216.504 298.231C216.574 298.064 216.676 297.912 216.806 297.785C216.935 297.658 217.088 297.558 217.256 297.491C217.425 297.424 217.605 297.391 217.786 297.395C217.967 297.398 218.146 297.438 218.311 297.511C218.628 297.828 222.667 298.894 224.899 299.635C227.131 300.377 229.997 301.651 228.931 302.184C227.866 302.717 211.824 302.184 211.824 302.184C211.824 302.184 210.766 302.803 210.55 300.996Z" fill="#263238" stroke="#263238" stroke-linecap="round" stroke-linejoin="round"/>
<path d="M187.841 263.52C188.312 264.612 188.667 265.751 188.899 266.918C189.232 268.36 189.658 269.779 190.174 271.166C190.174 271.166 191.347 286.358 191.131 290.714C190.915 295.07 190.922 297.194 190.598 297.518C190.274 297.842 186.242 298.901 184.01 299.642C181.778 300.384 178.913 301.658 179.978 302.191C181.044 302.724 197.086 302.191 197.086 302.191C197.086 302.191 198.144 302.832 198.36 301.025C198.576 299.218 197.086 298.145 197.51 295.603C197.935 293.062 200.592 285.408 201.226 279.763C201.859 274.118 200.801 268.718 200.801 266.695C200.801 264.672 201.017 262.339 201.017 262.339L187.841 263.52Z" fill="white" stroke="#263238" stroke-linecap="round" stroke-linejoin="round"/>
<path d="M198.36 300.996C198.406 300.545 198.362 300.09 198.23 299.657C196.79 299.786 193.471 300.038 193.471 300.038C193.061 299.47 192.705 298.865 192.406 298.231C192.336 298.064 192.233 297.912 192.104 297.785C191.975 297.658 191.822 297.558 191.653 297.491C191.485 297.424 191.305 297.391 191.124 297.395C190.943 297.398 190.764 297.438 190.598 297.511C190.282 297.828 186.242 298.894 184.01 299.635C181.778 300.377 178.913 301.651 179.978 302.184C181.044 302.717 197.086 302.184 197.086 302.184C197.086 302.184 198.144 302.803 198.36 300.996Z" fill="#263238" stroke="#263238" stroke-linecap="round" stroke-linejoin="round"/>
<path d="M226.08 235.865C226.08 236.29 226.397 246.168 225.36 252.547C224.323 258.926 223.654 265.507 223.654 265.507H205.236L204.286 257.04L203.645 265.543H186.854C186.854 265.543 181.224 248.328 183.672 233.244L225.36 233.28L226.08 235.865Z" fill="#263238" stroke="#263238" stroke-linecap="round" stroke-linejoin="round"/>
<path d="M204.286 257.004V245.11" stroke="#263238" stroke-linecap="round" stroke-linejoin="round"/>
<path d="M191.851 149.371C191.57 149.515 188.345 153.943 188.662 157.234C188.978 160.524 191.635 163.08 191.635 167.544C191.712 169.945 191.278 172.336 190.361 174.557C192.146 175.287 194.109 175.47 195.998 175.082C197.775 174.747 199.517 174.251 201.204 173.599L200.988 169.351C200.988 169.351 197.273 169.877 195.041 165.312C192.809 160.747 193.68 155.851 194.616 154.08C195.154 153.104 195.582 152.07 195.89 150.998C195.89 150.998 195.12 147.672 191.851 149.371Z" fill="#263238" stroke="#263238" stroke-linecap="round" stroke-linejoin="round"/>
<path d="M207.684 176.256C207.684 176.256 219.161 181.57 221.177 182.203C223.193 182.837 228.19 186.775 228.507 190.598C228.823 194.422 227.657 196.445 226.807 197.078C225.958 197.712 220.011 200.477 220.011 200.477L217.354 203.458C218.598 207.789 220.089 212.047 221.818 216.209C224.575 222.79 225.85 228.449 226.066 231.185C226.282 233.921 226.275 237.031 226.275 237.031C226.275 237.031 215.23 237.665 201.075 237.456C186.919 237.247 182.355 236.815 182.355 236.815C182.355 236.815 181.714 228.852 183.73 222.473C185.746 216.094 189.49 212.911 189.792 211.212C190.095 209.513 190.512 204.307 190.217 203.458C189.939 202.85 189.54 202.306 189.043 201.859L178.74 197.928C178.74 197.928 176.083 195.048 179.273 189.958C182.463 184.867 183.946 185.177 188.302 182.945C192.658 180.713 197.971 176.357 198.821 175.932C199.671 175.507 201.73 172.958 207.684 176.256Z" fill="#FDE23C" stroke="#263238" stroke-linecap="round" stroke-linejoin="round"/>
<path d="M189.086 189.641C189.086 189.641 187.495 193.68 187.495 196.654C187.495 199.627 189.936 202.5 189.936 202.5" stroke="#263238" stroke-linecap="round" stroke-linejoin="round"/>
<path d="M218.203 188.899C218.412 189.324 220.436 194.314 220.011 196.654C219.794 198.207 219.438 199.737 218.945 201.226" stroke="#263238" stroke-linecap="round" stroke-linejoin="round"/>
<path d="M206.302 175.082C206.302 175.082 208.462 175.615 209.066 176.573C209.671 177.53 209.167 187.2 209.167 187.2L200.455 182.736L194.191 188.158C194.191 188.158 194.191 181.145 195.358 178.164C196.524 175.183 199.93 174.233 199.93 174.233L206.302 175.082Z" fill="white" stroke="#263238" stroke-linecap="round" stroke-linejoin="round"/>
<path d="M198.439 170.64C198.439 170.64 198.864 173.93 198.331 175.738C197.798 177.545 197.482 176.904 197.482 178.618C197.482 180.331 199.505 186.48 201.413 188.82C203.321 191.16 205.56 180.958 206.194 178.092C206.827 175.226 206.914 166.824 206.914 166.824C206.914 166.824 203.724 168.631 202.874 169.056C202.025 169.481 198.439 170.64 198.439 170.64Z" fill="white" stroke="#263238" stroke-linecap="round" stroke-linejoin="round"/>
<path d="M193.55 152.345C193.55 152.345 196.099 154.469 199.08 156.492C201.312 157.954 203.617 159.302 205.985 160.531C205.985 160.531 206.705 167.119 206.085 168.07C205.466 169.02 197.697 173.491 196.099 172.39C194.501 171.288 193.766 169.632 192.384 163.469C191.581 159.731 191.99 155.835 193.55 152.345Z" fill="white" stroke="#263238" stroke-linecap="round" stroke-linejoin="round"/>
<path d="M197.906 161.014C197.906 161.662 198.187 162.18 198.54 162.18C198.893 162.18 199.166 161.662 199.166 161.014C199.166 160.366 198.886 159.847 198.54 159.847C198.194 159.847 197.906 160.373 197.906 161.014Z" fill="#263238"/>
<path d="M193.781 161.014C193.781 161.662 194.062 162.18 194.407 162.18C194.753 162.18 195.041 161.662 195.041 161.014C195.041 160.366 194.76 159.84 194.4 159.84C194.04 159.84 193.781 160.373 193.781 161.014Z" fill="#263238"/>
<path d="M195.573 160.207C195.581 161.202 195.367 162.186 194.947 163.087C194.321 164.074 193.781 164.434 194.681 164.974C195.016 165.154 195.408 165.199 195.775 165.098C196.142 164.998 196.457 164.76 196.653 164.434" stroke="#263238" stroke-linecap="round" stroke-linejoin="round"/>
<path d="M196.207 166.846C196.791 167.065 197.427 167.106 198.033 166.962C198.64 166.819 199.19 166.497 199.613 166.039" stroke="#263238" stroke-linecap="round" stroke-linejoin="round"/>
<path d="M200.239 159.12C200.152 158.924 200.027 158.747 199.87 158.599C199.714 158.452 199.53 158.337 199.329 158.261C199.128 158.185 198.914 158.15 198.7 158.158C198.485 158.166 198.274 158.216 198.079 158.306" stroke="#263238" stroke-linecap="round" stroke-linejoin="round"/>
<path d="M195.487 158.774C195.371 158.611 195.215 158.48 195.032 158.396C194.85 158.312 194.649 158.278 194.449 158.296C194.249 158.314 194.058 158.385 193.894 158.5C193.73 158.616 193.599 158.772 193.515 158.954" stroke="#263238" stroke-linecap="round" stroke-linejoin="round"/>
<path d="M191.959 150.862C191.959 150.862 190.152 149.371 192.067 146.93C193.983 144.49 205.985 143.741 210.233 146.21C214.481 148.68 217.671 158.112 217.563 166.824C217.455 175.536 215.23 175.464 212.89 176.069C210.55 176.674 204.603 175.86 204.603 175.86C205.502 173.367 206.003 170.747 206.086 168.098C206.086 168.098 205.366 160.898 204.811 160.236C204.257 159.574 194.191 153.41 191.959 150.862Z" fill="#263238" stroke="#263238" stroke-linecap="round" stroke-linejoin="round"/>
<path d="M190.685 181.57L220.435 217.058L219.262 220.457L188.345 182.945L190.685 181.57Z" fill="#263238" stroke="#263238" stroke-linecap="round" stroke-linejoin="round"/>
<path d="M179.755 204.898L199.634 199.973C201.202 199.03 202.706 197.984 204.134 196.841C206.006 195.271 205.891 197.402 207.014 198.626C208.138 199.85 209.894 201.089 209.318 201.65C208.742 202.212 207.562 202.435 207.346 202.766C206.251 203.792 204.87 204.458 203.386 204.674C201.082 205.121 199.987 203.998 199.987 203.998C199.987 203.998 180.878 214.178 178.79 214.294C176.702 214.409 175.608 211.831 175.91 209.254C176.213 206.676 177.228 205.783 177.228 205.783" fill="white"/>
<path d="M179.755 204.898L199.634 199.973C201.202 199.03 202.706 197.984 204.134 196.841C206.006 195.271 205.891 197.402 207.014 198.626C208.138 199.85 209.894 201.089 209.318 201.65C208.742 202.212 207.562 202.435 207.346 202.766C206.251 203.792 204.87 204.458 203.386 204.674C201.082 205.121 199.987 203.998 199.987 203.998C199.987 203.998 180.878 214.178 178.79 214.294C176.702 214.409 175.608 211.831 175.91 209.254C176.213 206.676 177.228 205.783 177.228 205.783" stroke="#263238" stroke-linecap="round" stroke-linejoin="round"/>
<path d="M211.615 204.732C211.615 204.732 206.943 208.663 207.151 209.297C207.205 209.559 207.335 209.8 207.524 209.99C207.714 210.179 207.954 210.309 208.217 210.362L209.275 210.571C209.275 210.571 211.083 213.653 212.04 213.761C212.998 213.869 216.929 212.378 216.929 212.378C216.929 212.378 225.749 212.594 227.729 212.17C229.709 211.745 231.552 209.722 231.552 207.914C231.552 206.107 228.672 203.882 226.239 204.624C223.805 205.366 215.935 207.914 215.086 207.914C214.236 207.914 213.423 203.882 211.615 204.732Z" fill="white" stroke="#263238" stroke-linecap="round" stroke-linejoin="round"/>
<path d="M218.095 214.402L227.124 214.718C227.124 214.718 233.395 235.649 233.712 236.498C234.029 237.348 232.121 239.378 230.112 240.098C228.103 240.818 222.25 241.481 221.4 240.307C220.55 239.134 220.118 236.275 220.118 235.21C220.118 234.144 218.095 214.402 218.095 214.402Z" fill="#263238" stroke="#263238" stroke-linecap="round" stroke-linejoin="round"/>
<path d="M252.166 296.302C250.028 297.335 247.807 298.188 245.527 298.85C241.978 299.851 240.43 301.32 242.129 301.939C243.828 302.558 254.369 302.4 255.946 302.328C257.523 302.256 258.343 302.018 258.343 301.169C258.37 300.511 258.264 299.855 258.034 299.239C257.883 299.001 252.166 296.302 252.166 296.302Z" fill="white" stroke="#263238" stroke-linecap="round" stroke-linejoin="round"/>
<path d="M257.105 230.443C257.105 230.443 255.485 243.029 257.414 254.765C259.344 266.501 260.042 275.148 258.962 281.707C257.882 288.266 257.414 293.681 257.522 295.07C257.63 296.46 257.983 298.93 257.983 298.93C257.438 299.149 256.853 299.248 256.267 299.221C255.68 299.193 255.107 299.04 254.585 298.771C252.893 297.85 251.503 297.151 251.503 297.151C251.503 297.151 252.943 289.274 252.115 284.335C251.287 279.396 250.416 276.768 250.034 271.375C249.653 265.982 247.874 255.78 247.565 247.205C247.255 238.63 246.175 232.769 246.787 228.211C247.399 223.654 257.414 227.743 257.105 230.443Z" fill="#FDE23C" stroke="#263238" stroke-linecap="round" stroke-linejoin="round"/>
<path d="M244.519 296.302C242.382 297.337 240.161 298.189 237.881 298.85C234.331 299.851 232.79 301.32 234.482 301.939C236.174 302.558 246.758 302.4 248.306 302.328C249.854 302.256 250.697 302.018 250.697 301.169C250.727 300.511 250.621 299.854 250.387 299.239C250.236 299.001 244.519 296.302 244.519 296.302Z" fill="white" stroke="#263238" stroke-linecap="round" stroke-linejoin="round"/>
<path d="M235.872 223.92C235.069 231.406 234.829 238.941 235.152 246.463C235.692 259.128 239.861 275.983 241.949 281.441C244.037 286.898 244.26 295.488 244.26 295.956C244.26 296.424 242.95 295.956 245.34 298.037C246.91 299.341 248.761 300.265 250.747 300.737C250.747 300.737 250.128 291.78 250.826 286.07C251.509 280.409 251.664 274.696 251.287 269.006C250.898 264.067 251.057 253.886 251.208 248.393C251.447 243.907 252.147 239.458 253.296 235.116C253.526 234.648 257.695 233.338 258.393 230.407C258.86 227.961 259.118 225.481 259.164 222.991L235.872 223.92Z" fill="#FDE23C" stroke="#263238" stroke-linecap="round" stroke-linejoin="round"/>
<path d="M246.528 171.072C246.528 171.072 243.288 186.055 242.208 191.765C241.128 197.474 236.16 207.36 235.8 214.466C235.44 221.573 234.95 225.662 234.95 225.662C234.95 225.662 237.73 226.742 244.447 226.584C251.165 226.426 261.122 225.504 261.122 225.504C261.122 225.504 261.511 221.724 262.123 214.157C262.735 206.59 264.521 197.402 264.442 188.755C264.362 180.108 264.521 180.569 262.354 175.075C261.214 172.081 259.819 169.191 258.185 166.435C258.185 166.435 250.56 164.592 246.528 171.072Z" fill="white" stroke="#263238" stroke-linecap="round" stroke-linejoin="round"/>
<path d="M246.996 170.64C246.996 170.64 243.828 174.118 243.519 176.4C243.209 178.682 243.749 180.187 244.289 179.179C244.829 178.171 247.169 174.319 248.998 173.93C250.827 173.542 252.706 174.859 253.635 176.479C254.563 178.099 253.714 180.799 252.396 190.066C251.079 199.332 251.007 203.89 249.516 205.819C248.026 207.749 246.816 207.518 245.506 206.741C244.195 205.963 243.497 206.28 244.066 207.828C244.635 209.376 247.543 212.069 251.943 213.768C256.342 215.467 260.201 216.706 264.759 213.998C269.316 211.291 272.477 204.811 270.706 196.243C268.935 187.675 265.759 180.878 263.679 175.939C262.386 172.903 260.835 169.983 259.042 167.213L258.43 167.141C258.43 167.141 260.201 171.072 261.31 174.01C262.419 176.947 260.698 177.718 258.379 177.718C256.061 177.718 253.98 172.159 252.202 170.842C250.423 169.524 248.227 169.2 246.996 170.64Z" fill="#263238" stroke="#263238" stroke-linecap="round" stroke-linejoin="round"/>
<path d="M241.978 144C241.978 144 239.659 150.408 240.12 151.488C240.581 152.568 241.128 152.41 240.739 153.648C240.351 154.886 238.421 154.728 238.889 155.966C239.077 156.603 239.453 157.168 239.969 157.586C239.969 157.586 239.659 161.294 241.049 163.346C242.439 165.398 242.669 166.226 244.368 165.586C245.499 165.154 246.584 164.611 247.608 163.966C247.608 163.966 248.076 168.214 248.386 168.214C248.695 168.214 256.493 165.125 256.493 165.125C256.493 165.125 256.104 159.797 256.414 158.717C256.723 157.637 259.503 156.478 260.194 152.618C260.885 148.759 253.095 140.414 248.227 140.112C246.903 139.982 245.573 140.293 244.443 140.996C243.313 141.699 242.447 142.755 241.978 144Z" fill="white" stroke="#263238" stroke-linecap="round" stroke-linejoin="round"/>
<path d="M244.8 134.093C244.8 134.093 239.94 135.022 239.242 138.341C238.544 141.66 241.791 145.058 243.101 145.598C243.717 145.807 244.292 146.121 244.8 146.527C244.8 146.527 242.41 148.838 243.951 150.127C245.492 151.416 247.039 151.517 247.198 152.057C247.356 152.597 247.918 153.756 248.508 153.986C249.099 154.217 248.897 157.766 250.207 158.846C251.518 159.926 252.835 160.085 255.456 159.466C258.077 158.846 263.873 154.908 264.492 149.89C265.111 144.871 262.095 137.614 256.464 135.223C250.834 132.833 244.8 134.093 244.8 134.093Z" fill="#263238" stroke="#263238" stroke-linecap="round" stroke-linejoin="round"/>
<path d="M245.606 152.856C245.606 152.856 245.988 150.077 246.996 151.157C247.69 151.82 248.198 152.654 248.468 153.575C248.739 154.496 248.762 155.472 248.537 156.406C247.997 159.034 247.097 157.716 246.686 156.794" fill="white"/>
<path d="M245.606 152.856C245.606 152.856 245.988 150.077 246.996 151.157C247.69 151.82 248.198 152.654 248.468 153.575C248.739 154.496 248.762 155.472 248.537 156.406C247.997 159.034 247.097 157.716 246.686 156.794" stroke="#263238" stroke-linecap="round" stroke-linejoin="round"/>
<path d="M244.908 169.07C244.908 169.07 244.757 172.62 244.987 172.62C245.218 172.62 251.705 169.452 254.254 168.53C255.841 167.964 257.508 167.651 259.193 167.602L257.803 163.894C255.74 163.903 253.696 164.296 251.777 165.053C249.367 166.175 247.068 167.52 244.908 169.07Z" fill="white" stroke="#263238" stroke-linecap="round" stroke-linejoin="round"/>
<path d="M241.74 197.402C239.891 199.764 238.361 202.359 237.19 205.121C235.102 209.909 228.233 218.016 227.153 219.254C226.073 220.493 222.754 223.884 222.516 224.813C222.278 225.742 221.666 227.974 222.286 228.672C222.953 229.24 223.749 229.638 224.604 229.831C224.914 229.903 225.324 229.752 225.065 229.291L224.604 228.362C225.106 227.572 225.73 226.867 226.454 226.274C227.605 225.335 228.531 224.149 229.162 222.804C229.543 221.796 229.932 220.716 229.932 220.716C229.932 220.716 243.13 210.528 245.218 208.368C247.306 206.208 248.998 203.962 249.307 202.882C249.553 201.169 249.683 199.442 249.696 197.712L241.74 197.402Z" fill="white" stroke="#263238" stroke-linecap="round" stroke-linejoin="round"/>
<path d="M253.245 191.52C253.245 191.52 256.125 181.44 254.174 176.465C252.223 171.49 249.537 171.36 246.528 173.52C243.518 175.68 242.928 183.787 242.359 185.76C241.79 187.733 239.479 197.28 239.479 197.28C239.479 197.28 243.266 199.058 245.426 199.829C247.586 200.599 251.453 201.758 251.453 201.758L253.245 191.52Z" fill="white" stroke="#263238" stroke-linecap="round" stroke-linejoin="round"/>
<path d="M165.845 242.748C165.845 242.748 163.685 258.862 165.204 265.853C166.723 272.844 168.552 288.346 167.94 292.298C167.328 296.251 166.723 299.29 166.723 299.29C164.611 299.619 162.481 299.823 160.344 299.902C157.91 299.902 160.034 277.711 158.825 262.814C157.615 247.918 164.045 239.71 165.845 242.748Z" fill="#263238" stroke="#263238" stroke-linecap="round" stroke-linejoin="round"/>
<path d="M157.997 296.237C156.641 296.854 155.252 297.395 153.835 297.857C150.833 298.894 146.794 300.514 147.024 301.55C147.254 302.587 165.161 302.472 166.082 302.27C167.004 302.069 167.126 297.302 167.126 297.302L157.997 296.237Z" fill="white" stroke="#263238" stroke-linecap="round" stroke-linejoin="round"/>
<path d="M153.137 296.237C151.78 296.852 150.391 297.393 148.975 297.857C145.973 298.894 141.926 300.514 142.157 301.55C142.387 302.587 160.294 302.472 161.222 302.27C162.151 302.069 162.259 297.302 162.259 297.302L153.137 296.237Z" fill="white" stroke="#263238" stroke-linecap="round" stroke-linejoin="round"/>
<path d="M143.431 222.761C143.431 222.761 142.157 243.554 143.431 255.341C144.706 267.127 152.554 290.923 152.899 292.061C153.109 292.813 153.148 293.603 153.015 294.372C152.753 294.911 152.634 295.509 152.669 296.107C152.784 296.914 156.37 298.073 158.098 298.534C159.351 298.836 160.627 299.028 161.914 299.11C163.102 296.503 163.919 293.742 164.34 290.909C165.262 285.595 164.225 274.968 163.764 269.309C163.303 263.65 165.845 242.741 165.845 242.741C168.248 241.044 169.967 238.544 170.691 235.692C172.08 230.724 171.619 222.984 171.619 222.984C171.619 222.984 158.796 224.374 151.632 222.754C144.468 221.134 142.992 220.903 142.992 220.903L143.431 222.761Z" fill="#263238" stroke="#263238" stroke-linecap="round" stroke-linejoin="round"/>
<path d="M163.383 295.92C163.383 295.92 165.543 284.364 163.987 276.768C162.432 269.172 162.771 256.097 163.987 250.315" stroke="white" stroke-linecap="round" stroke-linejoin="round"/>
<path d="M156.24 232.812C155.293 240.32 154.982 247.895 155.311 255.456C155.779 269.086 158.666 280.411 158.782 286.416C158.897 292.421 158.551 297.043 158.551 297.043" stroke="white" stroke-linecap="round" stroke-linejoin="round"/>
<path d="M149.206 231.89C149.206 231.89 149.436 237.319 150.243 239.515C151.049 241.711 154.519 242.978 154.519 242.978" stroke="white" stroke-linecap="round" stroke-linejoin="round"/>
<path d="M142.733 223.682C142.733 223.682 142.157 227.282 142.618 228.19C143.079 229.097 150.473 232.466 159.027 231.538C167.58 230.609 171.267 230.501 171.85 228.42C172.235 226.597 172.428 224.739 172.426 222.876C172.426 222.876 161.799 225.756 152.554 224.611C143.309 223.466 142.733 223.682 142.733 223.682Z" fill="#FDE23C" stroke="#263238" stroke-linecap="round" stroke-linejoin="round"/>
<path d="M153.943 183.254C153.943 183.254 150.242 191.894 148.63 196.308C147.017 200.722 143.201 212.709 141.696 216.173C140.191 219.636 140.774 223.337 143.086 224.813C145.397 226.289 155.794 227.52 164.57 226.8C173.347 226.08 174.276 223.92 174.506 221.832C174.737 219.744 173.117 203.573 169.308 192.139C165.499 180.706 164.801 178.164 163.181 178.164C161.561 178.164 153.943 183.254 153.943 183.254Z" fill="#FDE23C" stroke="#263238" stroke-linecap="round" stroke-linejoin="round"/>
<path d="M146.203 153.792C146.203 153.792 144.468 158.645 144.468 159.451C144.468 160.258 145.512 162.108 145.512 162.108C145.512 162.108 142.272 166.27 142.848 167.191C143.424 168.113 145.973 169.042 145.973 169.042C145.973 169.042 147.01 175.162 148.399 175.745C149.789 176.328 154.289 173.664 154.289 173.664L155.326 180.144L162.374 176.911V170.64C164.917 169.062 166.835 166.653 167.803 163.822C169.423 159.084 168.523 157.118 168.523 157.118L146.203 153.792Z" fill="white" stroke="#263238" stroke-linecap="round" stroke-linejoin="round"/>
<path d="M167.803 163.843C169.423 159.106 168.523 157.14 168.523 157.14L154.915 155.095L154.656 155.873C154.656 155.873 152.921 157.954 153.504 158.645C154.27 159.301 155.126 159.844 156.046 160.258C156.046 160.258 155.578 162.922 155.931 163.138C156.283 163.354 157.083 164.52 157.313 163.598C157.446 162.439 157.76 161.307 158.242 160.243C159.048 158.515 162.396 158.746 162.511 161.402C162.537 162.342 162.353 163.274 161.973 164.134C161.593 164.993 161.027 165.757 160.315 166.37L159.855 166.601C159.855 166.601 160.431 170.201 162.396 170.647C164.928 169.069 166.838 166.666 167.803 163.843Z" fill="#263238" stroke="#263238" stroke-linecap="round" stroke-linejoin="round"/>
<path d="M146.779 159.566C146.779 159.566 148.515 158.184 150.127 160.61" stroke="#263238" stroke-linecap="round" stroke-linejoin="round"/>
<path d="M148.435 163.613C148.785 163.613 149.069 163.042 149.069 162.338C149.069 161.635 148.785 161.064 148.435 161.064C148.085 161.064 147.802 161.635 147.802 162.338C147.802 163.042 148.085 163.613 148.435 163.613Z" fill="#263238"/>
<path d="M148.399 169.272C148.399 169.272 150.473 170.078 151.863 167.652" stroke="#263238" stroke-linecap="round" stroke-linejoin="round"/>
<path d="M146.434 152.87C146.434 152.87 148.975 146.974 150.242 145.008C150.667 144.337 151.271 143.798 151.986 143.452C152.701 143.106 153.499 142.967 154.289 143.05C155.326 143.05 166.882 145.822 167.918 147.787C168.955 149.753 168.962 159.12 168.962 159.12L146.434 152.87Z" fill="white" stroke="#263238" stroke-linecap="round" stroke-linejoin="round"/>
<path d="M146.434 152.87L168.962 159.12C168.962 159.12 168.962 156.65 168.818 153.986L148.32 148.723C147.319 150.811 146.434 152.87 146.434 152.87Z" fill="#263238" stroke="#263238" stroke-linecap="round" stroke-linejoin="round"/>
<path d="M139.846 153.216L172.887 161.647C171.988 159.898 170.682 158.392 169.078 157.255C166.198 155.095 151.978 151.135 147.355 151.02C144.68 150.914 142.043 151.685 139.846 153.216Z" fill="white" stroke="#263238" stroke-linecap="round" stroke-linejoin="round"/>
<path d="M141.351 202.543H134.878V212.364H141.351V202.543Z" fill="white" stroke="#263238" stroke-linecap="round" stroke-linejoin="round"/>
<path d="M135 204.854H133.035V209.592H135V204.854Z" fill="#263238" stroke="#263238" stroke-linecap="round" stroke-linejoin="round"/>
<path d="M162.605 178.862L137.887 202.658" stroke="#263238" stroke-width="2" stroke-linecap="round" stroke-linejoin="round"/>
<path d="M156.6 209.016C156.6 209.016 146.319 206.935 145.627 206.474C144.936 206.014 142.848 203.119 141.811 202.774C140.775 202.428 138.211 202.658 137.887 202.658C137.563 202.658 137.074 203.818 138.003 204.048C138.931 204.278 140.076 204.394 140.544 204.854C141.028 205.488 141.31 206.254 141.351 207.05C141.351 207.626 139.5 209.016 138.471 209.362C137.441 209.707 135 209.822 134.871 210.398C134.826 210.692 134.871 210.993 134.999 211.262C135.127 211.53 135.334 211.753 135.591 211.903C136.598 212.513 137.687 212.978 138.823 213.286C140.091 213.516 145.059 212.134 145.059 212.134C145.059 212.134 154.879 216.756 157.536 217.793C160.193 218.83 163.548 220.104 165.507 217.908C167.465 215.712 165.391 208.786 165.391 208.786L156.6 209.016Z" fill="white" stroke="#263238" stroke-linecap="round" stroke-linejoin="round"/>
<path d="M158.566 185.796C158.566 185.796 156.139 188.798 156.139 192.146V209.246L168.617 211.442C168.617 211.442 168.847 197.575 168.732 194.112C168.617 190.649 167.458 188.453 166.882 187.985" fill="#FDE23C"/>
<path d="M158.566 185.796C158.566 185.796 156.139 188.798 156.139 192.146V209.246L168.617 211.442C168.617 211.442 168.847 197.575 168.732 194.112C168.617 190.649 167.458 188.453 166.882 187.985" stroke="#263238" stroke-linecap="round" stroke-linejoin="round"/>
<path d="M152.899 179.899L152.554 185.213L165.845 178.517L164.455 174.24L152.899 179.899Z" fill="#FDE23C" stroke="#263238" stroke-linecap="round" stroke-linejoin="round"/>
<path d="M78.0263 139.932C78.0263 139.932 71.7407 141.372 68.6663 147.024C65.5919 152.676 66.7439 156.658 68.7671 158.681C70.539 160.479 72.9327 161.531 75.4559 161.618C77.4863 161.618 79.1063 151.891 81.3383 150.977C83.5703 150.062 85.8959 152.705 88.5383 153.007C91.1807 153.31 94.1111 152.604 93.1031 147.967C92.0951 143.33 83.0951 138.002 78.0263 139.932Z" fill="#263238" stroke="#263238" stroke-linecap="round" stroke-linejoin="round"/>
<path d="M71.1359 243.41C71.1359 243.41 71.3375 251.726 71.0351 254.865C70.7327 258.005 69.5159 262.973 69.5159 268.546C69.5159 274.118 68.9039 294.394 68.9039 294.394C67.7357 295.819 66.4831 297.172 65.1527 298.447C63.8351 299.563 60.2927 299.966 60.2927 301.082C60.2927 302.198 61.7327 302.4 61.7327 302.4H73.3679C73.3679 302.4 74.1743 301.997 74.1743 299.966C74.1743 297.936 73.8719 295.913 73.8719 294.926C73.8719 293.94 78.0263 268.286 78.2279 264.017C78.4295 259.747 81.4751 244.253 81.4751 244.253L71.1359 243.41Z" fill="white" stroke="#263238" stroke-linecap="round" stroke-linejoin="round"/>
<path d="M65.1527 298.447C63.8351 299.563 60.2927 299.966 60.2927 301.082C60.2927 302.198 61.7327 302.4 61.7327 302.4H73.3679C73.3679 302.4 74.1743 301.997 74.1743 299.966C74.1743 299.001 74.1095 298.044 74.0375 297.194L71.2367 297.129C71.0832 296.383 70.8415 295.658 70.5167 294.969C70.1135 294.249 68.8967 294.365 68.8967 294.365C67.7317 295.799 66.4815 297.163 65.1527 298.447Z" fill="white" stroke="#263238" stroke-linecap="round" stroke-linejoin="round"/>
<path d="M74.0518 301.183H60.307C60.3934 302.206 61.711 302.4 61.711 302.4H73.3678C73.3678 302.4 73.8286 302.17 74.0518 301.183Z" fill="#FDE23C" stroke="#263238" stroke-linecap="round" stroke-linejoin="round"/>
<path d="M99.6192 243.41C99.6192 243.41 99.4104 251.726 99.72 254.865C100.03 258.005 101.239 262.973 101.239 268.546C101.239 274.118 101.844 294.394 101.844 294.394C103.012 295.819 104.265 297.172 105.595 298.447C106.913 299.563 110.462 299.966 110.462 301.082C110.462 302.198 109.022 302.4 109.022 302.4H97.3872C97.3872 302.4 96.5736 301.997 96.5736 299.966C96.5736 297.936 96.876 295.913 96.876 294.926C96.876 293.94 92.7216 268.286 92.52 264.017C92.3184 259.747 89.28 244.224 89.28 244.224L99.6192 243.41Z" fill="white" stroke="#263238" stroke-linecap="round" stroke-linejoin="round"/>
<path d="M105.595 298.447C106.912 299.563 110.462 299.966 110.462 301.082C110.462 302.198 109.022 302.4 109.022 302.4H97.3868C97.3868 302.4 96.5732 301.997 96.5732 299.966C96.5732 299.001 96.6452 298.044 96.7172 297.194L99.5108 297.129C99.6681 296.384 99.9096 295.66 100.231 294.969C100.634 294.249 101.851 294.365 101.851 294.365C103.016 295.799 104.266 297.163 105.595 298.447Z" fill="white" stroke="#263238" stroke-linecap="round" stroke-linejoin="round"/>
<path d="M96.6957 301.183H110.44C110.354 302.206 109.044 302.4 109.044 302.4H97.3869C97.3869 302.4 96.9261 302.17 96.6957 301.183Z" fill="#FDE23C" stroke="#263238" stroke-linecap="round" stroke-linejoin="round"/>
<path d="M72.4535 207.936L72.3311 208.541L65.0519 245.441L103.565 245.03L96.0695 208.246L72.4535 207.936Z" fill="#263238" stroke="#263238" stroke-linecap="round" stroke-linejoin="round"/>
<path d="M102.823 241.387L65.8367 241.481L65.0519 245.441L103.572 245.038L102.823 241.387Z" fill="white" stroke="#263238" stroke-linecap="round" stroke-linejoin="round"/>
<path d="M86.1621 240.264L86.2341 227.801L88.3653 227.196" stroke="white" stroke-linecap="round" stroke-linejoin="round"/>
<path d="M87.4508 221.112V210.571H89.078L89.4812 219.902" stroke="white" stroke-linecap="round" stroke-linejoin="round"/>
<path d="M93.2326 176.4C94.0999 176.561 94.9106 176.944 95.5857 177.512C96.2608 178.08 96.7772 178.813 97.0846 179.64C98.0926 182.477 102.355 198.49 102.355 198.49C102.355 198.49 112.586 183.694 113.097 182.376C113.281 181.793 113.627 181.275 114.093 180.88C114.559 180.485 115.128 180.23 115.733 180.144C116.849 180.043 119.383 179.64 119.484 180.655C119.585 181.67 120.391 185.695 118.67 186.53C116.949 187.366 113.097 187.546 113.097 187.546C113.097 187.546 102.557 207.41 101.037 207.706C99.5182 208.001 93.535 195.142 93.535 195.142L91.8142 176.083L93.2326 176.4Z" fill="white" stroke="#263238" stroke-linecap="round" stroke-linejoin="round"/>
<path d="M106.913 98.0712L117.655 196.078" stroke="#263238" stroke-width="2" stroke-linecap="round" stroke-linejoin="round"/>
<path d="M113.098 182.398C113.098 182.398 114.214 180.374 115.02 180.166C115.826 179.957 117.554 180.266 117.554 180.886C117.554 181.505 118.469 184.334 117.655 184.637C116.842 184.939 116.438 182.808 116.438 182.808C116.438 182.808 115.934 184.637 114.415 184.738" fill="white"/>
<path d="M113.098 182.398C113.098 182.398 114.214 180.374 115.02 180.166C115.826 179.957 117.554 180.266 117.554 180.886C117.554 181.505 118.469 184.334 117.655 184.637C116.842 184.939 116.438 182.808 116.438 182.808C116.438 182.808 115.934 184.637 114.415 184.738" stroke="#263238" stroke-linecap="round" stroke-linejoin="round"/>
<path d="M107.215 100.505C107.215 100.505 104.479 106.488 98.8055 108.007C93.1319 109.526 92.7431 107.69 88.5887 110.426C84.4343 113.162 83.9231 116.906 83.9231 116.906L86.4431 134.251C86.4431 134.251 88.3655 125.611 94.9535 125.33C101.541 125.05 104.681 126.137 107.114 124.927C109.548 123.718 109.649 122.998 109.649 122.998L107.215 100.505Z" fill="#FDE23C" stroke="#263238" stroke-linecap="round" stroke-linejoin="round"/>
<path d="M95.5439 199.296L101.174 194.119C99.8351 189.158 97.7543 181.534 97.0847 179.662C96.7773 178.835 96.2609 178.102 95.5858 177.534C94.9107 176.966 94.1 176.583 93.2327 176.422L91.7927 176.112L93.5135 195.17C93.5135 195.17 94.3919 197.014 95.5439 199.296Z" fill="#263238" stroke="#263238" stroke-linecap="round" stroke-linejoin="round"/>
<path d="M78.6384 173.887L68.4001 177.026C68.4001 177.026 65.9665 178.747 66.5785 182.599C67.1905 186.451 71.8417 207.734 72.3384 208.519C72.5502 208.872 72.8455 209.168 73.1982 209.38C73.551 209.592 73.9505 209.714 74.3616 209.736C75.3768 209.938 94.4352 209.225 95.4432 209.225C96.4512 209.225 96.8832 209.124 96.9696 207.302C97.056 205.481 95.5296 195.142 95.5296 195.142C95.5296 195.142 97.6896 194.53 97.3584 190.274C97.0272 186.019 93.9096 177.314 93.204 176.393C92.4984 175.471 86.616 173.959 86.616 173.959L78.6384 173.887Z" fill="#FDE23C" stroke="black" stroke-miterlimit="10"/>
<path d="M78.5374 165.067L78.739 173.477L77.1118 174.794C77.1118 174.794 81.6766 183.312 84.4126 181.994C87.1486 180.677 87.451 174.391 87.451 174.391L85.9318 172.67V166.586L78.5374 165.067Z" fill="white" stroke="#263238" stroke-linecap="round" stroke-linejoin="round"/>
<path d="M70.4232 158.58C70.4232 158.58 65.9664 158.479 64.9512 161.518C63.936 164.556 66.8808 168.106 70.524 168.106C74.1672 168.106 76.8096 164.254 75.1896 161.215C74.7439 160.355 74.0534 159.645 73.2052 159.176C72.357 158.707 71.3891 158.5 70.4232 158.58Z" fill="#263238" stroke="#263238" stroke-linecap="round" stroke-linejoin="round"/>
<path d="M80.2583 144.9C80.2583 144.9 76.3055 149.155 74.4983 151.078C72.6911 153 71.4599 154.224 71.4599 154.224L72.8999 159.264C72.8999 159.264 69.7607 156.83 69.5591 159.163C69.3575 161.496 71.0783 162.706 72.3959 163.217C72.7511 163.371 73.1368 163.441 73.5235 163.424C73.9102 163.407 74.2879 163.301 74.6279 163.116C74.6279 163.116 78.6815 167.371 81.7199 168.79C84.7582 170.208 87.091 169.51 89.4238 166.054C91.7566 162.598 91.0438 158.249 90.331 154.8C89.6182 151.351 89.9278 150.545 87.6959 148.622C85.4639 146.7 80.2583 144.9 80.2583 144.9Z" fill="white" stroke="#263238" stroke-linecap="round" stroke-linejoin="round"/>
<path d="M84.1103 154.526C84.1103 154.526 84.1103 156.96 84.4127 157.162C84.7151 157.363 85.9319 157.162 85.6295 158.076C85.3271 158.99 83.5991 159.192 83.5991 159.192" stroke="#263238" stroke-linecap="round" stroke-linejoin="round"/>
<path d="M80.863 161.114C81.7111 161.605 82.6734 161.863 83.653 161.863C84.6327 161.863 85.595 161.605 86.443 161.114" stroke="#263238" stroke-linecap="round" stroke-linejoin="round"/>
<path d="M76.4064 156.24C76.4064 156.24 77.724 155.124 79.8552 156.65" stroke="#263238" stroke-linecap="round" stroke-linejoin="round"/>
<path d="M85.6294 155.642C85.8177 155.178 86.1687 154.799 86.6166 154.575C87.0645 154.351 87.5788 154.298 88.063 154.425" stroke="#263238" stroke-linecap="round" stroke-linejoin="round"/>
<path d="M75.6932 152.805C75.9669 152.115 76.4673 151.537 77.1123 151.168C77.7573 150.799 78.5086 150.661 79.2428 150.775" stroke="#263238" stroke-linecap="round" stroke-linejoin="round"/>
<path d="M84.3118 150.17C84.3118 150.17 85.6294 148.953 87.3502 151.078" stroke="#263238" stroke-linecap="round" stroke-linejoin="round"/>
<path d="M71.1359 181.483C71.1359 180.979 69.4151 176.623 68.3999 177.026C67.3847 177.43 53.9999 198.72 53.9999 198.72L39.8159 185.947C39.7665 184.617 39.5978 183.294 39.3119 181.994C38.9087 180.554 37.1519 180.554 36.4751 179.258C35.7983 177.962 34.6463 178.243 34.6463 178.949C34.6463 179.654 35.1575 180.065 35.6615 180.677C35.9987 181.093 36.3044 181.533 36.5759 181.994C36.5759 181.994 33.6383 181.382 33.3287 181.382C33.0191 181.382 30.6935 178.546 30.4919 179.762C30.2903 180.979 32.3207 183.413 33.4295 185.033C34.5383 186.653 37.6919 188.172 37.6919 188.172C37.6919 188.172 52.2863 204.998 53.4023 205.61C54.5183 206.222 68.7023 191.419 68.7023 191.419C68.7023 191.419 69.8183 194.868 71.4383 193.579C73.0583 192.29 71.1359 181.483 71.1359 181.483Z" fill="white" stroke="#263238" stroke-linecap="round" stroke-linejoin="round"/>
<path d="M60.5881 199.598C64.5697 195.732 68.7025 191.419 68.7025 191.419C68.7025 191.419 69.8185 194.868 71.4385 193.579C73.0585 192.29 71.1361 181.512 71.1361 181.512C71.1361 181.008 69.4153 176.652 68.4001 177.055C67.6801 177.336 61.0993 187.574 57.0889 193.882C58.2481 195.746 59.6953 198.137 60.5881 199.598Z" fill="#263238" stroke="#263238" stroke-linecap="round" stroke-linejoin="round"/>
</svg>
