<svg width="360" height="360" viewBox="0 0 360 360" fill="none" xmlns="http://www.w3.org/2000/svg">
<path d="M295.531 239.832C300.917 195.876 274.838 137.448 247.795 113.328C198.986 69.768 158.436 78.192 126.9 93.7944C95.364 109.397 90.8496 161.474 69.0768 185.04C47.304 208.606 34.9056 240.3 67.9536 271.858C101.002 303.415 127.649 287.374 162.194 285.379C196.74 283.385 242.539 299.131 267.314 285.43C284.63 275.868 293.155 259.265 295.531 239.832Z" fill="#FDE23C"/>
<path opacity="0.7" d="M295.531 239.832C300.917 195.876 274.838 137.448 247.795 113.328C198.986 69.768 158.436 78.192 126.9 93.7944C95.364 109.397 90.8496 161.474 69.0768 185.04C47.304 208.606 34.9056 240.3 67.9536 271.858C101.002 303.415 127.649 287.374 162.194 285.379C196.74 283.385 242.539 299.131 267.314 285.43C284.63 275.868 293.155 259.265 295.531 239.832Z" fill="white"/>
<path d="M158.839 238.284V76.3273" stroke="#263238" stroke-linecap="round" stroke-linejoin="round"/>
<path d="M53.5607 239.89H155.721L310.932 289.987" stroke="#263238" stroke-linecap="round" stroke-linejoin="round"/>
<path d="M100.08 236.088H93.0239V119.405H107.59L101.304 96.7177H82.4399L76.1543 119.405H90.7199V236.088H83.6423C81.8326 236.09 80.0957 236.801 78.8047 238.069C77.5136 239.337 76.7714 241.061 76.7375 242.87C76.7375 242.87 76.7375 242.906 76.7375 242.921C76.7375 242.921 76.7375 242.964 76.7375 242.978C76.9463 244.606 83.6279 245.916 91.8575 245.916C100.087 245.916 106.769 244.606 106.978 242.978C106.972 241.151 106.243 239.401 104.951 238.11C103.658 236.819 101.907 236.092 100.08 236.088Z" fill="#263238"/>
<path d="M194.104 68.2992V205.69L297.547 222.71V51.2784L194.104 68.2992ZM294.861 107.64L242.301 110.621V62.8848L294.861 54.5184V107.64ZM242.301 115.639L294.861 113.227V161.222L242.301 158.767V115.639ZM238.039 158.566L195.84 156.6V117.77L238.003 115.841L238.039 158.566ZM238.039 63.5616V110.88L195.84 113.249V70.272L238.039 63.5616ZM195.84 161.122L238.003 163.548V210.427L195.84 203.717V161.122ZM242.265 211.104V163.793L294.825 166.817V219.47L242.265 211.104Z" fill="#263238" stroke="#263238" stroke-linecap="round" stroke-linejoin="round"/>
<path d="M158.429 306.684C204.138 306.684 241.193 295.141 241.193 280.901C241.193 266.661 204.138 255.118 158.429 255.118C112.72 255.118 75.6648 266.661 75.6648 280.901C75.6648 295.141 112.72 306.684 158.429 306.684Z" fill="#FDE23C"/>
<path opacity="0.5" d="M158.429 306.684C204.138 306.684 241.193 295.141 241.193 280.901C241.193 266.661 204.138 255.118 158.429 255.118C112.72 255.118 75.6648 266.661 75.6648 280.901C75.6648 295.141 112.72 306.684 158.429 306.684Z" fill="white"/>
<path d="M151.438 167.213C151.438 167.213 132.682 164.988 120.341 174.614C108 184.241 97.3872 224.467 97.632 243.734C97.8768 263.002 105.041 272.614 123.055 280.505C141.07 288.396 174.629 285.444 193.385 279.518C212.141 273.593 218.311 252.878 218.066 241.762C217.822 230.645 205.481 217.822 201.283 215.122C197.086 212.422 185.242 206.734 179.323 197.842C173.405 188.95 164.758 169.682 151.438 167.213Z" fill="#FDE23C"/>
<path opacity="0.13" d="M196.826 278.186C189.734 277.229 181.325 275.306 174.96 271.44C161.518 263.282 158.162 247.917 153.36 242.157C148.558 236.397 139.918 236.88 136.08 230.637C132.242 224.395 138.478 178.322 127.44 175.442C125.2 174.795 122.881 174.463 120.55 174.456C120.485 174.514 120.406 174.557 120.341 174.614C108 184.241 97.3872 224.467 97.632 243.734C97.8768 263.001 105.041 272.613 123.055 280.505C141.07 288.396 174.629 285.444 193.385 279.518C194.559 279.146 195.708 278.701 196.826 278.186Z" fill="black"/>
<path d="M151.438 167.213C151.438 167.213 132.682 164.988 120.341 174.614C108 184.241 97.3872 224.467 97.632 243.734C97.8768 263.002 105.041 272.614 123.055 280.505C141.07 288.396 174.629 285.444 193.385 279.518C212.141 273.593 218.311 252.878 218.066 241.762C217.822 230.645 205.481 217.822 201.283 215.122C197.086 212.422 185.242 206.734 179.323 197.842C173.405 188.95 164.758 169.682 151.438 167.213Z" stroke="#263238" stroke-linecap="round" stroke-linejoin="round"/>
<path d="M144.05 175.91C144.05 175.91 131.81 178.25 129.65 180.41C127.49 182.57 118.49 216.41 118.49 216.41C120.993 215.801 123.617 215.926 126.05 216.77C129.65 218.21 130.01 221.99 130.37 223.79C130.659 225.94 130.84 228.103 130.91 230.27C130.91 230.27 167.292 227.023 175.032 225.23C182.772 223.438 194.551 222.602 194.551 222.602C194.551 222.602 174.65 177.718 171.59 176.098C168.53 174.478 155.75 174.298 153.95 174.658C152.15 175.018 144.05 175.91 144.05 175.91Z" fill="#263238" stroke="#263238" stroke-linecap="round" stroke-linejoin="round"/>
<path d="M131.99 217.49L135.051 192.47" stroke="white" stroke-linecap="round" stroke-linejoin="round"/>
<path d="M134.33 199.13L138.47 193.73" stroke="white" stroke-linecap="round" stroke-linejoin="round"/>
<path d="M146.75 202.37C146.75 202.37 158.45 198.59 166.19 198.59" stroke="white" stroke-linecap="round" stroke-linejoin="round"/>
<path d="M157.795 192.053L157.01 198.05C157.01 198.05 158.99 198.05 159.17 198.95C159.183 199.284 159.125 199.617 159.001 199.927C158.877 200.237 158.69 200.517 158.45 200.75C158.45 200.75 164.031 203.81 164.751 207.41" stroke="white" stroke-linecap="round" stroke-linejoin="round"/>
<path d="M150.768 169.2C150.768 169.2 144.05 171.36 143.086 173.038C142.121 174.715 142.848 186.48 142.848 187.92C142.848 189.36 143.69 187.078 144.41 185.4C145.13 183.722 147.65 181.195 148.486 181.44C149.321 181.685 149.81 182.635 149.81 184.198C149.81 185.76 151.726 187.92 153.41 189.115C155.095 190.31 156.65 191.52 156.65 191.52C156.65 191.52 160.128 186.48 160.97 185.155C161.813 183.83 161.69 181.08 161.806 180.115C161.921 179.15 164.088 182.758 164.57 181.8C165.053 180.842 163.49 180 161.806 177.358C160.121 174.715 160.61 171.958 158.09 170.035C155.57 168.113 152.69 168.71 150.768 169.2Z" fill="white"/>
<path d="M143.085 173.03C142.452 174.154 142.553 179.755 142.697 183.83C144.23 181.858 147.391 178.128 149.22 178.834C151.553 179.734 152.445 186.365 152.445 186.365L150.869 169.2H150.768C150.768 169.2 144.05 171.36 143.085 173.03Z" fill="#FDE23C"/>
<path opacity="0.5" d="M143.085 173.03C142.452 174.154 142.553 179.755 142.697 183.83C144.23 181.858 147.391 178.128 149.22 178.834C151.553 179.734 152.445 186.365 152.445 186.365L150.869 169.2H150.768C150.768 169.2 144.05 171.36 143.085 173.03Z" fill="white"/>
<path d="M150.768 169.2C150.768 169.2 144.05 171.36 143.086 173.038C142.121 174.715 142.848 186.48 142.848 187.92C142.848 189.36 143.69 187.078 144.41 185.4C145.13 183.722 147.65 181.195 148.486 181.44C149.321 181.685 149.81 182.635 149.81 184.198C149.81 185.76 151.726 187.92 153.41 189.115C155.095 190.31 156.65 191.52 156.65 191.52C156.65 191.52 160.128 186.48 160.97 185.155C161.813 183.83 161.69 181.08 161.806 180.115C161.921 179.15 164.088 182.758 164.57 181.8C165.053 180.842 163.49 180 161.806 177.358C160.121 174.715 160.61 171.958 158.09 170.035C155.57 168.113 152.69 168.71 150.768 169.2Z" stroke="#263238" stroke-linecap="round" stroke-linejoin="round"/>
<path d="M134.87 217.85C134.87 217.85 130.73 211.91 125.69 211.37C120.65 210.83 114.53 214.97 114.35 216.41C114.17 217.85 112.91 225.59 113.81 226.67C114.71 227.75 118.13 228.65 124.79 226.49C131.45 224.33 134.15 221.63 134.87 217.85Z" fill="white"/>
<path d="M118.03 226.483C118.03 226.483 116.59 222.365 117.31 220.932C118.03 219.499 120.91 217.332 122.688 215.172C124.466 213.012 118.49 216.389 118.202 215.172C117.979 214.193 121.363 212.234 122.695 211.507C118.505 212.313 114.494 215.229 114.35 216.389C114.17 217.829 112.91 225.569 113.81 226.649C114.271 227.203 115.416 227.714 117.324 227.779C117.756 227.037 118.03 226.483 118.03 226.483Z" fill="#FDE23C"/>
<path opacity="0.5" d="M118.03 226.483C118.03 226.483 116.59 222.365 117.31 220.932C118.03 219.499 120.91 217.332 122.688 215.172C124.466 213.012 118.49 216.389 118.202 215.172C117.979 214.193 121.363 212.234 122.695 211.507C118.505 212.313 114.494 215.229 114.35 216.389C114.17 217.829 112.91 225.569 113.81 226.649C114.271 227.203 115.416 227.714 117.324 227.779C117.756 227.037 118.03 226.483 118.03 226.483Z" fill="white"/>
<path d="M134.87 217.85C134.87 217.85 130.73 211.91 125.69 211.37C120.65 210.83 114.53 214.97 114.35 216.41C114.17 217.85 112.91 225.59 113.81 226.67C114.71 227.75 118.13 228.65 124.79 226.49C131.45 224.33 134.15 221.63 134.87 217.85Z" stroke="#263238" stroke-linecap="round" stroke-linejoin="round"/>
<path d="M120.83 219.47C120.83 219.47 114.077 222.149 113.81 227.39C113.659 230.27 118.49 231.53 123.53 231.53C128.57 231.53 135.77 225.23 140.45 222.53C145.13 219.83 155.93 213.53 157.19 212.99C158.45 212.45 162.77 213.89 164.57 214.43C166.286 214.798 168.036 214.979 169.79 214.97C169.79 214.97 172.31 218.93 173.57 218.93C174.83 218.93 170.87 212.99 170.33 211.73C169.79 210.47 160.97 207.59 159.89 207.59C158.81 207.59 133.61 213.89 129.83 215.33C126.05 216.77 120.83 219.47 120.83 219.47Z" fill="white"/>
<path d="M134.95 218.722C145.238 213.574 159.89 207.59 159.89 207.59C158.81 207.59 133.61 213.89 129.83 215.33C126.05 216.77 120.83 219.47 120.83 219.47C120.83 219.47 114.077 222.149 113.81 227.39C113.659 230.27 118.49 231.53 123.53 231.53C128.57 231.53 135.77 225.23 140.45 222.53L143.287 220.889C136.411 221.76 127.217 222.581 134.95 218.722Z" fill="#FDE23C"/>
<path opacity="0.5" d="M134.95 218.722C145.238 213.574 159.89 207.59 159.89 207.59C158.81 207.59 133.61 213.89 129.83 215.33C126.05 216.77 120.83 219.47 120.83 219.47C120.83 219.47 114.077 222.149 113.81 227.39C113.659 230.27 118.49 231.53 123.53 231.53C128.57 231.53 135.77 225.23 140.45 222.53L143.287 220.889C136.411 221.76 127.217 222.581 134.95 218.722Z" fill="white"/>
<path d="M120.83 219.47C120.83 219.47 114.077 222.149 113.81 227.39C113.659 230.27 118.49 231.53 123.53 231.53C128.57 231.53 135.77 225.23 140.45 222.53C145.13 219.83 155.93 213.53 157.19 212.99C158.45 212.45 162.77 213.89 164.57 214.43C166.286 214.798 168.036 214.979 169.79 214.97C169.79 214.97 172.31 218.93 173.57 218.93C174.83 218.93 170.87 212.99 170.33 211.73C169.79 210.47 160.97 207.59 159.89 207.59C158.81 207.59 133.61 213.89 129.83 215.33C126.05 216.77 120.83 219.47 120.83 219.47Z" stroke="#263238" stroke-linecap="round" stroke-linejoin="round"/>
<path d="M173.477 179.438L167.99 210.29L207.59 210.47L213.48 181.21C213.529 180.951 213.521 180.686 213.458 180.431C213.395 180.176 213.277 179.937 213.113 179.732C212.949 179.527 212.742 179.36 212.507 179.242C212.272 179.124 212.015 179.058 211.752 179.05L175.32 177.955C174.886 177.941 174.462 178.083 174.123 178.355C173.785 178.627 173.556 179.012 173.477 179.438Z" fill="white" stroke="#263238" stroke-linecap="round" stroke-linejoin="round"/>
<path d="M167.99 210.29L148.709 223.927L192.809 222.667L207.59 210.47L167.99 210.29Z" fill="white"/>
<path d="M167.99 210.29L148.709 223.927L192.809 222.667L207.59 210.47L167.99 210.29Z" fill="#FDE23C"/>
<path opacity="0.5" d="M167.99 210.29L148.709 223.927L192.809 222.667L207.59 210.47L167.99 210.29Z" fill="white"/>
<path d="M167.99 210.29L148.709 223.927L192.809 222.667L207.59 210.47L167.99 210.29Z" stroke="#263238" stroke-linecap="round" stroke-linejoin="round"/>
<path d="M182.57 223.79C182.57 223.79 198.41 209.93 214.07 205.25C229.73 200.57 232.97 201.29 232.61 208.31C232.25 215.33 224.69 252.05 219.65 261.41C214.61 270.77 208.31 287.87 208.49 291.11C208.67 294.35 214.79 303.89 220.19 307.31C225.59 310.73 225.05 314.87 221.63 315.59C218.21 316.31 214.25 317.57 202.55 310.01C190.85 302.45 185.99 291.65 186.71 288.95C187.43 286.25 194.99 282.65 198.05 277.25C201.11 271.85 206.15 251.69 206.51 242.51C206.803 236.715 208.018 231.003 210.11 225.59C210.11 225.59 190.31 229.19 184.55 232.79L182.57 223.79Z" fill="white"/>
<path d="M182.57 223.79C182.57 223.79 198.41 209.93 214.07 205.25C229.73 200.57 232.97 201.29 232.61 208.31C232.25 215.33 224.69 252.05 219.65 261.41C214.61 270.77 208.31 287.87 208.49 291.11C208.67 294.35 214.79 303.89 220.19 307.31C225.59 310.73 225.05 314.87 221.63 315.59C218.21 316.31 214.25 317.57 202.55 310.01C190.85 302.45 185.99 291.65 186.71 288.95C187.43 286.25 194.99 282.65 198.05 277.25C201.11 271.85 206.15 251.69 206.51 242.51C206.803 236.715 208.018 231.003 210.11 225.59C210.11 225.59 190.31 229.19 184.55 232.79L182.57 223.79Z" fill="#FDE23C"/>
<path opacity="0.5" d="M182.57 223.79C182.57 223.79 198.41 209.93 214.07 205.25C229.73 200.57 232.97 201.29 232.61 208.31C232.25 215.33 224.69 252.05 219.65 261.41C214.61 270.77 208.31 287.87 208.49 291.11C208.67 294.35 214.79 303.89 220.19 307.31C225.59 310.73 225.05 314.87 221.63 315.59C218.21 316.31 214.25 317.57 202.55 310.01C190.85 302.45 185.99 291.65 186.71 288.95C187.43 286.25 194.99 282.65 198.05 277.25C201.11 271.85 206.15 251.69 206.51 242.51C206.803 236.715 208.018 231.003 210.11 225.59C210.11 225.59 190.31 229.19 184.55 232.79L182.57 223.79Z" fill="white"/>
<path d="M182.57 223.79C182.57 223.79 198.41 209.93 214.07 205.25C229.73 200.57 232.97 201.29 232.61 208.31C232.25 215.33 224.69 252.05 219.65 261.41C214.61 270.77 208.31 287.87 208.49 291.11C208.67 294.35 214.79 303.89 220.19 307.31C225.59 310.73 225.05 314.87 221.63 315.59C218.21 316.31 214.25 317.57 202.55 310.01C190.85 302.45 185.99 291.65 186.71 288.95C187.43 286.25 194.99 282.65 198.05 277.25C201.11 271.85 206.15 251.69 206.51 242.51C206.803 236.715 208.018 231.003 210.11 225.59C210.11 225.59 190.31 229.19 184.55 232.79L182.57 223.79Z" stroke="#263238" stroke-linecap="round" stroke-linejoin="round"/>
<path d="M198.05 277.25C197.82 277.653 197.561 278.042 197.287 278.431C201.011 278.782 204.54 280.253 207.41 282.65C208.273 283.4 209.095 284.195 209.873 285.033C212.486 276.907 215.756 269.007 219.65 261.41C224.69 252.05 232.25 215.33 232.61 208.31C232.97 201.29 229.73 200.57 214.07 205.25C198.41 209.93 182.57 223.79 182.57 223.79L184.55 232.79C190.31 229.19 210.11 225.59 210.11 225.59C208.018 231.003 206.803 236.715 206.51 242.51C206.15 251.69 201.11 271.85 198.05 277.25Z" fill="white" stroke="#263238" stroke-linecap="round" stroke-linejoin="round"/>
<path d="M198.05 277.25C197.82 277.653 197.561 278.042 197.287 278.431C201.011 278.782 204.54 280.253 207.41 282.65C208.273 283.4 209.095 284.195 209.873 285.033C213.322 280.397 217.202 265.773 221.58 259.754C232.891 244.209 232.25 215.33 232.61 208.31C232.97 201.29 229.73 200.57 214.07 205.25C198.41 209.93 182.57 223.79 182.57 223.79L184.55 232.79C190.31 229.19 210.11 225.59 210.11 225.59C208.018 231.003 206.803 236.715 206.51 242.51C206.15 251.69 201.11 271.85 198.05 277.25Z" fill="#263238"/>
<path opacity="0.53" d="M198.05 277.25C197.82 277.653 197.561 278.042 197.287 278.431C201.011 278.782 204.54 280.253 207.41 282.65C208.273 283.4 209.095 284.195 209.873 285.033C213.322 280.397 217.202 265.773 221.58 259.754C232.891 244.209 232.25 215.33 232.61 208.31C232.97 201.29 229.73 200.57 214.07 205.25C198.41 209.93 182.57 223.79 182.57 223.79L184.55 232.79C190.31 229.19 210.11 225.59 210.11 225.59C208.018 231.003 206.803 236.715 206.51 242.51C206.15 251.69 201.11 271.85 198.05 277.25Z" fill="white"/>
<path opacity="0.14" d="M225 207.36C224.719 204.804 196.877 216.59 185.134 221.674C183.506 222.97 182.57 223.79 182.57 223.79L184.55 232.79C190.31 229.19 210.11 225.59 210.11 225.59C208.018 231.003 206.803 236.715 206.51 242.51C206.15 251.69 201.11 271.85 198.05 277.25C197.82 277.654 197.561 278.042 197.287 278.431C199.27 278.644 201.21 279.146 203.047 279.922C207.36 270.72 212.004 260.014 214.2 251.64C218.16 236.52 225.36 210.6 225 207.36Z" fill="black"/>
<path d="M210.11 225.59C210.11 225.59 215.51 214.61 220.19 210.11" stroke="#263238" stroke-linecap="round" stroke-linejoin="round"/>
<path d="M198.05 277.25C197.82 277.653 197.561 278.042 197.287 278.431C201.011 278.782 204.54 280.253 207.41 282.65C208.273 283.4 209.095 284.195 209.873 285.033C213.322 280.397 217.202 265.773 221.58 259.754C232.891 244.209 232.25 215.33 232.61 208.31C232.97 201.29 229.73 200.57 214.07 205.25C198.41 209.93 182.57 223.79 182.57 223.79L184.55 232.79C190.31 229.19 210.11 225.59 210.11 225.59C208.018 231.003 206.803 236.715 206.51 242.51C206.15 251.69 201.11 271.85 198.05 277.25Z" stroke="#263238" stroke-linecap="round" stroke-linejoin="round"/>
<path d="M158.839 238.32C164.637 238.055 170.369 236.977 175.867 235.116C184.01 232.15 169.2 226.721 163.526 229.687C161.941 230.456 160.636 231.702 159.796 233.25C158.955 234.799 158.62 236.572 158.839 238.32Z" fill="#263238" stroke="#263238" stroke-linecap="round" stroke-linejoin="round"/>
<path d="M135.41 226.67C135.41 226.67 129.65 229.91 127.67 233.51C125.69 237.11 134.208 243.108 143.208 242.748C152.208 242.388 168.71 232.61 168.71 232.61C168.71 232.61 168.89 248.45 171.95 254.21C175.01 259.97 189.05 274.01 194.63 277.61C200.21 281.21 218.93 294.71 221.81 296.87C224.69 299.03 230.09 302.99 231.35 303.17C232.61 303.35 245.75 287.33 248.81 281.93C251.87 276.53 254.57 265.19 253.49 262.67C252.41 260.15 250.25 262.31 248.09 264.11C245.93 265.91 226.13 279.05 224.33 279.95C223.347 280.455 222.324 280.877 221.27 281.21C221.27 281.21 205.07 265.73 196.43 253.85C187.79 241.97 187.07 226.67 183.83 220.91C180.59 215.15 175.91 212.63 168.89 213.35C161.87 214.07 147.29 217.85 135.41 226.67Z" fill="white"/>
<path d="M211.572 289.44C216.382 292.881 220.565 295.92 221.81 296.856C224.69 299.016 230.09 302.976 231.35 303.156C231.797 303.221 233.741 301.241 236.196 298.425L215.582 285.163L211.572 289.44Z" fill="#FDE23C"/>
<path opacity="0.5" d="M211.572 289.44C216.382 292.881 220.565 295.92 221.81 296.856C224.69 299.016 230.09 302.976 231.35 303.156C231.797 303.221 233.741 301.241 236.196 298.425L215.582 285.163L211.572 289.44Z" fill="white"/>
<path d="M135.41 226.67C135.41 226.67 129.65 229.91 127.67 233.51C125.69 237.11 134.208 243.108 143.208 242.748C152.208 242.388 168.71 232.61 168.71 232.61C168.71 232.61 168.89 248.45 171.95 254.21C175.01 259.97 189.05 274.01 194.63 277.61C200.21 281.21 218.93 294.71 221.81 296.87C224.69 299.03 230.09 302.99 231.35 303.17C232.61 303.35 245.75 287.33 248.81 281.93C251.87 276.53 254.57 265.19 253.49 262.67C252.41 260.15 250.25 262.31 248.09 264.11C245.93 265.91 226.13 279.05 224.33 279.95C223.347 280.455 222.324 280.877 221.27 281.21C221.27 281.21 205.07 265.73 196.43 253.85C187.79 241.97 187.07 226.67 183.83 220.91C180.59 215.15 175.91 212.63 168.89 213.35C161.87 214.07 147.29 217.85 135.41 226.67Z" stroke="#263238" stroke-linecap="round" stroke-linejoin="round"/>
<path d="M220.154 280.13C216.346 276.415 202.068 257.256 196.43 246.24C188.172 230.098 187.279 224.597 184.039 218.837C180.799 213.077 175.91 212.63 168.919 213.35C161.928 214.07 149.335 215.374 133.927 224.114C133.927 224.114 127.447 227.628 125.474 231.228C123.502 234.828 130.709 243.893 143.237 242.748C152.208 241.927 168.739 232.61 168.739 232.61C168.739 232.61 168.919 248.45 171.979 254.21C175.039 259.97 189.079 274.01 194.659 277.61C198.194 279.893 207.014 286.157 213.732 290.981C215.388 284.954 218.362 281.657 220.154 280.13Z" fill="#263238"/>
<path opacity="0.53" d="M220.154 280.13C216.346 276.415 202.068 257.256 196.43 246.24C188.172 230.098 187.279 224.597 184.039 218.837C180.799 213.077 175.91 212.63 168.919 213.35C161.928 214.07 149.335 215.374 133.927 224.114C133.927 224.114 127.447 227.628 125.474 231.228C123.502 234.828 130.709 243.893 143.237 242.748C152.208 241.927 168.739 232.61 168.739 232.61C168.739 232.61 168.919 248.45 171.979 254.21C175.039 259.97 189.079 274.01 194.659 277.61C198.194 279.893 207.014 286.157 213.732 290.981C215.388 284.954 218.362 281.657 220.154 280.13Z" fill="white"/>
<path opacity="0.14" d="M183.96 254.52C178.56 240.84 181.8 213.48 166.68 217.08C155.664 219.701 135.468 229.018 125.323 233.878C126.526 238.01 133.15 243.67 143.208 242.748C152.179 241.927 168.71 232.61 168.71 232.61C168.71 232.61 168.89 248.45 171.95 254.21C175.01 259.97 189.05 274.01 194.63 277.61C198.166 279.893 206.986 286.157 213.703 290.981C214.282 288.873 215.126 286.848 216.216 284.954C202.81 275.04 186.977 262.159 183.96 254.52Z" fill="black"/>
<path d="M168.71 232.61L168.17 223.25" stroke="#263238" stroke-linecap="round" stroke-linejoin="round"/>
<path d="M220.154 280.13C216.346 276.415 202.068 257.256 196.43 246.24C188.172 230.098 187.279 224.597 184.039 218.837C180.799 213.077 175.91 212.63 168.919 213.35C161.928 214.07 149.335 215.374 133.927 224.114C133.927 224.114 127.447 227.628 125.474 231.228C123.502 234.828 130.709 243.893 143.237 242.748C152.208 241.927 168.739 232.61 168.739 232.61C168.739 232.61 168.919 248.45 171.979 254.21C175.039 259.97 189.079 274.01 194.659 277.61C198.194 279.893 207.014 286.157 213.732 290.981C215.388 284.954 218.362 281.657 220.154 280.13Z" stroke="#263238" stroke-linecap="round" stroke-linejoin="round"/>
<path d="M221.81 296.871C224.69 299.031 230.09 302.991 231.35 303.171C232.61 303.351 245.751 287.331 248.811 281.931C251.871 276.531 254.571 265.191 253.491 262.671C252.411 260.151 250.251 262.311 248.091 264.111C245.931 265.911 226.13 279.051 224.33 279.951C223.855 280.188 223.423 280.383 223.042 280.548C222.523 281.535 221.89 283.061 222.322 284.091C223.042 285.711 226.102 287.871 226.102 287.871L220.651 296.035L221.81 296.871Z" fill="#263238" stroke="#263238" stroke-linecap="round" stroke-linejoin="round"/>
<path d="M248.81 281.931C251.87 276.531 254.57 265.191 253.49 262.671C252.864 261.231 251.878 261.324 250.733 262.03C251.489 265.392 250.733 271.879 247.01 278.871C243.691 285.106 233.438 296.15 228.29 301.493C229.228 302.198 230.264 302.764 231.365 303.17C232.61 303.35 245.75 287.331 248.81 281.931Z" fill="white"/>
<path d="M231.53 303.12L231.689 303.041L231.732 303.005C231.819 302.955 231.901 302.897 231.977 302.832L232.063 302.76L232.272 302.587L232.387 302.479L232.668 302.22L232.841 302.054L233.078 301.824L233.28 301.622L233.482 301.421L233.993 300.881L234.079 300.794L234.396 300.449L234.526 300.312C234.9 299.902 235.303 299.455 235.721 298.98V298.944L236.167 298.44L233.021 296.417C231.235 298.361 229.572 300.118 228.247 301.493L228.73 301.81L228.802 301.853L229.248 302.134L229.968 302.544L230.17 302.659L230.371 302.767L230.602 302.882L230.753 302.954C230.825 302.99 230.9 303.022 230.976 303.048L231.084 303.091C231.167 303.126 231.254 303.15 231.343 303.163C231.388 303.175 231.435 303.175 231.48 303.163L231.53 303.12Z" fill="#FDE23C"/>
<path opacity="0.5" d="M231.53 303.12L231.689 303.041L231.732 303.005C231.819 302.955 231.901 302.897 231.977 302.832L232.063 302.76L232.272 302.587L232.387 302.479L232.668 302.22L232.841 302.054L233.078 301.824L233.28 301.622L233.482 301.421L233.993 300.881L234.079 300.794L234.396 300.449L234.526 300.312C234.9 299.902 235.303 299.455 235.721 298.98V298.944L236.167 298.44L233.021 296.417C231.235 298.361 229.572 300.118 228.247 301.493L228.73 301.81L228.802 301.853L229.248 302.134L229.968 302.544L230.17 302.659L230.371 302.767L230.602 302.882L230.753 302.954C230.825 302.99 230.9 303.022 230.976 303.048L231.084 303.091C231.167 303.126 231.254 303.15 231.343 303.163C231.388 303.175 231.435 303.175 231.48 303.163L231.53 303.12Z" fill="white"/>
<path d="M248.81 281.931C251.87 276.531 254.57 265.191 253.49 262.671C252.864 261.231 251.878 261.324 250.733 262.03C251.489 265.392 250.733 271.879 247.01 278.871C243.691 285.106 233.438 296.15 228.29 301.493C229.228 302.198 230.264 302.764 231.365 303.17C232.61 303.35 245.75 287.331 248.81 281.931Z" stroke="#263238" stroke-linecap="round" stroke-linejoin="round"/>
<path d="M220.19 307.31C214.79 303.89 208.67 294.35 208.49 291.11C208.482 290.755 208.511 290.401 208.577 290.052C207.502 290.086 206.464 290.456 205.61 291.11C203.394 289.1 201.049 287.236 198.59 285.53C196.61 284.39 194.391 283.727 192.11 283.594C189.497 285.754 187.07 287.482 186.689 288.95C185.969 291.65 190.829 302.45 202.529 310.01C214.229 317.57 218.189 316.31 221.609 315.59C225.029 314.87 225.59 310.73 220.19 307.31Z" fill="#263238" stroke="#263238" stroke-linecap="round" stroke-linejoin="round"/>
<path d="M220.19 307.31C218.401 306.097 216.787 304.644 215.395 302.99C211.68 301.406 206.719 299.39 202.37 296.683C197.69 293.803 198.77 292.003 196.07 289.303C193.997 287.23 189.922 286.963 188.15 286.949C187.511 287.483 187.016 288.168 186.71 288.943C185.99 291.643 190.85 302.443 202.55 310.003C214.25 317.563 218.21 316.303 221.63 315.583C225.05 314.863 225.59 310.73 220.19 307.31Z" fill="white"/>
<path d="M220.19 307.31C218.401 306.097 216.787 304.644 215.395 302.99C211.68 301.406 206.719 299.39 202.37 296.683C197.69 293.803 198.77 292.003 196.07 289.303C193.997 287.23 189.922 286.963 188.15 286.949C187.511 287.483 187.016 288.168 186.71 288.943C185.99 291.643 190.85 302.443 202.55 310.003C214.25 317.563 218.21 316.303 221.63 315.583C225.05 314.863 225.59 310.73 220.19 307.31Z" fill="#FDE23C"/>
<path opacity="0.5" d="M220.19 307.31C218.401 306.097 216.787 304.644 215.395 302.99C211.68 301.406 206.719 299.39 202.37 296.683C197.69 293.803 198.77 292.003 196.07 289.303C193.997 287.23 189.922 286.963 188.15 286.949C187.511 287.483 187.016 288.168 186.71 288.943C185.99 291.643 190.85 302.443 202.55 310.003C214.25 317.563 218.21 316.303 221.63 315.583C225.05 314.863 225.59 310.73 220.19 307.31Z" fill="white"/>
<path d="M220.19 307.31C218.401 306.097 216.787 304.644 215.395 302.99C211.68 301.406 206.719 299.39 202.37 296.683C197.69 293.803 198.77 292.003 196.07 289.303C193.997 287.23 189.922 286.963 188.15 286.949C187.511 287.483 187.016 288.168 186.71 288.943C185.99 291.643 190.85 302.443 202.55 310.003C214.25 317.563 218.21 316.303 221.63 315.583C225.05 314.863 225.59 310.73 220.19 307.31Z" stroke="#263238" stroke-linecap="round" stroke-linejoin="round"/>
<path d="M221.09 308.57C216.41 305.87 206.87 304.07 200.75 299.931C194.63 295.791 196.25 292.191 191.75 289.311C191.031 288.773 190.17 288.459 189.274 288.408C188.378 288.357 187.486 288.57 186.711 289.023C186.084 291.831 190.958 302.508 202.55 310.01C214.142 317.513 218.21 316.31 221.63 315.59C223.906 315.108 224.892 313.121 223.718 310.838C222.984 309.932 222.094 309.164 221.09 308.57Z" fill="#263238"/>
<path opacity="0.53" d="M221.09 308.57C216.41 305.87 206.87 304.07 200.75 299.931C194.63 295.791 196.25 292.191 191.75 289.311C191.031 288.773 190.17 288.459 189.274 288.408C188.378 288.357 187.486 288.57 186.711 289.023C186.084 291.831 190.958 302.508 202.55 310.01C214.142 317.513 218.21 316.31 221.63 315.59C223.906 315.108 224.892 313.121 223.718 310.838C222.984 309.932 222.094 309.164 221.09 308.57Z" fill="white"/>
<path d="M221.09 308.57C216.41 305.87 206.87 304.07 200.75 299.931C194.63 295.791 196.25 292.191 191.75 289.311C191.031 288.773 190.17 288.459 189.274 288.408C188.378 288.357 187.486 288.57 186.711 289.023C186.084 291.831 190.958 302.508 202.55 310.01C214.142 317.513 218.21 316.31 221.63 315.59C223.906 315.108 224.892 313.121 223.718 310.838C222.984 309.932 222.094 309.164 221.09 308.57V308.57Z" stroke="#263238" stroke-linecap="round" stroke-linejoin="round"/>
<path d="M131.393 274.14C131.393 274.14 134.849 269.942 135.338 273.154C135.828 276.365 135.094 282.283 132.624 284.501C130.154 286.719 128.923 283.27 128.923 283.27L130.406 281.297C130.406 281.297 131.638 283.767 132.624 279.814C133.61 275.861 130.651 276.358 130.651 276.358L131.393 274.14Z" fill="white" stroke="#263238" stroke-linecap="round" stroke-linejoin="round"/>
<path d="M128.75 289.937C126.706 291.449 120.038 291.449 118.001 289.937C113.681 286.733 114.401 271.253 114.401 271.253H132.3C132.3 271.253 133.078 286.733 128.75 289.937Z" fill="white" stroke="#263238" stroke-linecap="round" stroke-linejoin="round"/>
<path d="M116.359 268.214C116.359 266.27 118.166 266.27 118.166 264.319C118.166 262.368 116.359 262.368 116.359 260.424C116.359 258.48 118.166 258.473 118.166 256.522C118.166 254.57 116.359 254.57 116.359 252.619C116.359 250.668 118.166 250.668 118.166 248.717" stroke="#263238" stroke-linecap="round" stroke-linejoin="round"/>
<path d="M122.544 268.214C122.544 266.774 124.351 266.774 124.351 265.255C124.351 263.736 122.544 263.779 122.544 262.296C122.544 260.813 124.351 260.82 124.351 259.337C124.351 257.854 122.544 257.854 122.544 256.37C122.544 254.887 124.351 254.894 124.351 253.411" stroke="#263238" stroke-linecap="round" stroke-linejoin="round"/>
<path d="M129.348 268.214C129.348 266.27 131.148 266.27 131.148 264.319C131.148 262.368 129.348 262.368 129.348 260.424C129.348 258.48 131.148 258.473 131.148 256.522C131.148 254.57 129.348 254.57 129.348 252.619C129.348 250.668 131.148 250.668 131.148 248.717" stroke="#263238" stroke-linecap="round" stroke-linejoin="round"/>
<path d="M132.314 271.253C132.314 271.706 128.311 272.066 123.365 272.066C118.418 272.066 114.415 271.706 114.415 271.253C114.415 270.799 118.418 270.439 123.365 270.439C128.311 270.439 132.314 270.799 132.314 271.253Z" fill="white" stroke="#263238" stroke-linecap="round" stroke-linejoin="round"/>
<path d="M148.838 159.84C148.838 159.84 149.681 168.934 150.034 171.806C150.386 174.679 151.186 182.93 152.014 185.659C152.842 188.388 157.356 193.133 157.774 192.038C158.191 190.944 160.438 183.521 159.545 179.078C158.652 174.636 158.378 170.842 158.933 169.718C159.487 168.595 161.482 167.335 161.482 167.335C159.159 166.145 156.902 164.831 154.721 163.397C151.538 161.28 149.285 158.882 148.838 159.84Z" fill="white"/>
<path d="M160.394 167.825L159.674 166.428C158.35 165.708 156.506 164.642 154.757 163.469C151.553 161.309 149.299 158.882 148.853 159.869C148.853 159.869 149.695 168.962 150.048 171.835C150.401 174.708 151.2 182.959 152.028 185.688C152.311 186.486 152.701 187.242 153.187 187.934C152.316 182.506 153.259 172.699 153.259 172.699L160.394 167.825Z" fill="#FDE23C"/>
<path opacity="0.5" d="M160.394 167.825L159.674 166.428C158.35 165.708 156.506 164.642 154.757 163.469C151.553 161.309 149.299 158.882 148.853 159.869C148.853 159.869 149.695 168.962 150.048 171.835C150.401 174.708 151.2 182.959 152.028 185.688C152.311 186.486 152.701 187.242 153.187 187.934C152.316 182.506 153.259 172.699 153.259 172.699L160.394 167.825Z" fill="white"/>
<path d="M148.838 159.84C148.838 159.84 149.681 168.934 150.034 171.806C150.386 174.679 151.186 182.93 152.014 185.659C152.842 188.388 157.356 193.133 157.774 192.038C158.191 190.944 160.438 183.521 159.545 179.078C158.652 174.636 158.378 170.842 158.933 169.718C159.487 168.595 161.482 167.335 161.482 167.335C159.159 166.145 156.902 164.831 154.721 163.397C151.538 161.28 149.285 158.882 148.838 159.84Z" stroke="#263238" stroke-linecap="round" stroke-linejoin="round"/>
<path d="M148.507 161.158C148.507 161.158 153.691 165.478 157.665 167.062C161.64 168.646 167.745 168.545 168.617 166.478C169.488 164.412 167.105 148.046 165.053 143.741C163.001 139.435 160.812 139.363 157.19 139.032C153.569 138.701 146.325 141.653 145.051 145.152C143.777 148.651 145.231 153.605 146.282 156.542C146.838 158.164 147.585 159.713 148.507 161.158Z" fill="white"/>
<path d="M157.817 160.963C155.981 155.52 155.52 146.952 155.52 144.67C155.52 142.906 160.114 140.969 162.209 140.177C160.834 139.327 159.235 139.219 157.169 139.032C153.569 138.708 146.304 141.653 145.03 145.152C143.755 148.651 145.21 153.605 146.261 156.542C146.817 158.164 147.564 159.713 148.486 161.158C148.486 161.158 153.67 165.478 157.644 167.062C160.399 168.104 163.382 168.39 166.284 167.89C163.44 166.817 159.041 164.599 157.817 160.963Z" fill="#FDE23C"/>
<path opacity="0.5" d="M157.817 160.963C155.981 155.52 155.52 146.952 155.52 144.67C155.52 142.906 160.114 140.969 162.209 140.177C160.834 139.327 159.235 139.219 157.169 139.032C153.569 138.708 146.304 141.653 145.03 145.152C143.755 148.651 145.21 153.605 146.261 156.542C146.817 158.164 147.564 159.713 148.486 161.158C148.486 161.158 153.67 165.478 157.644 167.062C160.399 168.104 163.382 168.39 166.284 167.89C163.44 166.817 159.041 164.599 157.817 160.963Z" fill="white"/>
<path d="M148.507 161.158C148.507 161.158 153.691 165.478 157.665 167.062C161.64 168.646 167.745 168.545 168.617 166.478C169.488 164.412 167.105 148.046 165.053 143.741C163.001 139.435 160.812 139.363 157.19 139.032C153.569 138.701 146.325 141.653 145.051 145.152C143.777 148.651 145.231 153.605 146.282 156.542C146.838 158.164 147.585 159.713 148.507 161.158V161.158Z" stroke="#263238" stroke-linecap="round" stroke-linejoin="round"/>
<path d="M165.442 150.48C165.528 152.554 164.225 154.289 162.562 154.354C160.898 154.418 159.444 152.798 159.365 150.754C159.286 148.709 160.582 146.945 162.245 146.873C163.908 146.801 165.362 148.385 165.442 150.48Z" stroke="#263238" stroke-linecap="round" stroke-linejoin="round"/>
<path d="M169.517 149.674C169.603 151.747 168.934 153.454 168.026 153.49C167.119 153.526 166.313 151.877 166.234 149.803C166.154 147.73 166.824 146.016 167.731 145.98C168.638 145.944 169.438 147.6 169.517 149.674Z" stroke="#263238" stroke-linecap="round" stroke-linejoin="round"/>
<path d="M165.657 149.717C165.657 149.717 171.605 150.847 171.029 152.28C170.453 153.713 166.435 155.261 166.435 155.261" fill="white"/>
<path d="M165.657 149.717C165.657 149.717 171.605 150.847 171.029 152.28C170.453 153.713 166.435 155.261 166.435 155.261" stroke="#263238" stroke-linecap="round" stroke-linejoin="round"/>
<path d="M165.29 149.04C165.29 149.04 165.377 148.32 166.291 148.774" stroke="#263238" stroke-linecap="round" stroke-linejoin="round"/>
<path d="M159.178 151.042L148.363 155.297" stroke="#263238" stroke-linecap="round" stroke-linejoin="round"/>
<path d="M159.322 147.542C159.549 147.028 159.93 146.595 160.411 146.304C160.893 146.013 161.453 145.877 162.014 145.915" stroke="#263238" stroke-width="2" stroke-linecap="round" stroke-linejoin="round"/>
<path d="M166.522 145.966L164.858 146.592" stroke="#263238" stroke-width="2" stroke-linecap="round" stroke-linejoin="round"/>
<path d="M161.381 158.04C161.381 158.04 163.541 157.478 164.765 158.76" stroke="#263238" stroke-linecap="round" stroke-linejoin="round"/>
<path d="M162.77 150.854C162.871 151.574 162.77 152.194 162.475 152.23C162.18 152.266 161.921 151.711 161.82 150.984C161.719 150.257 161.856 149.652 162.122 149.616C162.389 149.58 162.677 150.134 162.77 150.854Z" fill="#263238"/>
<path d="M149.371 155.326C149.371 155.326 148.651 156.766 150.682 156.838C152.712 156.91 154.094 155.923 153.108 154.678C152.122 153.432 150.66 152.266 152.165 150.638C153.67 149.011 156.593 147.643 154.951 145.829C153.31 144.014 147.269 145.663 148.781 144.194C150.293 142.726 157.277 141.192 160.416 141.386C163.555 141.581 169.416 139.147 170.705 135.965C171.994 132.782 170.194 126.9 165.974 127.217C161.755 127.534 158.609 131.27 156.737 131.537C154.865 131.803 151.027 129.722 147.809 131.537C144.59 133.351 144.482 138.564 144.209 139.205C143.935 139.846 139.572 140.796 138.802 145.21C138.512 146.989 138.636 148.811 139.163 150.535C139.69 152.259 140.606 153.839 141.84 155.153C143.647 157.118 144.461 157.867 144.461 157.867L149.371 155.326Z" fill="#263238" stroke="#263238" stroke-linecap="round" stroke-linejoin="round"/>
<path d="M140.213 147.348C140.175 148.018 140.336 148.684 140.674 149.263" stroke="white" stroke-width="0.75" stroke-linecap="round" stroke-linejoin="round"/>
<path d="M158.566 135.95C158.566 135.95 156.996 132.516 160.999 132.516C165.002 132.516 165.578 137.556 161.431 139.385C157.284 141.214 148.262 141.674 143.395 143.827C142.44 144.201 141.59 144.801 140.918 145.577" stroke="white" stroke-width="0.75" stroke-linecap="round" stroke-linejoin="round"/>
<path d="M151.315 148.147C149.875 148.666 148.01 149.386 146.117 150.264C142.106 152.129 142.963 153.986 142.963 153.986" stroke="white" stroke-width="0.75" stroke-linecap="round" stroke-linejoin="round"/>
<path d="M153.986 147.262C153.986 147.262 153.634 147.362 153.036 147.557" stroke="white" stroke-width="0.75" stroke-linecap="round" stroke-linejoin="round"/>
<path d="M150.055 156.866C150.055 156.866 147.73 153.511 145.282 154.858C142.834 156.204 144.734 160.992 146.21 162.655C147.686 164.318 150.53 161.215 150.826 160.438" fill="white"/>
<path d="M150.055 156.866C150.055 156.866 147.73 153.511 145.282 154.858C142.834 156.204 144.734 160.992 146.21 162.655C147.686 164.318 150.53 161.215 150.826 160.438" fill="#FDE23C"/>
<path opacity="0.5" d="M150.055 156.866C150.055 156.866 147.73 153.511 145.282 154.858C142.834 156.204 144.734 160.992 146.21 162.655C147.686 164.318 150.53 161.215 150.826 160.438" fill="white"/>
<path d="M150.055 156.866C150.055 156.866 147.73 153.511 145.282 154.858C142.834 156.204 144.734 160.992 146.21 162.655C147.686 164.318 150.53 161.215 150.826 160.438" stroke="#263238" stroke-linecap="round" stroke-linejoin="round"/>
<path d="M120.686 153.806H69.0768C67.0408 153.806 65.3904 155.457 65.3904 157.493V195.221C65.3904 197.257 67.0408 198.907 69.0768 198.907H120.686C122.722 198.907 124.373 197.257 124.373 195.221V157.493C124.373 155.457 122.722 153.806 120.686 153.806Z" fill="white" stroke="#263238" stroke-linecap="round" stroke-linejoin="round"/>
<path d="M123.25 186.25L157.81 195.25L123.25 178.33" fill="white"/>
<path d="M123.25 186.25L157.81 195.25L123.25 178.33" stroke="#263238" stroke-linecap="round" stroke-linejoin="round"/>
<path d="M84.0312 158.141H70.1569V194.573H84.0312V158.141Z" fill="#FDE23C" stroke="#263238" stroke-linecap="round" stroke-linejoin="round"/>
<path d="M121.313 158.141H119.578V194.573H121.313V158.141Z" fill="#FDE23C" stroke="#263238" stroke-linecap="round" stroke-linejoin="round"/>
<path d="M121.313 174.794H119.578V177.905H121.313V174.794Z" fill="#263238" stroke="#263238" stroke-linecap="round" stroke-linejoin="round"/>
<path d="M88.3728 159.005H115.697" stroke="#263238" stroke-linecap="round" stroke-linejoin="round"/>
<path d="M88.3728 162.907H115.697" stroke="#263238" stroke-linecap="round" stroke-linejoin="round"/>
<path d="M88.3728 166.817H115.697" stroke="#263238" stroke-linecap="round" stroke-linejoin="round"/>
<path d="M88.3728 170.719H115.697" stroke="#263238" stroke-linecap="round" stroke-linejoin="round"/>
<path d="M88.3728 180.259H115.697" stroke="#263238" stroke-linecap="round" stroke-linejoin="round"/>
<path d="M88.3728 183.73H115.697" stroke="#263238" stroke-linecap="round" stroke-linejoin="round"/>
<path d="M88.3728 187.2H115.697" stroke="#263238" stroke-linecap="round" stroke-linejoin="round"/>
<path d="M88.3728 194.4H115.697" stroke="#263238" stroke-linecap="round" stroke-linejoin="round"/>
<path d="M70.1569 194.566L84.0385 158.141" stroke="#263238" stroke-linecap="round" stroke-linejoin="round"/>
<path d="M279.267 295.387C285.919 295.387 291.312 292.969 291.312 289.987C291.312 287.005 285.919 284.587 279.267 284.587C272.614 284.587 267.221 287.005 267.221 289.987C267.221 292.969 272.614 295.387 279.267 295.387Z" fill="#FDE23C"/>
<path opacity="0.5" d="M279.267 295.387C285.919 295.387 291.312 292.969 291.312 289.987C291.312 287.005 285.919 284.587 279.267 284.587C272.614 284.587 267.221 287.005 267.221 289.987C267.221 292.969 272.614 295.387 279.267 295.387Z" fill="white"/>
<path d="M265.176 210.082C266.465 210.643 269.619 210.571 269.619 210.571C269.619 210.571 268.942 208.505 268.899 208.411C268.179 206.971 266.019 204.574 264.24 204.811C263.948 204.864 263.67 204.977 263.423 205.142C263.177 205.307 262.967 205.522 262.807 205.772C262.646 206.022 262.54 206.302 262.493 206.595C262.446 206.888 262.46 207.188 262.534 207.475C262.8 208.685 264.075 209.599 265.176 210.082Z" fill="#263238"/>
<path d="M306.482 199.346C304.696 199.159 302.572 201.6 301.917 203.069C301.859 203.198 301.197 205.279 301.24 205.279H301.276C300.938 205.661 300.556 206.078 300.203 206.539C299.483 207.396 298.72 208.368 297.942 209.491C297.089 210.687 296.308 211.932 295.602 213.221C294.802 214.661 294.133 216.169 293.601 217.728C293.597 217.747 293.597 217.767 293.601 217.786C293.601 217.26 293.601 215.784 293.601 215.669C293.392 214.085 292.06 211.126 290.289 210.802C289.995 210.762 289.696 210.782 289.41 210.863C289.125 210.943 288.859 211.082 288.629 211.27C288.399 211.457 288.211 211.691 288.075 211.954C287.94 212.218 287.86 212.507 287.841 212.803C287.74 214.063 288.654 215.33 289.547 216.13C290.555 217.03 293.349 217.901 293.572 217.966C293.074 219.566 292.679 221.196 292.391 222.847C292.218 223.812 292.082 224.784 291.945 225.763C291.945 225.302 291.945 224.899 291.945 224.842C291.736 223.25 290.404 220.298 288.64 219.974C288.346 219.933 288.047 219.953 287.761 220.033C287.475 220.112 287.208 220.25 286.978 220.437C286.748 220.624 286.558 220.857 286.422 221.12C286.285 221.384 286.205 221.673 286.185 221.969C286.084 223.236 286.998 224.496 287.891 225.295C288.784 226.094 291.167 226.901 291.801 227.102C291.758 227.477 291.707 227.822 291.657 228.226C291.441 230.026 291.239 231.826 290.98 233.59C290.886 234.209 290.778 234.814 290.67 235.418C290.67 235.015 290.67 234.698 290.67 234.626C290.462 233.035 289.13 230.083 287.358 229.752C287.064 229.712 286.765 229.733 286.48 229.813C286.194 229.894 285.928 230.032 285.699 230.22C285.469 230.408 285.28 230.641 285.145 230.905C285.009 231.169 284.929 231.458 284.91 231.754C284.81 233.021 285.724 234.281 286.617 235.08C287.51 235.879 289.662 236.606 290.411 236.844C290.282 237.463 290.145 238.082 289.994 238.68C289.878 239.083 289.792 239.479 289.655 239.875C289.518 240.271 289.403 240.667 289.274 241.056C289.007 241.776 288.734 242.568 288.453 243.281C288.258 243.785 288.064 244.26 287.877 244.721C287.97 244.102 288.136 242.892 288.136 242.791C288.118 241.38 287.739 239.997 287.034 238.774C287.045 238.618 287.045 238.461 287.034 238.306C286.992 238.012 286.889 237.731 286.733 237.478C286.577 237.226 286.37 237.009 286.127 236.84C285.883 236.671 285.607 236.554 285.316 236.497C285.025 236.439 284.725 236.442 284.435 236.506C282.7 236.966 281.598 240.012 281.512 241.61C281.512 241.711 281.57 242.741 281.62 243.389C281.534 243.014 281.454 242.669 281.361 242.258C281.174 241.488 280.972 240.725 280.756 239.911C280.634 239.515 280.518 239.119 280.396 238.723C280.274 238.327 280.115 237.917 279.978 237.506C279.633 236.57 279.258 235.634 278.819 234.698C279.496 234.54 281.872 233.935 282.83 233.201C283.787 232.466 284.788 231.278 284.774 230.011C284.781 229.715 284.725 229.42 284.611 229.146C284.497 228.872 284.326 228.625 284.11 228.421C283.894 228.218 283.638 228.062 283.358 227.963C283.077 227.865 282.78 227.827 282.484 227.851C280.691 228.046 279.143 230.89 278.819 232.459C278.819 232.56 278.697 233.712 278.646 234.346C278.394 233.784 278.142 233.23 277.869 232.668C277.07 231.062 276.213 229.464 275.363 227.858C275.097 227.369 274.845 226.879 274.593 226.382C274.83 226.332 277.674 225.662 278.74 224.849C279.69 224.129 280.698 222.926 280.691 221.659C280.692 221.364 280.632 221.071 280.515 220.8C280.398 220.528 280.226 220.284 280.011 220.081C279.796 219.879 279.541 219.723 279.263 219.623C278.985 219.523 278.689 219.481 278.394 219.499C276.609 219.694 275.061 222.538 274.737 224.107C274.737 224.222 274.564 225.886 274.542 226.31C273.981 225.223 273.434 224.15 272.93 223.049C272.25 221.581 271.666 220.07 271.18 218.527C271.288 218.527 274.262 217.807 275.356 216.986C276.306 216.266 277.314 215.064 277.307 213.797C277.308 213.501 277.248 213.209 277.131 212.937C277.014 212.666 276.842 212.422 276.627 212.219C276.412 212.017 276.157 211.86 275.879 211.76C275.601 211.66 275.305 211.618 275.01 211.637C273.225 211.831 271.677 214.675 271.353 216.245C271.353 216.374 271.166 218.16 271.158 218.484C271.158 218.39 271.094 218.304 271.065 218.21C270.62 216.647 270.316 215.047 270.158 213.43C270.057 212.544 270.014 211.68 269.985 210.845C270.554 210.78 273.131 210.434 274.204 209.786C275.277 209.138 276.364 208.094 276.494 206.827C276.529 206.533 276.502 206.234 276.417 205.95C276.331 205.666 276.188 205.402 275.996 205.176C275.804 204.95 275.568 204.766 275.302 204.635C275.035 204.504 274.745 204.429 274.449 204.415C272.649 204.415 270.798 207.072 270.302 208.591C270.302 208.678 270.1 209.549 269.978 210.19C269.978 209.808 269.978 209.419 269.978 209.059C269.978 207.706 270.064 206.46 270.15 205.358C270.208 204.732 270.266 204.17 270.33 203.638C270.849 203.285 272.922 201.816 273.563 200.758C274.204 199.699 274.701 198.259 274.233 197.086C274.134 196.804 273.977 196.546 273.771 196.33C273.566 196.113 273.317 195.943 273.041 195.829C272.765 195.716 272.468 195.662 272.169 195.671C271.871 195.68 271.578 195.753 271.31 195.883C269.711 196.704 269.294 199.915 269.553 201.499C269.553 201.636 270.179 203.731 270.208 203.717C270.143 204.221 270.071 204.768 270.006 205.358C269.898 206.46 269.783 207.706 269.754 209.074C269.704 210.541 269.737 212.01 269.855 213.473C269.985 215.114 270.259 216.74 270.676 218.333C270.672 218.352 270.672 218.372 270.676 218.39C270.395 217.951 269.56 216.734 269.488 216.648C268.437 215.431 265.701 213.71 264.045 214.409C263.777 214.537 263.539 214.719 263.345 214.943C263.151 215.167 263.005 215.429 262.917 215.712C262.828 215.995 262.799 216.293 262.831 216.588C262.863 216.883 262.955 217.168 263.102 217.426C263.714 218.542 265.175 219.089 266.363 219.262C267.695 219.456 270.51 218.642 270.734 218.578C271.199 220.185 271.769 221.761 272.44 223.294C272.829 224.194 273.246 225.086 273.678 225.972C273.419 225.598 273.189 225.252 273.153 225.252C272.102 224.042 269.358 222.314 267.71 223.013C267.441 223.141 267.202 223.323 267.007 223.548C266.813 223.773 266.667 224.035 266.578 224.319C266.489 224.603 266.461 224.902 266.493 225.198C266.525 225.493 266.618 225.779 266.766 226.037C267.378 227.146 268.84 227.7 270.021 227.873C271.202 228.046 273.621 227.398 274.276 227.218C274.442 227.556 274.607 227.894 274.78 228.233C275.594 229.86 276.414 231.473 277.17 233.078C277.437 233.647 277.674 234.216 277.89 234.785C277.667 234.446 277.473 234.173 277.437 234.13C276.386 232.92 273.642 231.192 271.994 231.89C271.725 232.019 271.486 232.201 271.291 232.425C271.097 232.65 270.951 232.913 270.862 233.197C270.773 233.481 270.745 233.78 270.777 234.075C270.809 234.371 270.902 234.657 271.05 234.914C271.662 236.023 273.124 236.57 274.305 236.743C275.486 236.916 277.689 236.333 278.445 236.124C278.675 236.714 278.913 237.305 279.107 237.888C279.237 238.284 279.388 238.658 279.489 239.069C279.59 239.479 279.712 239.868 279.827 240.264C280.007 241.034 280.202 241.826 280.367 242.575C280.482 243.101 280.583 243.598 280.684 244.102C280.425 243.533 279.892 242.438 279.842 242.352C278.985 240.991 276.537 238.867 274.802 239.314C274.513 239.394 274.246 239.534 274.016 239.726C273.786 239.917 273.599 240.155 273.468 240.423C273.337 240.692 273.264 240.986 273.254 241.285C273.244 241.584 273.298 241.881 273.412 242.158C273.844 243.346 275.205 244.109 276.35 244.462C277.617 244.843 280.41 244.462 280.756 244.462C280.922 245.297 281.08 246.11 281.21 246.881C281.685 249.545 281.973 251.784 282.153 253.361C282.153 253.642 282.21 253.886 282.239 254.124H276.832L278.567 288.036C278.632 289.278 279.17 290.447 280.072 291.303C280.974 292.159 282.169 292.637 283.413 292.637C284.655 292.637 285.85 292.159 286.751 291.303C287.651 290.446 288.188 289.277 288.251 288.036L289.994 254.124H284.954C284.99 254.045 285.026 253.973 285.069 253.894C285.789 252.454 286.718 250.38 287.754 247.853C288.078 247.054 288.417 246.19 288.748 245.304C289.086 245.376 291.851 245.938 293.14 245.642C294.314 245.383 295.725 244.721 296.25 243.569C296.378 243.3 296.45 243.008 296.459 242.71C296.469 242.413 296.417 242.117 296.307 241.84C296.197 241.564 296.031 241.313 295.819 241.104C295.607 240.894 295.355 240.731 295.077 240.624C293.37 240.055 290.757 241.992 289.821 243.281C289.763 243.353 289.252 244.253 288.935 244.822C289.065 244.454 289.202 244.102 289.338 243.727C289.612 243.007 289.857 242.244 290.13 241.438C290.246 241.049 290.368 240.653 290.483 240.25C290.598 239.846 290.699 239.422 290.807 239.004C291.038 238.032 291.225 237.038 291.39 236.03C292.038 236.268 294.357 237.074 295.559 236.988C296.762 236.902 298.252 236.462 298.943 235.404C299.109 235.158 299.222 234.88 299.276 234.588C299.33 234.296 299.322 233.996 299.255 233.706C299.187 233.417 299.061 233.145 298.883 232.907C298.706 232.669 298.481 232.47 298.223 232.322C296.625 231.494 293.766 233.042 292.629 234.144C292.557 234.216 291.83 235.123 291.441 235.627C291.542 235.015 291.635 234.41 291.714 233.798C291.938 232.013 292.103 230.198 292.276 228.398L292.449 226.75C292.679 226.836 295.415 227.851 296.769 227.758C297.964 227.671 299.462 227.232 300.153 226.174C300.319 225.927 300.432 225.649 300.486 225.357C300.539 225.065 300.532 224.765 300.464 224.476C300.397 224.187 300.27 223.915 300.093 223.677C299.915 223.438 299.691 223.239 299.433 223.092C297.834 222.264 294.969 223.812 293.838 224.914C293.752 225 292.708 226.303 292.463 226.649C292.586 225.432 292.73 224.222 292.917 223.049C293.158 221.447 293.502 219.862 293.946 218.304C294.054 218.347 296.906 219.42 298.266 219.319C299.462 219.24 300.959 218.801 301.65 217.735C301.816 217.489 301.929 217.211 301.983 216.919C302.037 216.627 302.03 216.327 301.962 216.038C301.894 215.748 301.768 215.476 301.59 215.238C301.413 215 301.188 214.801 300.93 214.654C299.332 213.833 296.474 215.374 295.336 216.482C295.25 216.569 294.126 217.973 293.946 218.239C293.946 218.153 293.99 218.052 294.018 217.966C294.509 216.415 295.138 214.911 295.898 213.473C296.301 212.674 296.74 211.932 297.179 211.226C297.69 211.478 300.059 212.616 301.283 212.666C302.507 212.717 304.012 212.443 304.818 211.464C305.012 211.238 305.156 210.974 305.242 210.69C305.329 210.405 305.356 210.106 305.321 209.811C305.287 209.515 305.192 209.23 305.042 208.973C304.892 208.716 304.691 208.493 304.451 208.318C302.954 207.324 299.944 208.519 298.691 209.52C298.626 209.578 297.971 210.24 297.539 210.672L298.144 209.714C298.9 208.584 299.656 207.598 300.304 206.726C300.693 206.23 301.06 205.798 301.398 205.387C302.032 205.387 304.574 205.301 305.682 204.782C306.791 204.264 308.008 203.342 308.274 202.082C308.36 201.784 308.38 201.471 308.333 201.164C308.287 200.857 308.175 200.564 308.005 200.304C307.834 200.044 307.61 199.824 307.347 199.659C307.085 199.494 306.789 199.387 306.482 199.346ZM286.703 247.327C285.623 249.811 284.63 251.842 283.917 253.246L283.528 254.016H283.406C283.37 253.742 283.334 253.44 283.283 253.102C283.067 251.518 282.729 249.264 282.196 246.622C282.023 245.772 281.829 244.865 281.62 243.943C282.461 243.604 283.283 243.219 284.082 242.791C285.168 243.725 286.38 244.5 287.682 245.095C287.337 245.851 287.02 246.614 286.703 247.327Z" fill="#263238"/>
<path d="M297.065 210.773C297.065 210.773 297.634 208.678 297.655 208.541C297.879 206.95 297.367 203.753 295.755 202.968C295.482 202.853 295.189 202.795 294.894 202.798C294.598 202.801 294.307 202.865 294.037 202.985C293.767 203.105 293.524 203.279 293.325 203.497C293.125 203.714 292.971 203.97 292.874 204.25C292.442 205.445 292.99 206.906 293.645 207.914C294.394 209.095 297.058 210.773 297.065 210.773Z" fill="#263238"/>
</svg>
