<svg width="383" height="259" viewBox="0 0 383 259" fill="none" xmlns="http://www.w3.org/2000/svg">
<g clip-path="url(#clip0)">
<path d="M13.1245 189.436V220.89H0V176.764H17.1005C24.6005 176.764 30.4729 178.466 34.7197 181.871C39.762 185.944 42.2833 191.473 42.2833 198.456C42.2833 205.137 40.1287 210.589 35.8177 214.813C31.5084 219.037 25.9584 221.149 19.1697 221.149C18.3729 221.149 17.0688 221.107 15.2579 221.02V208.056H17.3588C25.0099 208.056 28.8349 204.856 28.8349 198.456C28.8349 192.443 25.0745 189.436 17.5531 189.436H13.1245" fill="#C8AA22"/>
<path d="M56.8823 196.773V220.895H47.0688V187.903H59.6615C63.4969 187.903 66.4688 188.854 68.5807 190.755C70.9323 192.882 72.1093 195.582 72.1093 198.852C72.1093 202.188 70.6511 204.999 67.7344 207.287L73.3901 220.895H63.0937L58.3328 210.261V201.776H59.1057C61.1683 201.776 62.1989 200.891 62.1989 199.118C62.1989 197.555 61.0073 196.773 58.6219 196.773H56.8823" fill="#C8AA22"/>
<path d="M94.3219 200.738V208.085H87.9167C87.0473 208.085 86.4312 208.214 86.0683 208.472C85.7052 208.73 85.5245 209.166 85.5245 209.778C85.5245 210.47 85.7093 210.924 86.0803 211.143C86.45 211.361 87.2079 211.47 88.3516 211.47H94.95V220.895H87.2401C83.6151 220.895 80.8427 220.03 78.926 218.297C77.0084 216.566 76.0495 214.063 76.0495 210.792V197.861C76.0495 194.703 76.9563 192.254 78.7697 190.512C80.5812 188.772 83.1312 187.903 86.4193 187.903H94.95V197.378H88.6907C86.9989 197.378 86.1527 197.926 86.1527 199.021C86.1527 199.666 86.3536 200.114 86.7568 200.361C87.1599 200.612 87.876 200.738 88.9073 200.738H94.3219" fill="#C8AA22"/>
<path d="M112.794 204.339V213.04H109.966V220.895H100.153V199.915C100.153 195.855 101.26 192.7 103.477 190.452C105.692 188.204 108.806 187.082 112.818 187.082C116.686 187.082 119.545 188.1 121.398 190.139C123.251 192.176 124.178 195.323 124.178 199.576V220.895H114.365V200.23C114.365 198.94 114.213 198.045 113.906 197.547C113.599 197.049 113.051 196.797 112.263 196.797C110.732 196.797 109.966 197.942 109.966 200.23V204.339H112.794" fill="#C8AA22"/>
<path d="M129.248 220.895V197.112C129.248 194.163 130.142 191.755 131.93 189.884C133.72 188.016 136.04 187.082 138.892 187.082C142.276 187.082 144.877 188.637 146.697 191.745C147.811 190.069 149.003 188.873 150.275 188.156C151.548 187.44 153.12 187.082 154.989 187.082C157.953 187.082 160.225 188.016 161.804 189.884C163.384 191.755 164.173 194.444 164.173 197.957V220.895H154.36V199.432C154.36 198.368 154.276 197.664 154.107 197.316C153.937 196.971 153.595 196.797 153.08 196.797C152.112 196.797 151.629 197.619 151.629 199.263V220.895H141.816V199.432C141.816 198.384 141.728 197.684 141.549 197.328C141.373 196.975 141.027 196.797 140.511 196.797C139.544 196.797 139.06 197.676 139.06 199.432V220.895H129.248" fill="#C8AA22"/>
<path d="M187.913 197.551V209.383H183.548V220.891H170.424V193.509C170.424 188.359 172.013 184.097 175.193 180.724C178.371 177.351 182.373 175.664 187.201 175.664C192.524 175.664 196.976 177.96 200.552 182.551L189.788 190.407C189.184 188.726 188.117 187.884 186.587 187.884C184.561 187.884 183.548 189.285 183.548 192.087V197.551H187.913" fill="#3B3A3B"/>
<path d="M212.179 187.903V220.895H202.364V187.903H212.179Z" fill="#3B3A3B"/>
<path d="M218.347 220.895V199.48C218.347 195.726 219.471 192.721 221.719 190.464C223.967 188.208 226.959 187.082 230.697 187.082C234.42 187.082 237.268 188.176 239.241 190.368C241.216 192.561 242.203 195.709 242.203 199.819V220.895H232.389V199.819C232.389 197.806 231.672 196.797 230.239 196.797C228.853 196.797 228.159 197.806 228.159 199.819V220.895H218.347" fill="#3B3A3B"/>
<path d="M257.936 197.377V220.895H248.121V187.902H260.909C266.516 187.902 270.907 189.176 274.08 191.721C277.852 194.766 279.737 198.9 279.737 204.12C279.737 209.116 278.124 213.194 274.903 216.351C271.68 219.509 267.531 221.088 262.456 221.088C261.859 221.088 260.885 221.056 259.531 220.992V211.3H261.101C266.821 211.3 269.683 208.907 269.683 204.12C269.683 199.625 266.869 197.377 261.247 197.377H257.936" fill="#3B3A3B"/>
<path d="M302.196 200.738V208.085H295.791C294.921 208.085 294.305 208.214 293.943 208.472C293.579 208.73 293.399 209.166 293.399 209.778C293.399 210.47 293.584 210.924 293.955 211.143C294.324 211.361 295.081 211.47 296.225 211.47H302.824V220.895H295.115C291.489 220.895 288.716 220.03 286.8 218.297C284.883 216.566 283.924 214.063 283.924 210.792V197.861C283.924 194.703 284.831 192.254 286.644 190.512C288.456 188.772 291.005 187.903 294.293 187.903H302.824V197.378H296.564C294.873 197.378 294.027 197.926 294.027 199.021C294.027 199.666 294.228 200.114 294.631 200.361C295.033 200.612 295.751 200.738 296.781 200.738H302.196" fill="#3B3A3B"/>
<path d="M318.516 196.773V220.895H308.701V187.903H321.295C325.131 187.903 328.103 188.854 330.213 190.755C332.565 192.882 333.743 195.582 333.743 198.852C333.743 202.188 332.284 204.999 329.368 207.287L335.023 220.895H324.727L319.967 210.261V201.776H320.739C322.801 201.776 323.832 200.891 323.832 199.118C323.832 197.555 322.64 196.773 320.256 196.773H318.516" fill="#3B3A3B"/>
<path d="M335.048 223.409H359.799V228.582H335.048V223.409Z" fill="#3B3A3B"/>
<path d="M2.00156 245.643H359.341" stroke="#100F0D" stroke-width="0.619381" stroke-miterlimit="8"/>
<path fill-rule="evenodd" clip-rule="evenodd" d="M62.9479 235.433H303.021V258.947H62.9479V235.433Z" fill="white"/>
<path d="M82.9896 249.303H81.4745V241.877H85.8609L85.7964 242.624L82.9896 242.66V245.3L85.7016 245.33L85.6292 246.018L82.9896 246.075V249.303" fill="#1C1817"/>
<path d="M90.662 246.815C90.662 247.463 90.7432 247.94 90.9084 248.247C91.0729 248.555 91.3464 248.708 91.7281 248.708C91.8781 248.708 92.0188 248.696 92.1484 248.672C92.2797 248.647 92.388 248.611 92.4751 248.563C92.5276 248.533 92.5771 248.467 92.6197 248.364C92.6625 248.26 92.7005 248.13 92.7281 247.975C92.7579 247.82 92.7807 247.644 92.7979 247.445C92.814 247.248 92.8235 247.04 92.8235 246.823C92.8235 246.189 92.7375 245.715 92.5688 245.401C92.4 245.087 92.1297 244.93 91.7573 244.93C91.6167 244.93 91.4787 244.943 91.3432 244.97C91.2084 244.996 91.0875 245.039 90.9807 245.096C90.9229 245.125 90.8751 245.192 90.836 245.296C90.7973 245.4 90.7651 245.53 90.738 245.684C90.7115 245.839 90.6927 246.013 90.6807 246.209C90.6688 246.406 90.662 246.607 90.662 246.815V246.815ZM91.7427 249.396C90.8921 249.396 90.2412 249.177 89.7917 248.74C89.3427 248.303 89.1177 247.664 89.1177 246.823C89.1177 246.427 89.1729 246.067 89.2839 245.745C89.3948 245.424 89.5609 245.152 89.7807 244.93C90.0016 244.707 90.2751 244.536 90.6041 244.415C90.9323 244.295 91.3131 244.233 91.7427 244.233C92.1724 244.233 92.5516 244.29 92.8771 244.404C93.2036 244.518 93.4771 244.684 93.6964 244.904C93.9161 245.124 94.0823 245.394 94.1932 245.713C94.3047 246.032 94.3593 246.397 94.3593 246.808C94.3593 247.209 94.3047 247.569 94.1932 247.888C94.0823 248.208 93.9161 248.479 93.6964 248.704C93.4771 248.928 93.2036 249.1 92.8771 249.219C92.5516 249.337 92.1724 249.396 91.7427 249.396" fill="#1C1817"/>
<path d="M101.153 245.459C101.038 245.42 100.917 245.389 100.787 245.366C100.659 245.342 100.535 245.33 100.414 245.33C100.327 245.33 100.249 245.336 100.182 245.351C100.114 245.366 100.051 245.389 99.9937 245.423C99.936 245.456 99.8771 245.499 99.8156 245.549C99.7552 245.6 99.6896 245.665 99.6172 245.742V249.303H98.1307V244.343H99.4645L99.5948 245.132H99.6027C99.6417 245.075 99.688 245.006 99.7432 244.927C99.7995 244.847 99.8599 244.768 99.9255 244.69C99.9896 244.613 100.059 244.542 100.132 244.476C100.204 244.411 100.276 244.366 100.348 244.343C100.475 244.295 100.62 244.264 100.787 244.252C100.954 244.24 101.132 244.233 101.321 244.233L101.153 245.459" fill="#1C1817"/>
<path d="M111.771 248.337C111.766 248.319 111.761 248.264 111.756 248.175C111.751 248.085 111.745 247.972 111.739 247.833C111.731 247.696 111.725 247.54 111.72 247.367C111.715 247.192 111.713 247.009 111.713 246.815C111.351 246.815 111.075 246.836 110.885 246.877C110.698 246.918 110.581 246.967 110.539 247.025C110.519 247.049 110.501 247.091 110.488 247.148C110.473 247.207 110.461 247.272 110.452 247.344C110.441 247.418 110.434 247.492 110.429 247.569C110.425 247.647 110.422 247.716 110.422 247.78C110.422 248.001 110.454 248.184 110.52 248.327C110.585 248.47 110.695 248.542 110.849 248.542C111.014 248.542 111.171 248.521 111.321 248.483C111.471 248.444 111.621 248.396 111.771 248.337ZM113.597 248.569C113.729 248.569 113.901 248.542 114.113 248.483V248.816C114.035 248.889 113.943 248.959 113.837 249.027C113.731 249.095 113.618 249.154 113.497 249.204C113.375 249.256 113.249 249.295 113.119 249.324C112.99 249.354 112.861 249.367 112.735 249.367C112.599 249.367 112.483 249.349 112.387 249.313C112.291 249.277 112.207 249.228 112.136 249.168C112.067 249.108 112.008 249.042 111.959 248.97C111.911 248.896 111.87 248.824 111.836 248.751C111.71 248.833 111.587 248.913 111.467 248.991C111.345 249.068 111.219 249.137 111.085 249.197C110.953 249.257 110.812 249.306 110.665 249.343C110.517 249.379 110.354 249.396 110.175 249.396C109.77 249.396 109.448 249.276 109.214 249.033C108.98 248.792 108.864 248.427 108.864 247.939C108.864 247.677 108.898 247.452 108.968 247.261C109.039 247.071 109.152 246.911 109.305 246.783C109.46 246.655 109.66 246.557 109.908 246.492C110.154 246.427 110.456 246.391 110.814 246.38L111.705 246.351V245.633C111.705 245.44 111.651 245.299 111.539 245.209C111.428 245.12 111.242 245.075 110.981 245.075C110.792 245.075 110.575 245.096 110.329 245.14C110.081 245.184 109.825 245.256 109.56 245.357L109.356 244.843C109.535 244.766 109.722 244.69 109.919 244.619C110.114 244.545 110.313 244.48 110.513 244.423C110.713 244.364 110.917 244.319 111.121 244.284C111.328 244.251 111.534 244.233 111.741 244.233C111.969 244.233 112.172 244.254 112.355 244.296C112.535 244.336 112.688 244.406 112.811 244.501C112.935 244.599 113.028 244.727 113.094 244.887C113.159 245.047 113.192 245.244 113.192 245.48V247.772C113.192 248.304 113.327 248.569 113.597 248.569" fill="#1C1817"/>
<path d="M118.78 249.303H117.294V241.166L118.78 240.876V249.303Z" fill="#1C1817"/>
<path d="M124.34 249.303H122.853V241.166L124.34 240.876V249.303Z" fill="#1C1817"/>
<path d="M134.043 251.709C133.781 252.024 133.521 252.255 133.26 252.401C132.999 252.549 132.73 252.624 132.455 252.624C132.315 252.624 132.162 252.612 131.998 252.59C131.834 252.568 131.701 252.541 131.599 252.507V252.036H131.715C131.894 252.036 132.102 251.988 132.339 251.89C132.575 251.794 132.803 251.653 133.02 251.471C133.137 251.368 133.273 251.239 133.435 251.083C133.593 250.925 133.757 250.753 133.927 250.568C134.096 250.382 134.261 250.189 134.424 249.99C134.585 249.794 134.732 249.603 134.861 249.418C134.66 248.833 134.46 248.289 134.264 247.787C134.068 247.284 133.884 246.84 133.713 246.456C133.541 246.072 133.389 245.756 133.256 245.511C133.123 245.263 133.018 245.104 132.94 245.032C132.868 244.964 132.791 244.92 132.713 244.901C132.632 244.882 132.568 244.872 132.519 244.872H132.483V244.4C132.546 244.385 132.627 244.372 132.723 244.36C132.82 244.348 132.921 244.336 133.027 244.324C133.134 244.312 133.237 244.303 133.339 244.296C133.441 244.288 133.528 244.284 133.6 244.284C133.741 244.284 133.871 244.303 133.992 244.339C134.113 244.375 134.213 244.435 134.296 244.516C134.399 244.613 134.508 244.772 134.627 244.99C134.745 245.212 134.868 245.476 134.996 245.785C135.124 246.095 135.255 246.439 135.384 246.819C135.515 247.199 135.643 247.596 135.768 248.011H135.789C135.955 247.756 136.091 247.511 136.2 247.278C136.308 247.047 136.392 246.819 136.455 246.594C136.515 246.37 136.556 246.143 136.58 245.916C136.604 245.689 136.616 245.449 136.616 245.199C136.616 245.131 136.613 245.057 136.605 244.977C136.599 244.897 136.589 244.821 136.577 244.749C136.565 244.676 136.552 244.612 136.537 244.556C136.523 244.501 136.511 244.459 136.501 244.43L137.655 244.233C137.679 244.311 137.703 244.423 137.727 244.571C137.751 244.719 137.763 244.86 137.763 244.995C137.763 245.348 137.704 245.706 137.584 246.068C137.467 246.431 137.312 246.792 137.124 247.152C136.936 247.512 136.727 247.87 136.493 248.225C136.261 248.582 136.033 248.928 135.812 249.266C135.58 249.615 135.385 249.904 135.229 250.136C135.071 250.368 134.932 250.571 134.808 250.745C134.685 250.919 134.563 251.078 134.445 251.224C134.327 251.368 134.192 251.531 134.043 251.709" fill="#1C1817"/>
<path d="M142.572 246.815C142.572 247.463 142.653 247.94 142.819 248.247C142.983 248.555 143.256 248.708 143.637 248.708C143.788 248.708 143.928 248.696 144.059 248.672C144.189 248.647 144.299 248.611 144.385 248.563C144.437 248.533 144.487 248.467 144.529 248.364C144.572 248.26 144.611 248.13 144.639 247.975C144.668 247.82 144.691 247.644 144.708 247.445C144.724 247.248 144.733 247.04 144.733 246.823C144.733 246.189 144.648 245.715 144.479 245.401C144.311 245.087 144.04 244.93 143.667 244.93C143.527 244.93 143.389 244.943 143.253 244.97C143.119 244.996 142.997 245.039 142.891 245.096C142.833 245.125 142.785 245.192 142.745 245.296C142.707 245.4 142.675 245.53 142.648 245.684C142.621 245.839 142.603 246.013 142.591 246.209C142.579 246.406 142.572 246.607 142.572 246.815ZM143.652 249.396C142.803 249.396 142.151 249.177 141.701 248.74C141.252 248.303 141.028 247.664 141.028 246.823C141.028 246.427 141.083 246.067 141.193 245.745C141.305 245.424 141.471 245.152 141.691 244.93C141.912 244.707 142.185 244.536 142.515 244.415C142.843 244.295 143.223 244.233 143.652 244.233C144.083 244.233 144.461 244.29 144.787 244.404C145.113 244.518 145.387 244.684 145.607 244.904C145.827 245.124 145.992 245.394 146.104 245.713C146.215 246.032 146.269 246.397 146.269 246.808C146.269 247.209 146.215 247.569 146.104 247.888C145.992 248.208 145.827 248.479 145.607 248.704C145.387 248.928 145.113 249.1 144.787 249.219C144.461 249.337 144.083 249.396 143.652 249.396" fill="#1C1817"/>
<path d="M151.488 244.343V247.671C151.488 247.966 151.537 248.183 151.637 248.323C151.736 248.464 151.905 248.533 152.141 248.533C152.229 248.533 152.323 248.523 152.424 248.502C152.527 248.479 152.629 248.448 152.736 248.407C152.843 248.366 152.948 248.32 153.051 248.27C153.156 248.219 153.248 248.164 153.331 248.106V244.343H154.817V249.303H153.491L153.352 248.723H153.337C153.236 248.785 153.113 248.856 152.968 248.936C152.824 249.016 152.665 249.091 152.497 249.161C152.328 249.231 152.152 249.291 151.972 249.339C151.789 249.387 151.613 249.411 151.439 249.411C151.24 249.411 151.055 249.38 150.88 249.32C150.707 249.26 150.553 249.168 150.424 249.045C150.292 248.921 150.189 248.77 150.115 248.588C150.039 248.407 150.003 248.194 150.003 247.947V244.343H151.488" fill="#1C1817"/>
<path d="M161.72 245.459C161.605 245.42 161.483 245.389 161.355 245.366C161.225 245.342 161.101 245.33 160.981 245.33C160.893 245.33 160.816 245.336 160.749 245.351C160.681 245.366 160.617 245.389 160.56 245.423C160.503 245.456 160.444 245.499 160.383 245.549C160.321 245.6 160.256 245.665 160.184 245.742V249.303H158.697V244.343H160.031L160.161 245.132H160.169C160.208 245.075 160.255 245.006 160.309 244.927C160.367 244.847 160.427 244.768 160.492 244.69C160.556 244.613 160.625 244.542 160.699 244.476C160.771 244.411 160.843 244.366 160.915 244.343C161.041 244.295 161.187 244.264 161.355 244.252C161.52 244.24 161.699 244.233 161.888 244.233L161.72 245.459" fill="#1C1817"/>
<path d="M173.461 245.459C173.345 245.42 173.224 245.389 173.096 245.366C172.967 245.342 172.843 245.33 172.721 245.33C172.635 245.33 172.557 245.336 172.491 245.351C172.421 245.366 172.359 245.389 172.301 245.423C172.244 245.456 172.185 245.499 172.123 245.549C172.063 245.6 171.997 245.665 171.925 245.742V249.303H170.439V244.343H171.772L171.903 245.132H171.911C171.949 245.075 171.996 245.006 172.051 244.927C172.107 244.847 172.168 244.768 172.233 244.69C172.297 244.613 172.367 244.542 172.439 244.476C172.512 244.411 172.584 244.366 172.656 244.343C172.783 244.295 172.928 244.264 173.096 244.252C173.261 244.24 173.44 244.233 173.628 244.233L173.461 245.459" fill="#1C1817"/>
<path d="M178.752 245.075C178.708 245.104 178.669 245.163 178.632 245.252C178.596 245.343 178.565 245.445 178.539 245.564C178.511 245.683 178.489 245.809 178.472 245.945C178.456 246.08 178.447 246.208 178.447 246.33L180.087 246.257C180.068 246.112 180.04 245.963 180.003 245.808C179.967 245.654 179.917 245.511 179.855 245.38C179.792 245.249 179.711 245.142 179.615 245.057C179.519 244.972 179.401 244.93 179.267 244.93C179.176 244.93 179.084 244.94 178.995 244.963C178.905 244.984 178.825 245.021 178.752 245.075V245.075ZM179.456 244.233C179.707 244.233 179.949 244.268 180.184 244.335C180.419 244.402 180.635 244.516 180.829 244.676C181.025 244.835 181.195 245.048 181.341 245.313C181.485 245.58 181.595 245.911 181.667 246.308V246.372C181.619 246.431 181.556 246.484 181.479 246.532C181.401 246.582 181.301 246.623 181.177 246.659C181.055 246.696 180.903 246.727 180.724 246.754C180.545 246.78 180.331 246.803 180.08 246.823L178.433 246.939V247.148C178.433 247.343 178.459 247.521 178.513 247.685C178.567 247.849 178.645 247.991 178.752 248.109C178.859 248.228 178.992 248.321 179.155 248.389C179.316 248.456 179.504 248.489 179.716 248.489C179.891 248.489 180.073 248.473 180.264 248.439C180.455 248.406 180.637 248.366 180.811 248.316C180.985 248.268 181.144 248.219 181.287 248.167C181.428 248.116 181.539 248.072 181.616 248.033L181.739 248.389C181.58 248.506 181.403 248.621 181.207 248.74C181.011 248.859 180.8 248.968 180.575 249.067C180.352 249.166 180.113 249.245 179.861 249.306C179.609 249.367 179.351 249.396 179.085 249.396C178.771 249.396 178.48 249.354 178.212 249.267C177.944 249.179 177.712 249.039 177.516 248.845C177.32 248.652 177.165 248.4 177.052 248.088C176.937 247.776 176.881 247.397 176.881 246.952C176.881 246.455 176.947 246.032 177.077 245.684C177.208 245.336 177.389 245.056 177.621 244.843C177.852 244.631 178.125 244.476 178.44 244.378C178.755 244.283 179.092 244.233 179.456 244.233" fill="#1C1817"/>
<path d="M187.783 248.337C187.777 248.319 187.773 248.264 187.768 248.175C187.763 248.085 187.757 247.972 187.751 247.833C187.743 247.696 187.737 247.54 187.732 247.367C187.727 247.192 187.725 247.009 187.725 246.815C187.363 246.815 187.087 246.836 186.897 246.877C186.711 246.918 186.593 246.967 186.551 247.025C186.531 247.049 186.513 247.091 186.5 247.148C186.485 247.207 186.473 247.272 186.464 247.344C186.453 247.418 186.447 247.492 186.441 247.569C186.437 247.647 186.435 247.716 186.435 247.78C186.435 248.001 186.467 248.184 186.532 248.327C186.597 248.47 186.708 248.542 186.861 248.542C187.027 248.542 187.183 248.521 187.333 248.483C187.483 248.444 187.633 248.396 187.783 248.337V248.337ZM189.609 248.569C189.741 248.569 189.912 248.542 190.125 248.483V248.816C190.048 248.889 189.955 248.959 189.849 249.027C189.744 249.095 189.629 249.154 189.509 249.204C189.387 249.256 189.261 249.295 189.132 249.324C189.001 249.354 188.873 249.367 188.747 249.367C188.612 249.367 188.495 249.349 188.399 249.313C188.303 249.277 188.22 249.228 188.148 249.168C188.079 249.108 188.02 249.042 187.972 248.97C187.924 248.896 187.881 248.824 187.848 248.751C187.723 248.833 187.6 248.913 187.479 248.991C187.357 249.068 187.231 249.137 187.097 249.197C186.964 249.257 186.824 249.306 186.676 249.343C186.529 249.379 186.367 249.396 186.188 249.396C185.783 249.396 185.46 249.276 185.227 249.033C184.992 248.792 184.875 248.427 184.875 247.939C184.875 247.677 184.911 247.452 184.98 247.261C185.051 247.071 185.163 246.911 185.317 246.783C185.473 246.655 185.672 246.557 185.92 246.492C186.167 246.427 186.468 246.391 186.825 246.38L187.717 246.351V245.633C187.717 245.44 187.663 245.299 187.551 245.209C187.44 245.12 187.253 245.075 186.993 245.075C186.804 245.075 186.587 245.096 186.34 245.14C186.093 245.184 185.837 245.256 185.572 245.357L185.368 244.843C185.548 244.766 185.733 244.69 185.931 244.619C186.127 244.545 186.324 244.48 186.525 244.423C186.725 244.364 186.928 244.319 187.133 244.284C187.34 244.251 187.545 244.233 187.753 244.233C187.981 244.233 188.184 244.254 188.367 244.296C188.548 244.336 188.7 244.406 188.824 244.501C188.947 244.599 189.04 244.727 189.105 244.887C189.172 245.047 189.204 245.244 189.204 245.48V247.772C189.204 248.304 189.339 248.569 189.609 248.569" fill="#1C1817"/>
<path d="M194.792 249.303H193.305V241.166L194.792 240.876V249.303Z" fill="#1C1817"/>
<path d="M198.916 245.024L198.357 244.849V244.545L199.967 243.472H200.373L200.395 244.343H201.968L201.903 244.887C201.781 244.906 201.637 244.924 201.467 244.94C201.299 244.957 201.133 244.973 200.975 244.988C200.785 245.007 200.595 245.021 200.401 245.032V247.823C200.401 248.001 200.435 248.151 200.5 248.27C200.564 248.388 200.707 248.447 200.924 248.447C200.983 248.447 201.057 248.443 201.152 248.436C201.247 248.428 201.345 248.42 201.449 248.411C201.553 248.401 201.656 248.389 201.757 248.377C201.86 248.366 201.944 248.355 202.011 248.345V248.759C201.887 248.836 201.74 248.912 201.577 248.987C201.412 249.061 201.24 249.13 201.057 249.189C200.876 249.251 200.692 249.3 200.503 249.339C200.315 249.377 200.136 249.396 199.967 249.396C199.836 249.396 199.708 249.384 199.583 249.36C199.457 249.336 199.344 249.289 199.245 249.219C199.147 249.149 199.065 249.051 199.005 248.925C198.945 248.799 198.916 248.635 198.916 248.432V245.024" fill="#1C1817"/>
<path d="M206.365 251.709C206.105 252.024 205.845 252.255 205.584 252.401C205.323 252.549 205.053 252.624 204.779 252.624C204.639 252.624 204.485 252.612 204.323 252.59C204.157 252.568 204.025 252.541 203.923 252.507V252.036H204.039C204.217 252.036 204.425 251.988 204.663 251.89C204.9 251.794 205.127 251.653 205.344 251.471C205.461 251.368 205.597 251.239 205.759 251.083C205.917 250.925 206.081 250.753 206.251 250.568C206.42 250.382 206.585 250.189 206.748 249.99C206.909 249.794 207.056 249.603 207.185 249.418C206.984 248.833 206.784 248.289 206.588 247.787C206.392 247.284 206.208 246.84 206.036 246.456C205.865 246.072 205.712 245.756 205.58 245.511C205.447 245.263 205.341 245.104 205.264 245.032C205.192 244.964 205.115 244.92 205.036 244.901C204.956 244.882 204.892 244.872 204.843 244.872H204.807V244.4C204.871 244.385 204.951 244.372 205.047 244.36C205.143 244.348 205.245 244.336 205.351 244.324C205.457 244.312 205.561 244.303 205.663 244.296C205.765 244.288 205.852 244.284 205.924 244.284C206.064 244.284 206.195 244.303 206.316 244.339C206.437 244.375 206.537 244.435 206.62 244.516C206.723 244.613 206.832 244.772 206.949 244.99C207.069 245.212 207.192 245.476 207.32 245.785C207.448 246.095 207.577 246.439 207.708 246.819C207.837 247.199 207.967 247.596 208.092 248.011H208.113C208.279 247.756 208.415 247.511 208.524 247.278C208.632 247.047 208.716 246.819 208.777 246.594C208.839 246.37 208.88 246.143 208.904 245.916C208.928 245.689 208.94 245.449 208.94 245.199C208.94 245.131 208.937 245.057 208.929 244.977C208.923 244.897 208.913 244.821 208.901 244.749C208.889 244.676 208.876 244.612 208.861 244.556C208.847 244.501 208.835 244.459 208.825 244.43L209.977 244.233C210.001 244.311 210.027 244.423 210.051 244.571C210.075 244.719 210.087 244.86 210.087 244.995C210.087 245.348 210.028 245.706 209.908 246.068C209.791 246.431 209.636 246.792 209.448 247.152C209.26 247.512 209.049 247.87 208.817 248.225C208.585 248.582 208.357 248.928 208.135 249.266C207.904 249.615 207.709 249.904 207.552 250.136C207.395 250.368 207.255 250.571 207.132 250.745C207.009 250.919 206.887 251.078 206.769 251.224C206.649 251.368 206.516 251.531 206.365 251.709" fill="#1C1817"/>
<path d="M222.179 247.671C222.179 247.951 222.117 248.18 221.993 248.359C221.871 248.539 221.729 248.696 221.571 248.831C221.483 248.902 221.392 248.973 221.299 249.042C221.204 249.108 221.097 249.17 220.979 249.223C220.86 249.276 220.725 249.318 220.572 249.349C220.42 249.38 220.243 249.396 220.04 249.396C219.673 249.396 219.336 249.36 219.032 249.288C218.727 249.215 218.441 249.099 218.176 248.94L218.547 248.011C218.652 248.08 218.771 248.154 218.901 248.233C219.032 248.312 219.169 248.387 219.311 248.454C219.453 248.521 219.603 248.579 219.761 248.624C219.917 248.671 220.081 248.694 220.249 248.694C220.367 248.694 220.468 248.685 220.557 248.668C220.648 248.651 220.724 248.62 220.787 248.577C220.84 248.539 220.877 248.47 220.901 248.371C220.927 248.272 220.94 248.152 220.94 248.011C220.94 247.847 220.875 247.719 220.747 247.628C220.619 247.535 220.46 247.455 220.271 247.384C220.084 247.315 219.876 247.244 219.652 247.175C219.428 247.104 219.22 247.012 219.032 246.899C218.844 246.785 218.685 246.637 218.557 246.456C218.428 246.275 218.364 246.036 218.364 245.742C218.364 245.645 218.381 245.548 218.415 245.448C218.449 245.349 218.495 245.254 218.551 245.161C218.605 245.071 218.669 244.984 218.741 244.904C218.815 244.824 218.887 244.754 218.959 244.69C219.144 244.536 219.344 244.421 219.565 244.347C219.785 244.272 220.04 244.233 220.331 244.233C220.571 244.233 220.827 244.247 221.095 244.273C221.363 244.3 221.619 244.331 221.86 244.364L221.693 245.351C221.577 245.312 221.449 245.273 221.312 245.235C221.173 245.196 221.037 245.16 220.899 245.13C220.761 245.097 220.629 245.072 220.504 245.054C220.379 245.033 220.264 245.024 220.163 245.024C220.037 245.024 219.939 245.031 219.869 245.043C219.8 245.055 219.745 245.072 219.707 245.096C219.667 245.121 219.639 245.168 219.623 245.237C219.605 245.308 219.597 245.38 219.597 245.452C219.597 245.601 219.661 245.72 219.789 245.808C219.917 245.894 220.077 245.972 220.268 246.039C220.459 246.107 220.667 246.176 220.888 246.247C221.111 246.316 221.317 246.409 221.508 246.525C221.699 246.642 221.859 246.788 221.987 246.967C222.113 247.147 222.179 247.38 222.179 247.671" fill="#1C1817"/>
<path d="M227.244 246.815C227.244 247.463 227.327 247.94 227.491 248.247C227.656 248.555 227.929 248.708 228.311 248.708C228.461 248.708 228.601 248.696 228.731 248.672C228.863 248.647 228.971 248.611 229.057 248.563C229.111 248.533 229.16 248.467 229.203 248.364C229.245 248.26 229.283 248.13 229.311 247.975C229.34 247.82 229.363 247.644 229.381 247.445C229.397 247.248 229.407 247.04 229.407 246.823C229.407 246.189 229.32 245.715 229.152 245.401C228.983 245.087 228.712 244.93 228.34 244.93C228.2 244.93 228.061 244.943 227.927 244.97C227.791 244.996 227.671 245.039 227.564 245.096C227.505 245.125 227.457 245.192 227.419 245.296C227.38 245.4 227.348 245.53 227.321 245.684C227.295 245.839 227.276 246.013 227.263 246.209C227.251 246.406 227.244 246.607 227.244 246.815ZM228.325 249.396C227.475 249.396 226.824 249.177 226.375 248.74C225.925 248.303 225.7 247.664 225.7 246.823C225.7 246.427 225.756 246.067 225.867 245.745C225.977 245.424 226.144 245.152 226.364 244.93C226.584 244.707 226.857 244.536 227.187 244.415C227.515 244.295 227.896 244.233 228.325 244.233C228.755 244.233 229.135 244.29 229.46 244.404C229.787 244.518 230.06 244.684 230.279 244.904C230.499 245.124 230.665 245.394 230.776 245.713C230.887 246.032 230.943 246.397 230.943 246.808C230.943 247.209 230.887 247.569 230.776 247.888C230.665 248.208 230.499 248.479 230.279 248.704C230.06 248.928 229.787 249.1 229.46 249.219C229.135 249.337 228.755 249.396 228.325 249.396" fill="#1C1817"/>
<path d="M236.2 249.303H234.713V241.166L236.2 240.876V249.303Z" fill="#1C1817"/>
<path d="M241.721 244.343V247.671C241.721 247.966 241.771 248.183 241.871 248.323C241.969 248.464 242.139 248.533 242.375 248.533C242.463 248.533 242.556 248.523 242.657 248.502C242.76 248.479 242.863 248.448 242.969 248.407C243.076 248.366 243.181 248.32 243.284 248.27C243.389 248.219 243.481 248.164 243.564 248.106V244.343H245.051V249.303H243.724L243.585 248.723H243.571C243.469 248.785 243.347 248.856 243.201 248.936C243.057 249.016 242.899 249.091 242.731 249.161C242.561 249.231 242.385 249.291 242.205 249.339C242.023 249.387 241.847 249.411 241.672 249.411C241.473 249.411 241.288 249.38 241.113 249.32C240.94 249.26 240.787 249.168 240.657 249.045C240.525 248.921 240.423 248.77 240.348 248.588C240.272 248.407 240.236 248.194 240.236 247.947V244.343H241.721" fill="#1C1817"/>
<path d="M248.981 245.024L248.423 244.849V244.545L250.033 243.472H250.439L250.46 244.343H252.033L251.968 244.887C251.848 244.906 251.703 244.924 251.533 244.94C251.364 244.957 251.2 244.973 251.04 244.988C250.851 245.007 250.661 245.021 250.467 245.032V247.823C250.467 248.001 250.5 248.151 250.565 248.27C250.631 248.388 250.772 248.447 250.989 248.447C251.048 248.447 251.123 248.443 251.219 248.436C251.312 248.428 251.411 248.42 251.516 248.411C251.619 248.401 251.721 248.389 251.824 248.377C251.925 248.366 252.009 248.355 252.076 248.345V248.759C251.952 248.836 251.807 248.912 251.643 248.987C251.477 249.061 251.305 249.13 251.123 249.189C250.943 249.251 250.757 249.3 250.569 249.339C250.38 249.377 250.201 249.396 250.033 249.396C249.901 249.396 249.773 249.384 249.648 249.36C249.523 249.336 249.411 249.289 249.311 249.219C249.212 249.149 249.132 249.051 249.072 248.925C249.011 248.799 248.981 248.635 248.981 248.432V245.024" fill="#1C1817"/>
<path d="M257.223 249.303H255.737V244.343H257.223V249.303ZM256.455 241.53L257.389 242.457L256.455 243.385L255.527 242.457L256.455 241.53Z" fill="#1C1817"/>
<path d="M262.477 246.815C262.477 247.463 262.559 247.94 262.724 248.247C262.888 248.555 263.161 248.708 263.543 248.708C263.693 248.708 263.833 248.696 263.964 248.672C264.095 248.647 264.203 248.611 264.291 248.563C264.343 248.533 264.392 248.467 264.435 248.364C264.477 248.26 264.516 248.13 264.544 247.975C264.573 247.82 264.596 247.644 264.613 247.445C264.629 247.248 264.639 247.04 264.639 246.823C264.639 246.189 264.553 245.715 264.384 245.401C264.216 245.087 263.945 244.93 263.572 244.93C263.432 244.93 263.295 244.943 263.159 244.97C263.024 244.996 262.903 245.039 262.796 245.096C262.739 245.125 262.689 245.192 262.651 245.296C262.612 245.4 262.58 245.53 262.553 245.684C262.527 245.839 262.508 246.013 262.496 246.209C262.484 246.406 262.477 246.607 262.477 246.815ZM263.557 249.396C262.708 249.396 262.056 249.177 261.607 248.74C261.157 248.303 260.933 247.664 260.933 246.823C260.933 246.427 260.988 246.067 261.099 245.745C261.211 245.424 261.376 245.152 261.596 244.93C261.817 244.707 262.089 244.536 262.42 244.415C262.748 244.295 263.128 244.233 263.557 244.233C263.988 244.233 264.367 244.29 264.692 244.404C265.019 244.518 265.292 244.684 265.512 244.904C265.732 245.124 265.897 245.394 266.008 245.713C266.12 246.032 266.175 246.397 266.175 246.808C266.175 247.209 266.12 247.569 266.008 247.888C265.897 248.208 265.732 248.479 265.512 248.704C265.292 248.928 265.019 249.1 264.692 249.219C264.367 249.337 263.988 249.396 263.557 249.396" fill="#1C1817"/>
<path d="M273.273 249.303V245.975C273.273 245.678 273.224 245.461 273.125 245.321C273.027 245.182 272.857 245.111 272.62 245.111C272.535 245.111 272.44 245.121 272.337 245.144C272.237 245.166 272.133 245.197 272.027 245.237C271.92 245.278 271.816 245.325 271.711 245.376C271.607 245.427 271.515 245.48 271.432 245.539V249.303H269.945V244.343H271.272L271.409 244.923H271.424C271.527 244.86 271.649 244.788 271.795 244.708C271.94 244.63 272.097 244.554 272.265 244.484C272.435 244.413 272.609 244.355 272.792 244.307C272.972 244.257 273.151 244.233 273.325 244.233C273.523 244.233 273.709 244.264 273.883 244.324C274.057 244.384 274.209 244.476 274.34 244.6C274.469 244.724 274.573 244.875 274.648 245.057C274.723 245.237 274.76 245.452 274.76 245.699V249.303H273.273Z" fill="#1C1817"/>
<path d="M282.135 247.671C282.135 247.951 282.073 248.18 281.949 248.359C281.827 248.539 281.685 248.696 281.527 248.831C281.439 248.902 281.348 248.973 281.255 249.042C281.159 249.108 281.053 249.17 280.935 249.223C280.816 249.276 280.681 249.318 280.528 249.349C280.376 249.38 280.199 249.396 279.996 249.396C279.628 249.396 279.292 249.36 278.988 249.288C278.683 249.215 278.397 249.099 278.133 248.94L278.503 248.011C278.608 248.08 278.728 248.154 278.857 248.233C278.988 248.312 279.125 248.387 279.267 248.454C279.409 248.521 279.559 248.579 279.717 248.624C279.873 248.671 280.037 248.694 280.205 248.694C280.323 248.694 280.424 248.685 280.513 248.668C280.604 248.651 280.68 248.62 280.743 248.577C280.796 248.539 280.833 248.47 280.859 248.371C280.883 248.272 280.896 248.152 280.896 248.011C280.896 247.847 280.831 247.719 280.703 247.628C280.575 247.535 280.416 247.455 280.227 247.384C280.04 247.315 279.832 247.244 279.608 247.175C279.384 247.104 279.176 247.012 278.988 246.899C278.8 246.785 278.641 246.637 278.513 246.456C278.384 246.275 278.32 246.036 278.32 245.742C278.32 245.645 278.337 245.548 278.371 245.448C278.405 245.349 278.451 245.254 278.507 245.161C278.561 245.071 278.625 244.984 278.697 244.904C278.771 244.824 278.843 244.754 278.915 244.69C279.1 244.536 279.3 244.421 279.521 244.347C279.741 244.272 279.996 244.233 280.287 244.233C280.527 244.233 280.783 244.247 281.051 244.273C281.319 244.3 281.575 244.331 281.816 244.364L281.649 245.351C281.533 245.312 281.405 245.273 281.268 245.235C281.129 245.196 280.993 245.16 280.855 245.13C280.717 245.097 280.585 245.072 280.46 245.054C280.335 245.033 280.22 245.024 280.119 245.024C279.993 245.024 279.895 245.031 279.825 245.043C279.756 245.055 279.701 245.072 279.663 245.096C279.623 245.121 279.595 245.168 279.579 245.237C279.561 245.308 279.553 245.38 279.553 245.452C279.553 245.601 279.617 245.72 279.745 245.808C279.873 245.894 280.033 245.972 280.224 246.039C280.415 246.107 280.623 246.176 280.844 246.247C281.067 246.316 281.273 246.409 281.465 246.525C281.655 246.642 281.815 246.788 281.943 246.967C282.071 247.147 282.135 247.38 282.135 247.671" fill="#1C1817"/>
<path fill-rule="evenodd" clip-rule="evenodd" d="M218.371 86.2655L219.963 85.2428V86.7588L218.371 87.7842V86.2655" fill="#F6F6F6"/>
<path fill-rule="evenodd" clip-rule="evenodd" d="M220.896 84.6335L222.499 83.5829V85.0922L220.896 86.1135V84.6335Z" fill="#F6F6F6"/>
<path fill-rule="evenodd" clip-rule="evenodd" d="M218.371 90.7535L219.963 89.7348V91.2508L218.371 92.2642V90.7535" fill="#F6F6F6"/>
<path fill-rule="evenodd" clip-rule="evenodd" d="M220.896 89.1176L222.499 88.0682V89.5842L220.896 90.6042V89.1176Z" fill="#F6F6F6"/>
<path fill-rule="evenodd" clip-rule="evenodd" d="M218.371 95.2388L219.963 94.2254V95.7348L218.371 96.7561V95.2388Z" fill="#F6F6F6"/>
<path fill-rule="evenodd" clip-rule="evenodd" d="M220.896 93.6067L222.499 92.5534V94.0734L220.896 95.092V93.6067Z" fill="#F6F6F6"/>
<path fill-rule="evenodd" clip-rule="evenodd" d="M218.371 99.5375L219.963 98.5175V100.032L218.371 101.056V99.5375" fill="#F6F6F6"/>
<path fill-rule="evenodd" clip-rule="evenodd" d="M220.896 97.9054L222.499 96.8574V98.3667L220.896 99.384V97.9054" fill="#F6F6F6"/>
<path fill-rule="evenodd" clip-rule="evenodd" d="M218.371 104.028L219.963 103.008V104.524L218.371 105.539V104.028" fill="#F6F6F6"/>
<path fill-rule="evenodd" clip-rule="evenodd" d="M220.896 102.389L222.499 101.34V102.857L220.896 103.877V102.389" fill="#F6F6F6"/>
<path fill-rule="evenodd" clip-rule="evenodd" d="M218.371 108.511L219.963 107.495V109.008L218.371 110.03V108.511Z" fill="#F6F6F6"/>
<path fill-rule="evenodd" clip-rule="evenodd" d="M220.896 106.875L222.499 105.828V107.345L220.896 108.365V106.875" fill="#F6F6F6"/>
<path fill-rule="evenodd" clip-rule="evenodd" d="M288.717 114.475V105.004L288.372 104.404L284.073 101.724V88.8588L283.753 88.2601L273.668 81.7908L273.067 81.7188L263.125 85.0561L263.188 53.2495C263.188 52.9548 263.04 52.6828 262.813 52.5094L248.839 42.4028C248.553 42.2015 248.192 42.1761 247.879 42.3268C247.583 42.4854 247.391 42.7988 247.391 43.1468V55.9561L235.803 63.0521C235.537 63.2201 235.367 63.5081 235.367 63.8308V81.6228L224.469 78.0721C224.333 78.0321 224.207 78.0321 224.076 78.0628L224.044 78.0161L223.844 78.1654C223.844 78.1654 223.837 78.1681 223.837 78.1708C223.829 78.1735 223.829 78.1734 223.825 78.1801L216.377 83.6228C216.189 83.7588 216.081 83.9628 216.081 84.1961V112.711C205.753 115.933 199.824 119.501 199.824 119.501C199.824 119.501 210.132 116.619 223.544 114.395V114.407C224.013 114.327 224.484 114.263 224.959 114.192V114.165C232.735 112.923 241.443 111.936 249.733 111.865C280.712 111.6 303.023 121.085 303.023 121.085C299.712 118.883 294.655 116.559 288.717 114.475" fill="#C8AA22"/>
<path d="M229.489 85.0134L227.561 84.5028V82.9708L229.489 83.4788V85.0134Z" fill="#F6F6F6"/>
<path d="M232.327 85.6934L230.393 85.1827V83.6534L232.327 84.1614V85.6934Z" fill="#F6F6F6"/>
<path d="M229.489 89.4348L227.561 88.9255V87.3948L229.489 87.9055V89.4348Z" fill="#F6F6F6"/>
<path d="M232.327 90.1174L230.393 89.6081V88.0748L232.327 88.5841V90.1174Z" fill="#F6F6F6"/>
<path d="M229.489 93.8616L227.561 93.3509V91.8176L229.489 92.3296V93.8616Z" fill="#F6F6F6"/>
<path d="M232.327 94.5427L230.393 94.0321V92.4987L232.327 93.0107V94.5427Z" fill="#F6F6F6"/>
<path d="M229.489 98.2854L227.561 97.7721V96.2454L229.489 96.7547V98.2854Z" fill="#F6F6F6"/>
<path d="M232.327 98.9656L230.393 98.4549V96.9229L232.327 97.4349V98.9656Z" fill="#F6F6F6"/>
<path d="M229.489 102.709L227.561 102.199V100.668L229.489 101.175V102.709Z" fill="#F6F6F6"/>
<path d="M232.327 103.388L230.393 102.878V101.347L232.327 101.858V103.388Z" fill="#F6F6F6"/>
<path d="M229.489 107.136L227.561 106.623V105.091L229.489 105.602V107.136Z" fill="#F6F6F6"/>
<path d="M232.327 107.815L230.393 107.304V105.773L232.327 106.284V107.815Z" fill="#F6F6F6"/>
<path fill-rule="evenodd" clip-rule="evenodd" d="M281.803 91.2293L275.357 87.18V88.6947L281.803 92.7427V91.2293Z" fill="#F6F6F6"/>
<path fill-rule="evenodd" clip-rule="evenodd" d="M281.803 96.5748L275.357 92.5241V94.0348L281.803 98.0881V96.5748Z" fill="#F6F6F6"/>
<path fill-rule="evenodd" clip-rule="evenodd" d="M238.747 68.0227L241.427 66.3174V68.8574L238.747 70.5601V68.0227Z" fill="#F6F6F6"/>
<path fill-rule="evenodd" clip-rule="evenodd" d="M238.747 75.5454L241.427 73.8441V76.3734L238.747 78.0801V75.5454Z" fill="#F6F6F6"/>
<path fill-rule="evenodd" clip-rule="evenodd" d="M242.991 72.8148L245.679 71.0495V73.5908L242.991 75.2961V72.8148Z" fill="#F6F6F6"/>
<path fill-rule="evenodd" clip-rule="evenodd" d="M242.991 65.7748L245.679 64.0201V66.5535L242.991 68.2615V65.7748" fill="#F6F6F6"/>
<path fill-rule="evenodd" clip-rule="evenodd" d="M238.747 83.0589L241.427 81.3535V83.8869L238.747 85.5962V83.0589Z" fill="#F6F6F6"/>
<path fill-rule="evenodd" clip-rule="evenodd" d="M242.991 80.32L245.679 78.5653V81.1107L242.991 82.812V80.32" fill="#F6F6F6"/>
<path fill-rule="evenodd" clip-rule="evenodd" d="M238.747 89.8535L241.427 88.1348V90.6801L238.747 92.3774V89.8535Z" fill="#F6F6F6"/>
<path fill-rule="evenodd" clip-rule="evenodd" d="M242.991 87.1135L245.679 85.3628V87.8975L242.991 89.6082V87.1135" fill="#F6F6F6"/>
<path fill-rule="evenodd" clip-rule="evenodd" d="M238.747 97.3682L241.427 95.6562V98.1908L238.747 99.9028V97.3682Z" fill="#F6F6F6"/>
<path fill-rule="evenodd" clip-rule="evenodd" d="M242.991 94.6334L245.679 92.8734V95.4067L242.991 97.124V94.6334Z" fill="#F6F6F6"/>
<path fill-rule="evenodd" clip-rule="evenodd" d="M238.747 104.873L241.427 103.173V105.708L238.747 107.421V104.873Z" fill="#F6F6F6"/>
<path fill-rule="evenodd" clip-rule="evenodd" d="M242.991 102.148L245.679 100.389V102.933L242.991 104.637V102.148" fill="#F6F6F6"/>
<path fill-rule="evenodd" clip-rule="evenodd" d="M259.807 58.7494L256.719 56.7947V59.712L259.807 61.676V58.7494Z" fill="#F6F6F6"/>
<path fill-rule="evenodd" clip-rule="evenodd" d="M259.807 67.4028L256.719 65.4348V68.3535L259.807 70.3254V67.4028Z" fill="#F6F6F6"/>
<path fill-rule="evenodd" clip-rule="evenodd" d="M254.924 64.2562L251.835 62.2336V65.1536L254.924 67.1189V64.2562Z" fill="#F6F6F6"/>
<path fill-rule="evenodd" clip-rule="evenodd" d="M254.924 56.1615L251.835 54.1362V57.0508L254.924 59.0242V56.1615" fill="#F6F6F6"/>
<path fill-rule="evenodd" clip-rule="evenodd" d="M259.807 76.0534L256.719 74.0854V76.9947L259.807 78.9587V76.0534Z" fill="#F6F6F6"/>
<path fill-rule="evenodd" clip-rule="evenodd" d="M254.924 72.9L251.835 70.8854V73.8L254.924 75.7627V72.9Z" fill="#F6F6F6"/>
<path fill-rule="evenodd" clip-rule="evenodd" d="M259.807 83.8615L256.719 81.8975V84.8228L259.807 86.7788V83.8615Z" fill="#F6F6F6"/>
<path fill-rule="evenodd" clip-rule="evenodd" d="M254.924 80.7201L251.835 78.7027V81.6174L254.924 83.5774V80.7201" fill="#F6F6F6"/>
<path fill-rule="evenodd" clip-rule="evenodd" d="M259.807 92.5054L256.719 90.5374V93.4588L259.807 95.4268V92.5054Z" fill="#F6F6F6"/>
<path fill-rule="evenodd" clip-rule="evenodd" d="M254.924 89.3627L251.835 87.3374V90.264L254.924 92.228V89.3627Z" fill="#F6F6F6"/>
<path fill-rule="evenodd" clip-rule="evenodd" d="M259.807 101.152L256.719 99.1868V102.103L259.807 104.068V101.152Z" fill="#F6F6F6"/>
<path fill-rule="evenodd" clip-rule="evenodd" d="M254.924 98.0015L251.835 95.9855V98.9095L254.924 100.871V98.0015" fill="#F6F6F6"/>
<path fill-rule="evenodd" clip-rule="evenodd" d="M281.803 101.736L275.357 97.6854V99.2068L281.803 103.256V101.736" fill="#F6F6F6"/>
<path fill-rule="evenodd" clip-rule="evenodd" d="M281.837 106.771L275.269 102.941L275.319 104.456L281.892 108.285L281.837 106.771Z" fill="#F6F6F6"/>
<path d="M271.391 87.9815L271.371 86.6735L264.795 88.8309L264.803 90.1655L271.391 87.9815Z" fill="#F6F6F6"/>
<path d="M271.391 92.0041L271.371 90.6974L264.809 92.8534L264.815 94.1787L271.391 92.0041" fill="#F6F6F6"/>
<path d="M271.391 96.0229L271.371 94.7162L264.825 96.8642L264.829 98.2002L271.391 96.0229Z" fill="#F6F6F6"/>
<path d="M271.391 100.256L271.371 98.9481L264.837 101.096L264.84 102.429L271.391 100.256Z" fill="#F6F6F6"/>
<path d="M271.391 104.491L271.371 103.183L264.849 105.325L264.852 106.66L271.391 104.491" fill="#F6F6F6"/>
<path d="M178.087 136.108C178.087 136.108 213.941 199.568 300.295 169.549C300.295 169.549 226.567 211.015 168.156 136.108H178.087Z" fill="#C8AA22"/>
<path d="M157.136 44.5161C157.136 44.5161 183.049 5.12678 232.664 -0.00122302C232.664 -0.00122302 193.276 11.0148 175.409 44.5161H157.136Z" fill="#C8AA22"/>
<path d="M378.741 200.899L320.735 142.229C334.668 127.123 343.181 106.944 343.181 84.7733C343.181 37.9533 305.227 -0.00130519 258.405 -0.00130519C225.599 -0.00130519 197.144 18.6347 183.049 45.8987L210.065 45.616C221.471 31.5534 238.889 22.5654 258.405 22.5654C292.763 22.5654 320.613 50.4173 320.613 84.7733C320.613 119.131 292.763 146.983 258.405 146.983C245.956 146.983 234.361 143.325 224.635 137.027L191.717 137.12C207.237 156.866 231.341 169.549 258.405 169.549C274.689 169.549 289.897 164.955 302.812 156.997L362.295 217.16C367.005 221.924 374.561 222.163 379.084 217.692C383.607 213.22 383.453 205.663 378.741 200.899" fill="#3B3A3B"/>
</g>
<defs>
<clipPath id="clip0">
<rect width="382.373" height="258.947" fill="white"/>
</clipPath>
</defs>
</svg>
