<svg width="360" height="360" viewBox="0 0 360 360" fill="none" xmlns="http://www.w3.org/2000/svg">
<path d="M62.5965 278.568C127.663 313.438 233.157 313.438 298.224 278.568C363.29 243.698 363.283 187.171 298.224 152.302C233.165 117.432 127.663 117.432 62.5965 152.302C-2.46986 187.171 -2.46266 243.706 62.5965 278.568Z" fill="#F5F5F5"/>
<path d="M83.7717 52.9488L78.7317 55.8288C78.7317 55.6056 78.7749 55.3824 78.7749 55.1664V53.7264C78.7749 51.1488 76.9605 50.1264 74.7285 51.3936C73.7652 51.9815 72.942 52.7728 72.3164 53.712C71.9492 50.4648 69.4364 49.2552 66.3116 51.0408C62.9708 52.9704 60.2564 57.6648 60.2564 61.5312V63.6912C60.2462 64.5726 60.4383 65.4446 60.818 66.24L56.6636 68.6376C56.0102 69.0638 55.4664 69.6379 55.0761 70.3133C54.6858 70.9888 54.4601 71.7467 54.4172 72.5256C54.4172 73.9656 55.4252 74.5416 56.6636 73.8216L83.7717 58.1328C84.4255 57.7071 84.9696 57.1331 85.3599 56.4575C85.7503 55.782 85.9757 55.0239 86.0181 54.2448C86.0325 52.8192 85.0245 52.236 83.7717 52.9488Z" fill="#EBEBEB"/>
<path d="M105.206 67.536L101.426 69.696C101.436 69.5281 101.436 69.3598 101.426 69.192V68.1192C101.426 66.1752 100.058 65.3832 98.3732 66.3552C97.6486 66.8023 97.0276 67.3987 96.5516 68.1048C96.278 65.6568 94.3556 64.7496 92.0228 66.096C90.6903 66.9622 89.5816 68.1312 88.787 69.5076C87.9924 70.8841 87.5346 72.4289 87.4508 74.016V75.6504C87.4366 76.3051 87.5695 76.9546 87.8396 77.5512L84.7004 79.3584C84.2076 79.6808 83.7976 80.1148 83.5036 80.6251C83.2097 81.1355 83.04 81.7079 83.0084 82.296C83.0084 83.376 83.7644 83.8152 84.7004 83.2752L105.17 71.4528C105.663 71.1319 106.073 70.6992 106.367 70.19C106.661 69.6809 106.83 69.1095 106.862 68.5224C106.898 67.4352 106.142 66.996 105.206 67.536Z" fill="#EBEBEB"/>
<path d="M307.512 87.1705L303.732 89.3305C303.742 89.1627 303.742 88.9943 303.732 88.8265V87.7321C303.732 85.7881 302.364 84.9961 300.679 85.9753C299.951 86.4182 299.329 87.0155 298.857 87.7249C298.584 85.2769 296.697 84.3625 294.329 85.7089C292.997 86.5759 291.89 87.7453 291.097 89.1217C290.303 90.4981 289.847 92.0424 289.764 93.6289V95.2633C289.745 95.9176 289.876 96.5676 290.145 97.1641L287.013 98.9713C286.52 99.2934 286.109 99.7271 285.813 100.237C285.518 100.748 285.347 101.32 285.314 101.909C285.314 102.989 286.077 103.428 287.013 102.888L307.483 91.0657C307.976 90.7448 308.386 90.3122 308.68 89.803C308.974 89.2938 309.143 88.7224 309.175 88.1353C309.204 87.0697 308.448 86.6305 307.512 87.1705Z" fill="#EBEBEB"/>
<path d="M81.8636 157.277L25.7108 189.698V192.398L77.1836 222.113L133.336 189.698V186.998L81.8636 157.277Z" fill="#D7BF27"/>
<path opacity="0.15" d="M25.7108 189.698L77.1836 219.413V222.113L25.7108 192.398V189.698Z" fill="black"/>
<path opacity="0.1" d="M77.1837 219.413L133.337 186.998V189.698L77.1837 222.113V219.413Z" fill="black"/>
<path d="M128.34 177.25L126.121 181.622L126.481 181.805L128.7 177.432L128.34 177.25Z" fill="#455A64"/>
<path d="M124.239 176.907L123.896 177.119L126.06 180.615L126.403 180.403L124.239 176.907Z" fill="#455A64"/>
<path d="M126.641 176.501V187.042C126.639 187.071 126.63 187.099 126.613 187.123C126.597 187.147 126.574 187.166 126.547 187.178C126.474 187.217 126.392 187.238 126.309 187.238C126.226 187.238 126.145 187.217 126.072 187.178C126.044 187.167 126.019 187.149 126.001 187.125C125.984 187.1 125.973 187.072 125.971 187.042V176.501H126.641Z" fill="#455A64"/>
<path d="M134.611 173.225C134.611 174.193 134.324 175.14 133.786 175.945C133.248 176.75 132.483 177.378 131.589 177.748C130.694 178.119 129.709 178.216 128.76 178.027C127.81 177.838 126.938 177.372 126.253 176.687C125.568 176.002 125.102 175.13 124.913 174.18C124.724 173.23 124.821 172.246 125.192 171.351C125.562 170.457 126.19 169.692 126.995 169.154C127.8 168.616 128.747 168.329 129.715 168.329C131.013 168.331 132.257 168.847 133.175 169.765C134.093 170.683 134.609 171.927 134.611 173.225V173.225Z" fill="#D7BF27"/>
<path opacity="0.2" d="M131.248 171.972C131.882 169.985 132.552 169.207 132.127 168.962C131.316 168.502 130.391 168.283 129.46 168.331C128.529 168.378 127.631 168.691 126.871 169.231C126.112 169.772 125.522 170.518 125.172 171.382C124.822 172.246 124.726 173.192 124.896 174.109C125.065 175.026 125.492 175.875 126.128 176.557C126.763 177.239 127.58 177.726 128.482 177.96C129.385 178.194 130.335 178.165 131.222 177.877C132.109 177.589 132.895 177.054 133.488 176.335C132.012 176.76 130.428 174.55 131.248 171.972Z" fill="black"/>
<path d="M125.445 174.607C125.445 175.288 125.243 175.953 124.865 176.519C124.487 177.085 123.95 177.526 123.321 177.787C122.692 178.047 122 178.115 121.332 177.983C120.665 177.85 120.051 177.522 119.57 177.041C119.089 176.559 118.761 175.946 118.628 175.279C118.495 174.611 118.563 173.919 118.824 173.29C119.084 172.661 119.526 172.124 120.092 171.746C120.658 171.367 121.323 171.166 122.004 171.166C122.916 171.166 123.792 171.528 124.437 172.174C125.083 172.819 125.445 173.694 125.445 174.607V174.607Z" fill="#D7BF27"/>
<path opacity="0.2" d="M122.004 171.166C121.281 171.165 120.578 171.395 119.995 171.821C119.901 173.916 121.687 175.968 121.183 176.659C120.679 177.35 119.462 176.926 119.023 176.335C119.326 176.857 119.761 177.291 120.285 177.591C120.809 177.892 121.402 178.05 122.006 178.049C122.61 178.048 123.203 177.887 123.725 177.585C124.248 177.282 124.681 176.847 124.982 176.323C125.284 175.8 125.442 175.206 125.441 174.602C125.44 173.998 125.28 173.405 124.978 172.883C124.675 172.36 124.24 171.926 123.717 171.625C123.194 171.323 122.6 171.165 121.996 171.166H122.004Z" fill="black"/>
<path d="M126.309 177.214C129.797 177.214 132.624 174.386 132.624 170.899C132.624 167.412 129.797 164.585 126.309 164.585C122.822 164.585 119.995 167.412 119.995 170.899C119.995 174.386 122.822 177.214 126.309 177.214Z" fill="#D7BF27"/>
<path opacity="0.1" d="M132.451 172.339C132.212 173.362 131.723 174.308 131.026 175.094C130.33 175.88 129.449 176.479 128.462 176.838C127.476 177.198 126.416 177.305 125.377 177.152C124.339 176.998 123.355 176.588 122.515 175.958C121.675 175.329 121.005 174.499 120.566 173.546C120.127 172.592 119.932 171.544 120 170.497C120.068 169.449 120.396 168.435 120.955 167.546C121.513 166.657 122.285 165.921 123.199 165.406C122.665 165.72 122.18 166.111 121.759 166.565C121.445 167.915 121.584 169.33 122.155 170.593C122.727 171.855 123.698 172.895 124.919 173.55C126.139 174.206 127.542 174.441 128.91 174.22C130.278 173.998 131.535 173.332 132.487 172.325L132.451 172.339Z" fill="black"/>
<path d="M34.7849 179.94L32.5658 184.313L32.9253 184.495L35.1445 180.123L34.7849 179.94Z" fill="#455A64"/>
<path d="M30.6663 179.592L30.3235 179.804L32.4875 183.3L32.8303 183.087L30.6663 179.592Z" fill="#455A64"/>
<path d="M33.0765 179.186V189.727C33.0736 189.757 33.0627 189.785 33.0449 189.809C33.0272 189.833 33.0032 189.852 32.9757 189.864C32.9015 189.9 32.8203 189.918 32.7381 189.918C32.6558 189.918 32.5746 189.9 32.5005 189.864C32.4737 189.852 32.4509 189.833 32.4343 189.809C32.4178 189.785 32.4083 189.756 32.4069 189.727V179.186H33.0765Z" fill="#455A64"/>
<path d="M41.0469 175.903C41.0469 176.871 40.7597 177.818 40.2218 178.623C39.6838 179.428 38.9191 180.056 38.0245 180.426C37.1299 180.797 36.1455 180.894 35.1957 180.705C34.246 180.516 33.3736 180.05 32.6889 179.365C32.0042 178.68 31.5379 177.808 31.349 176.858C31.16 175.909 31.257 174.924 31.6276 174.029C31.9981 173.135 32.6257 172.37 33.4308 171.832C34.236 171.294 35.1825 171.007 36.1509 171.007C37.4494 171.007 38.6947 171.523 39.6129 172.441C40.5311 173.359 41.0469 174.605 41.0469 175.903V175.903Z" fill="#D7BF27"/>
<path opacity="0.2" d="M37.6917 174.65C38.3253 172.663 38.9949 171.886 38.5701 171.648C37.8365 171.226 37.0045 171.005 36.1581 171.007C35.3331 171.007 34.5214 171.215 33.7984 171.612C33.0754 172.009 32.4644 172.583 32.0223 173.279C31.5802 173.976 31.3212 174.773 31.2694 175.596C31.2176 176.419 31.3747 177.242 31.7261 177.989C32.0775 178.735 32.6118 179.38 33.2794 179.865C33.947 180.35 34.7262 180.658 35.5447 180.761C36.3632 180.864 37.1944 180.758 37.9613 180.454C38.7281 180.15 39.4056 179.657 39.9309 179.021C38.4765 179.446 36.8637 177.228 37.6917 174.65Z" fill="black"/>
<path d="M31.8812 177.293C31.8812 177.973 31.6794 178.639 31.3012 179.205C30.9231 179.771 30.3856 180.212 29.7567 180.472C29.1278 180.733 28.4358 180.801 27.7682 180.668C27.1006 180.535 26.4874 180.208 26.0061 179.726C25.5248 179.245 25.197 178.632 25.0642 177.964C24.9314 177.297 24.9995 176.605 25.26 175.976C25.5205 175.347 25.9616 174.809 26.5276 174.431C27.0936 174.053 27.759 173.851 28.4396 173.851C28.8919 173.85 29.3398 173.939 29.7578 174.111C30.1758 174.284 30.5556 174.537 30.8753 174.857C31.1951 175.177 31.4486 175.557 31.6212 175.975C31.7938 176.393 31.8822 176.841 31.8812 177.293V177.293Z" fill="#D7BF27"/>
<path opacity="0.2" d="M28.4397 173.851C27.7183 173.849 27.0147 174.075 26.4309 174.499C26.3373 176.602 28.1157 178.654 27.6189 179.338C27.1221 180.022 25.8909 179.604 25.4589 179.021C25.7621 179.543 26.1974 179.976 26.721 180.277C27.2447 180.578 27.8382 180.736 28.4421 180.734C29.046 180.733 29.639 180.573 30.1614 180.27C30.6838 179.967 31.1174 179.532 31.4185 179.009C31.7196 178.485 31.8776 177.892 31.8768 177.288C31.876 176.684 31.7162 176.091 31.4136 175.568C31.1111 175.046 30.6763 174.612 30.153 174.311C29.6297 174.009 29.0364 173.851 28.4325 173.851H28.4397Z" fill="black"/>
<path d="M32.7381 179.892C36.2254 179.892 39.0525 177.065 39.0525 173.578C39.0525 170.09 36.2254 167.263 32.7381 167.263C29.2508 167.263 26.4237 170.09 26.4237 173.578C26.4237 177.065 29.2508 179.892 32.7381 179.892Z" fill="#D7BF27"/>
<path opacity="0.1" d="M38.8796 175.025C38.6385 176.044 38.1473 176.987 37.4505 177.769C36.7536 178.551 35.8731 179.147 34.8882 179.504C33.9034 179.86 32.8452 179.966 31.8094 179.811C30.7735 179.656 29.7925 179.246 28.9549 178.617C28.1174 177.988 27.4496 177.16 27.0118 176.209C26.5741 175.257 26.3802 174.212 26.4477 173.167C26.5151 172.121 26.8418 171.109 27.3982 170.222C27.9547 169.335 28.7233 168.6 29.6348 168.084C29.0901 168.398 28.5931 168.788 28.1588 169.243C27.8476 170.591 27.9884 172.005 28.5595 173.265C29.1306 174.525 30.1003 175.563 31.3193 176.218C32.5382 176.873 33.9386 177.109 35.3048 176.889C36.671 176.67 37.9271 176.007 38.8796 175.003V175.025Z" fill="black"/>
<path d="M94.6077 201.247L102.448 196.726L109.483 200.786L101.649 205.301L94.6077 201.247Z" fill="#F0F0F0"/>
<path d="M39.7581 189.698L39.7509 165.384L77.1909 186.991V211.313L39.7581 189.698Z" fill="#F0F0F0"/>
<path d="M39.7509 175.032L77.1909 196.654V186.991L39.7509 165.384V175.032Z" fill="#E0E0E0"/>
<path d="M119.296 186.991V163.354L105.256 159.977V157.277L77.1908 186.991V211.313L119.296 186.991Z" fill="#FAFAFA"/>
<path d="M105.256 157.277V159.977L121.636 164.03V161.33L105.256 157.277Z" fill="#263238"/>
<path d="M84.2108 139.716L121.636 161.33L105.256 157.277L67.8236 135.662L84.2108 139.716Z" fill="#37474F"/>
<path d="M74.8437 191.059L105.264 157.277V154.577L72.5037 192.398L74.8437 191.059Z" fill="#37474F"/>
<path d="M67.8309 132.962L105.264 154.577L72.5613 192.434L35.0709 170.784L67.8309 132.962Z" fill="#455A64"/>
<path d="M56.0878 167.983L60.8038 170.705V177.538L56.0878 174.838V167.983Z" fill="#263238"/>
<path d="M60.8037 170.705L65.5125 167.983V172.138L60.8037 177.538V170.705Z" fill="#37474F"/>
<path d="M60.8036 163.354L55.598 166.356V167.717L60.8036 170.705L66.002 167.717V166.356L60.8036 163.354Z" fill="#F5F5F5"/>
<path d="M55.598 167.717L60.8036 170.705V169.344L55.598 166.356V167.717Z" fill="#E0E0E0"/>
<path d="M66.0021 167.717L60.8037 170.705V169.344L66.0021 166.356V167.717Z" fill="#EBEBEB"/>
<path d="M57.3477 166.356L60.8037 164.362L64.2597 166.356L60.8037 168.343L57.3477 166.356Z" fill="#D7BF27"/>
<path d="M60.8037 164.362V168.343L57.3477 166.356L60.8037 164.362Z" fill="#37474F"/>
<path d="M60.8037 164.362L64.2597 166.356L60.8037 168.343V164.362Z" fill="#263238"/>
<path d="M80.222 193.349L90.7556 187.272V195.379L80.222 201.456V193.349Z" fill="#455A64"/>
<path d="M90.2876 195.106V187.546L80.222 193.349V200.916L90.2876 195.106Z" fill="#E0E0E0"/>
<path d="M90.7556 195.379L90.2876 195.106L80.222 200.916V201.456L90.7556 195.379Z" fill="#37474F"/>
<path d="M80.222 197.402L90.7556 191.326V190.778L80.222 196.855V197.402Z" fill="#455A64"/>
<path d="M105.962 178.481L116.488 172.404V180.511L105.962 186.588V178.481Z" fill="#455A64"/>
<path d="M116.02 180.238V172.678L105.962 178.481V186.048L116.02 180.238Z" fill="#E0E0E0"/>
<path d="M116.488 180.511L116.02 180.238L105.962 186.048V186.588L116.488 180.511Z" fill="#37474F"/>
<path d="M105.962 182.534L116.488 176.458V175.91L105.962 181.994V182.534Z" fill="#455A64"/>
<path d="M94.6077 201.247V185.04L102.449 180.518V196.726L94.6077 201.247Z" fill="#37474F"/>
<path d="M102.175 196.517V180.677L94.6077 185.04V200.88L102.175 196.517Z" fill="#455A64"/>
<path d="M102.448 180.518L102.175 180.677V196.517L102.448 196.726V180.518Z" fill="#263238"/>
<path d="M68.6445 190.174L63.1437 186.998V195.098L68.6445 198.274V190.174Z" fill="#455A64"/>
<path d="M63.6117 194.825V187.265L68.6445 190.174V197.734L63.6117 194.825Z" fill="#FAFAFA"/>
<path d="M63.1437 195.098L63.6117 194.825L68.6445 197.734V198.274L63.1437 195.098Z" fill="#37474F"/>
<path d="M68.6445 194.198L63.1437 191.045V190.498L68.6445 193.651V194.198Z" fill="#455A64"/>
<path d="M63.6117 187.265L68.6445 190.174V191.736L63.6117 188.849V187.265Z" fill="#F5F5F5"/>
<path d="M52.2645 180.713L46.7637 177.538V185.645L52.2645 188.82V180.713Z" fill="#455A64"/>
<path d="M47.2389 185.371V177.811L52.2645 180.713V188.273L47.2389 185.371Z" fill="#FAFAFA"/>
<path d="M46.7637 185.645L47.2389 185.371L52.2645 188.273V188.82L46.7637 185.645Z" fill="#37474F"/>
<path d="M52.2645 184.737L46.7637 181.584V181.037L52.2645 184.19V184.737Z" fill="#455A64"/>
<path d="M47.2389 177.811L52.2645 180.713V182.21L47.2389 179.33V177.811Z" fill="#F5F5F5"/>
<path d="M276.631 154.915L220.478 187.337V190.037L276.631 222.458L332.791 190.037V187.337L276.631 154.915Z" fill="#D7BF27"/>
<path opacity="0.15" d="M220.478 187.337L276.638 219.758L276.631 222.458L220.478 190.037V187.337Z" fill="black"/>
<path opacity="0.1" d="M276.638 219.758L332.791 187.337V190.037L276.631 222.458L276.638 219.758Z" fill="black"/>
<path d="M327.95 177.676L325.731 182.049L326.09 182.231L328.309 177.859L327.95 177.676Z" fill="#455A64"/>
<path d="M324.412 176.104L324.069 176.318L326.248 179.812L326.591 179.599L324.412 176.104Z" fill="#455A64"/>
<path d="M326.261 176.933V187.474C326.259 187.503 326.25 187.531 326.233 187.555C326.217 187.579 326.194 187.598 326.167 187.61C326.094 187.649 326.012 187.67 325.929 187.67C325.846 187.67 325.765 187.649 325.692 187.61C325.664 187.599 325.64 187.58 325.622 187.556C325.605 187.532 325.594 187.503 325.591 187.474V176.933H326.261Z" fill="#455A64"/>
<path d="M334.231 173.657C334.231 174.625 333.944 175.572 333.406 176.377C332.868 177.182 332.103 177.809 331.208 178.18C330.314 178.551 329.329 178.648 328.38 178.459C327.43 178.27 326.558 177.803 325.873 177.119C325.188 176.434 324.722 175.562 324.533 174.612C324.344 173.662 324.441 172.678 324.812 171.783C325.182 170.888 325.81 170.124 326.615 169.586C327.42 169.048 328.367 168.761 329.335 168.761C330.633 168.761 331.879 169.277 332.797 170.195C333.715 171.113 334.231 172.358 334.231 173.657V173.657Z" fill="#D7BF27"/>
<path opacity="0.2" d="M330.868 172.404C331.502 170.417 332.179 169.639 331.747 169.394C330.936 168.935 330.01 168.717 329.079 168.766C328.148 168.814 327.251 169.128 326.492 169.669C325.733 170.21 325.145 170.957 324.795 171.821C324.446 172.686 324.351 173.632 324.521 174.548C324.691 175.465 325.119 176.314 325.755 176.995C326.391 177.677 327.209 178.163 328.111 178.396C329.014 178.629 329.964 178.599 330.85 178.311C331.737 178.022 332.522 177.487 333.115 176.767C331.66 177.192 330.055 174.96 330.868 172.404Z" fill="black"/>
<path d="M325.065 175.039C325.065 175.72 324.863 176.385 324.485 176.951C324.107 177.517 323.57 177.958 322.941 178.219C322.312 178.479 321.62 178.547 320.952 178.415C320.285 178.282 319.671 177.954 319.19 177.473C318.709 176.991 318.381 176.378 318.248 175.711C318.115 175.043 318.184 174.351 318.444 173.722C318.705 173.093 319.146 172.556 319.712 172.178C320.278 171.799 320.943 171.598 321.624 171.598C322.536 171.598 323.412 171.96 324.057 172.606C324.703 173.251 325.065 174.126 325.065 175.039V175.039Z" fill="#D7BF27"/>
<path opacity="0.2" d="M321.624 171.598C320.902 171.598 320.198 171.828 319.615 172.253C319.521 174.348 321.307 176.4 320.81 177.091C320.313 177.782 319.082 177.358 318.65 176.767C318.953 177.289 319.388 177.723 319.912 178.023C320.436 178.324 321.029 178.482 321.633 178.481C322.237 178.48 322.83 178.319 323.352 178.017C323.875 177.714 324.308 177.279 324.61 176.755C324.911 176.232 325.069 175.638 325.068 175.034C325.067 174.43 324.907 173.837 324.605 173.315C324.302 172.792 323.867 172.358 323.344 172.057C322.821 171.755 322.227 171.597 321.624 171.598V171.598Z" fill="black"/>
<path d="M325.929 177.646C329.417 177.646 332.244 174.819 332.244 171.331C332.244 167.844 329.417 165.017 325.929 165.017C322.442 165.017 319.615 167.844 319.615 171.331C319.615 174.819 322.442 177.646 325.929 177.646Z" fill="#D7BF27"/>
<path opacity="0.1" d="M332.071 172.8C331.827 173.818 331.333 174.76 330.634 175.54C329.936 176.321 329.054 176.915 328.068 177.269C327.083 177.624 326.024 177.728 324.989 177.572C323.953 177.416 322.973 177.004 322.135 176.375C321.298 175.745 320.631 174.918 320.193 173.966C319.756 173.014 319.562 171.969 319.629 170.924C319.696 169.878 320.022 168.866 320.578 167.978C321.133 167.091 321.901 166.355 322.812 165.838C322.262 166.147 321.762 166.538 321.328 166.997C321.015 168.346 321.154 169.762 321.725 171.025C322.296 172.287 323.267 173.327 324.488 173.982C325.709 174.638 327.112 174.873 328.48 174.651C329.848 174.43 331.105 173.764 332.056 172.757L332.071 172.8Z" fill="black"/>
<path d="M229.534 177.446L227.315 181.818L227.674 182.001L229.894 177.628L229.534 177.446Z" fill="#455A64"/>
<path d="M226.023 176.223L225.68 176.437L227.859 179.931L228.202 179.718L226.023 176.223Z" fill="#455A64"/>
<path d="M227.844 176.702V187.243C227.84 187.273 227.829 187.301 227.811 187.325C227.794 187.349 227.77 187.368 227.743 187.38C227.669 187.416 227.588 187.434 227.505 187.434C227.423 187.434 227.342 187.416 227.268 187.38C227.242 187.366 227.22 187.347 227.204 187.323C227.188 187.299 227.178 187.272 227.174 187.243V176.702H227.844Z" fill="#455A64"/>
<path d="M235.814 173.419C235.814 174.388 235.527 175.334 234.989 176.139C234.451 176.944 233.686 177.572 232.792 177.943C231.897 178.313 230.913 178.41 229.963 178.221C229.013 178.032 228.141 177.566 227.456 176.881C226.771 176.196 226.305 175.324 226.116 174.374C225.927 173.425 226.024 172.44 226.395 171.546C226.765 170.651 227.393 169.886 228.198 169.348C229.003 168.81 229.95 168.523 230.918 168.523C232.216 168.525 233.46 169.042 234.378 169.959C235.296 170.877 235.812 172.121 235.814 173.419V173.419Z" fill="#D7BF27"/>
<path opacity="0.2" d="M232.452 172.166C233.085 170.179 233.755 169.402 233.33 169.157C232.519 168.698 231.594 168.479 230.664 168.528C229.733 168.576 228.836 168.889 228.077 169.429C227.318 169.97 226.729 170.716 226.379 171.579C226.03 172.443 225.934 173.389 226.103 174.305C226.272 175.221 226.699 176.07 227.333 176.752C227.968 177.434 228.784 177.921 229.686 178.156C230.588 178.39 231.538 178.362 232.424 178.075C233.311 177.789 234.097 177.255 234.691 176.537C233.244 176.954 231.631 174.744 232.452 172.166Z" fill="black"/>
<path d="M226.648 174.802C226.65 175.483 226.449 176.149 226.072 176.716C225.695 177.283 225.158 177.725 224.529 177.986C223.9 178.248 223.208 178.317 222.54 178.185C221.872 178.053 221.258 177.726 220.776 177.245C220.294 176.764 219.965 176.151 219.832 175.483C219.699 174.815 219.766 174.123 220.027 173.493C220.287 172.864 220.728 172.326 221.294 171.948C221.86 171.569 222.526 171.367 223.207 171.367C224.118 171.367 224.993 171.729 225.638 172.373C226.283 173.017 226.646 173.89 226.648 174.802V174.802Z" fill="#D7BF27"/>
<path opacity="0.2" d="M223.207 171.36C222.486 171.357 221.782 171.584 221.198 172.008C221.105 174.11 222.89 176.155 222.386 176.846C221.882 177.538 220.658 177.113 220.226 176.53C220.529 177.052 220.965 177.485 221.488 177.786C222.012 178.087 222.606 178.244 223.209 178.243C223.813 178.242 224.406 178.082 224.929 177.779C225.451 177.476 225.885 177.041 226.186 176.518C226.487 175.994 226.645 175.401 226.644 174.797C226.643 174.193 226.483 173.6 226.181 173.077C225.878 172.555 225.444 172.121 224.92 171.819C224.397 171.518 223.804 171.36 223.2 171.36H223.207Z" fill="black"/>
<path d="M227.505 177.408C230.993 177.408 233.82 174.581 233.82 171.094C233.82 167.606 230.993 164.779 227.505 164.779C224.018 164.779 221.191 167.606 221.191 171.094C221.191 174.581 224.018 177.408 227.505 177.408Z" fill="#D7BF27"/>
<path opacity="0.1" d="M233.654 172.541C233.414 173.562 232.924 174.508 232.227 175.293C231.53 176.077 230.648 176.675 229.662 177.034C228.676 177.392 227.616 177.499 226.578 177.344C225.54 177.19 224.557 176.779 223.717 176.15C222.878 175.52 222.209 174.691 221.77 173.738C221.332 172.784 221.137 171.737 221.205 170.689C221.273 169.642 221.601 168.629 222.159 167.74C222.717 166.851 223.488 166.116 224.402 165.6C223.856 165.912 223.358 166.302 222.926 166.759C222.618 168.107 222.762 169.519 223.334 170.778C223.907 172.037 224.877 173.073 226.095 173.727C227.314 174.381 228.713 174.617 230.079 174.399C231.444 174.181 232.7 173.52 233.654 172.519V172.541Z" fill="black"/>
<path d="M287.942 140.818L292.651 143.539V148.982L287.942 146.261V140.818Z" fill="#E0E0E0"/>
<path d="M292.651 143.539L297.367 140.818V151.697L292.651 148.982V143.539Z" fill="#F0F0F0"/>
<path d="M292.651 136.188L287.453 139.183V140.544L292.651 143.539L297.857 140.544V139.183L292.651 136.188Z" fill="#455A64"/>
<path d="M287.453 140.544L292.651 143.539V142.178L287.453 139.183V140.544Z" fill="#37474F"/>
<path d="M297.856 140.544L292.651 143.539V142.178L297.856 139.183V140.544Z" fill="#263238"/>
<path d="M289.195 139.183L292.651 137.196L296.114 139.183L292.651 141.177L289.195 139.183Z" fill="#D7BF27"/>
<path d="M292.651 137.196V141.177L289.195 139.183L292.651 137.196Z" fill="#37474F"/>
<path d="M292.651 137.196L296.114 139.183L292.651 141.177V137.196Z" fill="#263238"/>
<path d="M276.638 195.444L276.631 171.13L290.649 179.23V203.544L276.638 195.444Z" fill="#F0F0F0"/>
<path d="M276.631 171.13L290.649 179.23V188.914L276.631 180.828V171.13Z" fill="#E0E0E0"/>
<path d="M318.751 187.337V163.022L304.682 154.915L290.649 179.23V203.544L318.751 187.337Z" fill="#FAFAFA"/>
<path d="M288.331 183.283L304.682 154.915V152.215L285.991 184.637L288.331 183.283Z" fill="#37474F"/>
<path d="M276.631 136.008L304.682 152.215L285.991 184.637L276.638 179.23L276.631 136.008Z" fill="#455A64"/>
<path d="M304.682 154.915L321.091 164.369L323.431 163.022L304.682 152.215V154.915Z" fill="#263238"/>
<path d="M310.55 176.364L316.051 173.21V181.318L310.55 184.471V176.364Z" fill="#455A64"/>
<path d="M315.583 181.044V173.484L310.55 176.364V183.924L315.583 181.044Z" fill="#E0E0E0"/>
<path d="M316.051 181.318L315.583 181.044L310.55 183.924V184.471L316.051 181.318Z" fill="#37474F"/>
<path d="M310.55 180.418L316.051 177.264V176.717L310.55 179.87V180.418Z" fill="#455A64"/>
<path d="M293.284 186.322L298.785 183.168V191.268L293.284 194.429V186.322Z" fill="#455A64"/>
<path d="M298.317 191.002V183.434L293.284 186.322V193.882L298.317 191.002Z" fill="#E0E0E0"/>
<path d="M298.785 191.268L298.317 191.002L293.284 193.882V194.429L298.785 191.268Z" fill="#37474F"/>
<path d="M293.284 190.375L298.785 187.222V186.674L293.284 189.828V190.375Z" fill="#455A64"/>
<path d="M301.176 167.076L308.196 163.022V169.099L301.176 173.153V167.076Z" fill="#455A64"/>
<path d="M307.728 168.826V163.289L301.176 167.076V172.613L307.728 168.826Z" fill="#E0E0E0"/>
<path d="M308.196 169.099L307.728 168.826L301.176 172.613V173.153L308.196 169.099Z" fill="#37474F"/>
<path d="M321.091 164.369H318.751V163.022L321.091 164.369Z" fill="black"/>
<path d="M300.765 197.697V181.49L308.606 176.969V193.176L300.765 197.697Z" fill="#37474F"/>
<path d="M308.333 192.967V177.127L300.765 181.49V197.33L308.333 192.967Z" fill="#455A64"/>
<path d="M308.606 176.969L308.333 177.127V192.967L308.606 193.176V176.969Z" fill="#263238"/>
<path d="M276.631 195.444V171.13L262.62 179.23V203.544L276.631 195.444Z" fill="#FAFAFA"/>
<path d="M276.631 171.13L262.62 179.23V188.914L276.638 180.828L276.631 171.13Z" fill="#F5F5F5"/>
<path d="M234.518 187.337V163.022L248.58 154.915L262.62 179.23V203.544L234.518 187.337Z" fill="#EBEBEB"/>
<path d="M264.938 183.283L248.58 154.915V152.215L267.278 184.637L264.938 183.283Z" fill="#455A64"/>
<path d="M276.631 136.008L248.58 152.215L267.278 184.637L276.631 179.23V136.008Z" fill="#37474F"/>
<path d="M248.58 154.915L232.178 164.369L229.838 163.022L248.58 152.215V154.915Z" fill="#263238"/>
<path d="M244.699 176.983L239.198 173.83V181.937L244.699 185.083V176.983Z" fill="#455A64"/>
<path d="M239.666 181.663V174.096L244.699 176.983V184.543L239.666 181.663Z" fill="#FAFAFA"/>
<path d="M239.666 174.096L244.699 177.005V178.006L239.666 175.118V174.096Z" fill="#F5F5F5"/>
<path d="M252.885 181.728L257.918 184.637V185.638L252.885 182.75V181.728Z" fill="#F5F5F5"/>
<path d="M239.198 181.937L239.666 181.663L244.699 184.543V185.083L239.198 181.937Z" fill="#37474F"/>
<path d="M244.699 181.037L239.198 177.883V177.336L244.699 180.489V181.037Z" fill="#455A64"/>
<path d="M252.093 167.076L245.073 163.022V169.099L252.093 173.153V167.076Z" fill="#455A64"/>
<path d="M245.541 168.826V163.289L252.093 167.076V172.613L245.541 168.826Z" fill="#FAFAFA"/>
<path d="M245.541 163.289L252.093 167.076V168.077L245.541 164.318V163.289Z" fill="#F5F5F5"/>
<path d="M245.073 169.099L245.541 168.826L252.093 172.613V173.153L245.073 169.099Z" fill="#37474F"/>
<path d="M232.178 164.369H234.518V163.022L232.178 164.369Z" fill="black"/>
<path d="M257.918 184.637L252.417 181.462V189.562L257.918 192.737V184.637Z" fill="#455A64"/>
<path d="M252.885 189.288V181.728L257.918 184.637V192.197L252.885 189.288Z" fill="#FAFAFA"/>
<path d="M252.417 189.562L252.885 189.288L257.918 192.197V192.737L252.417 189.562Z" fill="#37474F"/>
<path d="M257.918 188.661L252.417 185.508V184.961L257.918 188.114V188.661Z" fill="#455A64"/>
<path d="M252.885 181.728L257.918 184.637V185.638L252.885 182.75V181.728Z" fill="#F5F5F5"/>
<path d="M285.991 184.637L278.964 180.576V188.05L285.991 192.103V184.637Z" fill="#263238"/>
<path d="M279.396 187.798V180.828L285.991 184.637V191.606L279.396 187.798Z" fill="#FAFAFA"/>
<path d="M279.396 180.828V182.448L285.991 186.264V184.637L279.396 180.828Z" fill="#F0F0F0"/>
<path d="M278.964 188.049L279.396 187.797L285.991 191.606V192.103L278.964 188.049Z" fill="#37474F"/>
<path d="M278.964 184.313L279.396 184.061L285.991 187.87V188.374L278.964 184.313Z" fill="#37474F"/>
<path d="M282.333 189.994L282.765 190.238V182.772L282.333 182.52V189.994Z" fill="#37474F"/>
<path d="M271.828 200.88L273.074 200.16C273.417 198.135 273.468 196.072 273.225 194.033C272.599 190.058 269.884 188.683 268.905 189.079C267.926 189.475 267.696 190.656 269.474 192.953C271.082 195.278 271.907 198.054 271.828 200.88Z" fill="#D7BF27"/>
<g opacity="0.2">
<path opacity="0.2" d="M271.828 200.88L273.074 200.16C273.417 198.135 273.468 196.072 273.225 194.033C272.599 190.058 269.884 188.683 268.905 189.079C267.926 189.475 267.696 190.656 269.474 192.953C271.082 195.278 271.907 198.054 271.828 200.88Z" fill="black"/>
</g>
<path d="M272.282 199.325C272.27 199.324 272.258 199.321 272.248 199.315C272.237 199.309 272.228 199.301 272.22 199.292C272.213 199.282 272.207 199.271 272.204 199.26C272.201 199.248 272.201 199.236 272.203 199.224C272.721 195.502 271.224 191.419 269.539 189.77C269.523 189.754 269.514 189.732 269.514 189.709C269.514 189.686 269.523 189.664 269.539 189.648C269.555 189.632 269.577 189.623 269.6 189.623C269.623 189.623 269.645 189.632 269.661 189.648C271.375 191.318 272.901 195.466 272.383 199.253C272.381 199.264 272.377 199.275 272.371 199.285C272.365 199.295 272.357 199.303 272.348 199.31C272.338 199.317 272.328 199.322 272.316 199.324C272.305 199.327 272.293 199.327 272.282 199.325V199.325Z" fill="white"/>
<path d="M268.373 202.903C268.171 203.018 267.768 202.774 267.609 202.666C267.345 202.483 267.131 202.235 266.99 201.946C266.831 201.62 266.775 201.253 266.832 200.894C266.863 200.705 266.906 200.517 266.961 200.333C267.019 200.146 267.069 199.966 267.12 199.786C267.185 199.609 267.212 199.42 267.199 199.231C267.15 199.05 267.065 198.881 266.948 198.734C266.832 198.586 266.687 198.464 266.522 198.374C266.337 198.267 266.18 198.118 266.062 197.94C265.945 197.761 265.87 197.557 265.845 197.345C265.869 196.995 266.008 196.663 266.241 196.402C266.457 196.128 266.709 195.89 266.904 195.602C267.037 195.447 267.115 195.253 267.128 195.049C267.141 194.845 267.088 194.643 266.976 194.472C266.794 194.193 266.635 193.899 266.501 193.594C266.435 193.44 266.415 193.272 266.441 193.107C266.468 192.943 266.541 192.789 266.652 192.665C266.761 192.583 266.885 192.524 267.018 192.49C267.15 192.457 267.287 192.45 267.422 192.47C267.678 192.5 267.924 192.586 268.142 192.722C268.862 193.118 269.265 193.968 270.021 194.27C270.321 194.366 270.626 194.441 270.936 194.494C271.091 194.521 271.239 194.582 271.37 194.671C271.5 194.76 271.61 194.877 271.692 195.012C271.972 195.566 271.454 196.25 271.648 196.841C271.843 197.431 272.332 197.561 272.613 198.036C272.734 198.24 272.782 198.478 272.75 198.713C272.725 199.113 272.627 199.506 272.462 199.872C272.274 200.231 272.062 200.578 271.828 200.909L268.373 202.903Z" fill="#D7BF27"/>
<g opacity="0.1">
<path opacity="0.1" d="M268.373 202.903C268.171 203.018 267.768 202.774 267.609 202.666C267.345 202.483 267.131 202.235 266.99 201.946C266.831 201.62 266.775 201.253 266.832 200.894C266.863 200.705 266.906 200.517 266.961 200.333C267.019 200.146 267.069 199.966 267.12 199.786C267.185 199.609 267.212 199.42 267.199 199.231C267.15 199.05 267.065 198.881 266.948 198.734C266.832 198.586 266.687 198.464 266.522 198.374C266.337 198.267 266.18 198.118 266.062 197.94C265.945 197.761 265.87 197.557 265.845 197.345C265.869 196.995 266.008 196.663 266.241 196.402C266.457 196.128 266.709 195.89 266.904 195.602C267.037 195.447 267.115 195.253 267.128 195.049C267.141 194.845 267.088 194.643 266.976 194.472C266.794 194.193 266.635 193.899 266.501 193.594C266.435 193.44 266.415 193.272 266.441 193.107C266.468 192.943 266.541 192.789 266.652 192.665C266.761 192.583 266.885 192.524 267.018 192.49C267.15 192.457 267.287 192.45 267.422 192.47C267.678 192.5 267.924 192.586 268.142 192.722C268.862 193.118 269.265 193.968 270.021 194.27C270.321 194.366 270.626 194.441 270.936 194.494C271.091 194.521 271.239 194.582 271.37 194.671C271.5 194.76 271.61 194.877 271.692 195.012C271.972 195.566 271.454 196.25 271.648 196.841C271.843 197.431 272.332 197.561 272.613 198.036C272.734 198.24 272.782 198.478 272.75 198.713C272.725 199.113 272.627 199.506 272.462 199.872C272.274 200.231 272.062 200.578 271.828 200.909L268.373 202.903Z" fill="black"/>
</g>
<path d="M270.396 201.83C270.373 201.827 270.352 201.816 270.336 201.799C270.32 201.782 270.311 201.76 270.309 201.737C270.461 198.209 268.797 194.314 267.588 193.183C267.579 193.175 267.572 193.165 267.568 193.155C267.563 193.144 267.56 193.133 267.56 193.121C267.56 193.109 267.561 193.097 267.566 193.087C267.57 193.076 267.576 193.066 267.584 193.057C267.592 193.049 267.602 193.042 267.612 193.037C267.623 193.032 267.635 193.03 267.646 193.029C267.658 193.029 267.67 193.031 267.681 193.035C267.692 193.039 267.702 193.045 267.71 193.054C268.941 194.206 270.641 198.166 270.489 201.744C270.488 201.768 270.477 201.789 270.46 201.806C270.442 201.822 270.419 201.83 270.396 201.83V201.83Z" fill="white"/>
<path d="M269.863 197.662C269.025 197.434 268.166 197.297 267.3 197.251C267.288 197.251 267.276 197.249 267.265 197.244C267.254 197.239 267.244 197.232 267.236 197.223C267.228 197.215 267.221 197.204 267.218 197.193C267.214 197.182 267.212 197.17 267.213 197.158C267.215 197.134 267.226 197.112 267.243 197.096C267.26 197.08 267.283 197.071 267.307 197.071C268.189 197.117 269.063 197.26 269.913 197.496C269.924 197.499 269.934 197.505 269.943 197.512C269.952 197.519 269.959 197.528 269.964 197.538C269.97 197.548 269.973 197.559 269.974 197.57C269.975 197.582 269.974 197.593 269.971 197.604C269.963 197.625 269.947 197.642 269.928 197.653C269.908 197.664 269.885 197.667 269.863 197.662V197.662Z" fill="white"/>
<path d="M300.765 197.698L308.606 193.176L315.64 197.237L307.8 201.751L300.765 197.698Z" fill="#F0F0F0"/>
<path d="M173.973 209.448L105.53 248.962V252L176.601 293.033L245.037 253.519V250.481L173.973 209.448Z" fill="#D7BF27"/>
<path d="M205.56 264.161L213.408 268.747L226.591 261.137L218.721 256.565L205.56 264.161Z" fill="#F0F0F0"/>
<path opacity="0.15" d="M105.53 248.962L176.601 289.994V293.033L105.53 252V248.962Z" fill="black"/>
<path opacity="0.1" d="M176.601 289.994L245.037 250.481V253.519L176.601 293.033V289.994Z" fill="black"/>
<path d="M237.347 237.026L234.297 243.035L234.791 243.286L237.842 237.277L237.347 237.026Z" fill="#263238"/>
<path d="M231.68 236.515L231.215 236.803L234.19 241.609L234.655 241.321L231.68 236.515Z" fill="#263238"/>
<path d="M234.972 235.958V250.438C234.967 250.478 234.952 250.517 234.928 250.55C234.904 250.583 234.872 250.608 234.835 250.625C234.733 250.677 234.621 250.704 234.507 250.704C234.393 250.704 234.281 250.677 234.18 250.625C234.143 250.608 234.112 250.582 234.089 250.549C234.066 250.516 234.053 250.478 234.05 250.438V235.958H234.972Z" fill="#263238"/>
<path d="M239.212 238.176C242.927 238.176 245.937 235.165 245.937 231.451C245.937 227.737 242.927 224.726 239.212 224.726C235.498 224.726 232.488 227.737 232.488 231.451C232.488 235.165 235.498 238.176 239.212 238.176Z" fill="#455A64"/>
<path d="M241.322 229.737C242.186 227.001 243.115 225.936 242.524 225.605C241.411 224.974 240.14 224.674 238.861 224.74C237.583 224.806 236.35 225.236 235.307 225.978C234.265 226.721 233.456 227.746 232.975 228.933C232.495 230.12 232.364 231.419 232.596 232.677C232.829 233.936 233.416 235.103 234.289 236.039C235.161 236.976 236.283 237.644 237.522 237.965C238.762 238.286 240.067 238.247 241.284 237.852C242.502 237.457 243.582 236.723 244.396 235.735C242.409 236.311 240.199 233.28 241.322 229.737Z" fill="#37474F"/>
<path d="M228.621 238.082C231.23 238.082 233.344 235.968 233.344 233.359C233.344 230.751 231.23 228.636 228.621 228.636C226.013 228.636 223.898 230.751 223.898 233.359C223.898 235.968 226.013 238.082 228.621 238.082Z" fill="#455A64"/>
<path d="M228.621 228.629C227.629 228.628 226.661 228.94 225.856 229.522C225.734 232.402 228.182 235.224 227.498 236.174C226.814 237.125 225.122 236.534 224.539 235.735C224.957 236.45 225.555 237.042 226.274 237.453C226.992 237.864 227.806 238.078 228.634 238.075C229.462 238.072 230.275 237.851 230.99 237.435C231.706 237.019 232.3 236.423 232.712 235.705C233.125 234.987 233.341 234.173 233.34 233.345C233.339 232.518 233.12 231.705 232.706 230.988C232.291 230.271 231.696 229.676 230.979 229.262C230.262 228.848 229.449 228.63 228.621 228.629V228.629Z" fill="#37474F"/>
<path d="M242.961 230.238C244.061 225.578 241.175 220.909 236.515 219.81C231.855 218.71 227.187 221.596 226.087 226.255C224.987 230.915 227.873 235.584 232.533 236.684C237.192 237.783 241.861 234.898 242.961 230.238Z" fill="#455A64"/>
<path d="M242.971 230.242C242.633 231.631 241.956 232.915 241.001 233.979C240.045 235.042 238.84 235.852 237.494 236.335C236.148 236.818 234.704 236.96 233.29 236.747C231.876 236.534 230.537 235.974 229.392 235.116C228.248 234.259 227.335 233.131 226.734 231.833C226.133 230.536 225.864 229.109 225.95 227.682C226.037 226.255 226.476 224.871 227.228 223.655C227.981 222.44 229.024 221.43 230.263 220.716C229.512 221.144 228.828 221.68 228.232 222.307C228.082 222.956 228.004 223.621 228.002 224.287C227.987 226.029 228.499 227.735 229.471 229.181C230.443 230.626 231.829 231.744 233.448 232.388C235.067 233.032 236.842 233.172 238.542 232.789C240.241 232.405 241.785 231.518 242.971 230.242V230.242Z" fill="#37474F"/>
<path d="M118.971 235.308L115.921 241.318L116.415 241.569L119.465 235.559L118.971 235.308Z" fill="#263238"/>
<path d="M113.318 234.831L112.853 235.119L115.828 239.924L116.293 239.636L113.318 234.831Z" fill="#263238"/>
<path d="M116.625 234.266V248.746C116.622 248.785 116.609 248.824 116.586 248.857C116.563 248.89 116.532 248.916 116.496 248.933C116.394 248.985 116.282 249.012 116.168 249.012C116.054 249.012 115.942 248.985 115.841 248.933C115.803 248.916 115.771 248.89 115.747 248.858C115.723 248.825 115.708 248.786 115.704 248.746V234.266H116.625Z" fill="#263238"/>
<path d="M120.852 236.491C124.566 236.491 127.576 233.48 127.576 229.766C127.576 226.052 124.566 223.042 120.852 223.042C117.138 223.042 114.127 226.052 114.127 229.766C114.127 233.48 117.138 236.491 120.852 236.491Z" fill="#455A64"/>
<path d="M122.961 228.046C123.825 225.31 124.747 224.244 124.164 223.913C123.05 223.282 121.779 222.982 120.501 223.048C119.222 223.114 117.989 223.544 116.946 224.287C115.904 225.029 115.095 226.054 114.615 227.241C114.134 228.428 114.003 229.727 114.235 230.986C114.468 232.244 115.055 233.411 115.928 234.347C116.8 235.284 117.922 235.952 119.162 236.273C120.401 236.594 121.706 236.555 122.924 236.16C124.141 235.765 125.221 235.031 126.036 234.043C124.048 234.626 121.831 231.588 122.961 228.046Z" fill="#37474F"/>
<path d="M110.26 236.39C112.869 236.39 114.984 234.276 114.984 231.667C114.984 229.059 112.869 226.944 110.26 226.944C107.652 226.944 105.537 229.059 105.537 231.667C105.537 234.276 107.652 236.39 110.26 236.39Z" fill="#455A64"/>
<path d="M110.26 226.944C109.269 226.943 108.302 227.252 107.496 227.83C107.366 230.71 109.821 233.532 109.137 234.482C108.453 235.433 106.761 234.842 106.171 234.043C106.587 234.759 107.185 235.353 107.903 235.764C108.621 236.176 109.435 236.392 110.264 236.39C111.092 236.389 111.905 236.169 112.621 235.754C113.338 235.339 113.932 234.742 114.346 234.025C114.759 233.307 114.976 232.494 114.976 231.666C114.976 230.838 114.758 230.024 114.344 229.307C113.93 228.59 113.335 227.994 112.618 227.579C111.902 227.164 111.089 226.945 110.26 226.944V226.944Z" fill="#37474F"/>
<path d="M122.296 232.701C125.681 229.316 125.681 223.827 122.296 220.442C118.911 217.056 113.422 217.056 110.037 220.442C106.651 223.827 106.651 229.316 110.036 232.701C113.422 236.086 118.911 236.086 122.296 232.701Z" fill="#455A64"/>
<path d="M124.603 228.55C124.266 229.94 123.589 231.225 122.634 232.289C121.678 233.353 120.473 234.164 119.126 234.647C117.78 235.131 116.335 235.273 114.92 235.06C113.506 234.847 112.166 234.286 111.022 233.428C109.877 232.57 108.964 231.441 108.363 230.142C107.763 228.844 107.494 227.417 107.582 225.989C107.669 224.561 108.109 223.177 108.863 221.961C109.617 220.746 110.662 219.736 111.902 219.024C111.149 219.449 110.464 219.985 109.872 220.615C109.721 221.264 109.644 221.929 109.641 222.595C109.628 224.336 110.141 226.039 111.112 227.483C112.084 228.927 113.469 230.044 115.086 230.688C116.703 231.331 118.477 231.472 120.175 231.09C121.873 230.708 123.416 229.823 124.603 228.55V228.55Z" fill="#37474F"/>
<path d="M137.116 239.846L192.398 271.757V223.128L137.116 191.218V239.846Z" fill="#F0F0F0"/>
<path d="M176.601 253.519V280.879L121.327 248.962V221.609L176.601 253.519Z" fill="#F0F0F0"/>
<path d="M121.327 230.724L176.601 262.642V253.519L121.327 221.609V230.724Z" fill="#E0E0E0"/>
<path d="M137.116 200.333L192.398 232.243V223.128L137.116 191.21V200.333Z" fill="#E0E0E0"/>
<path d="M192.398 223.128L229.248 201.852V250.481L192.398 271.757V223.128Z" fill="#FAFAFA"/>
<path d="M176.601 253.519L192.398 238.327V271.757L176.601 280.879V253.519Z" fill="#FAFAFA"/>
<path d="M210.823 191.21L192.398 223.128L229.248 201.852L210.823 191.21Z" fill="#FAFAFA"/>
<path d="M189.763 227.686L210.823 191.21V188.935L189.763 225.41V227.686Z" fill="#D7BF27"/>
<path opacity="0.1" d="M189.763 227.686L210.823 191.21V188.935L189.763 225.41V227.686Z" fill="black"/>
<path d="M155.543 157.024L134.487 193.495L189.764 225.409L210.82 188.938L155.543 157.024Z" fill="#D7BF27"/>
<path d="M134.488 193.493L189.763 225.41V227.686L134.488 195.775V193.493Z" fill="#D7BF27"/>
<path opacity="0.15" d="M134.488 193.493L189.763 225.41V227.686L134.488 195.775V193.493Z" fill="black"/>
<path d="M210.823 188.935L233.856 202.234L231.876 203.371L210.823 191.21V188.935Z" fill="#D7BF27"/>
<path opacity="0.15" d="M210.823 188.935L233.856 202.234L231.876 203.371L210.823 191.21V188.935Z" fill="black"/>
<path d="M231.876 203.371H229.248V201.852L231.876 203.371Z" fill="#D7BF27"/>
<path opacity="0.3" d="M231.876 203.371H229.248V201.852L231.876 203.371Z" fill="black"/>
<path d="M145.598 193.061V182.117L151.898 178.481L158.177 189.353V200.333L145.598 193.061Z" fill="#F0F0F0"/>
<path opacity="0.2" d="M151.898 178.481L144.122 182.966L143.128 182.39L151.898 177.329V178.481Z" fill="black"/>
<path d="M158.177 200.333L164.462 189.432L167.673 183.859L158.177 189.353V200.333Z" fill="#FAFAFA"/>
<path opacity="0.4" d="M144.122 182.966H145.598V182.117L144.122 182.966Z" fill="black"/>
<path d="M159.674 191.945L151.898 178.481V177.329L160.646 192.506L159.674 191.945Z" fill="#D7BF27"/>
<path opacity="0.1" d="M159.674 191.945L151.898 178.481V177.329L160.646 192.506L159.674 191.945Z" fill="black"/>
<path d="M160.646 192.506L151.898 177.329L160.948 172.102L169.697 187.279L160.646 192.506Z" fill="#D7BF27"/>
<path opacity="0.3" d="M160.646 192.506L151.898 177.329L160.948 172.102L169.697 187.279L160.646 192.506Z" fill="white"/>
<path d="M155.037 187.596L148.744 183.96V191.218L155.037 194.854V187.596Z" fill="#455A64"/>
<path d="M149.385 190.843V184.327L155.037 187.596V194.105L149.385 190.843Z" fill="#E0E0E0"/>
<path d="M148.744 191.218L149.385 190.843L155.037 194.105V194.854L148.744 191.218Z" fill="#37474F"/>
<path d="M171.914 208.26V197.316L178.221 193.68L184.5 204.552V215.532L171.914 208.26Z" fill="#F0F0F0"/>
<path opacity="0.2" d="M178.221 193.68L170.445 198.166L169.444 197.59L178.221 192.528V193.68Z" fill="black"/>
<path d="M184.5 215.532L190.778 204.631L193.989 199.058L184.5 204.552V215.532Z" fill="#FAFAFA"/>
<path opacity="0.4" d="M170.445 198.166H171.914V197.316L170.445 198.166Z" fill="black"/>
<path d="M185.997 207.144L178.221 193.68V192.528L186.962 207.706L185.997 207.144Z" fill="#D7BF27"/>
<path opacity="0.1" d="M185.997 207.144L178.221 193.68V192.528L186.962 207.706L185.997 207.144Z" fill="black"/>
<path d="M186.962 207.706L178.221 192.528L187.264 187.294L196.012 202.471L186.962 207.706Z" fill="#D7BF27"/>
<path opacity="0.3" d="M186.962 207.706L178.221 192.528L187.264 187.294L196.012 202.471L186.962 207.706Z" fill="white"/>
<path d="M181.353 202.788L175.061 199.159V206.417L181.353 210.053V202.788Z" fill="#455A64"/>
<path d="M175.708 206.042V199.526L181.353 202.788V209.304L175.708 206.042Z" fill="#E0E0E0"/>
<path d="M175.061 206.417L175.709 206.042L181.353 209.304V210.053L175.061 206.417Z" fill="#37474F"/>
<path d="M137.117 204.358L192.398 236.268V238.327L173.973 258.084L118.692 226.166V224.114L137.117 204.358Z" fill="#D7BF27"/>
<path d="M137.117 204.358L192.398 236.268L173.973 256.025L118.692 224.114L137.117 204.358Z" fill="#D7BF27"/>
<path opacity="0.1" d="M173.973 256.025V258.084L192.398 238.327V236.268L173.973 256.025Z" fill="black"/>
<path opacity="0.15" d="M173.973 258.084L118.692 226.166V224.114L173.973 256.025V258.084Z" fill="black"/>
<path d="M142.387 239.839L129.225 232.243V246.226L142.387 253.822V239.839Z" fill="#263238"/>
<path d="M130.032 245.758V232.711L142.387 239.846V252.886L130.032 245.758Z" fill="#FAFAFA"/>
<path d="M130.032 232.711V235.757L142.387 242.885V239.839L130.032 232.711Z" fill="#F0F0F0"/>
<path d="M129.225 246.226L130.032 245.758L142.387 252.886V253.822L129.225 246.226Z" fill="#37474F"/>
<path d="M129.225 239.234L130.032 238.766L142.387 245.894V246.83L129.225 239.234Z" fill="#37474F"/>
<path d="M135.532 249.869L136.339 250.337V236.354L135.532 235.886V249.869Z" fill="#37474F"/>
<path d="M166.075 253.519L152.913 245.923V259.906L166.075 267.502V253.519Z" fill="#263238"/>
<path d="M153.72 259.438V246.391L166.075 253.519V266.566L153.72 259.438Z" fill="#FAFAFA"/>
<path d="M153.72 246.391V249.43L166.075 256.565V253.519L153.72 246.391Z" fill="#F0F0F0"/>
<path d="M152.913 259.906L153.72 259.438L166.075 266.566V267.501L152.913 259.906Z" fill="#37474F"/>
<path d="M152.913 252.914L153.72 252.446L166.075 259.574V260.51L152.913 252.914Z" fill="#37474F"/>
<path d="M159.221 263.549L160.027 264.017V250.034L159.221 249.566V263.549Z" fill="#37474F"/>
<path d="M184.5 255.046L197.661 247.442V261.425L184.5 269.021V255.046Z" fill="#263238"/>
<path d="M196.855 260.957V247.91L184.5 255.046V268.085L196.855 260.957Z" fill="#E6E6E6"/>
<path d="M196.855 247.91V249.25L184.5 256.378V255.046L196.855 247.91Z" fill="#E0E0E0"/>
<path d="M197.661 261.425L196.855 260.957L184.5 268.085V269.021L197.661 261.425Z" fill="#37474F"/>
<path d="M197.661 254.434L196.855 253.966L184.5 261.094V262.03L197.661 254.434Z" fill="#37474F"/>
<path d="M191.354 265.068L190.548 265.536V251.554L191.354 251.086V265.068Z" fill="#37474F"/>
<path d="M205.315 209.794L218.476 202.198V216.18L205.315 223.776V209.794Z" fill="#263238"/>
<path d="M217.67 215.712V202.666L205.315 209.794V222.84L217.67 215.712Z" fill="#E6E6E6"/>
<path d="M217.67 202.666V204.005L205.315 211.133V209.794L217.67 202.666Z" fill="#E0E0E0"/>
<path d="M218.476 216.18L217.67 215.712L205.315 222.84V223.776L218.476 216.18Z" fill="#37474F"/>
<path d="M218.476 209.189L217.67 208.721L205.315 215.856V216.792L218.476 209.189Z" fill="#37474F"/>
<path d="M212.169 219.823L211.363 220.291V206.309L212.169 205.841V219.823Z" fill="#37474F"/>
<path d="M205.56 264.161V239.846L218.721 232.243V256.565L205.56 264.161Z" fill="#37474F"/>
<path d="M218.239 256.198V232.524L205.56 239.846V263.52L218.239 256.198Z" fill="#455A64"/>
<path d="M218.721 232.243L218.239 232.524V256.198L218.721 256.565V232.243Z" fill="#263238"/>
<path d="M280.649 62.2434C280.608 60.3366 280.119 58.4662 279.221 56.7837C278.323 55.1012 277.041 53.654 275.479 52.5594C274.039 51.645 272.657 51.5082 271.649 52.0266C265.565 55.0794 222.811 82.4898 220.082 83.8434H220.046C219.759 84.0343 219.527 84.2983 219.375 84.6083C219.223 84.9183 219.157 85.2632 219.182 85.6074C219.199 86.5686 219.443 87.5121 219.895 88.3606C220.347 89.2092 220.993 89.9386 221.781 90.489C222.054 90.702 222.379 90.8383 222.722 90.8838C223.065 90.9294 223.414 90.8826 223.733 90.7482H223.776C228.096 88.365 270.295 70.3794 278.921 65.757C279.936 65.1954 280.591 63.9858 280.649 62.2434Z" fill="#D7BF27"/>
<path opacity="0.1" d="M278.971 56.3328C278.125 54.8145 276.928 53.5208 275.479 52.56C274.039 51.6456 272.671 51.5088 271.663 52.02L271.533 52.092C265.982 54.9288 234.165 75.2256 223.459 81.828L223.387 81.8712L222.955 82.1376L222.825 82.2168L222.581 82.368L222.293 82.5408C221.162 83.2608 220.399 83.6784 220.133 83.8296H220.097C220.005 83.884 219.92 83.9492 219.845 84.024C219.643 84.2313 219.484 84.4771 219.379 84.7467C219.274 85.0164 219.224 85.3044 219.233 85.5936C219.218 85.7974 219.218 86.0019 219.233 86.2057C219.233 86.2849 219.233 86.364 219.269 86.4432C219.305 86.5224 219.312 86.6881 219.341 86.8177C219.369 86.9473 219.391 87.0192 219.42 87.1128C219.449 87.2064 219.492 87.3505 219.535 87.4657C219.578 87.5809 219.6 87.6384 219.629 87.7248V87.7681L278.971 56.3328Z" fill="black"/>
<path d="M221.774 90.4968C220.99 89.9477 220.346 89.2215 219.894 88.3772C219.443 87.5329 219.196 86.5941 219.175 85.6368C219.24 83.88 220.493 83.2032 221.983 84.132C222.768 84.6819 223.413 85.4092 223.865 86.2548C224.316 87.1005 224.562 88.0407 224.582 88.9992C224.525 90.756 223.265 91.44 221.774 90.4968Z" fill="#D7BF27"/>
<path d="M208.994 91.6777C209.011 92.4132 209.2 93.1344 209.547 93.7834C209.893 94.4324 210.387 94.9911 210.989 95.4145C211.197 95.5761 211.446 95.6792 211.707 95.7133C211.969 95.7475 212.236 95.7114 212.479 95.6089V95.6089L222.818 90.1009C223.038 89.9551 223.215 89.7537 223.331 89.5171C223.448 89.2806 223.499 89.0174 223.481 88.7545C223.465 88.0188 223.276 87.2971 222.93 86.6479C222.583 85.9987 222.089 85.4403 221.486 85.0177C221.278 84.8543 221.03 84.7494 220.768 84.7139C220.506 84.6785 220.24 84.7138 219.996 84.8161V84.8161L209.657 90.3241C209.436 90.4705 209.258 90.6731 209.142 90.911C209.025 91.1489 208.974 91.4136 208.994 91.6777Z" fill="#37474F"/>
<path d="M209.671 90.3241C209.448 90.4687 209.267 90.6705 209.148 90.9086C209.029 91.1466 208.976 91.4122 208.994 91.6777C208.99 92.2241 209.098 92.7655 209.311 93.2689L222.645 86.1553C222.343 85.7038 221.954 85.3171 221.501 85.0177C221.293 84.8543 221.045 84.7494 220.783 84.7139C220.521 84.6785 220.254 84.7138 220.01 84.8161L209.671 90.3241Z" fill="#263238"/>
<path d="M222.264 100.85C222.264 94.2265 217.886 87.6025 209.124 82.5481C191.613 72.4321 163.217 72.4321 145.699 82.5481C136.944 87.5881 132.566 94.2265 132.566 100.85V113.09C132.566 119.714 136.944 126.338 145.706 131.4C163.217 141.48 191.613 141.48 209.124 131.4C217.886 126.36 222.264 119.714 222.264 113.09V100.85ZM147.852 86.2993C155.671 81.7849 166.161 79.3009 177.372 79.3009C188.582 79.3009 199.094 81.7849 206.892 86.2993C213.962 90.3817 217.857 95.5513 217.857 100.858C217.857 106.164 213.962 111.326 206.892 115.409C199.073 119.923 188.582 122.407 177.372 122.407C166.161 122.407 155.649 119.923 147.852 115.409C140.774 111.326 136.886 106.157 136.886 100.858C136.886 95.5585 140.796 90.3817 147.852 86.2993Z" fill="#D7BF27"/>
<path opacity="0.3" d="M145.692 119.16C163.209 129.276 191.599 129.276 209.117 119.16C226.634 109.044 226.634 92.6568 209.117 82.548C191.599 72.4392 163.209 72.432 145.692 82.548C128.174 92.664 128.189 109.051 145.692 119.16ZM136.893 100.858C136.893 95.5512 140.789 90.3816 147.859 86.2992C155.685 81.7848 166.176 79.3008 177.379 79.3008C188.582 79.3008 199.101 81.7848 206.899 86.2992C213.969 90.3816 217.865 95.5512 217.865 100.858C217.865 106.164 213.969 111.326 206.899 115.409C199.073 119.923 188.582 122.407 177.379 122.407C166.176 122.407 155.657 119.923 147.859 115.409C140.796 111.326 136.901 106.157 136.901 100.858H136.893Z" fill="white"/>
<path d="M136.901 100.851C136.926 103.008 137.53 105.119 138.65 106.963C140.429 103.882 143.561 100.995 147.873 98.5105C155.685 93.9889 166.183 91.5049 177.393 91.5049C188.604 91.5049 199.116 93.9889 206.913 98.5105C211.233 100.995 214.358 103.882 216.144 106.963C217.258 105.117 217.86 103.007 217.886 100.851C217.886 95.5513 213.991 90.3817 206.913 86.2993C199.101 81.7849 188.604 79.3009 177.393 79.3009C166.183 79.3009 155.664 81.7849 147.873 86.2993C140.796 90.3817 136.901 95.5513 136.901 100.851Z" fill="#D7BF27"/>
<path opacity="0.1" d="M136.901 100.851C136.926 103.008 137.53 105.119 138.65 106.963C140.429 103.882 143.561 100.995 147.873 98.5105C155.685 93.9889 166.183 91.5049 177.393 91.5049C188.604 91.5049 199.116 93.9889 206.913 98.5105C211.233 100.995 214.358 103.882 216.144 106.963C217.258 105.117 217.86 103.007 217.886 100.851C217.886 95.5513 213.991 90.3817 206.913 86.2993C199.101 81.7849 188.604 79.3009 177.393 79.3009C166.183 79.3009 155.664 81.7849 147.873 86.2993C140.796 90.3817 136.901 95.5513 136.901 100.851Z" fill="black"/>
<path opacity="0.4" d="M147.852 91.8288C155.678 87.3144 166.168 84.8232 177.372 84.8232C188.575 84.8232 199.094 87.3144 206.892 91.8288C212.724 95.1984 216.388 99.3024 217.497 103.615C216.388 107.935 212.724 112.039 206.892 115.409C199.065 119.923 188.575 122.407 177.372 122.407C166.168 122.407 155.649 119.923 147.852 115.409C142.02 112.039 138.355 107.928 137.246 103.615C138.369 99.3024 142.034 95.1984 147.852 91.8288Z" fill="white"/>
<path opacity="0.1" d="M166.845 126V138.24C159.098 137.16 151.725 134.878 145.706 131.386C136.944 126.346 132.566 119.7 132.566 113.069V100.829C132.569 99.4794 132.748 98.1361 133.099 96.8329V96.8329C130.939 104.717 135.173 113.062 145.692 119.153C151.754 122.659 159.098 124.942 166.845 126Z" fill="black"/>
</svg>
