<svg width="400" height="400" viewBox="0 0 400 400" fill="none" xmlns="http://www.w3.org/2000/svg">
<path d="M379.184 263.096H336.664V319.176H379.184V263.096Z" fill="#F5F5F5"/>
<path d="M379.184 263.096H359.248V319.176H379.184V263.096Z" fill="#EBEBEB"/>
<path d="M349.4 270.688H345.576V279.976H349.4V270.688Z" fill="#EBEBEB"/>
<path d="M349.4 307.04H345.576V316.328H349.4V307.04Z" fill="#EBEBEB"/>
<path d="M359.248 283.616C359.248 283.696 354.192 283.76 347.96 283.76C341.728 283.76 336.664 283.696 336.664 283.616C336.664 283.536 341.72 283.472 347.96 283.472C354.2 283.472 359.248 283.536 359.248 283.616Z" fill="#EBEBEB"/>
<path d="M349.4 289H345.576V298.288H349.4V289Z" fill="#EBEBEB"/>
<path d="M359.248 301.936C359.248 302.016 354.192 302.08 347.96 302.08C341.728 302.08 336.664 302.016 336.664 301.936C336.664 301.856 341.72 301.784 347.96 301.784C354.2 301.784 359.248 301.856 359.248 301.936Z" fill="#EBEBEB"/>
<path d="M367.304 270.688H363.48V279.976H367.304V270.688Z" fill="#E0E0E0"/>
<path d="M375.6 270.688H371.776V279.976H375.6V270.688Z" fill="#E0E0E0"/>
<path d="M367.304 288.312H363.48V297.6H367.304V288.312Z" fill="#E0E0E0"/>
<path d="M375.6 288.312H371.776V297.6H375.6V288.312Z" fill="#E0E0E0"/>
<path d="M367.304 305.936H363.48V315.224H367.304V305.936Z" fill="#E0E0E0"/>
<path d="M375.6 305.936H371.776V315.224H375.6V305.936Z" fill="#E0E0E0"/>
<path d="M382.376 261.136H333.464V263.16H382.376V261.136Z" fill="#E0E0E0"/>
<path d="M379.48 263.352C379.48 263.432 369.976 263.496 358.256 263.496C346.536 263.496 337.032 263.432 337.032 263.352C337.032 263.272 346.536 263.208 358.256 263.208C369.976 263.208 379.48 263.272 379.48 263.352Z" fill="#F5F5F5"/>
<path d="M289.472 121.424H213.664V319.84H289.472V121.424Z" fill="#EBEBEB"/>
<path d="M289.464 121.424H251.56V319.84H289.464V121.424Z" fill="#E0E0E0"/>
<path d="M249.088 97.84H222.32V121.424H249.088V97.84Z" fill="#EBEBEB"/>
<path d="M249.08 97.84H242.704V121.424H249.08V97.84Z" fill="#E0E0E0"/>
<path d="M291.68 120.048H207.344V121.424H291.68V120.048Z" fill="#E0E0E0"/>
<path d="M235.04 131.712H228.624V145.24H235.04V131.712Z" fill="white"/>
<path d="M251.56 150.552C251.56 150.696 243.08 150.808 232.616 150.808C222.152 150.808 213.664 150.696 213.664 150.552C213.664 150.408 222.144 150.288 232.616 150.288C243.088 150.288 251.56 150.4 251.56 150.552Z" fill="#E0E0E0"/>
<path d="M273.272 131.712H266.856V145.24H273.272V131.712Z" fill="#F5F5F5"/>
<path d="M289.792 150.552C289.792 150.696 281.312 150.808 270.848 150.808C260.384 150.808 251.896 150.696 251.896 150.552C251.896 150.408 260.376 150.288 270.848 150.288C281.32 150.288 289.792 150.4 289.792 150.552Z" fill="#EBEBEB"/>
<path d="M273.272 158.568H266.856V172.096H273.272V158.568Z" fill="#F5F5F5"/>
<path d="M289.792 177.408C289.792 177.552 281.312 177.672 270.848 177.672C260.384 177.672 251.896 177.552 251.896 177.408C251.896 177.264 260.376 177.152 270.848 177.152C281.32 177.152 289.792 177.272 289.792 177.408Z" fill="#EBEBEB"/>
<path d="M273.272 186.24H266.856V199.768H273.272V186.24Z" fill="#F5F5F5"/>
<path d="M289.792 205.08C289.792 205.224 281.312 205.344 270.848 205.344C260.384 205.344 251.896 205.224 251.896 205.08C251.896 204.936 260.376 204.824 270.848 204.824C281.32 204.824 289.792 204.944 289.792 205.08Z" fill="#EBEBEB"/>
<path d="M273.272 213.92H266.856V227.448H273.272V213.92Z" fill="#F5F5F5"/>
<path d="M289.792 232.752C289.792 232.896 281.312 233.016 270.848 233.016C260.384 233.016 251.896 232.896 251.896 232.752C251.896 232.608 260.376 232.496 270.848 232.496C281.32 232.496 289.792 232.616 289.792 232.752Z" fill="#EBEBEB"/>
<path d="M273.272 240.8H266.856V254.328H273.272V240.8Z" fill="#F5F5F5"/>
<path d="M289.792 259.64C289.792 259.776 281.312 259.896 270.848 259.896C260.384 259.896 251.896 259.776 251.896 259.64C251.896 259.504 260.376 259.376 270.848 259.376C281.32 259.376 289.792 259.496 289.792 259.64Z" fill="#EBEBEB"/>
<path d="M273.272 267.784H266.856V281.312H273.272V267.784Z" fill="#F5F5F5"/>
<path d="M273.272 295.128H266.856V308.656H273.272V295.128Z" fill="#F5F5F5"/>
<path d="M289.792 286.624C289.792 286.768 281.312 286.888 270.848 286.888C260.384 286.888 251.896 286.768 251.896 286.624C251.896 286.48 260.376 286.368 270.848 286.368C281.32 286.368 289.792 286.48 289.792 286.624Z" fill="#EBEBEB"/>
<path d="M235.04 158.984H228.624V172.512H235.04V158.984Z" fill="white"/>
<path d="M251.56 177.824C251.56 177.96 243.08 178.08 232.616 178.08C222.152 178.08 213.664 177.96 213.664 177.824C213.664 177.688 222.144 177.56 232.616 177.56C243.088 177.56 251.56 177.68 251.56 177.824Z" fill="#E0E0E0"/>
<path d="M235.04 186.256H228.624V199.784H235.04V186.256Z" fill="white"/>
<path d="M251.56 205.096C251.56 205.232 243.08 205.352 232.616 205.352C222.152 205.352 213.664 205.232 213.664 205.096C213.664 204.96 222.144 204.832 232.616 204.832C243.088 204.832 251.56 204.952 251.56 205.096Z" fill="#E0E0E0"/>
<path d="M235.04 213.528H228.624V227.056H235.04V213.528Z" fill="white"/>
<path d="M251.56 232.368C251.56 232.504 243.08 232.624 232.616 232.624C222.152 232.624 213.664 232.504 213.664 232.368C213.664 232.232 222.144 232.104 232.616 232.104C243.088 232.104 251.56 232.224 251.56 232.368Z" fill="#E0E0E0"/>
<path d="M235.04 240.8H228.624V254.328H235.04V240.8Z" fill="white"/>
<path d="M251.56 259.64C251.56 259.776 243.08 259.896 232.616 259.896C222.152 259.896 213.664 259.776 213.664 259.64C213.664 259.504 222.144 259.376 232.616 259.376C243.088 259.376 251.56 259.496 251.56 259.64Z" fill="#E0E0E0"/>
<path d="M235.04 268.072H228.624V281.6H235.04V268.072Z" fill="white"/>
<path d="M251.56 286.912C251.56 287.048 243.08 287.168 232.616 287.168C222.152 287.168 213.664 287.048 213.664 286.912C213.664 286.776 222.144 286.648 232.616 286.648C243.088 286.648 251.56 286.768 251.56 286.912Z" fill="#E0E0E0"/>
<path d="M235.04 295.344H228.624V308.872H235.04V295.344Z" fill="white"/>
<path d="M183.832 242.824H125.704V319.496H183.832V242.824Z" fill="#EBEBEB"/>
<path d="M183.832 242.824H156.576V319.496H183.832V242.824Z" fill="#E0E0E0"/>
<path d="M143.112 253.2H137.888V265.896H143.112V253.2Z" fill="#F5F5F5"/>
<path d="M143.112 302.904H137.888V315.6H143.112V302.904Z" fill="#F5F5F5"/>
<path d="M156.576 270.888C156.576 271.024 149.664 271.144 141.136 271.144C132.608 271.144 125.704 271.024 125.704 270.888C125.704 270.752 132.616 270.624 141.136 270.624C149.656 270.624 156.576 270.744 156.576 270.888Z" fill="#F5F5F5"/>
<path d="M143.112 278.24H137.888V290.936H143.112V278.24Z" fill="#F5F5F5"/>
<path d="M156.576 295.92C156.576 296.064 149.664 296.184 141.136 296.184C132.608 296.184 125.704 296.064 125.704 295.92C125.704 295.776 132.616 295.664 141.136 295.664C149.656 295.664 156.576 295.784 156.576 295.92Z" fill="#F5F5F5"/>
<path d="M167.584 253.2H162.36V265.896H167.584V253.2Z" fill="#F5F5F5"/>
<path d="M178.928 253.2H173.704V265.896H178.928V253.2Z" fill="#F5F5F5"/>
<path d="M167.584 277.296H162.36V289.992H167.584V277.296Z" fill="#F5F5F5"/>
<path d="M178.928 277.296H173.704V289.992H178.928V277.296Z" fill="#F5F5F5"/>
<path d="M167.584 301.392H162.36V314.088H167.584V301.392Z" fill="#F5F5F5"/>
<path d="M178.928 301.392H173.704V314.088H178.928V301.392Z" fill="#F5F5F5"/>
<path d="M188.208 240.152H121.336V242.92H188.208V240.152Z" fill="#E0E0E0"/>
<path d="M184.24 243.2C184.24 243.344 171.248 243.464 155.224 243.464C139.2 243.464 126.2 243.344 126.2 243.2C126.2 243.056 139.192 242.944 155.224 242.944C171.256 242.944 184.24 243.04 184.24 243.2Z" fill="#EBEBEB"/>
<path d="M307.704 147.752L359.2 148C359.2 148 354.32 136.8 343.896 136.8C335.952 136.8 335.6 141.744 330.824 143.16C326.048 144.576 316 135.92 307.704 147.752Z" fill="#EBEBEB"/>
<path d="M85.376 92.9201L175.936 93.2961C175.936 93.2961 167.36 73.6721 149.032 73.6641C135.064 73.6641 134.44 82.3601 126.056 84.8641C117.672 87.3681 100 72.1121 85.376 92.9201Z" fill="#F5F5F5"/>
<path d="M267.008 63.568L335.24 63.848C335.24 63.848 328.8 49.064 314.968 49.056C304.44 49.056 303.976 55.608 297.656 57.48C291.336 59.352 278 47.888 267.008 63.568Z" fill="#FAFAFA"/>
<path d="M387.48 319.2C387.48 319.32 303.384 319.408 199.672 319.408C95.9599 319.408 11.8479 319.32 11.8479 319.2C11.8479 319.08 95.9199 318.992 199.672 318.992C303.424 318.992 387.48 319.088 387.48 319.2Z" fill="#263238"/>
<path d="M349.016 203.08H304.688V319.104H349.016V203.08Z" fill="#EFD165"/>
<path d="M349.008 203.08H326.848V319.104H349.008V203.08Z" fill="#263238"/>
<path d="M325.408 189.288H309.752V203.08H325.408V189.288Z" fill="#EFD165"/>
<path d="M325.4 189.288H321.672V203.08H325.4V189.288Z" fill="#263238"/>
<path d="M350.312 202.272H300.992V203.08H350.312V202.272Z" fill="#EFD165"/>
<path d="M317.192 209.096H313.44V217.008H317.192V209.096Z" fill="#263238"/>
<path d="M326.848 220.112C326.848 220.192 321.888 220.264 315.768 220.264C309.648 220.264 304.688 220.192 304.688 220.112C304.688 220.032 309.648 219.96 315.768 219.96C321.888 219.96 326.848 220 326.848 220.112Z" fill="#263238"/>
<path d="M339.544 209.096H335.792V217.008H339.544V209.096Z" fill="#EFD165"/>
<path d="M349.208 220.112C349.208 220.192 344.248 220.264 338.128 220.264C332.008 220.264 327.048 220.192 327.048 220.112C327.048 220.032 332.008 219.96 338.128 219.96C344.248 219.96 349.208 220 349.208 220.112Z" fill="#EFD165"/>
<path d="M339.544 224.8H335.792V232.712H339.544V224.8Z" fill="#EFD165"/>
<path d="M349.208 235.816C349.208 235.904 344.248 235.968 338.128 235.968C332.008 235.968 327.048 235.904 327.048 235.816C327.048 235.728 332.008 235.664 338.128 235.664C344.248 235.664 349.208 235.736 349.208 235.816Z" fill="#EFD165"/>
<path d="M339.544 240.984H335.792V248.896H339.544V240.984Z" fill="#EFD165"/>
<path d="M349.208 252C349.208 252.08 344.248 252.152 338.128 252.152C332.008 252.152 327.048 252.08 327.048 252C327.048 251.92 332.008 251.848 338.128 251.848C344.248 251.848 349.208 251.912 349.208 252Z" fill="#EFD165"/>
<path d="M339.544 257.16H335.792V265.072H339.544V257.16Z" fill="#EFD165"/>
<path d="M349.208 268.176C349.208 268.264 344.248 268.328 338.128 268.328C332.008 268.328 327.048 268.264 327.048 268.176C327.048 268.088 332.008 268.032 338.128 268.032C344.248 268.032 349.208 268.096 349.208 268.176Z" fill="#EFD165"/>
<path d="M339.544 272.88H335.792V280.792H339.544V272.88Z" fill="#EFD165"/>
<path d="M349.208 283.896C349.208 283.984 344.248 284.048 338.128 284.048C332.008 284.048 327.048 283.984 327.048 283.896C327.048 283.808 332.008 283.744 338.128 283.744C344.248 283.744 349.208 283.816 349.208 283.896Z" fill="#EFD165"/>
<path d="M339.544 288.664H335.792V296.576H339.544V288.664Z" fill="#EFD165"/>
<path d="M339.544 304.656H335.792V312.568H339.544V304.656Z" fill="#EFD165"/>
<path d="M349.208 299.68C349.208 299.768 344.248 299.832 338.128 299.832C332.008 299.832 327.048 299.768 327.048 299.68C327.048 299.592 332.008 299.528 338.128 299.528C344.248 299.528 349.208 299.6 349.208 299.68Z" fill="#EFD165"/>
<path d="M317.192 225.04H313.44V232.952H317.192V225.04Z" fill="#263238"/>
<path d="M326.848 236.056C326.848 236.136 321.888 236.208 315.768 236.208C309.648 236.208 304.688 236.136 304.688 236.056C304.688 235.976 309.648 235.904 315.768 235.904C321.888 235.904 326.848 236 326.848 236.056Z" fill="#263238"/>
<path d="M317.192 240.984H313.44V248.896H317.192V240.984Z" fill="#263238"/>
<path d="M326.848 252C326.848 252.088 321.888 252.152 315.768 252.152C309.648 252.152 304.688 252.088 304.688 252C304.688 251.912 309.648 251.856 315.768 251.856C321.888 251.856 326.848 251.92 326.848 252Z" fill="#263238"/>
<path d="M317.192 256.936H313.44V264.848H317.192V256.936Z" fill="#263238"/>
<path d="M326.848 267.952C326.848 268.032 321.888 268.104 315.768 268.104C309.648 268.104 304.688 268.032 304.688 267.952C304.688 267.872 309.648 267.8 315.768 267.8C321.888 267.8 326.848 267.864 326.848 267.952Z" fill="#263238"/>
<path d="M317.192 272.88H313.44V280.792H317.192V272.88Z" fill="#263238"/>
<path d="M326.848 283.896C326.848 283.984 321.888 284.048 315.768 284.048C309.648 284.048 304.688 283.984 304.688 283.896C304.688 283.808 309.648 283.744 315.768 283.744C321.888 283.744 326.848 283.816 326.848 283.896Z" fill="#263238"/>
<path d="M317.192 288.832H313.44V296.744H317.192V288.832Z" fill="#263238"/>
<path d="M326.848 299.848C326.848 299.928 321.888 300 315.768 300C309.648 300 304.688 299.928 304.688 299.848C304.688 299.768 309.648 299.696 315.768 299.696C321.888 299.696 326.848 299.76 326.848 299.848Z" fill="#263238"/>
<path d="M317.192 304.776H313.44V312.688H317.192V304.776Z" fill="#263238"/>
<path d="M238.016 161.616H178.712V319.152H238.016V161.616Z" fill="#EFD165"/>
<path d="M238.024 161.616H215.264V319.152H238.024V161.616Z" fill="#263238"/>
<path d="M228.896 174.048H224.392V183.552H228.896V174.048Z" fill="#EFD165"/>
<path d="M228.896 190.72H224.392V200.224H228.896V190.72Z" fill="#EFD165"/>
<path d="M228.896 209.392H224.392V218.896H228.896V209.392Z" fill="#EFD165"/>
<path d="M228.896 227.232H224.392V236.736H228.896V227.232Z" fill="#EFD165"/>
<path d="M228.896 245.08H224.392V254.584H228.896V245.08Z" fill="#EFD165"/>
<path d="M228.896 262.92H224.392V272.424H228.896V262.92Z" fill="#EFD165"/>
<path d="M228.896 280.768H224.392V290.272H228.896V280.768Z" fill="#EFD165"/>
<path d="M228.896 300.384H224.392V309.888H228.896V300.384Z" fill="#EFD165"/>
<path d="M240.976 160.624H173.552V162.464H240.976V160.624Z" fill="#263238"/>
<path d="M226.648 149.536H202.64V161.544H226.648V149.536Z" fill="#263238"/>
<path d="M215.264 149.536H202.64V160.624H215.264V149.536Z" fill="#EFD165"/>
<path d="M191.656 173.656H187.152V183.16H191.656V173.656Z" fill="#263238"/>
<path d="M203.656 173.656H199.152V183.16H203.656V173.656Z" fill="#263238"/>
<path d="M191.656 191.76H187.152V201.264H191.656V191.76Z" fill="#263238"/>
<path d="M203.656 191.76H199.152V201.264H203.656V191.76Z" fill="#263238"/>
<path d="M191.656 209.864H187.152V219.368H191.656V209.864Z" fill="#263238"/>
<path d="M203.656 209.864H199.152V219.368H203.656V209.864Z" fill="#263238"/>
<path d="M191.656 227.968H187.152V237.472H191.656V227.968Z" fill="#263238"/>
<path d="M203.656 227.968H199.152V237.472H203.656V227.968Z" fill="#263238"/>
<path d="M191.656 246.072H187.152V255.576H191.656V246.072Z" fill="#263238"/>
<path d="M203.656 246.072H199.152V255.576H203.656V246.072Z" fill="#263238"/>
<path d="M191.656 264.176H187.152V273.68H191.656V264.176Z" fill="#263238"/>
<path d="M203.656 264.176H199.152V273.68H203.656V264.176Z" fill="#263238"/>
<path d="M191.656 282.28H187.152V291.784H191.656V282.28Z" fill="#263238"/>
<path d="M203.656 282.28H199.152V291.784H203.656V282.28Z" fill="#263238"/>
<path d="M191.656 300.384H187.152V309.888H191.656V300.384Z" fill="#263238"/>
<path d="M203.656 300.384H199.152V309.888H203.656V300.384Z" fill="#263238"/>
<path d="M215.264 186.888C215.264 187.048 207.08 187.176 196.992 187.176C186.904 187.176 178.712 187.048 178.712 186.888C178.712 186.728 186.896 186.608 196.992 186.608C207.088 186.608 215.264 186.736 215.264 186.888Z" fill="#263238"/>
<path d="M215.264 205.056C215.264 205.216 207.08 205.344 196.992 205.344C186.904 205.344 178.712 205.216 178.712 205.056C178.712 204.896 186.896 204.776 196.992 204.776C207.088 204.776 215.264 204.904 215.264 205.056Z" fill="#263238"/>
<path d="M215.264 223.448C215.264 223.6 207.08 223.728 196.992 223.728C186.904 223.728 178.712 223.6 178.712 223.448C178.712 223.296 186.896 223.16 196.992 223.16C207.088 223.16 215.264 223.288 215.264 223.448Z" fill="#263238"/>
<path d="M215.264 241.704C215.264 241.856 207.08 241.984 196.992 241.984C186.904 241.984 178.712 241.856 178.712 241.704C178.712 241.552 186.896 241.416 196.992 241.416C207.088 241.416 215.264 241.544 215.264 241.704Z" fill="#263238"/>
<path d="M215.264 259.696C215.264 259.848 207.08 259.976 196.992 259.976C186.904 259.976 178.712 259.848 178.712 259.696C178.712 259.544 186.896 259.408 196.992 259.408C207.088 259.408 215.264 259.536 215.264 259.696Z" fill="#263238"/>
<path d="M215.264 277.2C215.264 277.352 207.08 277.48 196.992 277.48C186.904 277.48 178.712 277.352 178.712 277.2C178.712 277.048 186.896 276.912 196.992 276.912C207.088 276.912 215.264 277.04 215.264 277.2Z" fill="#263238"/>
<path d="M215.264 296.6C215.264 296.752 207.08 296.88 196.992 296.88C186.904 296.88 178.712 296.752 178.712 296.6C178.712 296.448 186.896 296.312 196.992 296.312C207.088 296.312 215.264 296.44 215.264 296.6Z" fill="#263238"/>
<path d="M237.76 186.888C237.76 187.048 232.888 187.176 226.88 187.176C220.872 187.176 216 187.048 216 186.888C216 186.728 220.864 186.608 226.88 186.608C232.896 186.608 237.76 186.736 237.76 186.888Z" fill="#EFD165"/>
<path d="M237.76 205.056C237.76 205.216 232.888 205.344 226.88 205.344C220.872 205.344 216 205.216 216 205.056C216 204.896 220.864 204.776 226.88 204.776C232.896 204.776 237.76 204.904 237.76 205.056Z" fill="#EFD165"/>
<path d="M237.76 223.2C237.76 223.36 232.888 223.488 226.88 223.488C220.872 223.488 216 223.384 216 223.2C216 223.016 220.864 222.92 226.88 222.92C232.896 222.92 237.76 223.072 237.76 223.2Z" fill="#EFD165"/>
<path d="M237.52 241.704C237.52 241.856 232.648 241.984 226.64 241.984C220.632 241.984 215.76 241.856 215.76 241.704C215.76 241.552 220.632 241.416 226.64 241.416C232.648 241.416 237.52 241.544 237.52 241.704Z" fill="#EFD165"/>
<path d="M237.52 259.696C237.52 259.848 232.648 259.976 226.64 259.976C220.632 259.976 215.76 259.848 215.76 259.696C215.76 259.544 220.632 259.408 226.64 259.408C232.648 259.408 237.52 259.536 237.52 259.696Z" fill="#EFD165"/>
<path d="M237.52 277.688C237.52 277.84 232.648 277.968 226.64 277.968C220.632 277.968 215.76 277.84 215.76 277.688C215.76 277.536 220.632 277.4 226.64 277.4C232.648 277.4 237.52 277.528 237.52 277.688Z" fill="#EFD165"/>
<path d="M237.52 296.6C237.52 296.752 232.648 296.88 226.64 296.88C220.632 296.88 215.76 296.752 215.76 296.6C215.76 296.448 220.632 296.312 226.64 296.312C232.648 296.312 237.52 296.44 237.52 296.6Z" fill="#EFD165"/>
<path d="M248.96 264.328H225.048V319.2H248.96V264.328Z" fill="#B6910B"/>
<path opacity="0.2" d="M248.96 264.328H225.048V319.2H248.96V264.328Z" fill="black"/>
<path d="M219.456 264.104H278.456L289.48 248.456L301.032 264.552L314.616 264.336L299.976 244.616L234.192 244.896L219.456 264.104Z" fill="#B6910B"/>
<path opacity="0.2" d="M219.456 264.104H278.456L289.48 248.456L301.032 264.552L314.616 264.336L299.976 244.616L234.192 244.896L219.456 264.104Z" fill="white"/>
<path d="M248.96 264.336V319.2H307.88V264.336H301.12L289.48 248.456L278.416 264.088L248.96 264.336Z" fill="#B6910B"/>
<g opacity="0.2">
<path opacity="0.2" d="M257.288 319.2V295.416H271.064V319.2" fill="black"/>
</g>
<path opacity="0.7" d="M301.04 294.744H279.328V308.192H301.04V294.744Z" fill="white"/>
<path opacity="0.7" d="M301.04 267.832H279.328V281.28H301.04V267.832Z" fill="white"/>
<path opacity="0.7" d="M269.624 267.952H255.936V280.912H269.624V267.952Z" fill="white"/>
<path d="M285.696 294.744H285.496V308.32H285.696V294.744Z" fill="#B6910B"/>
<path d="M294.72 294.744H294.52V308.32H294.72V294.744Z" fill="#B6910B"/>
<path d="M294.616 301.84H285.592V302.04H294.616V301.84Z" fill="#B6910B"/>
<path d="M285.696 267.832H285.496V281.408H285.696V267.832Z" fill="#B6910B"/>
<path d="M294.72 267.832H294.52V281.408H294.72V267.832Z" fill="#B6910B"/>
<path d="M294.616 274.928H285.592V275.128H294.616V274.928Z" fill="#B6910B"/>
<path d="M262.88 267.952H262.68V280.912H262.88V267.952Z" fill="#B6910B"/>
<path d="M269.624 274.648H255.936V274.848H269.624V274.648Z" fill="#B6910B"/>
<path opacity="0.7" d="M292.352 258.928C292.352 259.502 292.182 260.064 291.863 260.541C291.544 261.019 291.09 261.391 290.559 261.611C290.029 261.831 289.445 261.888 288.882 261.776C288.318 261.664 287.801 261.388 287.395 260.981C286.989 260.575 286.712 260.058 286.6 259.495C286.488 258.931 286.545 258.347 286.765 257.817C286.985 257.286 287.357 256.832 287.835 256.513C288.312 256.194 288.874 256.024 289.448 256.024C290.218 256.026 290.955 256.333 291.499 256.877C292.043 257.421 292.35 258.158 292.352 258.928V258.928Z" fill="white"/>
<path d="M268.736 255.368L272.4 250.848V239.976H264.728V255.448L268.736 255.368Z" fill="#B6910B"/>
<path opacity="0.2" d="M268.736 255.368V239.976H272.4V250.848L268.736 255.368Z" fill="black"/>
<path d="M272.92 238.376H263.872V239.976H272.92V238.376Z" fill="#B6910B"/>
<path d="M249.64 288.336H204.464V319.208H249.64V288.336Z" fill="#B6910B"/>
<path opacity="0.2" d="M232.32 288.336H204.464V319.208H232.32V288.336Z" fill="black"/>
<path d="M226.456 319.152C226.426 319.021 226.413 318.886 226.416 318.752C226.416 318.44 226.416 318.056 226.416 317.592C226.416 316.52 226.416 315.064 226.352 313.248C226.352 309.488 226.304 304.296 226.272 298.288L226.496 298.512H209.96L210.176 298.288C210.176 304.296 210.12 309.488 210.096 313.248C210.096 315.064 210.048 316.52 210.032 317.592C210.032 318.056 210.032 318.44 209.992 318.752C210.006 318.885 210.006 319.019 209.992 319.152C209.957 319.022 209.943 318.887 209.952 318.752C209.952 318.44 209.952 318.056 209.952 317.592C209.952 316.52 209.952 315.064 209.888 313.248C209.888 309.496 209.84 304.296 209.808 298.288V298.064H226.752V298.288C226.712 304.296 226.688 309.488 226.664 313.248C226.664 315.064 226.616 316.52 226.6 317.592C226.6 318.056 226.6 318.44 226.6 318.752C226.565 318.89 226.517 319.024 226.456 319.152V319.152Z" fill="#263238"/>
<path opacity="0.2" d="M247.544 297.496H235.808V300.488H247.544V297.496Z" fill="black"/>
<path d="M219.456 264.104V265.696H278.416V264.088L219.456 264.104Z" fill="#B6910B"/>
<path d="M278.416 265.696L289.448 250.216L289.48 248.456L278.456 264.104L278.416 265.696Z" fill="#B6910B"/>
<path d="M314.328 264.328H301.12V265.352H314.328V264.328Z" fill="#B6910B"/>
<path d="M266.368 291.768H261.496V293.624H266.368V291.768Z" fill="#263238"/>
<path opacity="0.3" d="M219.456 264.104V265.696H278.416V264.088L219.456 264.104Z" fill="black"/>
<path opacity="0.3" d="M278.416 265.696L289.448 250.216L289.48 248.456L278.456 264.104L278.416 265.696Z" fill="black"/>
<path opacity="0.3" d="M314.328 264.328H301.12V265.352H314.328V264.328Z" fill="black"/>
<path d="M269.952 307.416C269.912 307.416 269.952 307.112 269.592 306.88C269.5 306.818 269.395 306.779 269.285 306.767C269.175 306.754 269.063 306.768 268.96 306.808C268.839 306.857 268.735 306.941 268.662 307.049C268.589 307.158 268.55 307.285 268.55 307.416C268.55 307.547 268.589 307.674 268.662 307.783C268.735 307.891 268.839 307.975 268.96 308.024C269.063 308.064 269.175 308.078 269.285 308.065C269.395 308.053 269.5 308.014 269.592 307.952C269.92 307.72 269.912 307.408 269.952 307.416C269.992 307.424 270.088 307.76 269.712 308.112C269.596 308.207 269.459 308.27 269.312 308.297C269.165 308.323 269.013 308.312 268.872 308.264C268.695 308.204 268.541 308.089 268.433 307.937C268.324 307.785 268.265 307.603 268.265 307.416C268.265 307.229 268.324 307.047 268.433 306.895C268.541 306.743 268.695 306.628 268.872 306.568C269.013 306.52 269.165 306.509 269.312 306.535C269.459 306.562 269.596 306.625 269.712 306.72C270.088 307.08 269.976 307.44 269.952 307.416Z" fill="#263238"/>
<path d="M157.8 228.272C157.8 228.272 145.392 275.472 128.712 284.336C117.72 290.176 108.016 283.208 101.512 272.168L77.992 234.312C77.3924 232.155 77.6379 229.85 78.6783 227.867C79.7188 225.884 81.476 224.373 83.592 223.64L103.2 216.8L122.736 251.624L147.736 221.224" fill="#EB996E"/>
<path d="M35.7121 231.56C36.1441 234.632 43.8801 257.216 43.8801 257.216C43.8801 257.216 78.9841 247.288 78.6161 245.544C78.3121 244.128 72.8241 221.632 65.4961 208.952C64.1223 206.508 62.1958 204.418 59.8705 202.852C57.5451 201.285 54.8855 200.283 52.1041 199.928C50.5521 199.752 47.1041 201.192 46.1521 201.664C38.6801 205.4 32.3681 207.832 35.7121 231.56Z" fill="#EFD165"/>
<path d="M90.752 198.4C104.232 202.152 104.84 208.28 111.592 219.088L122.224 238.448L104.512 249.736L101.264 257.016L99.512 319.624L28.144 319.272L40.944 268.592L35.84 235.312C35.368 230.064 33.856 220.256 35.472 215.192C40.536 199.368 59.424 197.68 71.04 195.28C73.44 194.784 75.752 195.544 77.704 196.136" fill="#EFD165"/>
<path d="M101.088 260.232C101.033 259.701 101.016 259.166 101.04 258.632C101.04 257.512 101.04 256.024 101.096 254.232V254.192C101.988 252.607 102.766 250.96 103.424 249.264C104.244 247.252 104.45 245.041 104.016 242.912C103.44 240.512 102.112 238.496 101.224 236.512C100.418 234.734 99.8785 232.847 99.624 230.912C99.4566 229.62 99.4218 228.315 99.52 227.016C99.52 226.552 99.608 226.216 99.648 225.96C99.6559 225.836 99.6857 225.714 99.736 225.6C99.7642 226.074 99.7642 226.55 99.736 227.024C99.7032 228.309 99.7862 229.594 99.984 230.864C100.275 232.747 100.833 234.579 101.64 236.304C102.52 238.256 103.88 240.304 104.488 242.784C104.946 245 104.726 247.303 103.856 249.392C103.183 251.099 102.38 252.751 101.456 254.336V254.256C101.368 256.048 101.304 257.536 101.248 258.656C101.242 259.185 101.188 259.713 101.088 260.232V260.232Z" fill="#263238"/>
<path d="M91.3119 196.2C91.3731 196.354 91.4134 196.515 91.4319 196.68C91.5183 197.148 91.5717 197.621 91.5919 198.096C91.6559 199.857 91.362 201.612 90.7279 203.256C89.7882 205.712 88.1674 207.849 86.0559 209.416C83.41 211.301 80.1668 212.154 76.9359 211.816C75.2755 211.646 73.654 211.206 72.1359 210.512C70.7326 209.852 69.4443 208.972 68.3199 207.904C66.4396 206.084 65.0073 203.852 64.1359 201.384C63.5459 199.732 63.2087 198.001 63.1359 196.248C63.1057 195.774 63.1057 195.298 63.1359 194.824C63.1307 194.66 63.1468 194.496 63.1839 194.336C63.2399 194.336 63.1839 195.016 63.2959 196.24C63.4383 197.961 63.8179 199.655 64.4239 201.272C65.3138 203.671 66.7425 205.833 68.5999 207.592C69.6936 208.622 70.9472 209.468 72.3119 210.096C73.7798 210.765 75.3471 211.189 76.9519 211.352C80.0605 211.69 83.1864 210.892 85.7519 209.104C87.4768 207.84 88.8817 206.19 89.8542 204.285C90.8266 202.38 91.3396 200.275 91.3519 198.136C91.4079 196.88 91.2559 196.208 91.3119 196.2Z" fill="#263238"/>
<path d="M118.992 232.6C118.327 233.097 117.621 233.536 116.88 233.912C115.56 234.712 113.72 235.736 111.72 236.944C109.72 238.152 107.936 239.28 106.64 240.096C105.965 240.578 105.247 240.999 104.496 241.352C105.101 240.781 105.76 240.269 106.464 239.824C107.712 238.936 109.48 237.76 111.488 236.544C113.496 235.328 115.36 234.32 116.728 233.624C117.446 233.206 118.204 232.863 118.992 232.6Z" fill="#263238"/>
<path d="M37.9041 233.432C37.9041 233.432 37.9521 233.576 38.0401 233.856L38.3761 235.104L39.6321 239.904C40.6961 244.064 42.2161 250 44.0641 257.192L43.8321 257.064L76.8401 246.752L77.6401 246.456L77.4881 246.72C75.8999 239.328 73.7278 232.073 70.992 225.024C68.432 218.56 65.496 212.952 62.192 208.912C60.7194 207.074 58.9546 205.49 56.9681 204.224C55.4765 203.257 53.7763 202.66 52.0081 202.48C51.6695 202.425 51.3271 202.395 50.9841 202.392L50.0721 202.44C49.7921 202.44 49.5361 202.44 49.2721 202.496L48.6481 202.632L47.7841 202.808C47.6864 202.83 47.5876 202.846 47.4881 202.856C47.5774 202.814 47.6714 202.781 47.7681 202.76L48.6241 202.544L49.2561 202.384C49.4961 202.336 49.7601 202.336 50.0561 202.304L50.9761 202.24C51.3236 202.236 51.671 202.254 52.0161 202.296C53.8183 202.452 55.5573 203.036 57.0881 204C59.1051 205.256 60.9001 206.837 62.4001 208.68C65.8161 212.736 68.8001 218.36 71.3841 224.84C74.149 231.906 76.3427 239.183 77.944 246.6V246.8L77.7521 246.864L76.9521 247.16C64.5761 251.088 53.1121 254.552 43.8881 257.392L43.7041 257.448L43.6561 257.264C41.8721 250.064 40.4081 244.104 39.3761 239.936C38.8801 237.88 38.4961 236.264 38.2241 235.136L37.9361 233.88C37.9066 233.733 37.8958 233.582 37.9041 233.432V233.432Z" fill="#263238"/>
<path d="M76.5041 242.224C76.5041 242.352 68.9201 244.552 59.4881 247.152C50.0561 249.752 42.4001 251.752 42.4001 251.632C42.4001 251.512 49.9761 249.304 59.4081 246.704C68.8402 244.104 76.4641 242.104 76.5041 242.224Z" fill="#263238"/>
<path d="M73.6001 139.816C71.4161 135.08 65.4081 132.848 60.3441 134.104C55.2801 135.36 51.2801 139.496 49.1441 144.24C47.0081 148.984 46.4401 154.32 46.4001 159.536C46.4001 162.296 46.5201 165.088 45.9601 167.792C45.4001 170.496 44.0721 173.168 41.7521 174.672C39.9281 175.856 37.6881 176.208 35.7281 177.152C33.7681 178.096 31.9681 180.104 32.4561 182.232C33.0321 184.768 36.2161 185.528 38.8001 185.792C38.8435 187.357 39.3285 188.878 40.1992 190.18C41.0699 191.481 42.2907 192.51 43.7209 193.147C45.1511 193.784 46.7323 194.004 48.2822 193.781C49.832 193.559 51.2873 192.902 52.4801 191.888C51.6801 195.088 54.5041 198.384 57.7521 198.768C61.0001 199.152 64.1521 197.12 65.9601 194.368C67.7681 191.616 68.2801 188.256 68.4161 184.984C68.5521 181.712 68.3201 178.4 68.6401 175.2" fill="#B6910B"/>
<path d="M110.456 145.776C110.456 145.776 112.856 129.696 90.7281 129.4C65.9761 129.072 61.5121 150.2 65.7521 161.328L78.0561 149.136L110.456 145.776Z" fill="#B6910B"/>
<path d="M91.0401 198.4C91.2881 194.12 91.4721 190.632 91.4721 190.632C91.4721 190.632 104.144 190.928 106.008 179.944C107.872 168.96 110.008 143.376 110.008 143.376C104.473 139.797 97.9986 137.943 91.4077 138.051C84.8168 138.16 78.4068 140.225 72.9921 143.984L71.9521 144.704L63.9521 195.496C63.3815 199.057 64.2446 202.699 66.3525 205.626C68.4604 208.552 71.6416 210.525 75.2001 211.112C77.0907 211.424 79.0259 211.334 80.8794 210.848C82.7329 210.362 84.4633 209.491 85.9577 208.292C87.4522 207.093 88.6772 205.592 89.5528 203.887C90.4285 202.183 90.9353 200.313 91.0401 198.4V198.4Z" fill="#FFBE9D"/>
<path d="M105.488 162.872C105.446 163.141 105.325 163.392 105.142 163.593C104.958 163.795 104.72 163.938 104.455 164.005C104.191 164.072 103.913 164.06 103.656 163.971C103.398 163.881 103.173 163.718 103.007 163.502C102.842 163.285 102.743 163.025 102.724 162.753C102.705 162.481 102.766 162.21 102.9 161.972C103.034 161.735 103.235 161.542 103.477 161.418C103.72 161.293 103.993 161.242 104.264 161.272C104.45 161.295 104.63 161.354 104.793 161.447C104.956 161.54 105.099 161.665 105.213 161.814C105.327 161.963 105.41 162.134 105.457 162.315C105.505 162.497 105.515 162.686 105.488 162.872Z" fill="#263238"/>
<path d="M106.512 161.552C106.312 161.72 105.392 160.752 103.912 160.472C102.432 160.192 101.24 160.84 101.112 160.624C100.984 160.408 101.264 160.208 101.792 159.912C102.489 159.546 103.289 159.422 104.064 159.56C104.843 159.692 105.557 160.078 106.096 160.656C106.504 161.112 106.608 161.48 106.512 161.552Z" fill="#263238"/>
<path d="M90.632 161.448C90.6262 161.64 90.5809 161.828 90.4988 162.001C90.4168 162.175 90.2998 162.329 90.1552 162.455C90.0107 162.581 89.8416 162.676 89.6587 162.734C89.4757 162.791 89.2829 162.811 89.0922 162.79C88.9015 162.77 88.7171 162.71 88.5505 162.615C88.384 162.52 88.2389 162.391 88.1243 162.238C88.0097 162.084 87.9282 161.908 87.8848 161.721C87.8414 161.534 87.837 161.341 87.872 161.152C87.8778 160.96 87.9231 160.772 88.0052 160.599C88.0872 160.425 88.2042 160.271 88.3488 160.145C88.4933 160.019 88.6624 159.924 88.8453 159.866C89.0283 159.809 89.2211 159.79 89.4118 159.81C89.6025 159.83 89.7869 159.89 89.9534 159.985C90.12 160.08 90.2651 160.209 90.3797 160.362C90.4943 160.516 90.5758 160.692 90.6192 160.879C90.6626 161.066 90.667 161.259 90.632 161.448V161.448Z" fill="#263238"/>
<path d="M91.3682 160.2C91.1762 160.368 90.2482 159.36 88.7762 159.12C87.3042 158.88 86.1042 159.488 85.9682 159.264C85.9042 159.168 86.1282 158.848 86.6562 158.56C87.3533 158.193 88.1528 158.07 88.9282 158.208C89.7079 158.339 90.4223 158.725 90.9602 159.304C91.3602 159.752 91.4642 160.128 91.3682 160.2Z" fill="#263238"/>
<path d="M93.28 171.64C94.1029 171.589 94.9288 171.649 95.736 171.816C96.12 171.872 96.488 171.888 96.616 171.632C96.7298 171.226 96.7298 170.798 96.616 170.392C96.496 169.336 96.376 168.232 96.248 167.072C95.776 162.352 95.536 158.52 95.712 158.496C95.888 158.472 96.416 162.28 96.896 167C97 168.16 97.104 169.264 97.2 170.32C97.3154 170.859 97.2507 171.421 97.016 171.92C96.9324 172.042 96.8218 172.143 96.6927 172.215C96.5637 172.287 96.4197 172.329 96.272 172.336C96.0538 172.34 95.8361 172.316 95.624 172.264C94.8179 172.164 94.0292 171.954 93.28 171.64V171.64Z" fill="#263238"/>
<path d="M91.5121 190.632C86.3962 189.845 81.6203 187.585 77.7681 184.128C77.7681 184.128 80.4561 192.864 91.3121 193.584L91.5121 190.632Z" fill="#EB996E"/>
<path d="M91.832 176C91.8002 175.522 91.6516 175.059 91.3991 174.652C91.1466 174.244 90.7981 173.905 90.384 173.664C90.0977 173.494 89.778 173.387 89.4467 173.351C89.1153 173.315 88.7802 173.351 88.464 173.456C88.1519 173.572 87.8816 173.779 87.6877 174.05C87.4939 174.321 87.3853 174.643 87.376 174.976C87.4222 175.345 87.5746 175.693 87.8146 175.977C88.0546 176.261 88.3719 176.469 88.728 176.576C89.452 176.775 90.2099 176.819 90.952 176.704C91.1589 176.698 91.3627 176.652 91.552 176.568C91.6444 176.523 91.722 176.452 91.7759 176.364C91.8297 176.276 91.8574 176.175 91.856 176.072" fill="#EB996E"/>
<path d="M88.6001 172C88.4961 172 88.2561 172.368 88.2161 173.096C88.1873 174.062 88.5093 175.006 89.1226 175.753C89.7359 176.5 90.5989 177 91.5521 177.16C92.2801 177.264 92.7121 177.104 92.7041 176.992C92.7041 176.744 90.9921 176.656 89.8001 175.2C88.6081 173.744 88.8401 172.04 88.6001 172Z" fill="#263238"/>
<path d="M70.4 159.032C70.232 158.912 64.096 156.264 62.344 163.488C60.592 170.712 68.976 169.976 69.04 169.768C69.104 169.56 70.4 159.032 70.4 159.032Z" fill="#FFBE9D"/>
<path d="M67.3201 166.736C67.3201 166.736 67.1681 166.792 66.9121 166.84C66.5639 166.9 66.2059 166.832 65.9041 166.648C65.1521 166.192 64.7601 164.84 65.0401 163.528C65.1668 162.899 65.441 162.31 65.8401 161.808C65.9737 161.593 66.1566 161.412 66.3735 161.282C66.5905 161.151 66.8354 161.074 67.0881 161.056C67.2472 161.048 67.4042 161.095 67.5336 161.188C67.6629 161.281 67.7568 161.415 67.8001 161.568C67.8561 161.792 67.8001 161.928 67.8001 161.952C67.8001 161.976 67.9921 161.864 68.0081 161.552C68.004 161.363 67.9331 161.182 67.8081 161.04C67.6282 160.841 67.3794 160.718 67.1121 160.696C66.7881 160.683 66.4657 160.748 66.1729 160.888C65.8802 161.027 65.6259 161.236 65.4321 161.496C64.9571 162.043 64.627 162.7 64.4721 163.408C64.1681 164.88 64.6321 166.408 65.6801 166.944C65.877 167.044 66.0923 167.101 66.3126 167.114C66.5328 167.126 66.7533 167.093 66.9601 167.016C67.2641 166.904 67.3441 166.752 67.3201 166.736Z" fill="#EB996E"/>
<path d="M107.496 138.312C108.768 139.232 109.723 140.524 110.23 142.01C110.738 143.496 110.772 145.102 110.328 146.608C109.24 150.064 106.016 153.808 97.0561 153.688L99.0961 151.424C97.0801 152.962 94.7241 153.993 92.2264 154.43C89.7287 154.867 87.1626 154.698 84.7441 153.936L87.2561 149.072C87.2561 149.072 75.9281 161.08 69.6001 161.6L70.4001 148.8C71.9281 136.72 77.1041 133.096 84.9361 132.448C87.8451 132.184 90.7741 132.235 93.6721 132.6C98.6886 133.306 103.445 135.271 107.496 138.312V138.312Z" fill="#B6910B"/>
<path d="M63.2001 127.848C63.7964 127.993 64.3625 128.242 64.8721 128.584C67.4449 130.087 69.4881 132.351 70.7201 135.064C71.0065 135.606 71.196 136.193 71.2801 136.8C71.1441 136.864 70.2481 134.184 67.9521 131.68C65.6561 129.176 63.1201 128 63.2001 127.848Z" fill="#B6910B"/>
<path d="M40.3921 168.8C40.3921 168.8 40.2401 168.64 39.8961 168.424C39.3858 168.116 38.7957 167.966 38.2001 167.992C37.739 168.003 37.2857 168.114 36.8715 168.317C36.4572 168.52 36.0918 168.811 35.8001 169.168C35.4475 169.668 35.2267 170.25 35.1581 170.858C35.0896 171.466 35.1756 172.082 35.4081 172.648C35.692 173.328 36.1495 173.922 36.735 174.37C37.3204 174.818 38.0133 175.104 38.7441 175.2C39.5904 175.329 40.4546 175.27 41.2757 175.028C42.0968 174.786 42.8548 174.367 43.4961 173.8C44.9675 172.567 45.9842 170.877 46.3841 169C46.5962 168.019 46.5962 167.005 46.3841 166.024C46.1426 165.007 45.7829 164.021 45.3121 163.088C44.8641 162.12 44.3841 161.168 44.0081 160.168C43.6402 159.184 43.4009 158.157 43.2961 157.112C43.1258 155.134 43.3571 153.142 43.9761 151.256C45.0485 148.083 46.9126 145.236 49.3922 142.984C51.0222 141.459 52.7897 140.088 54.6721 138.888C55.3361 138.464 55.8641 138.144 56.2241 137.936C56.4024 137.822 56.5897 137.723 56.7842 137.64C56.6272 137.783 56.4556 137.909 56.2721 138.016L54.7762 139.04C52.9379 140.28 51.2065 141.671 49.6001 143.2C47.2058 145.448 45.4056 148.254 44.3601 151.368C43.7753 153.201 43.5604 155.132 43.7281 157.048C43.8404 158.053 44.0713 159.041 44.4161 159.992C44.7841 160.96 45.2641 161.896 45.7201 162.88C46.2032 163.844 46.571 164.862 46.8161 165.912C47.0402 166.953 47.0402 168.031 46.8161 169.072C46.3839 171.044 45.3021 172.813 43.7441 174.096C43.0557 174.696 42.2436 175.136 41.3656 175.386C40.4876 175.637 39.5653 175.691 38.6641 175.544C37.8685 175.431 37.1171 175.109 36.4873 174.61C35.8575 174.111 35.3718 173.453 35.0801 172.704C34.839 172.088 34.7573 171.421 34.8426 170.765C34.9279 170.109 35.1775 169.486 35.5681 168.952C35.8881 168.571 36.289 168.267 36.7415 168.061C37.1941 167.854 37.6869 167.752 38.1841 167.76C38.8065 167.748 39.4168 167.933 39.9281 168.288C40.1156 168.426 40.2734 168.6 40.3921 168.8Z" fill="#B6910B"/>
<path d="M69.3761 144.656C69.1238 144.223 68.9708 143.739 68.9281 143.24C68.74 142.051 68.7862 140.836 69.0641 139.664C69.3347 138.49 69.835 137.38 70.5361 136.4C71.0801 135.656 71.5281 135.296 71.5601 135.336C71.5921 135.376 70.1121 137.104 69.5121 139.768C68.9121 142.432 69.5201 144.632 69.3761 144.656Z" fill="#263238"/>
<path d="M62.7681 168C62.3435 168.37 62.0142 168.836 61.8081 169.36C61.7205 169.636 61.6881 169.926 61.7128 170.214C61.7375 170.503 61.8188 170.783 61.9521 171.04C62.1393 171.34 62.3934 171.593 62.6945 171.779C62.9956 171.965 63.3357 172.079 63.6881 172.112C64.0383 172.167 64.3964 172.144 64.7367 172.045C65.077 171.945 65.391 171.771 65.6561 171.536C66.0704 171.122 66.3034 170.561 66.3041 169.976C66.279 169.407 66.1022 168.854 65.7921 168.376C65.7921 168.376 65.9681 168.44 66.1681 168.688C66.4471 169.047 66.609 169.482 66.6321 169.936C66.655 170.279 66.6072 170.622 66.4916 170.946C66.376 171.269 66.1951 171.565 65.9601 171.816C65.6519 172.107 65.2812 172.324 64.8764 172.45C64.4715 172.577 64.0432 172.609 63.6241 172.544C63.2108 172.505 62.8124 172.369 62.4609 172.149C62.1094 171.928 61.8146 171.627 61.6001 171.272C61.4494 170.962 61.3651 170.624 61.3527 170.28C61.3403 169.935 61.4 169.592 61.5281 169.272C61.6857 168.849 61.9638 168.482 62.3281 168.216C62.5841 168.04 62.7601 168 62.7681 168Z" fill="#EFD165"/>
<path d="M112.296 149.456C112.208 149.456 112.56 148.224 112.568 146.256C112.594 143.645 111.905 141.078 110.575 138.831C109.245 136.584 107.325 134.745 105.024 133.512C103.272 132.56 102.032 132.288 102.056 132.2C102.353 132.205 102.648 132.259 102.928 132.36C103.704 132.574 104.457 132.863 105.176 133.224C107.586 134.418 109.598 136.285 110.969 138.6C112.339 140.914 113.008 143.577 112.896 146.264C112.865 147.072 112.758 147.876 112.576 148.664C112.52 148.94 112.426 149.206 112.296 149.456V149.456Z" fill="#B6910B"/>
<path d="M92.0801 157.384C92.0321 157.44 91.7281 157.152 91.1761 156.816C90.4666 156.379 89.6685 156.106 88.8401 156.016C88.0083 155.932 87.1685 156.039 86.3841 156.328C85.7681 156.544 85.4161 156.76 85.3761 156.696C85.3361 156.632 85.6401 156.336 86.2561 156.024C87.071 155.621 87.9837 155.457 88.8881 155.552C89.791 155.651 90.6491 155.997 91.3681 156.552C91.9041 156.984 92.1281 157.352 92.0801 157.384Z" fill="#B6910B"/>
<path d="M106.192 158.736C105.244 158.89 104.277 158.89 103.328 158.736C102.369 158.74 101.416 158.591 100.504 158.296C101.45 158.144 102.414 158.144 103.36 158.296C104.322 158.291 105.278 158.439 106.192 158.736V158.736Z" fill="#B6910B"/>
<path d="M157.8 228.272C157.8 228.272 162.336 217.496 156.2 218.672C146.8 220.464 148.2 229.608 148.2 229.608L157.8 228.272Z" fill="#EB996E"/>
<path d="M166.536 179.936C165.746 179.656 164.918 179.496 164.08 179.464C169.184 183.256 170.568 193.016 166.992 202.872C163.504 212.472 156.448 219.024 150.192 218.976L149.696 218.848C144.728 214.968 143.416 205.328 146.944 195.584C150.472 185.84 157.744 179.184 164.072 179.464C163.429 178.981 162.721 178.594 161.968 178.312C155.2 175.848 146.4 182.856 142.4 193.96C138.488 204.744 140.52 215.4 146.872 218.256H146.744L134.232 250.256C133.965 250.936 133.978 251.694 134.27 252.364C134.562 253.034 135.108 253.561 135.788 253.828C136.468 254.095 137.226 254.082 137.896 253.79C138.566 253.498 139.093 252.952 139.36 252.272L152 220.144C158.792 222.6 167.56 215.6 171.584 204.496C175.608 193.392 173.328 182.4 166.536 179.936Z" fill="#263238"/>
<path d="M160.888 208.88C160.977 208.541 161.106 208.213 161.272 207.904L162.44 205.32C163.768 202.5 164.802 199.551 165.528 196.52C166.223 193.498 166.223 190.358 165.528 187.336C165.177 186.099 164.733 184.89 164.2 183.72C164.434 183.984 164.628 184.28 164.776 184.6C165.228 185.441 165.585 186.329 165.84 187.248C166.646 190.313 166.692 193.529 165.976 196.616C165.247 199.667 164.16 202.621 162.736 205.416C162.2 206.488 161.752 207.352 161.432 207.936C161.294 208.274 161.111 208.591 160.888 208.88Z" fill="#263238"/>
<path d="M159.576 211.44C159.664 211.536 159.28 212.072 158.704 212.64C158.128 213.208 157.6 213.592 157.512 213.504C157.424 213.416 157.808 212.88 158.384 212.312C158.96 211.744 159.488 211.352 159.576 211.44Z" fill="#263238"/>
<path d="M145.928 223.456C144.96 221.624 143.832 219.096 142.128 217.912C140.424 216.728 138.056 215.36 136.056 217.112C138.572 220.703 140.903 224.42 143.04 228.248L145.928 223.456Z" fill="#EB996E"/>
<path d="M159.256 220.216C159.256 220.216 158.88 218.088 155.76 219.024C152.64 219.96 142.864 222 144.752 224.08C146.64 226.16 149.976 225.224 149.976 225.224C149.976 225.224 144.544 226.4 145.064 227.536C145.584 228.672 146.488 230.64 148.8 229.408C151.112 228.176 157.528 226.088 157.528 226.088L159.256 220.216Z" fill="#EB996E"/>
<path d="M158.904 224.968C158.904 224.968 158.904 224.76 158.904 224.432C158.896 224.212 158.822 223.999 158.691 223.821C158.559 223.644 158.377 223.511 158.168 223.44C157.473 223.361 156.77 223.466 156.128 223.744L153.528 224.44C151.68 224.928 150 225.336 148.776 225.608C148.125 225.801 147.454 225.922 146.776 225.968C147.388 225.672 148.033 225.446 148.696 225.296C149.896 224.936 151.56 224.496 153.408 224L156.016 223.336C156.735 223.049 157.521 222.977 158.28 223.128C158.535 223.234 158.75 223.418 158.894 223.654C159.038 223.889 159.103 224.165 159.08 224.44C159.056 224.8 158.92 224.976 158.904 224.968Z" fill="#263238"/>
<path d="M75.4801 247.616L84.9201 265.12L131.784 241.52C131.784 241.52 138.68 228.272 139.824 228.44C140.968 228.608 146.04 230.792 146.04 230.792C146.04 230.792 153.24 226.904 154.792 227.96C156.344 229.016 158.44 241.816 157.08 245.776C155.72 249.736 141.488 257.712 141.488 257.712C141.488 257.712 103.088 282.928 86.3921 291.784C75.4001 297.624 65.7041 290.656 59.1921 279.616L48.0881 256.12" fill="#FFBE9D"/>
<path d="M24.8 44.8V25.3C24.8 24.92 24.97 24.62 25.31 24.4C25.65 24.18 26.05 24.07 26.51 24.07H32.3C36.32 24.07 38.33 25.83 38.33 29.35C38.33 31.79 37.48 33.38 35.78 34.12C36.8 34.52 37.57 35.09 38.09 35.83C38.61 36.55 38.87 37.61 38.87 39.01V39.64C38.87 41.86 38.33 43.48 37.25 44.5C36.17 45.5 34.71 46 32.87 46H26.51C26.01 46 25.6 45.88 25.28 45.64C24.96 45.4 24.8 45.12 24.8 44.8ZM28.67 42.58H32.06C34 42.58 34.97 41.49 34.97 39.31V38.83C34.97 37.71 34.72 36.9 34.22 36.4C33.74 35.9 33.02 35.65 32.06 35.65H28.67V42.58ZM28.67 32.59H32.03C32.81 32.59 33.4 32.36 33.8 31.9C34.22 31.44 34.43 30.81 34.43 30.01C34.43 29.23 34.21 28.62 33.77 28.18C33.35 27.72 32.76 27.49 32 27.49H28.67V32.59ZM41.1957 40.18V32.98C41.1957 32.68 41.3857 32.4 41.7657 32.14C42.1657 31.88 42.6257 31.75 43.1457 31.75C43.6457 31.75 44.0857 31.88 44.4657 32.14C44.8657 32.4 45.0657 32.68 45.0657 32.98V40.18C45.0657 40.88 45.3257 41.51 45.8457 42.07C46.3657 42.61 46.9857 42.88 47.7057 42.88C48.4257 42.88 49.0357 42.61 49.5357 42.07C50.0557 41.51 50.3157 40.88 50.3157 40.18V32.95C50.3157 32.63 50.5057 32.35 50.8857 32.11C51.2857 31.87 51.7457 31.75 52.2657 31.75C52.8257 31.75 53.2857 31.87 53.6457 32.11C54.0057 32.35 54.1857 32.63 54.1857 32.95V40.18C54.1857 41.8 53.5457 43.22 52.2657 44.44C50.9857 45.66 49.4657 46.27 47.7057 46.27C45.9457 46.27 44.4157 45.66 43.1157 44.44C41.8357 43.22 41.1957 41.8 41.1957 40.18ZM55.7581 50.98C55.7581 49.9 56.0881 49.36 56.7481 49.36C57.6881 49.36 58.6081 49.02 59.5081 48.34C60.4281 47.66 60.9381 46.53 61.0381 44.95L55.8781 33.91C55.7981 33.71 55.7581 33.54 55.7581 33.4C55.7581 32.92 56.0481 32.49 56.6281 32.11C57.2281 31.73 57.7981 31.54 58.3381 31.54C58.9381 31.54 59.3081 31.76 59.4481 32.2L63.0481 41.17L65.9581 32.2C66.0981 31.76 66.4381 31.54 66.9781 31.54C67.4981 31.54 68.0681 31.74 68.6881 32.14C69.3081 32.52 69.6181 32.96 69.6181 33.46C69.6181 33.62 69.5881 33.77 69.5281 33.91L65.1481 45.1L64.6381 46.42C64.3981 47.1 64.2181 47.57 64.0981 47.83C63.9981 48.09 63.8081 48.49 63.5281 49.03C63.2681 49.59 63.0281 49.99 62.8081 50.23C62.6081 50.49 62.3181 50.8 61.9381 51.16C61.5581 51.54 61.1681 51.81 60.7681 51.97C60.3881 52.15 59.9181 52.3 59.3581 52.42C58.7981 52.56 58.1881 52.63 57.5281 52.63C56.9481 52.63 56.5081 52.52 56.2081 52.3C55.9081 52.08 55.7581 51.64 55.7581 50.98ZM69.9833 44.14C69.9833 43.58 70.1733 43.1 70.5533 42.7C70.9533 42.3 71.4333 42.1 71.9933 42.1C72.5533 42.1 73.0333 42.3 73.4333 42.7C73.8333 43.08 74.0333 43.55 74.0333 44.11C74.0333 44.45 73.4833 45.91 72.3833 48.49C72.2233 48.83 71.9533 49 71.5733 49C71.2733 49 70.9833 48.9 70.7033 48.7C70.4233 48.52 70.2833 48.28 70.2833 47.98C70.2833 47.84 70.3233 47.7 70.4033 47.56L71.0933 45.97C70.3533 45.57 69.9833 44.96 69.9833 44.14ZM81.6399 42.55C81.6399 42.09 81.8099 41.63 82.1499 41.17C82.5099 40.69 82.9099 40.45 83.3499 40.45C83.6099 40.45 83.8999 40.57 84.2199 40.81C84.5599 41.05 84.8799 41.32 85.1799 41.62C85.4999 41.9 85.9499 42.16 86.5299 42.4C87.1099 42.64 87.7499 42.76 88.4499 42.76C89.4099 42.76 90.2099 42.54 90.8499 42.1C91.4899 41.66 91.8099 41.01 91.8099 40.15C91.8099 39.55 91.6299 39.02 91.2699 38.56C90.9299 38.08 90.4699 37.69 89.8899 37.39C89.3299 37.07 88.7099 36.77 88.0299 36.49C87.3499 36.19 86.6599 35.86 85.9599 35.5C85.2799 35.14 84.6499 34.74 84.0699 34.3C83.5099 33.84 83.0499 33.24 82.6899 32.5C82.3499 31.74 82.1799 30.88 82.1799 29.92C82.1799 28.86 82.3899 27.93 82.8099 27.13C83.2499 26.31 83.8299 25.68 84.5499 25.24C85.2699 24.78 86.0399 24.45 86.8599 24.25C87.6799 24.03 88.5499 23.92 89.4699 23.92C89.9899 23.92 90.5399 23.96 91.1199 24.04C91.6999 24.1 92.3099 24.21 92.9499 24.37C93.6099 24.53 94.1399 24.78 94.5399 25.12C94.9599 25.46 95.1699 25.86 95.1699 26.32C95.1699 26.76 95.0299 27.22 94.7499 27.7C94.4699 28.16 94.0899 28.39 93.6099 28.39C93.4299 28.39 92.9399 28.2 92.1399 27.82C91.3399 27.44 90.4499 27.25 89.4699 27.25C88.3899 27.25 87.5499 27.46 86.9499 27.88C86.3699 28.28 86.0799 28.84 86.0799 29.56C86.0799 30.14 86.3199 30.65 86.7999 31.09C87.2799 31.51 87.8699 31.86 88.5699 32.14C89.2899 32.4 90.0599 32.74 90.8799 33.16C91.7199 33.56 92.4899 34 93.1899 34.48C93.9099 34.96 94.5099 35.66 94.9899 36.58C95.4699 37.48 95.7099 38.54 95.7099 39.76C95.7099 41.84 95.0499 43.45 93.7299 44.59C92.4299 45.71 90.7099 46.27 88.5699 46.27C86.6699 46.27 85.0399 45.88 83.6799 45.1C82.3199 44.32 81.6399 43.47 81.6399 42.55ZM97.5538 40.12V37.57C97.5538 35.93 98.1938 34.52 99.4738 33.34C100.754 32.16 102.304 31.57 104.124 31.57C105.824 31.57 107.274 32.11 108.474 33.19C109.694 34.25 110.304 35.59 110.304 37.21C110.304 37.81 110.224 38.31 110.064 38.71C109.924 39.09 109.694 39.36 109.374 39.52C109.074 39.68 108.794 39.78 108.534 39.82C108.274 39.86 107.934 39.88 107.514 39.88H101.424V40.33C101.424 41.19 101.744 41.89 102.384 42.43C103.024 42.95 103.874 43.21 104.934 43.21C105.694 43.21 106.444 43.02 107.184 42.64C107.924 42.26 108.404 42.07 108.624 42.07C109.044 42.07 109.394 42.27 109.674 42.67C109.954 43.05 110.094 43.42 110.094 43.78C110.094 44.34 109.584 44.9 108.564 45.46C107.564 46 106.314 46.27 104.814 46.27C102.674 46.27 100.924 45.71 99.5638 44.59C98.2238 43.45 97.5538 41.96 97.5538 40.12ZM101.424 37.6H105.804C106.124 37.6 106.344 37.55 106.464 37.45C106.604 37.33 106.674 37.11 106.674 36.79C106.674 36.09 106.414 35.52 105.894 35.08C105.394 34.64 104.774 34.42 104.034 34.42C103.334 34.42 102.724 34.64 102.204 35.08C101.684 35.5 101.424 36.06 101.424 36.76V37.6ZM112.895 44.77V24.64C112.895 24.28 113.065 23.99 113.405 23.77C113.765 23.55 114.235 23.44 114.815 23.44C115.355 23.44 115.815 23.55 116.195 23.77C116.575 23.99 116.765 24.28 116.765 24.64V44.77C116.765 45.07 116.565 45.35 116.165 45.61C115.785 45.87 115.335 46 114.815 46C114.275 46 113.815 45.88 113.435 45.64C113.075 45.38 112.895 45.09 112.895 44.77ZM120.307 44.77V24.64C120.307 24.28 120.477 23.99 120.817 23.77C121.177 23.55 121.647 23.44 122.227 23.44C122.767 23.44 123.227 23.55 123.607 23.77C123.987 23.99 124.177 24.28 124.177 24.64V44.77C124.177 45.07 123.977 45.35 123.577 45.61C123.197 45.87 122.747 46 122.227 46C121.687 46 121.227 45.88 120.847 45.64C120.487 45.38 120.307 45.09 120.307 44.77ZM126.819 44.14C126.819 43.58 127.009 43.1 127.389 42.7C127.789 42.3 128.269 42.1 128.829 42.1C129.389 42.1 129.869 42.3 130.269 42.7C130.669 43.08 130.869 43.55 130.869 44.11C130.869 44.45 130.319 45.91 129.219 48.49C129.059 48.83 128.789 49 128.409 49C128.109 49 127.819 48.9 127.539 48.7C127.259 48.52 127.119 48.28 127.119 47.98C127.119 47.84 127.159 47.7 127.239 47.56L127.929 45.97C127.189 45.57 126.819 44.96 126.819 44.14ZM139.556 44.77V25.27C139.556 24.95 139.676 24.67 139.916 24.43C140.156 24.19 140.456 24.07 140.816 24.07H146.756C151.496 24.07 153.866 26.16 153.866 30.34C153.866 31.98 153.506 33.3 152.786 34.3C152.086 35.3 151.136 35.98 149.936 36.34L153.866 43.63C153.966 43.75 154.016 43.91 154.016 44.11C154.016 44.61 153.756 45.08 153.236 45.52C152.716 45.94 152.166 46.15 151.586 46.15C151.006 46.15 150.556 45.84 150.236 45.22L145.976 36.94H143.456V44.77C143.456 45.15 143.266 45.45 142.886 45.67C142.506 45.89 142.046 46 141.506 46C140.986 46 140.526 45.89 140.126 45.67C139.746 45.45 139.556 45.15 139.556 44.77ZM143.456 33.88H146.756C148.896 33.88 149.966 32.82 149.966 30.7C149.966 28.56 148.896 27.49 146.756 27.49H143.456V33.88ZM155.474 40.12V37.57C155.474 35.93 156.114 34.52 157.394 33.34C158.674 32.16 160.224 31.57 162.044 31.57C163.744 31.57 165.194 32.11 166.394 33.19C167.614 34.25 168.224 35.59 168.224 37.21C168.224 37.81 168.144 38.31 167.984 38.71C167.844 39.09 167.614 39.36 167.294 39.52C166.994 39.68 166.714 39.78 166.454 39.82C166.194 39.86 165.854 39.88 165.434 39.88H159.344V40.33C159.344 41.19 159.664 41.89 160.304 42.43C160.944 42.95 161.794 43.21 162.854 43.21C163.614 43.21 164.364 43.02 165.104 42.64C165.844 42.26 166.324 42.07 166.544 42.07C166.964 42.07 167.314 42.27 167.594 42.67C167.874 43.05 168.014 43.42 168.014 43.78C168.014 44.34 167.504 44.9 166.484 45.46C165.484 46 164.234 46.27 162.734 46.27C160.594 46.27 158.844 45.71 157.484 44.59C156.144 43.45 155.474 41.96 155.474 40.12ZM159.344 37.6H163.724C164.044 37.6 164.264 37.55 164.384 37.45C164.524 37.33 164.594 37.11 164.594 36.79C164.594 36.09 164.334 35.52 163.814 35.08C163.314 34.64 162.694 34.42 161.954 34.42C161.254 34.42 160.644 34.64 160.124 35.08C159.604 35.5 159.344 36.06 159.344 36.76V37.6ZM170.545 44.77V32.95C170.545 32.59 170.715 32.3 171.055 32.08C171.415 31.86 171.885 31.75 172.465 31.75C172.945 31.75 173.345 31.86 173.665 32.08C174.005 32.3 174.175 32.59 174.175 32.95V33.85C174.495 33.21 175.005 32.67 175.705 32.23C176.425 31.79 177.255 31.57 178.195 31.57C179.575 31.57 180.775 32.17 181.795 33.37C182.835 34.57 183.355 36 183.355 37.66V44.77C183.355 45.15 183.155 45.45 182.755 45.67C182.375 45.89 181.925 46 181.405 46C180.905 46 180.455 45.89 180.055 45.67C179.675 45.45 179.485 45.15 179.485 44.77V37.66C179.485 36.96 179.225 36.34 178.705 35.8C178.185 35.24 177.575 34.96 176.875 34.96C176.215 34.96 175.635 35.21 175.135 35.71C174.655 36.21 174.415 36.86 174.415 37.66V44.77C174.415 45.07 174.215 45.35 173.815 45.61C173.435 45.87 172.985 46 172.465 46C171.925 46 171.465 45.88 171.085 45.64C170.725 45.38 170.545 45.09 170.545 44.77ZM186.218 41.14V26.59C186.218 26.25 186.418 25.97 186.818 25.75C187.218 25.51 187.658 25.39 188.138 25.39C188.658 25.39 189.108 25.51 189.488 25.75C189.888 25.97 190.088 26.25 190.088 26.59V31.75H193.628C193.928 31.75 194.168 31.89 194.348 32.17C194.528 32.45 194.618 32.78 194.618 33.16C194.618 33.54 194.528 33.87 194.348 34.15C194.168 34.43 193.928 34.57 193.628 34.57H190.088V41.14C190.088 41.72 190.208 42.13 190.448 42.37C190.708 42.61 191.148 42.73 191.768 42.73H192.938C193.458 42.73 193.858 42.89 194.138 43.21C194.438 43.53 194.588 43.91 194.588 44.35C194.588 44.81 194.438 45.2 194.138 45.52C193.858 45.84 193.458 46 192.938 46H191.768C188.068 46 186.218 44.38 186.218 41.14ZM202.954 44.77V25.27C202.954 24.95 203.084 24.67 203.344 24.43C203.624 24.19 203.984 24.07 204.424 24.07H210.454C212.514 24.07 214.164 24.62 215.404 25.72C216.644 26.8 217.264 28.5 217.264 30.82V31C217.264 33.34 216.614 35.06 215.314 36.16C214.034 37.26 212.334 37.81 210.214 37.81H206.854V44.77C206.854 45.15 206.654 45.45 206.254 45.67C205.874 45.89 205.424 46 204.904 46C204.364 46 203.904 45.89 203.524 45.67C203.144 45.45 202.954 45.15 202.954 44.77ZM206.854 34.75H210.214C211.214 34.75 211.984 34.46 212.524 33.88C213.084 33.3 213.364 32.44 213.364 31.3V30.94C213.364 29.8 213.084 28.94 212.524 28.36C211.984 27.78 211.214 27.49 210.214 27.49H206.854V34.75ZM219.148 44.77V32.95C219.148 32.59 219.318 32.3 219.658 32.08C220.018 31.86 220.478 31.75 221.038 31.75C221.538 31.75 221.948 31.86 222.268 32.08C222.608 32.3 222.778 32.59 222.778 32.95V34.18C223.098 33.48 223.598 32.87 224.278 32.35C224.958 31.83 225.688 31.57 226.468 31.57H227.398C227.758 31.57 228.078 31.74 228.358 32.08C228.658 32.42 228.808 32.81 228.808 33.25C228.808 33.71 228.658 34.11 228.358 34.45C228.078 34.79 227.758 34.96 227.398 34.96H226.468C225.548 34.96 224.738 35.37 224.038 36.19C223.358 37.01 223.018 38.08 223.018 39.4V44.77C223.018 45.07 222.818 45.35 222.418 45.61C222.018 45.87 221.558 46 221.038 46C220.498 46 220.048 45.88 219.688 45.64C219.328 45.38 219.148 45.09 219.148 44.77ZM229.624 40.12V37.66C229.624 36.02 230.264 34.6 231.544 33.4C232.824 32.18 234.354 31.57 236.134 31.57C237.874 31.57 239.394 32.17 240.694 33.37C241.994 34.57 242.644 36 242.644 37.66V40.12C242.644 41.74 241.994 43.17 240.694 44.41C239.394 45.65 237.874 46.27 236.134 46.27C234.394 46.27 232.874 45.65 231.574 44.41C230.274 43.17 229.624 41.74 229.624 40.12ZM233.494 40.12C233.494 40.84 233.754 41.48 234.274 42.04C234.794 42.6 235.414 42.88 236.134 42.88C236.834 42.88 237.444 42.6 237.964 42.04C238.504 41.48 238.774 40.84 238.774 40.12V37.66C238.774 36.98 238.504 36.36 237.964 35.8C237.444 35.24 236.834 34.96 236.134 34.96C235.414 34.96 234.794 35.24 234.274 35.8C233.754 36.34 233.494 36.96 233.494 37.66V40.12ZM245.135 51.4V32.95C245.135 32.59 245.305 32.3 245.645 32.08C246.005 31.86 246.445 31.75 246.965 31.75C247.485 31.75 247.915 31.86 248.255 32.08C248.595 32.3 248.765 32.59 248.765 32.95V33.85C249.145 33.21 249.685 32.67 250.385 32.23C251.105 31.79 251.915 31.57 252.815 31.57C254.315 31.57 255.585 32.17 256.625 33.37C257.665 34.55 258.185 35.98 258.185 37.66V40.12C258.185 41.74 257.655 43.17 256.595 44.41C255.535 45.65 254.315 46.27 252.935 46.27C252.075 46.27 251.275 46.04 250.535 45.58C249.815 45.1 249.305 44.54 249.005 43.9V51.4C249.005 51.72 248.805 52 248.405 52.24C248.025 52.5 247.565 52.63 247.025 52.63C246.485 52.63 246.035 52.5 245.675 52.24C245.315 52 245.135 51.72 245.135 51.4ZM249.005 40.66C249.005 41.06 249.275 41.53 249.815 42.07C250.355 42.61 250.965 42.88 251.645 42.88C252.345 42.88 252.965 42.6 253.505 42.04C254.045 41.46 254.315 40.82 254.315 40.12V37.66C254.315 36.96 254.045 36.34 253.505 35.8C252.965 35.24 252.325 34.96 251.585 34.96C250.905 34.96 250.305 35.21 249.785 35.71C249.265 36.21 249.005 36.86 249.005 37.66V40.66ZM260.122 40.12V37.57C260.122 35.93 260.762 34.52 262.042 33.34C263.322 32.16 264.872 31.57 266.692 31.57C268.392 31.57 269.842 32.11 271.042 33.19C272.262 34.25 272.872 35.59 272.872 37.21C272.872 37.81 272.792 38.31 272.632 38.71C272.492 39.09 272.262 39.36 271.942 39.52C271.642 39.68 271.362 39.78 271.102 39.82C270.842 39.86 270.502 39.88 270.082 39.88H263.992V40.33C263.992 41.19 264.312 41.89 264.952 42.43C265.592 42.95 266.442 43.21 267.502 43.21C268.262 43.21 269.012 43.02 269.752 42.64C270.492 42.26 270.972 42.07 271.192 42.07C271.612 42.07 271.962 42.27 272.242 42.67C272.522 43.05 272.662 43.42 272.662 43.78C272.662 44.34 272.152 44.9 271.132 45.46C270.132 46 268.882 46.27 267.382 46.27C265.242 46.27 263.492 45.71 262.132 44.59C260.792 43.45 260.122 41.96 260.122 40.12ZM263.992 37.6H268.372C268.692 37.6 268.912 37.55 269.032 37.45C269.172 37.33 269.242 37.11 269.242 36.79C269.242 36.09 268.982 35.52 268.462 35.08C267.962 34.64 267.342 34.42 266.602 34.42C265.902 34.42 265.292 34.64 264.772 35.08C264.252 35.5 263.992 36.06 263.992 36.76V37.6ZM275.193 44.77V32.95C275.193 32.59 275.363 32.3 275.703 32.08C276.063 31.86 276.523 31.75 277.083 31.75C277.583 31.75 277.993 31.86 278.313 32.08C278.653 32.3 278.823 32.59 278.823 32.95V34.18C279.143 33.48 279.643 32.87 280.323 32.35C281.003 31.83 281.733 31.57 282.513 31.57H283.443C283.803 31.57 284.123 31.74 284.403 32.08C284.703 32.42 284.853 32.81 284.853 33.25C284.853 33.71 284.703 34.11 284.403 34.45C284.123 34.79 283.803 34.96 283.443 34.96H282.513C281.593 34.96 280.783 35.37 280.083 36.19C279.403 37.01 279.063 38.08 279.063 39.4V44.77C279.063 45.07 278.863 45.35 278.463 45.61C278.063 45.87 277.603 46 277.083 46C276.543 46 276.093 45.88 275.733 45.64C275.373 45.38 275.193 45.09 275.193 44.77ZM286.472 41.14V26.59C286.472 26.25 286.672 25.97 287.072 25.75C287.472 25.51 287.912 25.39 288.392 25.39C288.912 25.39 289.362 25.51 289.742 25.75C290.142 25.97 290.342 26.25 290.342 26.59V31.75H293.882C294.182 31.75 294.422 31.89 294.602 32.17C294.782 32.45 294.872 32.78 294.872 33.16C294.872 33.54 294.782 33.87 294.602 34.15C294.422 34.43 294.182 34.57 293.882 34.57H290.342V41.14C290.342 41.72 290.462 42.13 290.702 42.37C290.962 42.61 291.402 42.73 292.022 42.73H293.192C293.712 42.73 294.112 42.89 294.392 43.21C294.692 43.53 294.842 43.91 294.842 44.35C294.842 44.81 294.692 45.2 294.392 45.52C294.112 45.84 293.712 46 293.192 46H292.022C288.322 46 286.472 44.38 286.472 41.14ZM295.582 50.98C295.582 49.9 295.912 49.36 296.572 49.36C297.512 49.36 298.432 49.02 299.332 48.34C300.252 47.66 300.762 46.53 300.862 44.95L295.702 33.91C295.622 33.71 295.582 33.54 295.582 33.4C295.582 32.92 295.872 32.49 296.452 32.11C297.052 31.73 297.622 31.54 298.162 31.54C298.762 31.54 299.132 31.76 299.272 32.2L302.872 41.17L305.782 32.2C305.922 31.76 306.262 31.54 306.802 31.54C307.322 31.54 307.892 31.74 308.512 32.14C309.132 32.52 309.442 32.96 309.442 33.46C309.442 33.62 309.412 33.77 309.352 33.91L304.972 45.1L304.462 46.42C304.222 47.1 304.042 47.57 303.922 47.83C303.822 48.09 303.632 48.49 303.352 49.03C303.092 49.59 302.852 49.99 302.632 50.23C302.432 50.49 302.142 50.8 301.762 51.16C301.382 51.54 300.992 51.81 300.592 51.97C300.212 52.15 299.742 52.3 299.182 52.42C298.622 52.56 298.012 52.63 297.352 52.63C296.772 52.63 296.332 52.52 296.032 52.3C295.732 52.08 295.582 51.64 295.582 50.98Z" fill="#696969"/>
<rect x="0.5" y="0.5" width="399" height="399" stroke="white"/>
</svg>
