<svg width="400" height="400" viewBox="0 0 400 400" fill="none" xmlns="http://www.w3.org/2000/svg">
<path d="M199.784 366.312V371.872L8.98389 261.72V256.16L199.784 366.312Z" fill="#E0E0E0"/>
<path d="M390.576 261.712L199.784 371.872V366.312L390.576 256.16V261.712Z" fill="#EBEBEB"/>
<path d="M356.832 236.672L199.784 327.344L42.7359 236.672L8.98389 256.16L199.784 366.312L390.576 256.16L356.832 236.672Z" fill="#F5F5F5"/>
<path d="M207.96 322.48L241.712 341.96L239.352 343.32L205.456 323.92L207.96 322.48Z" fill="#E0E0E0"/>
<path d="M356.824 236.672L299.744 269.64L297.232 271.08L296.984 271.224L269.576 287.048V287.056H269.568L267.064 288.496H267.056L238.832 304.808L236.32 306.248L208.096 322.552L205.584 324L199.784 327.352L197.272 325.904L42.7358 236.672L73.5118 218.904L173.408 161.224L199.784 146L356.824 236.672Z" fill="#F4C621"/>
<path opacity="0.3" d="M356.824 236.672L299.744 269.64L297.232 271.08L296.984 271.224L269.576 287.048V287.056H269.568L267.064 288.496H267.056L238.832 304.808L236.32 306.248L208.096 322.552L205.584 324L199.784 327.352L197.272 325.904L42.7358 236.672L73.5118 218.904L173.408 161.224L199.784 146L356.824 236.672Z" fill="white"/>
<path d="M300.008 272.688L272.512 288.752L269.448 286.976L267.056 285.6L244.888 272.8L242.512 271.432L225.192 261.432L252.856 245.456L270.176 255.456L272.672 256.896L294.728 269.64L297.232 271.08L300.008 272.688Z" fill="#F5F5F5"/>
<path d="M356.832 236.672L390.576 256.16L356.832 236.672Z" fill="#F5F5F5"/>
<path d="M238.768 304.768L272.512 324.248L270.152 325.608L236.256 306.216L238.768 304.768Z" fill="#E0E0E0"/>
<path d="M197.28 325.904L163.528 345.384L165.888 346.744L199.784 327.352L197.28 325.904Z" fill="#E0E0E0"/>
<path d="M166.176 307.984L132.432 327.464L134.792 328.832L168.688 309.432L166.176 307.984Z" fill="#E0E0E0"/>
<path d="M135.08 290.064L101.336 309.544L103.696 310.912L137.592 291.512L135.08 290.064Z" fill="#E0E0E0"/>
<path d="M103.984 272.144L70.24 291.624L72.6 292.992L106.496 273.592L103.984 272.144Z" fill="#E0E0E0"/>
<path d="M72.8878 254.224L39.1438 273.704L41.5038 275.072L75.3918 255.672L72.8878 254.224Z" fill="#E0E0E0"/>
<path d="M299.744 269.632L333.488 289.12L331.128 290.48L297.232 271.08L299.744 269.632Z" fill="#E0E0E0"/>
<path d="M330.544 251.92L364.288 271.408L361.936 272.768L328.04 253.368L330.544 251.92Z" fill="#E0E0E0"/>
<path d="M269.568 287.056L303.32 306.536L300.96 307.904L267.064 288.504L269.568 287.056Z" fill="#E0E0E0"/>
<path d="M297.232 271.08L269.448 286.976L267.056 285.6L294.728 269.64L297.232 271.08Z" fill="#E0E0E0"/>
<path d="M272.672 256.896L244.888 272.8L242.512 271.432L270.176 255.456L272.672 256.896Z" fill="#E0E0E0"/>
<g opacity="0.1">
<path opacity="0.1" d="M286.088 226.28L283.552 227.64L255.88 243.608L186.096 283.904L73.512 218.904L173.408 161.224L286.088 226.28Z" fill="black"/>
</g>
<path opacity="0.1" d="M227.936 345.904C237.89 345.904 245.96 341.244 245.96 335.496C245.96 329.748 237.89 325.088 227.936 325.088C217.982 325.088 209.912 329.748 209.912 335.496C209.912 341.244 217.982 345.904 227.936 345.904Z" fill="black"/>
<path opacity="0.1" d="M174.504 347.624C184.458 347.624 192.528 342.964 192.528 337.216C192.528 331.468 184.458 326.808 174.504 326.808C164.55 326.808 156.48 331.468 156.48 337.216C156.48 342.964 164.55 347.624 174.504 347.624Z" fill="black"/>
<g opacity="0.1">
<path opacity="0.1" d="M328.448 230.024C330.848 231.424 330.848 233.68 328.448 235.072C327.093 235.758 325.595 236.116 324.076 236.116C322.557 236.116 321.059 235.758 319.704 235.072C317.304 233.68 317.304 231.424 319.704 230.024C321.059 229.338 322.557 228.98 324.076 228.98C325.595 228.98 327.093 229.338 328.448 230.024V230.024Z" fill="black"/>
</g>
<g opacity="0.1">
<path opacity="0.1" d="M303 261.6C305.4 263 305.4 265.256 303 266.648C301.646 267.335 300.15 267.692 298.632 267.692C297.114 267.692 295.618 267.335 294.264 266.648C291.864 265.256 291.864 263 294.264 261.6C295.618 260.913 297.114 260.556 298.632 260.556C300.15 260.556 301.646 260.913 303 261.6V261.6Z" fill="black"/>
</g>
<g opacity="0.1">
<path opacity="0.1" d="M81.7601 240.624C84.1601 242.016 84.1601 244.28 81.7601 245.672C80.4048 246.358 78.9071 246.716 77.3881 246.716C75.869 246.716 74.3713 246.358 73.0161 245.672C70.6161 244.28 70.6161 242.016 73.0161 240.624C74.3713 239.938 75.869 239.58 77.3881 239.58C78.9071 239.58 80.4048 239.938 81.7601 240.624Z" fill="black"/>
</g>
<path d="M86.4639 158.472V220.584L186.168 278.144V193.808L105.688 147.048L86.4639 158.472Z" fill="#EBEBEB"/>
<path d="M280.272 139.48V223.808L247.048 242.984L219.384 258.96L186.168 278.144V193.816L235.376 128.936L280.272 139.48Z" fill="#FAFAFA"/>
<path d="M247.048 183.056V242.984L219.384 258.984V199.032C219.488 194.09 220.676 189.232 222.864 184.8C223.056 184.4 223.248 184 223.456 183.624C225.944 178.824 229.408 174.824 233.216 172.616C234.868 171.589 236.76 171.015 238.704 170.952C243.616 170.928 247.048 175.472 247.048 183.056Z" fill="#F4C621"/>
<path opacity="0.3" d="M247.048 183.056V242.984L219.384 258.984V199.032C219.488 194.09 220.676 189.232 222.864 184.8C223.056 184.4 223.248 184 223.456 183.624C225.944 178.824 229.408 174.824 233.216 172.616C234.868 171.589 236.76 171.015 238.704 170.952C243.616 170.928 247.048 175.472 247.048 183.056Z" fill="black"/>
<path d="M244.616 181.16L237.08 185.504L234.872 186.784L233.872 187.36L232.568 188.16L231.392 188.832L230.12 189.568L221.6 194.448C222.04 191.432 222.919 188.497 224.208 185.736C224.22 185.706 224.233 185.677 224.248 185.648C224.416 185.272 224.6 184.904 224.784 184.552C224.793 184.52 224.81 184.489 224.832 184.464C225.12 183.896 225.424 183.352 225.744 182.816C227.3 180.106 229.352 177.712 231.792 175.76C232.048 175.576 232.304 175.392 232.592 175.224C232.88 175.056 232.944 174.984 233.128 174.872L233.464 174.672C233.616 174.584 233.76 174.504 233.896 174.44C236.624 172.976 239.128 172.888 241.096 173.912C241.352 174.038 241.596 174.188 241.824 174.36L242.184 174.624L242.28 174.712C242.453 174.912 242.614 175.123 242.76 175.344V175.344C243.852 177.099 244.489 179.097 244.616 181.16V181.16Z" fill="#FAFAFA"/>
<path d="M245.456 182.008L236 187.48L232.592 189.448L232.496 189.504L231.232 190.232L221.464 195.872C221.504 195.4 221.56 194.92 221.624 194.448L230.144 189.528L231.416 188.792L232.592 188.12L233.896 187.32L234.896 186.744L237.104 185.464L244.64 181.12C244.512 179.06 243.874 177.064 242.784 175.312V175.312C242.637 175.091 242.477 174.88 242.304 174.68V174.624C242.513 174.798 242.71 174.985 242.896 175.184C244.248 176.728 245.184 179.032 245.456 182.008Z" fill="#F4C621"/>
<path opacity="0.6" d="M245.456 182.008L236 187.48L232.592 189.448L232.496 189.504L231.232 190.232L221.464 195.872C221.504 195.4 221.56 194.92 221.624 194.448L230.144 189.528L231.416 188.792L232.592 188.12L233.896 187.32L234.896 186.744L237.104 185.464L244.64 181.12C244.512 179.06 243.874 177.064 242.784 175.312V175.312C242.637 175.091 242.477 174.88 242.304 174.68V174.624C242.513 174.798 242.71 174.985 242.896 175.184C244.248 176.728 245.184 179.032 245.456 182.008Z" fill="black"/>
<path d="M231.704 189.112L230.52 189.792L230.44 189.84L230.032 189.576L229.352 189.136L224.208 185.736C224.22 185.706 224.233 185.677 224.248 185.648C224.416 185.272 224.6 184.904 224.784 184.552L230.624 188.4L231.304 188.84L231.704 189.112Z" fill="#F4C621"/>
<path opacity="0.6" d="M231.704 189.112L230.52 189.792L230.44 189.84L230.032 189.576L229.352 189.136L224.208 185.736C224.22 185.706 224.233 185.677 224.248 185.648C224.416 185.272 224.6 184.904 224.784 184.552L230.624 188.4L231.304 188.84L231.704 189.112Z" fill="black"/>
<path d="M242.176 174.624L242.064 174.832L241.992 174.96L236.312 185.112L235.624 186.352L235.208 187.088L234.456 187.52L233.872 187.864L232.568 188.616L231.768 189.056V175.76C232.024 175.576 232.28 175.392 232.568 175.224C232.856 175.056 232.92 174.984 233.104 174.872V188.176L233.408 187.624L233.872 186.824L234.104 186.416L241.088 173.936C241.344 174.062 241.588 174.212 241.816 174.384L242.176 174.624Z" fill="#F4C621"/>
<path opacity="0.6" d="M242.176 174.624L242.064 174.832L241.992 174.96L236.312 185.112L235.624 186.352L235.208 187.088L234.456 187.52L233.872 187.864L232.568 188.616L231.768 189.056V175.76C232.024 175.576 232.28 175.392 232.568 175.224C232.856 175.056 232.92 174.984 233.104 174.872V188.176L233.408 187.624L233.872 186.824L234.104 186.416L241.088 173.936C241.344 174.062 241.588 174.212 241.816 174.384L242.176 174.624Z" fill="black"/>
<path d="M232.472 189.504L231.208 190.232L230.52 189.792L230.12 189.528L224.248 185.648C224.416 185.272 224.6 184.904 224.784 184.552L224.424 184.312L224.472 184.224L224.832 184.464L231.392 188.792L231.792 189.056L232.472 189.504Z" fill="#F4C621"/>
<path d="M242.632 175.032C242.512 174.92 242.392 174.808 242.272 174.712C242.276 174.694 242.276 174.674 242.272 174.656L242.632 175.032Z" fill="#455A64"/>
<path d="M242.824 175.2L242.752 175.328L237.08 185.488L236 187.48L232.592 189.448V175.2C232.768 175.072 232.944 174.96 233.128 174.848L233.464 174.648C233.616 174.56 233.76 174.48 233.896 174.416V188.544L234.48 187.496L234.896 186.76L241.816 174.4L242.176 174.664L242.272 174.752V174.696C242.466 174.853 242.65 175.022 242.824 175.2V175.2Z" fill="#F4C621"/>
<path opacity="0.3" d="M242.824 175.2L242.752 175.328L237.08 185.488L236 187.48L232.592 189.448V175.2C232.768 175.072 232.944 174.96 233.128 174.848L233.464 174.648C233.616 174.56 233.76 174.48 233.896 174.416V188.544L234.48 187.496L234.896 186.76L241.816 174.4L242.176 174.664L242.272 174.752V174.696C242.466 174.853 242.65 175.022 242.824 175.2V175.2Z" fill="black"/>
<path opacity="0.3" d="M232.472 189.504L231.208 190.232L230.52 189.792L230.12 189.528L224.248 185.648C224.416 185.272 224.6 184.904 224.784 184.552L224.424 184.312L224.472 184.224L224.832 184.464L231.392 188.792L231.792 189.056L232.472 189.504Z" fill="black"/>
<path d="M223.2 222.736C223.166 222.743 223.13 222.743 223.096 222.736C223.065 222.716 223.039 222.689 223.021 222.657C223.003 222.625 222.993 222.589 222.992 222.552V201.6C222.993 201.563 223.003 201.527 223.021 201.495C223.039 201.463 223.065 201.436 223.096 201.416L231.816 196.384C231.847 196.364 231.883 196.353 231.92 196.353C231.957 196.353 231.993 196.364 232.024 196.384C232.057 196.402 232.085 196.429 232.105 196.461C232.124 196.493 232.135 196.53 232.136 196.568V217.472C232.134 217.509 232.122 217.546 232.103 217.578C232.083 217.61 232.056 217.637 232.024 217.656L223.312 222.688C223.278 222.712 223.24 222.728 223.2 222.736V222.736ZM223.416 201.736V222.152L231.704 217.352V196.952L223.416 201.736Z" fill="#F4C621"/>
<path d="M234.512 216.216C234.478 216.226 234.442 216.226 234.408 216.216C234.375 216.198 234.348 216.171 234.33 216.139C234.311 216.106 234.302 216.069 234.304 216.032V195.104C234.303 195.066 234.313 195.028 234.331 194.994C234.349 194.961 234.376 194.932 234.408 194.912L243.128 189.88C243.16 189.864 243.196 189.856 243.232 189.856C243.268 189.856 243.303 189.864 243.336 189.88C243.369 189.898 243.397 189.925 243.416 189.957C243.436 189.989 243.447 190.026 243.448 190.064V210.968C243.45 211.006 243.44 211.044 243.42 211.077C243.4 211.11 243.371 211.136 243.336 211.152L234.624 216.184C234.591 216.207 234.552 216.218 234.512 216.216ZM234.728 195.224V215.632L243.016 210.832V190.44L234.728 195.224Z" fill="#F4C621"/>
<path d="M223.2 248C223.166 248.007 223.13 248.007 223.096 248C223.065 247.98 223.039 247.953 223.021 247.921C223.003 247.889 222.993 247.853 222.992 247.816V226.92C222.99 226.883 222.999 226.846 223.018 226.813C223.036 226.781 223.063 226.754 223.096 226.736L231.816 221.704C231.847 221.684 231.883 221.673 231.92 221.673C231.957 221.673 231.993 221.684 232.024 221.704C232.058 221.722 232.086 221.748 232.106 221.78C232.125 221.813 232.136 221.85 232.136 221.888V242.784C232.135 242.823 232.124 242.861 232.104 242.894C232.085 242.928 232.057 242.956 232.024 242.976L223.304 248C223.27 248.006 223.234 248.006 223.2 248ZM223.416 227.008V247.416L231.704 242.616V222.256L223.416 227.008Z" fill="#F4C621"/>
<path d="M234.512 241.52C234.478 241.53 234.442 241.53 234.408 241.52C234.376 241.501 234.349 241.475 234.331 241.442C234.313 241.41 234.303 241.373 234.304 241.336V220.4C234.305 220.363 234.315 220.327 234.333 220.295C234.351 220.263 234.377 220.236 234.408 220.216L243.128 215.184C243.159 215.164 243.195 215.153 243.232 215.153C243.269 215.153 243.305 215.164 243.336 215.184C243.369 215.202 243.397 215.229 243.417 215.261C243.436 215.293 243.447 215.33 243.448 215.368V236.272C243.447 236.31 243.436 236.347 243.417 236.379C243.397 236.411 243.369 236.438 243.336 236.456L234.624 241.488C234.591 241.511 234.552 241.522 234.512 241.52ZM234.728 220.528V240.936L243.016 236.136V215.736L234.728 220.528Z" fill="#F4C621"/>
<path d="M242.584 217.12C242.394 217.122 242.209 217.061 242.058 216.946C241.907 216.832 241.798 216.67 241.749 216.487C241.699 216.304 241.712 216.11 241.785 215.935C241.858 215.76 241.987 215.614 242.152 215.52L244.936 213.92L244.216 213.504C244.119 213.448 244.035 213.374 243.967 213.286C243.899 213.197 243.849 213.096 243.82 212.989C243.791 212.881 243.783 212.769 243.798 212.658C243.812 212.547 243.848 212.441 243.904 212.344C243.96 212.247 244.034 212.163 244.122 212.095C244.211 212.027 244.312 211.977 244.419 211.948C244.527 211.919 244.639 211.911 244.75 211.926C244.861 211.94 244.967 211.976 245.064 212.032L247.072 213.184C247.202 213.259 247.309 213.367 247.384 213.497C247.458 213.627 247.498 213.774 247.498 213.924C247.498 214.074 247.458 214.221 247.384 214.351C247.309 214.481 247.202 214.589 247.072 214.664L243.008 217.008C242.88 217.084 242.733 217.123 242.584 217.12V217.12Z" fill="#263238"/>
<path d="M280.264 217.616L274.848 220.768V214.568L280.264 211.416V217.616Z" fill="#E0E0E0"/>
<path d="M280.264 205.216L274.848 208.368V202.168L280.264 199.016V205.216Z" fill="#E0E0E0"/>
<path d="M280.264 192.824L274.848 195.976V189.776L280.264 186.624V192.824Z" fill="#E0E0E0"/>
<path d="M280.264 180.424L274.848 183.576V177.376L280.264 174.224V180.424Z" fill="#E0E0E0"/>
<path d="M280.264 168.032L274.848 171.184V164.984L280.264 161.832V168.032Z" fill="#E0E0E0"/>
<path d="M280.264 155.632L274.848 158.784V152.584L280.264 149.432V155.632Z" fill="#E0E0E0"/>
<path d="M280.264 143.24L274.848 146.392V140.192L280.264 137.04V143.24Z" fill="#E0E0E0"/>
<path d="M191.584 268.792L186.168 271.944V265.744L191.584 262.592V268.792Z" fill="#E0E0E0"/>
<path d="M191.584 256.4L186.168 259.544V253.352L191.584 250.2V256.4Z" fill="#E0E0E0"/>
<path d="M191.584 244L186.168 247.152V240.952L191.584 237.8V244Z" fill="#E0E0E0"/>
<path d="M191.584 231.6L186.168 234.752V228.56L191.584 225.408V231.6Z" fill="#E0E0E0"/>
<path d="M191.584 219.208L186.168 222.36V216.16L191.584 213.008V219.208Z" fill="#E0E0E0"/>
<path d="M191.584 206.816L186.168 209.96V203.768L191.584 200.616V206.816Z" fill="#E0E0E0"/>
<path d="M191.584 194.416L186.168 197.568V191.368L191.584 188.216V194.416Z" fill="#E0E0E0"/>
<path d="M180.744 262.592L186.168 265.744V259.544L180.744 256.4V262.592Z" fill="#E0E0E0"/>
<path d="M180.744 274.992L186.168 278.144V271.944L180.744 268.792V274.992Z" fill="#E0E0E0"/>
<path d="M180.744 250.2L186.168 253.352V247.152L180.744 244V250.2Z" fill="#E0E0E0"/>
<path d="M180.744 237.8L186.168 240.952V234.752L180.744 231.6V237.8Z" fill="#E0E0E0"/>
<path d="M180.744 225.408L186.168 228.56V222.36L180.744 219.208V225.408Z" fill="#E0E0E0"/>
<path d="M180.744 213.008L186.168 216.16V209.96L180.744 206.816V213.008Z" fill="#E0E0E0"/>
<path d="M180.744 200.616L186.168 203.768V197.568L180.744 194.416V200.616Z" fill="#E0E0E0"/>
<path d="M180.744 188.216L186.168 191.368V185.176L180.744 182.024V188.216Z" fill="#E0E0E0"/>
<path d="M86.4639 208.184L91.8879 211.336V205.136L86.4639 201.984V208.184Z" fill="#E0E0E0"/>
<path d="M86.4639 220.584L91.8879 223.728V217.536L86.4639 214.384V220.584Z" fill="#E0E0E0"/>
<path d="M86.4639 195.792L91.8879 198.936V192.744L86.4639 189.592V195.792Z" fill="#E0E0E0"/>
<path d="M86.4639 183.392L91.8879 186.544V180.344L86.4639 177.192V183.392Z" fill="#E0E0E0"/>
<path d="M86.4639 171L91.8879 174.152V167.952L86.4639 164.8V171Z" fill="#E0E0E0"/>
<path d="M127.032 198.128V226.024L108.472 215.304V187.4L127.032 198.128Z" fill="#FAFAFA"/>
<path d="M109.472 201.824L127.032 211.96V198.128L109.472 187.984V201.824Z" fill="#F4C621"/>
<path opacity="0.6" d="M109.472 201.824L127.032 211.96V198.128L109.472 187.984V201.824Z" fill="white"/>
<path d="M109.912 214.456V202.656L127.032 212.536V211.104L109.912 201.216V188.232L108.464 187.4V215.304L127.032 226.024V224.344L109.912 214.456Z" fill="#F4C621"/>
<path opacity="0.2" d="M109.912 214.456V202.656L127.032 212.536V211.104L109.912 201.216V188.232L108.464 187.4V215.304L127.032 226.024V224.344L109.912 214.456Z" fill="black"/>
<path d="M164.16 219.568V247.464L145.6 236.752V208.848L164.16 219.568Z" fill="#FAFAFA"/>
<path d="M146.6 223.264L164.16 233.4V219.568L146.6 209.424V223.264Z" fill="#F4C621"/>
<path opacity="0.6" d="M146.6 223.264L164.16 233.4V219.568L146.6 209.424V223.264Z" fill="white"/>
<path d="M147.04 235.904V224.096L164.16 233.984V232.552L147.04 222.664V209.68L145.6 208.848V236.744L164.168 247.464V245.792L147.04 235.904Z" fill="#F4C621"/>
<path opacity="0.2" d="M147.04 235.904V224.096L164.16 233.984V232.552L147.04 222.664V209.68L145.6 208.848V236.744L164.168 247.464V245.792L147.04 235.904Z" fill="black"/>
<path d="M251.784 187.4V215.296L270.344 204.576V176.672L251.784 187.4Z" fill="#FAFAFA"/>
<path d="M269.336 191.096L251.784 201.232V187.4L269.336 177.256V191.096Z" fill="#F4C621"/>
<path opacity="0.8" d="M269.336 191.096L251.784 201.232V187.4L269.336 177.256V191.096Z" fill="white"/>
<path d="M268.904 203.736V177.512L270.344 176.68V204.576L251.776 215.296V213.624L268.904 203.736Z" fill="#F4C621"/>
<path d="M251.784 200.376V201.816L270 191.296V189.856L251.784 200.376Z" fill="#F4C621"/>
<path d="M196.088 219.568V247.464L214.648 236.752V208.848L196.088 219.568Z" fill="#FAFAFA"/>
<path d="M213.648 223.264L196.088 233.4V219.568L213.648 209.424V223.264Z" fill="#F4C621"/>
<path opacity="0.8" d="M213.648 223.264L196.088 233.4V219.568L213.648 209.424V223.264Z" fill="white"/>
<path d="M213.208 235.904V209.68L214.656 208.848V236.744L196.088 247.464V245.792L213.208 235.904Z" fill="#F4C621"/>
<path d="M196.088 232.552V233.984L214.312 223.464V222.032L196.088 232.552Z" fill="#F4C621"/>
<path d="M167.872 215.296L176.752 209.072L234.512 134.976L286.624 146.704L292.816 143.152L234 129.416L167.872 215.296Z" fill="#455A64"/>
<path d="M234 129.416L140.144 76.656L74.48 161.384L167.872 215.296L234 129.416Z" fill="#263238"/>
<path d="M234 129.416L292.816 143.152L198.76 90.392L140.144 76.656L234 129.416Z" fill="#37474F"/>
<path d="M99.256 248.728L95.92 250.664C96.9233 247.164 97.1795 243.493 96.672 239.888C96.449 238.613 95.9876 237.392 95.312 236.288C95.056 235.744 93.04 232.368 94.816 230.816C96.592 229.264 100.736 232.352 100.552 240.68C100.462 243.407 100.026 246.111 99.256 248.728Z" fill="#F4C621"/>
<path opacity="0.5" d="M99.256 248.728L95.92 250.664C96.9233 247.164 97.1795 243.493 96.672 239.888C96.449 238.613 95.9876 237.392 95.312 236.288C95.056 235.744 93.04 232.368 94.816 230.816C96.592 229.264 100.736 232.352 100.552 240.68C100.462 243.407 100.026 246.111 99.256 248.728Z" fill="black"/>
<path d="M97.712 249.792H97.648C97.608 249.774 97.576 249.742 97.5583 249.703C97.5406 249.663 97.5383 249.618 97.552 249.576C98.4427 246.649 98.8428 243.594 98.736 240.536C98.672 235.016 95.792 232.088 95.768 232.064C95.7376 232.031 95.7207 231.989 95.7207 231.944C95.7207 231.899 95.7376 231.857 95.768 231.824C95.7992 231.794 95.8408 231.778 95.884 231.778C95.9272 231.778 95.9687 231.794 96 231.824C96 231.824 99.008 234.872 99.072 240.528C99.173 243.629 98.7649 246.727 97.864 249.696C97.8503 249.725 97.8288 249.749 97.8019 249.766C97.775 249.783 97.7438 249.792 97.712 249.792V249.792Z" fill="white"/>
<path d="M96.672 250.24L91.2 253.488C91.2 253.488 88.672 253.112 88.864 250.736C89.056 248.36 90.08 247.8 88.808 246.736C87.536 245.672 87.208 245.616 87.264 244.6C87.3689 243.86 87.7523 243.187 88.336 242.72C88.6932 242.427 88.9445 242.025 89.0514 241.576C89.1583 241.126 89.115 240.654 88.928 240.232C88.288 239 87.432 237.832 88.704 237.24C89.504 236.904 90.752 237.328 91.6 238.224C92.2256 239.019 93.0549 239.63 94 239.992C94.8 240.2 96.488 240.216 96.4 241.592C96.312 242.968 95.984 243.464 96.32 244.08C96.904 245.272 99.616 245.896 96.672 250.24Z" fill="#F4C621"/>
<path opacity="0.2" d="M96.672 250.24L91.2 253.488C91.2 253.488 88.672 253.112 88.864 250.736C89.056 248.36 90.08 247.8 88.808 246.736C87.536 245.672 87.208 245.616 87.264 244.6C87.3689 243.86 87.7523 243.187 88.336 242.72C88.6932 242.427 88.9445 242.025 89.0514 241.576C89.1583 241.126 89.115 240.654 88.928 240.232C88.288 239 87.432 237.832 88.704 237.24C89.504 236.904 90.752 237.328 91.6 238.224C92.2256 239.019 93.0549 239.63 94 239.992C94.8 240.2 96.488 240.216 96.4 241.592C96.312 242.968 95.984 243.464 96.32 244.08C96.904 245.272 99.616 245.896 96.672 250.24Z" fill="black"/>
<path d="M94.4001 251.728C94.3783 251.727 94.357 251.722 94.3374 251.712C94.3178 251.703 94.3004 251.689 94.2862 251.673C94.2719 251.656 94.2612 251.637 94.2547 251.616C94.2481 251.596 94.2459 251.574 94.2481 251.552C94.2481 251.472 94.8401 243.4 89.2401 238.104C89.2103 238.073 89.1936 238.031 89.1936 237.988C89.1936 237.945 89.2103 237.903 89.2401 237.872C89.2727 237.842 89.3155 237.825 89.3601 237.825C89.4046 237.825 89.4475 237.842 89.4801 237.872C95.1921 243.272 94.5921 251.472 94.5841 251.584C94.5781 251.627 94.5555 251.666 94.5212 251.693C94.4869 251.72 94.4434 251.733 94.4001 251.728V251.728Z" fill="white"/>
<path d="M93.4399 244.688C93.4178 244.686 93.3964 244.68 93.3767 244.669C93.3571 244.659 93.3397 244.645 93.3256 244.628C93.3115 244.611 93.3009 244.591 93.2944 244.57C93.2879 244.548 93.2857 244.526 93.2879 244.504C93.3289 243.825 93.5108 243.162 93.822 242.558C94.1333 241.953 94.5672 241.42 95.0959 240.992C95.1327 240.969 95.1768 240.96 95.2196 240.968C95.2625 240.975 95.301 240.998 95.3279 241.032C95.3578 241.063 95.3744 241.105 95.3744 241.148C95.3744 241.191 95.3578 241.233 95.3279 241.264C94.846 241.669 94.4504 242.166 94.1645 242.727C93.8786 243.288 93.7084 243.9 93.6639 244.528C93.6626 244.554 93.6552 244.58 93.6425 244.603C93.6298 244.627 93.612 244.647 93.5905 244.662C93.569 244.677 93.5442 244.688 93.5182 244.692C93.4921 244.697 93.4654 244.695 93.4399 244.688V244.688Z" fill="white"/>
<path d="M93.8479 246.088C93.8237 246.089 93.7997 246.084 93.7775 246.075C93.7553 246.065 93.7356 246.05 93.7199 246.032C93.7199 246.032 92.3279 244.536 89.1839 244.968C89.1405 244.975 89.0961 244.965 89.0601 244.939C89.0242 244.914 88.9998 244.875 88.9919 244.832C88.9885 244.81 88.9896 244.787 88.995 244.766C89.0005 244.744 89.0102 244.724 89.0236 244.706C89.037 244.688 89.0538 244.673 89.0731 244.662C89.0924 244.65 89.1138 244.643 89.1359 244.64C92.4639 244.184 93.9359 245.744 93.9359 245.808C93.9663 245.841 93.9832 245.883 93.9832 245.928C93.9832 245.973 93.9663 246.015 93.9359 246.048C93.9105 246.069 93.8802 246.082 93.8479 246.088V246.088Z" fill="white"/>
<path d="M142.32 273.52L138.984 275.464C139.988 271.962 140.244 268.288 139.736 264.68C139.513 263.405 139.052 262.184 138.376 261.08C138.12 260.536 136.104 257.168 137.872 255.608C139.64 254.048 143.8 257.144 143.616 265.472C143.527 268.199 143.091 270.903 142.32 273.52V273.52Z" fill="#F4C621"/>
<path opacity="0.5" d="M142.32 273.52L138.984 275.464C139.988 271.962 140.244 268.288 139.736 264.68C139.513 263.405 139.052 262.184 138.376 261.08C138.12 260.536 136.104 257.168 137.872 255.608C139.64 254.048 143.8 257.144 143.616 265.472C143.527 268.199 143.091 270.903 142.32 273.52V273.52Z" fill="black"/>
<path d="M140.8 274.592H140.736C140.696 274.574 140.664 274.542 140.646 274.503C140.629 274.463 140.626 274.418 140.64 274.376C141.531 271.446 141.931 268.389 141.824 265.328C141.76 259.816 138.88 256.888 138.856 256.856C138.826 256.823 138.809 256.781 138.809 256.736C138.809 256.691 138.826 256.649 138.856 256.616C138.887 256.586 138.929 256.57 138.972 256.57C139.015 256.57 139.057 256.586 139.088 256.616C139.088 256.616 142.096 259.664 142.16 265.328C142.263 268.427 141.855 271.522 140.952 274.488C140.941 274.519 140.92 274.545 140.893 274.564C140.865 274.583 140.833 274.592 140.8 274.592V274.592Z" fill="white"/>
<path d="M139.736 275.04L134.224 278.28C134.224 278.28 131.696 277.904 131.888 275.536C132.08 273.168 133.104 272.6 131.832 271.536C130.56 270.472 130.232 270.424 130.288 269.4C130.39 268.661 130.774 267.99 131.36 267.528C131.717 267.233 131.967 266.83 132.074 266.379C132.181 265.929 132.138 265.456 131.952 265.032C131.312 263.8 130.456 262.632 131.728 262.04C132.528 261.704 133.776 262.128 134.624 263.032C135.236 263.823 136.052 264.431 136.984 264.792C137.784 265 139.472 265.016 139.384 266.392C139.296 267.768 138.968 268.256 139.304 268.872C140 270.072 142.68 270.696 139.736 275.04Z" fill="#F4C621"/>
<path opacity="0.2" d="M139.736 275.04L134.224 278.28C134.224 278.28 131.696 277.904 131.888 275.536C132.08 273.168 133.104 272.6 131.832 271.536C130.56 270.472 130.232 270.424 130.288 269.4C130.39 268.661 130.774 267.99 131.36 267.528C131.717 267.233 131.967 266.83 132.074 266.379C132.181 265.929 132.138 265.456 131.952 265.032C131.312 263.8 130.456 262.632 131.728 262.04C132.528 261.704 133.776 262.128 134.624 263.032C135.236 263.823 136.052 264.431 136.984 264.792C137.784 265 139.472 265.016 139.384 266.392C139.296 267.768 138.968 268.256 139.304 268.872C140 270.072 142.68 270.696 139.736 275.04Z" fill="black"/>
<path d="M137.488 276.528C137.466 276.526 137.444 276.52 137.425 276.509C137.405 276.499 137.388 276.485 137.374 276.468C137.36 276.451 137.349 276.431 137.342 276.41C137.336 276.388 137.334 276.366 137.336 276.344C137.336 276.264 137.928 268.192 132.328 262.904C132.312 262.888 132.299 262.87 132.291 262.849C132.282 262.828 132.278 262.806 132.278 262.784C132.278 262.762 132.282 262.74 132.291 262.719C132.299 262.698 132.312 262.68 132.328 262.664C132.359 262.634 132.401 262.618 132.444 262.618C132.487 262.618 132.529 262.634 132.56 262.664C138.28 268.064 137.68 276.264 137.672 276.368C137.668 276.413 137.646 276.455 137.612 276.485C137.578 276.515 137.533 276.53 137.488 276.528Z" fill="white"/>
<path d="M136.504 269.48C136.461 269.476 136.421 269.455 136.393 269.423C136.364 269.39 136.35 269.347 136.352 269.304C136.391 268.625 136.573 267.961 136.884 267.357C137.196 266.752 137.63 266.219 138.16 265.792C138.178 265.779 138.198 265.769 138.219 265.763C138.241 265.758 138.263 265.757 138.285 265.761C138.307 265.765 138.327 265.773 138.346 265.785C138.364 265.798 138.38 265.813 138.392 265.832C138.417 265.868 138.427 265.913 138.419 265.956C138.412 266 138.388 266.038 138.352 266.064C137.868 266.467 137.471 266.964 137.185 267.525C136.899 268.086 136.73 268.7 136.688 269.328C136.686 269.35 136.68 269.372 136.669 269.391C136.659 269.411 136.645 269.428 136.628 269.442C136.611 269.456 136.591 269.467 136.57 269.474C136.548 269.48 136.526 269.482 136.504 269.48V269.48Z" fill="white"/>
<path d="M136.912 270.88C136.865 270.881 136.819 270.864 136.784 270.832C136.784 270.832 135.392 269.336 132.248 269.768C132.226 269.771 132.203 269.77 132.182 269.765C132.16 269.759 132.14 269.75 132.122 269.736C132.104 269.723 132.089 269.706 132.078 269.687C132.066 269.668 132.059 269.646 132.056 269.624C132.053 269.602 132.054 269.58 132.059 269.559C132.065 269.538 132.075 269.518 132.088 269.501C132.102 269.484 132.119 269.469 132.138 269.459C132.157 269.448 132.178 269.442 132.2 269.44C135.528 268.984 137 270.536 137 270.608C137.03 270.639 137.047 270.681 137.047 270.724C137.047 270.767 137.03 270.809 137 270.84C136.976 270.863 136.945 270.877 136.912 270.88V270.88Z" fill="white"/>
<path d="M294.152 247.2L290.816 249.136C291.82 245.634 292.076 241.96 291.568 238.352C291.343 237.078 290.881 235.857 290.208 234.752C289.944 234.208 287.936 230.84 289.704 229.288C291.472 227.736 295.632 230.824 295.448 239.152C295.358 241.879 294.922 244.583 294.152 247.2Z" fill="#F4C621"/>
<path opacity="0.5" d="M294.152 247.2L290.816 249.136C291.82 245.634 292.076 241.96 291.568 238.352C291.343 237.078 290.881 235.857 290.208 234.752C289.944 234.208 287.936 230.84 289.704 229.288C291.472 227.736 295.632 230.824 295.448 239.152C295.358 241.879 294.922 244.583 294.152 247.2Z" fill="black"/>
<path d="M292.6 248.232H292.544C292.503 248.216 292.47 248.184 292.452 248.144C292.434 248.103 292.432 248.057 292.448 248.016C293.334 245.088 293.734 242.034 293.632 238.976C293.568 233.448 290.688 230.528 290.664 230.496C290.648 230.481 290.636 230.463 290.627 230.443C290.619 230.423 290.614 230.402 290.614 230.38C290.614 230.358 290.619 230.337 290.627 230.317C290.636 230.297 290.648 230.279 290.664 230.264C290.697 230.234 290.74 230.217 290.784 230.217C290.829 230.217 290.871 230.234 290.904 230.264C290.904 230.264 293.912 233.312 293.976 238.968C294.082 242.065 293.685 245.158 292.8 248.128C292.786 248.167 292.757 248.199 292.72 248.219C292.683 248.238 292.64 248.243 292.6 248.232Z" fill="white"/>
<path d="M291.568 248.68L286.056 251.88C286.056 251.88 283.528 251.512 283.72 249.136C283.912 246.76 284.936 246.2 283.656 245.136C282.376 244.072 282.056 244.024 282.112 243C282.223 242.264 282.606 241.596 283.184 241.128C283.543 240.837 283.796 240.435 283.903 239.985C284.01 239.535 283.966 239.062 283.776 238.64C283.144 237.4 282.28 236.24 283.56 235.648C284.36 235.312 285.608 235.728 286.456 236.632C287.068 237.423 287.884 238.031 288.816 238.392C289.616 238.608 291.304 238.624 291.216 239.992C291.128 241.36 290.792 241.864 291.136 242.48C291.8 243.712 294.512 244.336 291.568 248.68Z" fill="#F4C621"/>
<path opacity="0.2" d="M291.568 248.68L286.056 251.88C286.056 251.88 283.528 251.512 283.72 249.136C283.912 246.76 284.936 246.2 283.656 245.136C282.376 244.072 282.056 244.024 282.112 243C282.223 242.264 282.606 241.596 283.184 241.128C283.543 240.837 283.796 240.435 283.903 239.985C284.01 239.535 283.966 239.062 283.776 238.64C283.144 237.4 282.28 236.24 283.56 235.648C284.36 235.312 285.608 235.728 286.456 236.632C287.068 237.423 287.884 238.031 288.816 238.392C289.616 238.608 291.304 238.624 291.216 239.992C291.128 241.36 290.792 241.864 291.136 242.48C291.8 243.712 294.512 244.336 291.568 248.68Z" fill="black"/>
<path d="M289.32 250.168C289.298 250.166 289.276 250.16 289.257 250.149C289.237 250.139 289.22 250.125 289.206 250.108C289.192 250.091 289.181 250.071 289.175 250.05C289.168 250.028 289.166 250.006 289.168 249.984C289.168 249.904 289.76 241.832 284.168 236.544C284.147 236.531 284.128 236.514 284.114 236.493C284.1 236.472 284.091 236.448 284.088 236.423C284.084 236.398 284.086 236.373 284.094 236.349C284.101 236.325 284.114 236.303 284.131 236.285C284.148 236.267 284.169 236.252 284.193 236.243C284.216 236.234 284.241 236.23 284.266 236.232C284.291 236.234 284.316 236.241 284.337 236.254C284.359 236.266 284.378 236.283 284.392 236.304C290.112 241.704 289.512 249.904 289.504 250.016C289.502 250.038 289.496 250.06 289.485 250.079C289.475 250.099 289.461 250.116 289.444 250.13C289.427 250.144 289.407 250.155 289.386 250.162C289.364 250.168 289.342 250.17 289.32 250.168V250.168Z" fill="white"/>
<path d="M288.336 243.12C288.314 243.119 288.293 243.114 288.273 243.104C288.254 243.095 288.236 243.081 288.222 243.065C288.208 243.048 288.197 243.029 288.191 243.008C288.184 242.988 288.182 242.966 288.184 242.944C288.223 242.265 288.405 241.601 288.716 240.997C289.027 240.392 289.462 239.859 289.992 239.432C290.024 239.404 290.065 239.388 290.108 239.388C290.151 239.388 290.192 239.404 290.224 239.432C290.249 239.468 290.259 239.513 290.251 239.556C290.244 239.6 290.22 239.638 290.184 239.664C289.699 240.067 289.301 240.564 289.014 241.125C288.726 241.686 288.556 242.299 288.512 242.928C288.517 242.953 288.516 242.979 288.51 243.003C288.503 243.028 288.491 243.051 288.473 243.069C288.456 243.088 288.435 243.103 288.411 243.111C288.387 243.12 288.361 243.123 288.336 243.12V243.12Z" fill="white"/>
<path d="M288.736 244.528C288.69 244.525 288.648 244.505 288.616 244.472C288.616 244.472 287.224 242.976 284.072 243.408C284.035 243.4 284.001 243.379 283.977 243.349C283.953 243.319 283.94 243.282 283.94 243.244C283.94 243.206 283.953 243.169 283.977 243.139C284.001 243.109 284.035 243.088 284.072 243.08C287.4 242.624 288.872 244.184 288.872 244.248C288.891 244.273 288.902 244.303 288.905 244.334C288.909 244.366 288.904 244.397 288.89 244.426C288.877 244.454 288.857 244.479 288.831 244.497C288.805 244.515 288.775 244.526 288.744 244.528H288.736Z" fill="white"/>
<path d="M210.592 294.632L207.256 296.568C208.255 293.065 208.508 289.391 208 285.784C207.778 284.51 207.32 283.289 206.648 282.184C206.384 281.64 204.376 278.272 206.144 276.712C207.912 275.152 212.072 278.256 211.88 286.576C211.795 289.305 211.362 292.012 210.592 294.632V294.632Z" fill="#F4C621"/>
<path opacity="0.5" d="M210.592 294.632L207.256 296.568C208.255 293.065 208.508 289.391 208 285.784C207.778 284.51 207.32 283.289 206.648 282.184C206.384 281.64 204.376 278.272 206.144 276.712C207.912 275.152 212.072 278.256 211.88 286.576C211.795 289.305 211.362 292.012 210.592 294.632V294.632Z" fill="black"/>
<path d="M209.04 295.696H208.984C208.963 295.689 208.943 295.677 208.927 295.663C208.91 295.648 208.896 295.63 208.887 295.61C208.877 295.59 208.871 295.568 208.87 295.546C208.869 295.523 208.872 295.501 208.88 295.48C209.772 292.553 210.174 289.498 210.072 286.44C210.008 280.92 207.128 277.992 207.096 277.96C207.066 277.929 207.05 277.887 207.05 277.844C207.05 277.801 207.066 277.759 207.096 277.728C207.111 277.711 207.13 277.697 207.15 277.688C207.171 277.679 207.193 277.674 207.216 277.674C207.239 277.674 207.261 277.679 207.282 277.688C207.303 277.697 207.321 277.711 207.336 277.728C207.336 277.728 210.336 280.8 210.4 286.4C210.498 289.499 210.09 292.593 209.192 295.56C209.185 295.596 209.167 295.629 209.139 295.654C209.112 295.678 209.077 295.693 209.04 295.696V295.696Z" fill="white"/>
<path d="M208 296.144L202.488 299.384C202.488 299.384 199.968 299.016 200.16 296.64C200.352 294.264 201.376 293.704 200.096 292.64C198.816 291.576 198.496 291.528 198.552 290.504C198.661 289.767 199.044 289.099 199.624 288.632C199.983 288.341 200.236 287.939 200.343 287.489C200.45 287.039 200.406 286.566 200.216 286.144C199.584 284.904 198.72 283.744 200 283.152C200.76 282.808 202.048 283.232 202.896 284.136C203.506 284.928 204.322 285.537 205.256 285.896C206.056 286.104 207.736 286.128 207.656 287.496C207.576 288.864 207.24 289.368 207.576 289.984C208.24 291.2 210.944 291.8 208 296.144Z" fill="#F4C621"/>
<path opacity="0.2" d="M208 296.144L202.488 299.384C202.488 299.384 199.968 299.016 200.16 296.64C200.352 294.264 201.376 293.704 200.096 292.64C198.816 291.576 198.496 291.528 198.552 290.504C198.661 289.767 199.044 289.099 199.624 288.632C199.983 288.341 200.236 287.939 200.343 287.489C200.45 287.039 200.406 286.566 200.216 286.144C199.584 284.904 198.72 283.744 200 283.152C200.76 282.808 202.048 283.232 202.896 284.136C203.506 284.928 204.322 285.537 205.256 285.896C206.056 286.104 207.736 286.128 207.656 287.496C207.576 288.864 207.24 289.368 207.576 289.984C208.24 291.2 210.944 291.8 208 296.144Z" fill="black"/>
<path d="M205.76 297.6C205.738 297.598 205.716 297.592 205.697 297.581C205.677 297.571 205.66 297.557 205.646 297.54C205.632 297.523 205.621 297.503 205.614 297.482C205.608 297.46 205.606 297.438 205.608 297.416C205.608 297.336 206.2 289.264 200.6 283.976C200.57 283.943 200.553 283.901 200.553 283.856C200.553 283.811 200.57 283.769 200.6 283.736C200.631 283.706 200.673 283.69 200.716 283.69C200.759 283.69 200.801 283.706 200.832 283.736C206.552 289.136 205.944 297.336 205.944 297.448C205.942 297.47 205.936 297.492 205.925 297.511C205.915 297.531 205.901 297.548 205.884 297.562C205.867 297.576 205.847 297.587 205.826 297.594C205.804 297.6 205.782 297.602 205.76 297.6V297.6Z" fill="white"/>
<path d="M204.8 290.584C204.778 290.583 204.757 290.578 204.737 290.568C204.718 290.559 204.7 290.545 204.686 290.529C204.672 290.512 204.661 290.493 204.655 290.472C204.648 290.452 204.646 290.43 204.648 290.408C204.689 289.73 204.87 289.068 205.18 288.463C205.49 287.859 205.921 287.325 206.448 286.896C206.466 286.883 206.486 286.873 206.507 286.867C206.529 286.862 206.551 286.861 206.573 286.865C206.595 286.869 206.615 286.877 206.634 286.889C206.652 286.902 206.668 286.917 206.68 286.936C206.71 286.967 206.727 287.009 206.727 287.052C206.727 287.095 206.71 287.137 206.68 287.168C206.194 287.57 205.795 288.067 205.508 288.628C205.22 289.189 205.05 289.803 205.008 290.432C205.006 290.457 204.999 290.48 204.988 290.502C204.976 290.523 204.959 290.542 204.94 290.557C204.92 290.571 204.897 290.581 204.873 290.586C204.849 290.591 204.824 290.59 204.8 290.584V290.584Z" fill="white"/>
<path d="M205.176 292C205.153 291.999 205.131 291.994 205.11 291.984C205.09 291.975 205.071 291.961 205.056 291.944C205.056 291.944 203.664 290.448 200.512 290.88C200.49 290.885 200.468 290.885 200.446 290.88C200.424 290.875 200.404 290.865 200.386 290.851C200.369 290.837 200.354 290.82 200.344 290.8C200.334 290.78 200.329 290.758 200.328 290.736C200.325 290.715 200.325 290.693 200.33 290.673C200.335 290.652 200.345 290.633 200.357 290.615C200.37 290.598 200.386 290.584 200.404 290.573C200.423 290.562 200.443 290.555 200.464 290.552C203.8 290.096 205.264 291.656 205.264 291.72C205.294 291.751 205.31 291.793 205.31 291.836C205.31 291.879 205.294 291.921 205.264 291.952C205.241 291.977 205.21 291.994 205.176 292V292Z" fill="white"/>
<path d="M324.08 234.536C323.74 234.536 323.415 234.401 323.175 234.161C322.935 233.921 322.8 233.595 322.8 233.256V180.616C322.8 180.277 322.935 179.951 323.175 179.711C323.415 179.471 323.74 179.336 324.08 179.336C324.419 179.336 324.745 179.471 324.985 179.711C325.225 179.951 325.36 180.277 325.36 180.616V233.256C325.36 233.595 325.225 233.921 324.985 234.161C324.745 234.401 324.419 234.536 324.08 234.536V234.536Z" fill="#37474F"/>
<path d="M324.08 199.896C323.929 199.896 323.781 199.856 323.65 199.78C323.519 199.704 323.411 199.595 323.336 199.464L316.048 186.664C315.938 186.466 315.909 186.233 315.969 186.015C316.029 185.796 316.172 185.61 316.368 185.496C316.465 185.44 316.572 185.405 316.683 185.391C316.794 185.377 316.907 185.385 317.015 185.415C317.122 185.444 317.223 185.495 317.311 185.564C317.4 185.633 317.473 185.719 317.528 185.816L324.816 198.616C324.873 198.713 324.91 198.821 324.924 198.933C324.939 199.045 324.931 199.158 324.901 199.267C324.872 199.376 324.82 199.478 324.751 199.566C324.681 199.655 324.595 199.729 324.496 199.784C324.37 199.859 324.226 199.897 324.08 199.896Z" fill="#37474F"/>
<path d="M323.936 203.36C323.79 203.361 323.646 203.323 323.52 203.248C323.422 203.193 323.337 203.12 323.268 203.031C323.199 202.943 323.148 202.842 323.118 202.735C323.089 202.627 323.081 202.514 323.095 202.403C323.109 202.292 323.144 202.185 323.2 202.088L332.936 185C333.048 184.803 333.235 184.658 333.454 184.598C333.673 184.538 333.907 184.568 334.104 184.68C334.301 184.792 334.446 184.979 334.506 185.198C334.566 185.417 334.536 185.651 334.424 185.848L324.68 202.928C324.61 203.063 324.503 203.176 324.371 203.253C324.239 203.329 324.088 203.366 323.936 203.36Z" fill="#37474F"/>
<path d="M345.93 187.4C355.506 183.433 360.054 172.455 356.087 162.878C352.12 153.302 341.142 148.754 331.565 152.721C321.989 156.688 317.442 167.666 321.408 177.243C325.375 186.819 336.354 191.366 345.93 187.4Z" fill="#F4C621"/>
<path opacity="0.3" d="M345.93 187.4C355.506 183.433 360.054 172.455 356.087 162.878C352.12 153.302 341.142 148.754 331.565 152.721C321.989 156.688 317.442 167.666 321.408 177.243C325.375 186.819 336.354 191.366 345.93 187.4Z" fill="black"/>
<path d="M334.688 164.752C334.682 162.259 335.174 159.79 336.135 157.49C337.097 155.19 338.509 153.106 340.288 151.36C339.776 151.36 339.256 151.296 338.728 151.296C335.648 151.295 332.616 152.052 329.897 153.501C327.179 154.949 324.86 157.044 323.142 159.601C321.425 162.157 320.364 165.097 320.052 168.161C319.74 171.225 320.186 174.319 321.352 177.17C322.518 180.02 324.368 182.54 326.738 184.507C329.108 186.474 331.926 187.827 334.942 188.447C337.959 189.068 341.082 188.936 344.036 188.064C346.99 187.192 349.684 185.607 351.88 183.448C347.193 183.053 342.825 180.912 339.641 177.45C336.457 173.988 334.689 169.456 334.688 164.752V164.752Z" fill="#F4C621"/>
<path opacity="0.4" d="M334.688 164.752C334.682 162.259 335.174 159.79 336.135 157.49C337.097 155.19 338.509 153.106 340.288 151.36C339.776 151.36 339.256 151.296 338.728 151.296C335.648 151.295 332.616 152.052 329.897 153.501C327.179 154.949 324.86 157.044 323.142 159.601C321.425 162.157 320.364 165.097 320.052 168.161C319.74 171.225 320.186 174.319 321.352 177.17C322.518 180.02 324.368 182.54 326.738 184.507C329.108 186.474 331.926 187.827 334.942 188.447C337.959 189.068 341.082 188.936 344.036 188.064C346.99 187.192 349.684 185.607 351.88 183.448C347.193 183.053 342.825 180.912 339.641 177.45C336.457 173.988 334.689 169.456 334.688 164.752V164.752Z" fill="black"/>
<path d="M308.096 188.832C315.523 188.832 321.544 182.811 321.544 175.384C321.544 167.957 315.523 161.936 308.096 161.936C300.669 161.936 294.648 167.957 294.648 175.384C294.648 182.811 300.669 188.832 308.096 188.832Z" fill="#F4C621"/>
<path opacity="0.3" d="M308.096 188.832C315.523 188.832 321.544 182.811 321.544 175.384C321.544 167.957 315.523 161.936 308.096 161.936C300.669 161.936 294.648 167.957 294.648 175.384C294.648 182.811 300.669 188.832 308.096 188.832Z" fill="black"/>
<path d="M309.552 162.008C307.762 161.812 305.952 161.979 304.228 162.498C302.504 163.018 300.903 163.88 299.52 165.032C299.472 165.608 299.448 166.184 299.448 166.776C299.443 172.604 301.559 178.234 305.4 182.616C305.664 182.917 305.837 183.288 305.899 183.684C305.961 184.08 305.908 184.486 305.748 184.853C305.588 185.221 305.326 185.535 304.994 185.759C304.662 185.984 304.273 186.109 303.872 186.12H303.824C302.143 186.116 300.477 185.799 298.912 185.184C300.469 186.637 302.349 187.7 304.397 188.284C306.445 188.868 308.603 188.958 310.692 188.545C312.782 188.133 314.743 187.229 316.416 185.91C318.088 184.591 319.423 182.894 320.311 180.958C321.198 179.022 321.614 176.903 321.522 174.775C321.431 172.647 320.836 170.571 319.785 168.719C318.735 166.866 317.259 165.289 315.48 164.118C313.701 162.948 311.669 162.216 309.552 161.984V162.008Z" fill="#F4C621"/>
<path opacity="0.4" d="M309.552 162.008C307.762 161.812 305.952 161.979 304.228 162.498C302.504 163.018 300.903 163.88 299.52 165.032C299.472 165.608 299.448 166.184 299.448 166.776C299.443 172.604 301.559 178.234 305.4 182.616C305.664 182.917 305.837 183.288 305.899 183.684C305.961 184.08 305.908 184.486 305.748 184.853C305.588 185.221 305.326 185.535 304.994 185.759C304.662 185.984 304.273 186.109 303.872 186.12H303.824C302.143 186.116 300.477 185.799 298.912 185.184C300.469 186.637 302.349 187.7 304.397 188.284C306.445 188.868 308.603 188.958 310.692 188.545C312.782 188.133 314.743 187.229 316.416 185.91C318.088 184.591 319.423 182.894 320.311 180.958C321.198 179.022 321.614 176.903 321.522 174.775C321.431 172.647 320.836 170.571 319.785 168.719C318.735 166.866 317.259 165.289 315.48 164.118C313.701 162.948 311.669 162.216 309.552 161.984V162.008Z" fill="black"/>
<path d="M347.501 167.795C350.556 154.852 342.54 141.882 329.596 138.827C316.653 135.773 303.684 143.789 300.629 156.732C297.574 169.675 305.59 182.645 318.533 185.7C331.477 188.754 344.446 180.738 347.501 167.795Z" fill="#F4C621"/>
<path opacity="0.2" d="M330.944 178.096C326.83 178.095 322.785 177.04 319.195 175.032C315.604 173.023 312.588 170.129 310.434 166.624C308.28 163.119 307.06 159.121 306.89 155.01C306.72 150.9 307.606 146.815 309.464 143.144C306.603 145.347 304.275 148.166 302.651 151.391C301.027 154.616 300.15 158.165 300.083 161.775C300.017 165.385 300.764 168.964 302.269 172.246C303.773 175.529 305.997 178.431 308.775 180.737C311.553 183.044 314.815 184.695 318.318 185.57C321.821 186.445 325.476 186.521 329.013 185.792C332.549 185.063 335.876 183.547 338.747 181.358C341.619 179.169 343.961 176.361 345.6 173.144C341.395 176.367 336.242 178.108 330.944 178.096Z" fill="black"/>
<path d="M77.52 244.184C77.1805 244.184 76.8549 244.049 76.6149 243.809C76.3748 243.569 76.24 243.244 76.24 242.904V190.264C76.24 189.925 76.3748 189.599 76.6149 189.359C76.8549 189.119 77.1805 188.984 77.52 188.984C77.8595 188.984 78.185 189.119 78.4251 189.359C78.6651 189.599 78.8 189.925 78.8 190.264V242.904C78.8 243.244 78.6651 243.569 78.4251 243.809C78.185 244.049 77.8595 244.184 77.52 244.184Z" fill="#37474F"/>
<path d="M77.5198 209.544C77.3689 209.549 77.2197 209.511 77.0894 209.434C76.9592 209.358 76.8532 209.246 76.7838 209.112L69.4878 196.312C69.3754 196.115 69.3459 195.881 69.4059 195.662C69.4659 195.443 69.6105 195.256 69.8078 195.144C70.0052 195.032 70.2391 195.002 70.4581 195.062C70.6771 195.122 70.8634 195.267 70.9758 195.464L78.2638 208.264C78.3194 208.361 78.3552 208.468 78.3691 208.579C78.3831 208.69 78.375 208.803 78.3452 208.911C78.3155 209.018 78.2647 209.119 78.1958 209.207C78.1269 209.296 78.0413 209.369 77.9438 209.424C77.8165 209.503 77.6696 209.545 77.5198 209.544V209.544Z" fill="#37474F"/>
<path d="M77.3841 213.016C77.2348 213.015 77.0885 212.974 76.9597 212.899C76.8309 212.824 76.724 212.716 76.6496 212.587C76.5752 212.457 76.5359 212.311 76.5356 212.162C76.5354 212.012 76.5741 211.866 76.648 211.736L86.4 194.648C86.5125 194.451 86.6987 194.306 86.9178 194.246C87.1368 194.186 87.3707 194.216 87.568 194.328C87.7654 194.44 87.9099 194.627 87.97 194.846C88.03 195.065 88.0005 195.299 87.888 195.496L78.1281 212.584C78.052 212.714 77.9434 212.822 77.813 212.898C77.6826 212.974 77.5348 213.014 77.3841 213.016Z" fill="#37474F"/>
<path d="M99.3847 197.048C108.961 193.082 113.508 182.103 109.542 172.527C105.575 162.95 94.5965 158.403 85.0203 162.369C75.444 166.336 70.8965 177.315 74.8631 186.891C78.8297 196.467 89.8084 201.015 99.3847 197.048Z" fill="#F4C621"/>
<path opacity="0.3" d="M99.3847 197.048C108.961 193.082 113.508 182.103 109.542 172.527C105.575 162.95 94.5965 158.403 85.0203 162.369C75.444 166.336 70.8965 177.315 74.8631 186.891C78.8297 196.467 89.8084 201.015 99.3847 197.048Z" fill="black"/>
<path d="M88.136 174.4C88.1303 171.907 88.6228 169.439 89.5845 167.139C90.5461 164.839 91.9576 162.755 93.736 161.008C93.216 161.008 92.704 160.944 92.136 160.944C89.0558 160.942 86.0224 161.698 83.3035 163.145C80.5846 164.593 78.2638 166.687 76.5457 169.244C74.8277 171.8 73.7652 174.74 73.4522 177.804C73.1391 180.869 73.585 183.963 74.7506 186.814C75.9162 189.665 77.7655 192.186 80.1356 194.153C82.5056 196.12 85.3234 197.474 88.3403 198.095C91.3573 198.716 94.4807 198.584 97.4349 197.713C100.389 196.841 103.083 195.255 105.28 193.096C100.601 192.69 96.2452 190.544 93.0713 187.083C89.8973 183.622 88.1364 179.096 88.136 174.4V174.4Z" fill="#F4C621"/>
<path opacity="0.4" d="M88.136 174.4C88.1303 171.907 88.6228 169.439 89.5845 167.139C90.5461 164.839 91.9576 162.755 93.736 161.008C93.216 161.008 92.704 160.944 92.136 160.944C89.0558 160.942 86.0224 161.698 83.3035 163.145C80.5846 164.593 78.2638 166.687 76.5457 169.244C74.8277 171.8 73.7652 174.74 73.4522 177.804C73.1391 180.869 73.585 183.963 74.7506 186.814C75.9162 189.665 77.7655 192.186 80.1356 194.153C82.5056 196.12 85.3234 197.474 88.3403 198.095C91.3573 198.716 94.4807 198.584 97.4349 197.713C100.389 196.841 103.083 195.255 105.28 193.096C100.601 192.69 96.2452 190.544 93.0713 187.083C89.8973 183.622 88.1364 179.096 88.136 174.4V174.4Z" fill="black"/>
<path d="M61.544 198.48C68.9711 198.48 74.992 192.459 74.992 185.032C74.992 177.605 68.9711 171.584 61.544 171.584C54.1168 171.584 48.0959 177.605 48.0959 185.032C48.0959 192.459 54.1168 198.48 61.544 198.48Z" fill="#F4C621"/>
<path opacity="0.3" d="M61.544 198.48C68.9711 198.48 74.992 192.459 74.992 185.032C74.992 177.605 68.9711 171.584 61.544 171.584C54.1168 171.584 48.0959 177.605 48.0959 185.032C48.0959 192.459 54.1168 198.48 61.544 198.48Z" fill="black"/>
<path d="M62.9999 171.656C61.2092 171.462 59.3976 171.629 57.6728 172.149C55.9481 172.668 54.3454 173.529 52.9599 174.68C52.9599 175.256 52.8959 175.832 52.8959 176.424C52.8891 182.254 55.0048 187.888 58.8479 192.272C59.1136 192.573 59.2876 192.944 59.3495 193.34C59.4113 193.737 59.3583 194.143 59.1968 194.511C59.0353 194.878 58.7721 195.192 58.4381 195.415C58.1041 195.638 57.7133 195.76 57.3119 195.768V195.768C55.6302 195.768 53.9637 195.451 52.3999 194.832C53.9572 196.28 55.8359 197.338 57.8816 197.919C59.9273 198.499 62.0816 198.586 64.1675 198.172C66.2534 197.758 68.2112 196.856 69.8802 195.538C71.5493 194.22 72.8818 192.525 73.7682 190.592C74.6547 188.659 75.0699 186.543 74.9796 184.419C74.8894 182.294 74.2962 180.221 73.249 178.371C72.2018 176.52 70.7303 174.944 68.9555 173.773C67.1808 172.601 65.1534 171.867 63.0399 171.632L62.9999 171.656Z" fill="#F4C621"/>
<path opacity="0.4" d="M62.9999 171.656C61.2092 171.462 59.3976 171.629 57.6728 172.149C55.9481 172.668 54.3454 173.529 52.9599 174.68C52.9599 175.256 52.8959 175.832 52.8959 176.424C52.8891 182.254 55.0048 187.888 58.8479 192.272C59.1136 192.573 59.2876 192.944 59.3495 193.34C59.4113 193.737 59.3583 194.143 59.1968 194.511C59.0353 194.878 58.7721 195.192 58.4381 195.415C58.1041 195.638 57.7133 195.76 57.3119 195.768V195.768C55.6302 195.768 53.9637 195.451 52.3999 194.832C53.9572 196.28 55.8359 197.338 57.8816 197.919C59.9273 198.499 62.0816 198.586 64.1675 198.172C66.2534 197.758 68.2112 196.856 69.8802 195.538C71.5493 194.22 72.8818 192.525 73.7682 190.592C74.6547 188.659 75.0699 186.543 74.9796 184.419C74.8894 182.294 74.2962 180.221 73.249 178.371C72.2018 176.52 70.7303 174.944 68.9555 173.773C67.1808 172.601 65.1534 171.867 63.0399 171.632L62.9999 171.656Z" fill="black"/>
<path d="M100.958 177.45C104.012 164.507 95.9963 151.537 83.0529 148.482C70.1095 145.428 57.1403 153.444 54.0854 166.387C51.0305 179.33 59.0466 192.3 71.99 195.355C84.9334 198.41 97.9026 190.393 100.958 177.45Z" fill="#F4C621"/>
<path opacity="0.2" d="M84.392 187.744C80.2775 187.747 76.2311 186.694 72.6392 184.688C69.0473 182.681 66.03 179.787 63.8754 176.282C61.7207 172.776 60.5008 168.777 60.3322 164.666C60.1635 160.555 61.0517 156.47 62.912 152.8C60.039 154.997 57.6979 157.813 56.0628 161.039C54.4276 164.265 53.5403 167.818 53.4669 171.433C53.3934 175.049 54.1357 178.635 55.6386 181.925C57.1414 185.215 59.3662 188.123 62.1476 190.435C64.929 192.747 68.1956 194.402 71.7046 195.278C75.2137 196.154 78.8749 196.227 82.4164 195.494C85.9579 194.76 89.2886 193.238 92.161 191.041C95.0334 188.843 97.3737 186.026 99.008 182.8C94.813 186.012 89.6754 187.75 84.392 187.744Z" fill="black"/>
<path d="M301.6 264.04V253.76H295.736V264.04C295.761 264.298 295.853 264.544 296.003 264.755C296.153 264.966 296.356 265.133 296.592 265.24C297.236 265.564 297.947 265.732 298.668 265.732C299.389 265.732 300.1 265.564 300.744 265.24C300.981 265.134 301.185 264.967 301.335 264.756C301.486 264.545 301.577 264.298 301.6 264.04Z" fill="#455A64"/>
<path d="M300.72 252.56C301.864 253.224 301.864 254.296 300.72 254.96C300.077 255.287 299.366 255.458 298.644 255.458C297.922 255.458 297.211 255.287 296.568 254.96C295.424 254.304 295.424 253.232 296.568 252.56C297.211 252.233 297.922 252.062 298.644 252.062C299.366 252.062 300.077 252.233 300.72 252.56V252.56Z" fill="#37474F"/>
<path d="M310.4 207.472C310.173 207.472 309.955 207.382 309.795 207.221C309.634 207.061 309.544 206.843 309.544 206.616V197.016C309.533 196.897 309.546 196.777 309.584 196.664C309.621 196.551 309.682 196.446 309.762 196.358C309.842 196.27 309.94 196.199 310.049 196.151C310.159 196.102 310.277 196.077 310.396 196.077C310.515 196.077 310.633 196.102 310.743 196.151C310.852 196.199 310.95 196.27 311.03 196.358C311.11 196.446 311.171 196.551 311.209 196.664C311.246 196.777 311.26 196.897 311.248 197.016V206.616C311.249 206.728 311.228 206.839 311.186 206.943C311.144 207.047 311.081 207.141 311.003 207.221C310.924 207.3 310.83 207.364 310.726 207.407C310.623 207.45 310.512 207.472 310.4 207.472V207.472Z" fill="#37474F"/>
<path d="M324.064 216.104C323.952 216.104 323.841 216.082 323.738 216.039C323.634 215.996 323.54 215.932 323.461 215.853C323.383 215.773 323.32 215.679 323.278 215.575C323.236 215.471 323.215 215.36 323.216 215.248V205.648C323.204 205.529 323.218 205.409 323.255 205.296C323.293 205.183 323.354 205.078 323.434 204.99C323.514 204.902 323.612 204.831 323.721 204.783C323.83 204.734 323.949 204.709 324.068 204.709C324.187 204.709 324.305 204.734 324.415 204.783C324.524 204.831 324.622 204.902 324.702 204.99C324.782 205.078 324.843 205.183 324.88 205.296C324.918 205.409 324.931 205.529 324.92 205.648V215.248C324.92 215.475 324.83 215.693 324.669 215.853C324.509 216.014 324.291 216.104 324.064 216.104V216.104Z" fill="#37474F"/>
<path d="M298.712 254.104C298.485 254.104 298.267 254.014 298.107 253.853C297.946 253.693 297.856 253.475 297.856 253.248V190.312C297.859 190.163 297.9 190.016 297.977 189.888C298.053 189.759 298.161 189.653 298.291 189.579C298.421 189.504 298.568 189.465 298.717 189.465C298.867 189.464 299.014 189.503 299.144 189.576L334.624 210.064C334.808 210.183 334.939 210.369 334.99 210.582C335.041 210.796 335.009 211.021 334.899 211.21C334.789 211.4 334.61 211.541 334.4 211.603C334.189 211.665 333.963 211.644 333.768 211.544L299.568 191.792V253.248C299.568 253.36 299.546 253.472 299.503 253.576C299.46 253.679 299.397 253.774 299.317 253.853C299.238 253.933 299.143 253.996 299.04 254.039C298.936 254.082 298.824 254.104 298.712 254.104Z" fill="#37474F"/>
<path d="M303.016 200.472V224.848C303.015 225.428 303.167 225.998 303.458 226.5C303.749 227.001 304.168 227.417 304.672 227.704L332.112 243.552C332.323 243.674 332.563 243.738 332.806 243.739C333.05 243.739 333.29 243.675 333.501 243.553C333.713 243.432 333.889 243.257 334.011 243.046C334.134 242.835 334.199 242.596 334.2 242.352V217.976C334.199 217.397 334.045 216.828 333.754 216.326C333.463 215.825 333.046 215.409 332.544 215.12L305.104 199.272C304.893 199.15 304.653 199.086 304.409 199.086C304.165 199.085 303.926 199.149 303.714 199.271C303.503 199.392 303.327 199.567 303.204 199.778C303.082 199.989 303.017 200.228 303.016 200.472V200.472Z" fill="#455A64"/>
<path d="M314.505 213.157V219.395L313.941 219.071V216.192L310.557 214.248V217.126L309.985 216.797V210.559L310.557 210.888V213.668L313.941 215.613V212.833L314.505 213.157ZM318.634 221.822C318.098 221.514 317.612 221.097 317.174 220.573C316.741 220.045 316.401 219.469 316.154 218.846C315.912 218.225 315.791 217.615 315.791 217.015C315.791 216.415 315.912 215.944 316.154 215.602C316.401 215.263 316.741 215.081 317.174 215.056C317.612 215.029 318.098 215.169 318.634 215.477C319.17 215.785 319.651 216.198 320.079 216.717C320.512 217.239 320.852 217.815 321.099 218.444C321.346 219.067 321.47 219.679 321.47 220.279C321.47 220.879 321.346 221.351 321.099 221.697C320.852 222.036 320.512 222.218 320.079 222.242C319.651 222.27 319.17 222.13 318.634 221.822ZM318.634 221.234C319.062 221.479 319.448 221.591 319.793 221.57C320.138 221.542 320.409 221.389 320.604 221.109C320.8 220.824 320.898 220.437 320.898 219.95C320.898 219.463 320.8 218.967 320.604 218.463C320.409 217.952 320.138 217.488 319.793 217.07C319.448 216.646 319.062 216.311 318.634 216.065C318.207 215.819 317.818 215.709 317.468 215.733C317.122 215.755 316.849 215.907 316.649 216.189C316.453 216.469 316.355 216.852 316.355 217.339C316.355 217.827 316.453 218.325 316.649 218.836C316.849 219.343 317.122 219.809 317.468 220.233C317.818 220.654 318.207 220.988 318.634 221.234ZM324.93 225.44C324.23 225.037 323.684 224.492 323.292 223.804C322.901 223.115 322.705 222.328 322.705 221.443V217.87L323.277 218.198V221.745C323.277 222.47 323.418 223.092 323.702 223.611C323.985 224.13 324.394 224.544 324.93 224.852C325.471 225.163 325.883 225.221 326.166 225.028C326.45 224.834 326.591 224.375 326.591 223.65V220.103L327.147 220.423V223.996C327.147 224.882 326.952 225.443 326.56 225.682C326.174 225.923 325.631 225.843 324.93 225.44ZM311.476 228.708C311.074 228.477 310.688 228.181 310.317 227.819C309.951 227.46 309.668 227.101 309.467 226.742L309.691 226.363C309.887 226.701 310.147 227.035 310.472 227.364C310.796 227.687 311.131 227.948 311.476 228.146C311.96 228.425 312.323 228.532 312.565 228.469C312.807 228.401 312.929 228.203 312.929 227.876C312.929 227.627 312.862 227.389 312.728 227.164C312.599 226.941 312.439 226.736 312.249 226.55C312.058 226.357 311.793 226.115 311.453 225.825C311.046 225.472 310.721 225.173 310.479 224.927C310.237 224.675 310.029 224.386 309.853 224.059C309.683 223.736 309.598 223.381 309.598 222.995C309.598 222.68 309.671 222.436 309.815 222.264C309.959 222.085 310.181 222.005 310.479 222.022C310.778 222.039 311.149 222.175 311.592 222.43C311.901 222.607 312.202 222.831 312.496 223.101C312.795 223.367 313.052 223.649 313.268 223.946L313.075 224.36C312.849 224.058 312.607 223.791 312.349 223.56C312.091 223.323 311.839 223.133 311.592 222.991C311.118 222.719 310.76 222.62 310.518 222.695C310.281 222.766 310.163 222.969 310.163 223.301C310.163 223.551 310.227 223.79 310.356 224.018C310.49 224.244 310.654 224.454 310.85 224.65C311.051 224.843 311.319 225.083 311.654 225.37C312.05 225.711 312.37 226.007 312.612 226.259C312.859 226.508 313.068 226.795 313.238 227.118C313.408 227.436 313.493 227.784 313.493 228.165C313.493 228.48 313.418 228.725 313.268 228.9C313.124 229.073 312.9 229.149 312.596 229.129C312.292 229.103 311.919 228.962 311.476 228.708ZM318.563 232.157V232.727L314.738 230.529V224.291L318.447 226.423V226.993L315.31 225.19V227.409L318.107 229.017V229.578L315.31 227.971V230.287L318.563 232.157Z" fill="#FAFAFA"/>
<path d="M236 327.44C236 327.44 235.568 328.144 235.76 331.352C235.952 334.56 235.952 334.8 236 336.888C236.048 338.976 235.952 341.304 238.632 340.6C241.312 339.896 241.768 338.032 241.456 336.392C241.018 334.216 240.719 332.014 240.56 329.8C240.496 327.832 239.84 327.176 239.84 327.176L236 327.44Z" fill="#37474F"/>
<path d="M238.48 293.456L238.28 297.456C238.209 298.841 238.303 300.229 238.56 301.592C239.2 305.024 240.4 312.192 240.16 316.744C239.824 322.912 239.88 327.144 239.88 327.144C239.88 327.144 240.408 333.544 240.432 334.888C240.441 335.118 240.403 335.347 240.321 335.562C240.238 335.776 240.113 335.972 239.954 336.137C239.794 336.303 239.602 336.434 239.39 336.523C239.178 336.612 238.95 336.657 238.72 336.656C238.112 336.656 236.432 337.264 236.04 328.416C235.471 323.365 234.559 318.359 233.312 313.432C232.024 308.52 231.112 304.176 230.64 301.776C230.396 300.538 230.236 299.284 230.16 298.024L229.816 292.424L238.48 293.456Z" fill="#CAA1A1"/>
<path d="M225.448 327.072V327.128C225.441 327.871 225.286 328.605 224.992 329.288C224.781 329.831 224.675 330.409 224.68 330.992V333.392C224.68 333.49 224.642 333.585 224.573 333.655C224.504 333.725 224.41 333.766 224.312 333.768V333.768C224.263 333.768 224.214 333.758 224.168 333.739C224.123 333.72 224.081 333.693 224.046 333.658C224.011 333.623 223.984 333.582 223.965 333.536C223.946 333.49 223.936 333.441 223.936 333.392V329.712L225.448 327.072Z" fill="#263238"/>
<path d="M224.224 324.632C224.224 324.632 222.944 325.576 222.944 328.072C222.897 329.102 222.621 330.109 222.137 331.019C221.653 331.93 220.972 332.721 220.144 333.336C219.2 333.904 217.112 332.536 217.112 332.536C217.112 332.536 214.888 334.424 214.888 335.272C214.888 336.12 215.976 336.816 218.488 336.472C221 336.128 223.088 335.76 223.48 333.04C223.936 329.84 223.952 329.456 224.912 328.408C225.872 327.36 225.504 325.208 224.224 324.632Z" fill="#263238"/>
<path d="M228.616 284.128L218.8 294.4L219.544 318.072L219.776 324.528C219.584 328.288 216.984 332.08 216.984 332.08C216.932 332.585 216.932 333.095 216.984 333.6H219.344C223.872 333.6 224.208 324.16 224.208 324.16L224.36 321.84C224.508 319.632 224.796 317.435 225.224 315.264C227.472 304.104 226.584 298.288 226.584 298.288L228.616 284.128Z" fill="#CAA1A1"/>
<path d="M224.208 324.192C224.208 324.192 223.168 324.936 222.904 327.632C222.859 328.667 222.579 329.678 222.088 330.59C221.596 331.501 220.904 332.29 220.064 332.896C219.104 333.456 216.984 332.096 216.984 332.096C216.984 332.096 214.728 333.984 214.728 334.832C214.728 335.68 215.832 336.376 218.384 336.024C220.936 335.672 222.6 335.224 223.072 332.52C223.544 329.816 223.552 329.184 224.528 328.136C225.504 327.088 226.128 326.128 224.208 324.192Z" fill="#37474F"/>
<path d="M235.656 273C235.656 273 239.112 277.8 239 289.168C238.92 297.912 238.64 299.752 238.64 299.752C235.632 302.522 231.681 304.041 227.592 304C223.528 304 218.528 300 218.528 300C218.528 300 218.6 289.84 218.84 285.736C219.106 281.684 219.755 277.666 220.776 273.736L235.656 273Z" fill="#263238"/>
<path d="M204.728 254.504C204.627 254.151 204.56 253.79 204.528 253.424C204.536 252.631 204.232 251.866 203.68 251.296C203.104 250.496 203.432 249.84 202.88 249.696C202.328 249.552 201.952 251.4 202.552 252.256C201.943 251.848 201.441 251.299 201.088 250.656C200.704 249.784 200.04 248.488 199.488 248.256C198.936 248.024 197.008 250.304 197.8 252.416C198.592 254.528 202.04 256.664 202.04 256.664L204.728 254.504Z" fill="#CAA1A1"/>
<path d="M223.8 252.256H223.736C222.305 252.242 220.906 252.679 219.736 253.504L210.544 259.904L204.592 254.024C203.815 255.088 202.761 255.918 201.544 256.424L208.176 264.984C208.489 265.387 208.93 265.671 209.427 265.788C209.923 265.904 210.445 265.846 210.904 265.624L219.296 261.568L223.8 252.256Z" fill="#37474F"/>
<path d="M226.352 252.248H223.8C223.8 252.248 214.584 260.976 220.952 266.568C221.232 268.94 221.173 271.34 220.776 273.696C220.776 273.696 225.424 276.816 235.744 273.696L234.84 266.448L236.84 260.048L236.424 253.48C236.409 253.273 236.32 253.078 236.173 252.931C236.026 252.784 235.831 252.695 235.624 252.68L231.8 252.512L226.352 252.248Z" fill="#455A64"/>
<path d="M226.52 251.52L225.12 252.32L222.504 256.408C222.437 256.517 222.392 256.638 222.375 256.765C222.357 256.892 222.365 257.021 222.4 257.144L223.144 259.728L222.848 260.08C222.706 260.25 222.607 260.451 222.558 260.666C222.51 260.882 222.513 261.106 222.568 261.32L223.2 263.68L226.224 261.64C226.435 261.498 226.602 261.3 226.707 261.068C226.811 260.836 226.849 260.58 226.816 260.328V260.104L230.68 258.712C230.815 258.664 230.935 258.584 231.033 258.48C231.13 258.376 231.201 258.249 231.24 258.112L232.84 252.592L231.76 251.792L226.52 251.52Z" fill="#263238"/>
<path d="M231.736 238.888C231.736 240.054 231.39 241.194 230.742 242.164C230.095 243.133 229.174 243.889 228.096 244.335C227.019 244.781 225.834 244.898 224.69 244.671C223.546 244.443 222.496 243.882 221.671 243.057C220.846 242.233 220.285 241.182 220.057 240.038C219.83 238.895 219.947 237.709 220.393 236.632C220.839 235.554 221.595 234.634 222.564 233.986C223.534 233.338 224.674 232.992 225.84 232.992C226.615 232.991 227.382 233.143 228.098 233.439C228.813 233.735 229.464 234.169 230.012 234.717C230.559 235.264 230.993 235.915 231.289 236.63C231.585 237.346 231.737 238.113 231.736 238.888V238.888Z" fill="#263238"/>
<path d="M240.128 247.368C240.128 248.02 239.935 248.657 239.573 249.199C239.21 249.741 238.696 250.164 238.093 250.413C237.491 250.663 236.828 250.728 236.189 250.601C235.55 250.474 234.962 250.16 234.501 249.699C234.041 249.238 233.727 248.65 233.599 248.011C233.472 247.372 233.538 246.709 233.787 246.107C234.036 245.504 234.459 244.99 235.001 244.628C235.543 244.265 236.18 244.072 236.832 244.072C237.265 244.071 237.694 244.156 238.095 244.321C238.495 244.486 238.859 244.729 239.165 245.035C239.471 245.341 239.714 245.705 239.879 246.105C240.045 246.506 240.129 246.935 240.128 247.368V247.368Z" fill="#263238"/>
<path d="M235.827 247.045C237.186 245.686 237.391 243.688 236.285 242.582C235.179 241.476 233.181 241.681 231.822 243.04C230.463 244.399 230.257 246.398 231.363 247.504C232.469 248.61 234.468 248.405 235.827 247.045Z" fill="#F4C621"/>
<path d="M234.4 236.248C234.628 235.989 234.797 235.685 234.896 235.355C234.996 235.025 235.023 234.677 234.976 234.336C234.88 233.056 236.088 233.984 236.192 234.72C236.18 235.163 236.043 235.593 235.797 235.961C235.551 236.329 235.205 236.62 234.8 236.8L234.4 236.248Z" fill="#263238"/>
<path d="M234.808 236.504C235.151 236.523 235.495 236.467 235.815 236.342C236.135 236.216 236.425 236.023 236.664 235.776C237.608 234.912 237.624 236.432 237.112 236.968C236.762 237.227 236.347 237.384 235.914 237.421C235.48 237.458 235.044 237.373 234.656 237.176L234.808 236.504Z" fill="#263238"/>
<path d="M226.352 248.92V252.248C226.352 252.248 223.888 260.248 224.696 259.664C227.096 257.976 230.648 253.864 231.552 252.8C231.696 252.633 231.775 252.42 231.776 252.2V245.8L226.352 248.92Z" fill="#CAA1A1"/>
<path d="M231.712 244.704V244.896C230.504 249.696 227.368 250.696 226.352 250.944V243.568H231.592L231.712 244.704Z" fill="#703838"/>
<path d="M227.264 234.032C225.532 234.143 223.913 234.927 222.75 236.215C221.587 237.503 220.974 239.194 221.04 240.928C220.976 246.2 221.784 250.224 224.52 250.392C226.924 250.331 229.212 249.347 230.91 247.645C232.608 245.942 233.585 243.652 233.64 241.248C233.928 234.4 229.208 233.872 227.264 234.032Z" fill="#CAA1A1"/>
<path d="M224.728 243.048L224.776 246.144L222.96 245.616L224.728 243.048Z" fill="#703838"/>
<path d="M227.448 242.968C227.45 243.093 227.414 243.216 227.345 243.321C227.277 243.426 227.179 243.509 227.063 243.558C226.948 243.607 226.821 243.62 226.698 243.597C226.575 243.573 226.461 243.514 226.372 243.426C226.283 243.338 226.222 243.225 226.197 243.102C226.172 242.979 226.184 242.852 226.231 242.736C226.279 242.62 226.36 242.521 226.464 242.451C226.568 242.381 226.691 242.344 226.816 242.344C226.899 242.343 226.981 242.358 227.057 242.389C227.134 242.42 227.204 242.466 227.262 242.524C227.321 242.582 227.368 242.651 227.4 242.727C227.432 242.804 227.448 242.885 227.448 242.968V242.968Z" fill="#263238"/>
<path d="M223.296 242.584C223.297 242.667 223.282 242.749 223.251 242.827C223.22 242.904 223.175 242.974 223.117 243.033C223.059 243.093 222.99 243.14 222.913 243.173C222.837 243.206 222.755 243.223 222.672 243.224C222.59 243.225 222.508 243.21 222.431 243.179C222.354 243.148 222.285 243.102 222.226 243.044C222.167 242.986 222.12 242.917 222.088 242.841C222.057 242.764 222.04 242.683 222.04 242.6C222.03 242.512 222.039 242.422 222.066 242.337C222.093 242.253 222.138 242.174 222.197 242.108C222.256 242.042 222.329 241.989 222.41 241.952C222.491 241.916 222.579 241.897 222.668 241.897C222.757 241.897 222.845 241.916 222.926 241.952C223.008 241.989 223.08 242.042 223.139 242.108C223.199 242.174 223.243 242.253 223.27 242.337C223.297 242.422 223.306 242.512 223.296 242.6V242.584Z" fill="#263238"/>
<path d="M221.88 241.288L223.104 240.544C223.104 240.544 222.624 240.056 222.152 240.36C222.018 240.469 221.921 240.616 221.872 240.782C221.824 240.948 221.827 241.124 221.88 241.288Z" fill="#F4C621"/>
<path d="M224.376 247.2C225.015 246.896 225.635 246.554 226.232 246.176C226.232 246.176 226.632 247.192 225.8 247.608C225.552 247.715 225.275 247.733 225.015 247.659C224.756 247.584 224.53 247.422 224.376 247.2V247.2Z" fill="#703838"/>
<path d="M221.88 241.288L223.104 240.544C223.104 240.544 222.624 240.056 222.152 240.36C222.018 240.469 221.921 240.616 221.872 240.782C221.824 240.948 221.827 241.124 221.88 241.288Z" fill="#263238"/>
<path d="M230.144 242.168C230.144 242.168 229.816 244.92 231.792 244.92L232.272 242.456L230.144 242.168Z" fill="#263238"/>
<path d="M230.296 242.976C230.296 242.976 222.4 241.6 222.4 233.984C222.4 231.68 223.816 230.072 227.04 232.464C230.264 234.856 236.8 233.024 236.8 241.696C236.814 243.239 236.335 244.746 235.435 245.999C234.535 247.251 233.259 248.185 231.792 248.664V243.2L230.296 242.976Z" fill="#263238"/>
<path d="M231.696 244.64C231.687 244.143 231.791 243.651 232 243.2C232.096 242.925 232.27 242.684 232.502 242.507C232.734 242.331 233.013 242.227 233.304 242.208C233.544 242.21 233.78 242.263 233.998 242.364C234.215 242.466 234.408 242.612 234.564 242.794C234.72 242.976 234.836 243.189 234.903 243.419C234.969 243.649 234.986 243.891 234.952 244.128C234.891 244.922 234.522 245.66 233.924 246.186C233.326 246.712 232.547 246.984 231.752 246.944L231.696 244.64Z" fill="#CAA1A1"/>
<path d="M233.176 261.912L229.368 261.52V260.8L233.176 261.192V261.912Z" fill="#263238"/>
<path d="M222.616 265.48H221.064C221.064 265.056 220.896 264.649 220.595 264.349C220.295 264.049 219.888 263.88 219.464 263.88C219.04 263.88 218.633 264.049 218.333 264.349C218.033 264.649 217.864 265.056 217.864 265.48H216.944C216.847 265.479 216.751 265.502 216.665 265.545C216.578 265.588 216.503 265.652 216.445 265.73C216.387 265.808 216.349 265.898 216.333 265.994C216.316 266.089 216.323 266.187 216.352 266.28L216.824 267.792H223.8L223.208 265.904C223.167 265.78 223.088 265.671 222.981 265.595C222.875 265.519 222.747 265.479 222.616 265.48V265.48Z" fill="#F4C621"/>
<path opacity="0.7" d="M222.616 265.48H221.064C221.064 265.056 220.896 264.649 220.595 264.349C220.295 264.049 219.888 263.88 219.464 263.88C219.04 263.88 218.633 264.049 218.333 264.349C218.033 264.649 217.864 265.056 217.864 265.48H216.944C216.847 265.479 216.751 265.502 216.665 265.545C216.578 265.588 216.503 265.652 216.445 265.73C216.387 265.808 216.349 265.898 216.333 265.994C216.316 266.089 216.323 266.187 216.352 266.28L216.824 267.792H223.8L223.208 265.904C223.167 265.78 223.088 265.671 222.981 265.595C222.875 265.519 222.747 265.479 222.616 265.48V265.48Z" fill="black"/>
<path d="M227.272 266.288L231.16 280.96L218.632 281.016L213.8 266.432L227.272 266.288Z" fill="#F4C621"/>
<path opacity="0.3" d="M227.272 266.288L231.16 280.96L218.632 281.016L213.8 266.432L227.272 266.288Z" fill="black"/>
<path d="M222.616 266.136H221.064C221.064 265.712 220.896 265.305 220.595 265.005C220.295 264.705 219.888 264.536 219.464 264.536C219.04 264.536 218.633 264.705 218.333 265.005C218.033 265.305 217.864 265.712 217.864 266.136H216.944C216.847 266.135 216.751 266.158 216.665 266.201C216.578 266.244 216.503 266.308 216.445 266.386C216.387 266.464 216.349 266.554 216.333 266.65C216.316 266.745 216.323 266.843 216.352 266.936L216.576 267.672H223.544L223.208 266.56C223.167 266.436 223.088 266.327 222.981 266.251C222.875 266.175 222.747 266.135 222.616 266.136V266.136Z" fill="#F4C621"/>
<path opacity="0.5" d="M222.616 266.136H221.064C221.064 265.712 220.896 265.305 220.595 265.005C220.295 264.705 219.888 264.536 219.464 264.536C219.04 264.536 218.633 264.705 218.333 265.005C218.033 265.305 217.864 265.712 217.864 266.136H216.944C216.847 266.135 216.751 266.158 216.665 266.201C216.578 266.244 216.503 266.308 216.445 266.386C216.387 266.464 216.349 266.554 216.333 266.65C216.316 266.745 216.323 266.843 216.352 266.936L216.576 267.672H223.544L223.208 266.56C223.167 266.436 223.088 266.327 222.981 266.251C222.875 266.175 222.747 266.135 222.616 266.136V266.136Z" fill="black"/>
<path d="M232.552 271.792C231.87 271.944 231.167 271.982 230.472 271.904C229.672 271.744 229.672 271.024 228.488 271.048L228.872 272.648C227.705 272.873 226.514 272.945 225.328 272.864C223.728 272.68 224.272 274.088 224.528 274.464C224.784 274.84 225.856 277.056 228.144 276.864C229.964 276.626 231.762 276.241 233.52 275.712C233.695 275.029 233.697 274.314 233.529 273.63C233.36 272.947 233.024 272.315 232.552 271.792V271.792Z" fill="#CAA1A1"/>
<path d="M235.656 252.704C236.739 252.719 237.789 253.075 238.658 253.722C239.527 254.368 240.17 255.271 240.496 256.304L244.376 268.544C244.531 269.028 244.586 269.537 244.54 270.043C244.494 270.549 244.347 271.04 244.108 271.487C243.868 271.935 243.541 272.33 243.146 272.649C242.751 272.968 242.296 273.204 241.808 273.344L233.504 275.744C233.539 274.379 233.211 273.028 232.552 271.832L239.048 269.08L235.128 258.728C234.789 257.874 234.603 256.967 234.576 256.048C234.527 255.447 234.598 254.842 234.783 254.268C234.968 253.695 235.265 253.163 235.656 252.704Z" fill="#37474F"/>
<path d="M235.144 274.336C235.146 274.422 235.122 274.506 235.075 274.578C235.029 274.65 234.962 274.707 234.883 274.741C234.804 274.775 234.717 274.784 234.633 274.769C234.549 274.753 234.471 274.712 234.41 274.652C234.348 274.592 234.307 274.515 234.289 274.431C234.272 274.347 234.28 274.26 234.312 274.181C234.345 274.101 234.4 274.033 234.471 273.985C234.543 273.938 234.626 273.912 234.712 273.912C234.825 273.912 234.934 273.956 235.015 274.036C235.096 274.115 235.142 274.223 235.144 274.336Z" fill="#263238"/>
<path d="M236.6 273.96C236.602 274.046 236.577 274.131 236.531 274.203C236.484 274.275 236.416 274.332 236.337 274.366C236.258 274.399 236.17 274.408 236.086 274.392C236.001 274.376 235.924 274.334 235.863 274.273C235.802 274.213 235.76 274.135 235.744 274.05C235.728 273.966 235.737 273.878 235.77 273.799C235.804 273.72 235.861 273.652 235.933 273.606C236.005 273.559 236.09 273.535 236.176 273.536C236.288 273.538 236.394 273.583 236.474 273.663C236.553 273.742 236.598 273.848 236.6 273.96V273.96Z" fill="#263238"/>
<path d="M203.064 257.232C202.958 257.285 202.835 257.294 202.723 257.256C202.61 257.219 202.517 257.138 202.464 257.032C202.411 256.926 202.402 256.803 202.44 256.691C202.477 256.578 202.558 256.485 202.664 256.432C202.77 256.379 202.893 256.37 203.006 256.408C203.118 256.445 203.211 256.526 203.264 256.632C203.317 256.738 203.326 256.861 203.288 256.973C203.251 257.086 203.17 257.179 203.064 257.232V257.232Z" fill="#263238"/>
<path d="M204.088 258.344C204.013 258.385 203.927 258.402 203.842 258.394C203.757 258.386 203.676 258.352 203.61 258.298C203.544 258.244 203.495 258.172 203.47 258.09C203.445 258.008 203.445 257.921 203.47 257.839C203.494 257.757 203.543 257.685 203.609 257.63C203.675 257.576 203.755 257.542 203.84 257.534C203.925 257.525 204.011 257.542 204.087 257.583C204.162 257.623 204.224 257.685 204.264 257.76C204.318 257.861 204.33 257.979 204.297 258.088C204.264 258.198 204.189 258.29 204.088 258.344Z" fill="#263238"/>
<path d="M173.6 326.528C173.6 326.528 172.896 326.912 172.8 328.416C172.704 329.92 171.312 332.728 174.536 332.84C177.76 332.952 177.312 333.12 178.624 333.64C179.936 334.16 182.776 335.36 185.024 333.76C187.272 332.16 184.68 331.312 183.736 330.992C182.06 330.439 180.467 329.661 179 328.68C178.408 328.285 177.87 327.814 177.4 327.28L173.6 326.528Z" fill="#263238"/>
<path d="M163.2 330.272C163.2 330.272 162.648 330.432 162.624 331.536C162.6 332.64 161.728 334.32 162.912 335.32C164.096 336.32 164.28 336.192 165 337.72C165.441 338.835 166.283 339.745 167.361 340.271C168.438 340.797 169.674 340.9 170.824 340.56C174.272 339.8 172.096 337.728 171.808 337.424C171.52 337.12 168.144 333.784 167.808 332.688C167.606 332.083 167.352 331.497 167.048 330.936L163.2 330.272Z" fill="#263238"/>
<path d="M163.2 328.896V330.936C163.2 330.936 163.448 331.888 165.336 331.888C166.352 331.888 167.016 331.288 167.032 330.936V328.696L163.2 328.896Z" fill="#FFBFBE"/>
<path d="M173.6 325.256V327.288C173.6 327.288 173.848 328.248 175.736 328.248C176.752 328.248 177.424 327.64 177.44 327.288V325.056L173.6 325.256Z" fill="#FFBFBE"/>
<path d="M179.36 277.696L180.8 301.24C180.865 302.351 180.823 303.465 180.672 304.568L177.672 326.352C176.94 326.649 176.143 326.748 175.36 326.639C174.578 326.529 173.838 326.215 173.216 325.728L172.048 308.312C171.945 306.845 172.144 305.372 172.632 303.984L173.096 302.672L168.888 279.328L179.36 277.696Z" fill="#455A64"/>
<path d="M176.472 283.856C176.472 283.856 175.76 286.64 172.2 288.36L171.488 293.608L169.944 285.064L176.472 283.856Z" fill="#37474F"/>
<path d="M177.6 278.648C177.6 278.648 178.104 283.104 174.656 285.992C173.704 286.836 172.539 287.403 171.288 287.632L170.144 304.176L167.376 330.032C167.376 330.032 165.704 331.432 162.616 330.032L161.152 310.656C160.99 308.481 161.384 306.301 162.296 304.32L162.36 304.176C161.596 295.575 161.329 286.936 161.56 278.304L177.6 278.648Z" fill="#455A64"/>
<path d="M182.344 261.528L183.592 264.008C183.592 264.008 189.192 265.992 192.504 265.92L193.936 269.4C191.274 269.598 188.602 269.628 185.936 269.488C182.04 269.24 181.464 269.136 180.336 267.656C179.208 266.176 177.472 263.464 177.472 263.464L182.344 261.528Z" fill="#FFBFBE"/>
<path d="M192.504 265.92C192.806 265.713 193.087 265.477 193.344 265.216C193.589 264.907 193.892 264.65 194.237 264.459C194.581 264.268 194.96 264.148 195.352 264.104C196.288 263.872 196.464 263.136 196.952 263.384C197.44 263.632 196.584 265.288 195.576 265.568C196.301 265.646 197.034 265.547 197.712 265.28C198.56 264.848 199.896 264.264 200.44 264.48C200.984 264.696 201.056 267.64 199.104 268.76C197.152 269.88 193.128 269.352 193.128 269.352L192.504 265.92Z" fill="#FFBFBE"/>
<path d="M173.6 250.4C174.478 250.224 175.389 250.335 176.198 250.716C177.008 251.098 177.674 251.731 178.096 252.52L182.824 261.376C182.824 261.376 181.56 264.08 177.448 264.216L173.6 250.4Z" fill="#F4C621"/>
<path opacity="0.5" d="M173.6 250.4C174.478 250.224 175.389 250.335 176.198 250.716C177.008 251.098 177.674 251.731 178.096 252.52L182.824 261.376C182.824 261.376 181.56 264.08 177.448 264.216L173.6 250.4Z" fill="black"/>
<path d="M161.768 265.904L160.352 269.544L158.872 281.856L155.304 282.984C155.304 282.984 155 275.576 155.152 270.6C155.191 269.268 155.44 267.951 155.888 266.696L156.888 263.896L161.768 265.904Z" fill="#FFBFBE"/>
<path d="M166.928 251.624L162.44 252.912L161.6 265.464V278.304C161.6 278.304 164.392 280.704 171.024 280.704C174.071 280.642 177.012 279.576 179.392 277.672V261.528C179.392 260.08 179.968 251.784 173.656 250.328L172.576 250.544L166.928 251.624Z" fill="#F4C621"/>
<path opacity="0.3" d="M166.928 251.624L162.44 252.912L161.6 265.464V278.304C161.6 278.304 164.392 280.704 171.024 280.704C174.071 280.642 177.012 279.576 179.392 277.672V261.528C179.392 260.08 179.968 251.784 173.656 250.328L172.576 250.544L166.928 251.624Z" fill="black"/>
<path d="M164.976 252.184C164.976 252.184 166.48 253.672 165.4 257.832C164.514 260.982 163.445 264.078 162.2 267.104C161.076 267.316 159.915 267.219 158.841 266.823C157.767 266.427 156.821 265.747 156.104 264.856L159.304 256.056C159.574 255.291 160.023 254.602 160.613 254.045C161.202 253.489 161.917 253.081 162.696 252.856L164.976 252.184Z" fill="#F4C621"/>
<path opacity="0.5" d="M164.976 252.184C164.976 252.184 166.48 253.672 165.4 257.832C164.514 260.982 163.445 264.078 162.2 267.104C161.076 267.316 159.915 267.219 158.841 266.823C157.767 266.427 156.821 265.747 156.104 264.856L159.304 256.056C159.574 255.291 160.023 254.602 160.613 254.045C161.202 253.489 161.917 253.081 162.696 252.856L164.976 252.184Z" fill="black"/>
<path d="M158.872 281.856C159.06 282.169 159.277 282.464 159.52 282.736C160.102 283.274 160.452 284.017 160.496 284.808C160.664 285.76 161.392 285.984 161.112 286.472C160.832 286.96 159.232 285.984 159.024 284.96C158.896 285.678 158.946 286.417 159.168 287.112C159.544 287.984 160.048 289.36 159.824 289.888C159.6 290.416 156.624 290.296 155.64 288.288C154.656 286.28 155.432 282.296 155.432 282.296L158.872 281.856Z" fill="#FFBFBE"/>
<path d="M177.712 235.84C177.712 235.84 178.76 236.912 178.76 239.736C178.76 242.56 176.424 245 176.424 245V236L177.712 235.84Z" fill="#263238"/>
<path d="M177.712 236.576C178.163 236.312 178.544 235.942 178.823 235.5C179.102 235.057 179.269 234.553 179.312 234.032C179.456 232.232 178.4 232.88 178.04 233.032C177.68 233.184 176.584 233.584 176.584 233.584C176.584 233.584 177.584 232.544 176.992 231.848C176.552 231.336 174.416 232.952 171.728 233.272C169.04 233.592 166.448 233.568 165.688 235.976C165.688 235.976 163.088 236.496 163.712 241.056C164.336 245.616 166.112 248.256 166.912 248.208L177.712 236.576Z" fill="#263238"/>
<path d="M166.928 251.624L169.28 253.112C169.799 253.443 170.399 253.625 171.014 253.638C171.629 253.65 172.236 253.493 172.768 253.184V253.184C172.976 253.064 173.151 252.894 173.275 252.688C173.399 252.482 173.468 252.248 173.477 252.008C173.486 251.768 173.434 251.53 173.325 251.316C173.216 251.102 173.055 250.919 172.856 250.784L172.544 250.584V244.096H166.944L166.928 251.624Z" fill="#FFBFBE"/>
<path d="M172.544 250.584C171.326 250.415 170.185 249.887 169.268 249.068C168.351 248.249 167.698 247.175 167.392 245.984V244.096H172.544V250.584Z" fill="#F28F8F"/>
<path d="M173.856 234.888C173.856 234.888 179.2 235.088 178.232 243.688C177.784 247.736 177.432 249.968 173.984 249.968C170.536 249.968 165.416 247.36 165.744 240.416C166.072 233.472 173.856 234.888 173.856 234.888Z" fill="#FFBFBE"/>
<path d="M174.392 241.984V245L176.16 244.456L174.392 241.984Z" fill="#F28F8F"/>
<path d="M171.816 242.504C171.816 242.626 171.852 242.746 171.92 242.847C171.988 242.949 172.085 243.027 172.198 243.074C172.311 243.12 172.435 243.132 172.555 243.108C172.675 243.083 172.785 243.024 172.87 242.937C172.956 242.85 173.014 242.739 173.037 242.619C173.06 242.499 173.047 242.375 172.999 242.263C172.951 242.15 172.871 242.055 172.768 241.988C172.666 241.921 172.546 241.886 172.424 241.888C172.262 241.89 172.107 241.956 171.993 242.071C171.88 242.187 171.816 242.342 171.816 242.504V242.504Z" fill="#263238"/>
<path d="M175.856 242.072C175.856 242.194 175.892 242.313 175.96 242.414C176.027 242.516 176.124 242.594 176.236 242.641C176.349 242.688 176.473 242.7 176.592 242.676C176.712 242.652 176.821 242.594 176.908 242.508C176.994 242.421 177.052 242.312 177.076 242.192C177.1 242.073 177.088 241.949 177.041 241.836C176.994 241.724 176.915 241.627 176.814 241.56C176.713 241.492 176.594 241.456 176.472 241.456C176.309 241.456 176.152 241.521 176.036 241.636C175.921 241.752 175.856 241.909 175.856 242.072Z" fill="#263238"/>
<path d="M177.224 240.8L176 240.08C176 240.08 176.464 239.6 176.928 239.888C177.064 239.992 177.166 240.135 177.219 240.298C177.272 240.461 177.274 240.636 177.224 240.8Z" fill="#263238"/>
<path d="M172.104 240.584L171.024 241.472C171.024 241.472 170.728 240.872 171.16 240.536C171.302 240.443 171.47 240.397 171.64 240.406C171.81 240.414 171.972 240.477 172.104 240.584Z" fill="#263238"/>
<path d="M174.112 246.4C174.112 246.4 171.92 245.84 172.456 245.96C172.456 245.96 172.344 246.832 173.072 247C173.288 247.036 173.51 246.996 173.7 246.887C173.889 246.777 174.035 246.605 174.112 246.4V246.4Z" fill="#F28F8F"/>
<path d="M177.712 236.576C177.712 236.576 176.008 238.176 171.632 237.848C167.256 237.52 167.632 238.728 168.12 240.776C168.448 242.184 168.48 245.928 167.392 244.096H165.224V239.768C165.224 239.042 165.367 238.323 165.645 237.653C165.922 236.982 166.33 236.372 166.843 235.859C167.356 235.346 167.966 234.939 168.636 234.661C169.307 234.383 170.026 234.24 170.752 234.24H175.2L177.712 236.576Z" fill="#263238"/>
<path d="M167.44 243.872C167.44 243.872 167.224 241.8 165.784 241.76C165.53 241.76 165.279 241.814 165.048 241.919C164.817 242.024 164.611 242.177 164.443 242.368C164.276 242.559 164.151 242.783 164.078 243.026C164.004 243.269 163.983 243.524 164.016 243.776C164.073 244.614 164.454 245.397 165.078 245.96C165.702 246.523 166.52 246.821 167.36 246.792L167.44 243.872Z" fill="#FFBFBE"/>
<path d="M165.712 236C165.712 236 164.608 234.528 165.32 233.92C166.032 233.312 166.36 235.832 166.36 235.832L165.712 236Z" fill="#263238"/>
<path d="M165.808 236.464C165.808 236.464 163.968 236.464 163.928 235.504C163.888 234.544 166.072 235.848 166.072 235.848L165.808 236.464Z" fill="#263238"/>
<path d="M281.824 82.4L287.816 85.808V83.688C287.816 83.536 287.816 83.384 287.816 83.232C287.816 83.08 287.816 82.944 287.816 82.808V82.76C288.032 79.944 290.16 78.872 292.752 80.36C293.928 81.081 294.935 82.0469 295.704 83.192C296.288 79.376 299.408 78 303.168 80.176C307.352 82.576 310.736 88.456 310.736 93.288V97.824C310.736 98.184 310.829 98.5379 311.008 98.8507C311.186 99.1635 311.442 99.4245 311.752 99.608L315.272 101.672C316.037 102.12 316.671 102.76 317.112 103.53C317.552 104.299 317.784 105.17 317.784 106.056C317.784 106.423 317.688 106.784 317.505 107.102C317.321 107.42 317.057 107.684 316.739 107.867C316.421 108.05 316.06 108.147 315.693 108.146C315.326 108.146 314.966 108.048 314.648 107.864L281.904 88.952C281.036 88.449 280.315 87.7268 279.814 86.8578C279.313 85.9887 279.049 85.0032 279.048 84C279.048 83.6751 279.133 83.3558 279.296 83.0743C279.458 82.7929 279.692 82.5593 279.973 82.397C280.255 82.2347 280.574 82.1496 280.899 82.1501C281.224 82.1506 281.543 82.2368 281.824 82.4V82.4Z" fill="#E6E6E6"/>
<path d="M251.016 43.928L255.448 46.448V44.848C255.448 44.736 255.448 44.624 255.448 44.52C255.448 44.416 255.448 44.304 255.448 44.2C255.608 42.12 257.184 41.32 259.104 42.432C259.977 42.962 260.723 43.6776 261.288 44.528C261.72 41.704 264.024 40.688 266.808 42.296C268.439 43.3568 269.797 44.7881 270.77 46.473C271.743 48.158 272.304 50.049 272.408 51.992V55.352C272.409 55.6171 272.478 55.8775 272.61 56.1075C272.742 56.3376 272.932 56.5293 273.16 56.664L275.768 58.192C276.329 58.5279 276.793 59.004 277.114 59.5735C277.435 60.1429 277.603 60.7862 277.6 61.44C277.6 61.7115 277.529 61.9783 277.393 62.2134C277.257 62.4485 277.062 62.6437 276.826 62.7792C276.591 62.9147 276.324 62.9857 276.053 62.9852C275.781 62.9846 275.515 62.9125 275.28 62.776L251.088 48.8C250.443 48.4298 249.908 47.8961 249.536 47.2527C249.164 46.6094 248.968 45.8792 248.968 45.136C248.964 44.8945 249.025 44.6563 249.143 44.4456C249.261 44.235 249.433 44.0593 249.641 43.9366C249.849 43.8139 250.086 43.7485 250.327 43.7469C250.569 43.7454 250.806 43.8079 251.016 43.928Z" fill="#E6E6E6"/>
<path d="M102.136 75.648L96.144 79.056V76.936C96.144 76.784 96.144 76.632 96.144 76.488C96.144 76.344 96.144 76.192 96.144 76.056V76C95.928 73.192 93.8 72.112 91.2 73.6C90.026 74.3242 89.0219 75.2928 88.256 76.44C87.664 72.624 84.552 71.24 80.792 73.416C76.608 75.816 73.224 81.696 73.224 86.528V91.072C73.2244 91.431 73.1309 91.7838 72.9526 92.0954C72.7744 92.4069 72.5177 92.6664 72.208 92.848L68.68 94.912C67.9173 95.3617 67.2851 96.0026 66.8459 96.7715C66.4067 97.5404 66.1759 98.4106 66.176 99.296C66.1767 99.6628 66.2736 100.023 66.4571 100.341C66.6406 100.658 66.9042 100.922 67.2217 101.106C67.5391 101.29 67.8992 101.387 68.2661 101.388C68.6329 101.389 68.9935 101.294 69.312 101.112L102.056 82.192C102.926 81.6908 103.648 80.9691 104.149 80.0996C104.651 79.2301 104.914 78.2437 104.912 77.24C104.911 76.9157 104.825 76.5975 104.662 76.3171C104.499 76.0368 104.265 75.8043 103.983 75.643C103.702 75.4817 103.383 75.3972 103.059 75.3981C102.735 75.399 102.416 75.4852 102.136 75.648V75.648Z" fill="#E6E6E6"/>
<path d="M26.8 42.77V23.3C26.8 22.92 26.97 22.62 27.31 22.4C27.65 22.18 28.05 22.07 28.51 22.07H38.98C39.38 22.07 39.68 22.24 39.88 22.58C40.08 22.9 40.18 23.29 40.18 23.75C40.18 24.23 40.07 24.64 39.85 24.98C39.65 25.32 39.36 25.49 38.98 25.49H30.7V31.49H35.29C35.67 31.49 35.96 31.64 36.16 31.94C36.38 32.24 36.49 32.61 36.49 33.05C36.49 33.45 36.38 33.8 36.16 34.1C35.96 34.4 35.67 34.55 35.29 34.55H30.7V42.77C30.7 43.15 30.5 43.45 30.1 43.67C29.72 43.89 29.27 44 28.75 44C28.21 44 27.75 43.89 27.37 43.67C26.99 43.45 26.8 43.15 26.8 42.77ZM41.5244 24.68C41.5244 24.16 41.7244 23.72 42.1244 23.36C42.5444 22.98 43.0544 22.79 43.6544 22.79C44.2344 22.79 44.7244 22.98 45.1244 23.36C45.5444 23.72 45.7544 24.16 45.7544 24.68C45.7544 25.18 45.5444 25.62 45.1244 26C44.7244 26.38 44.2344 26.57 43.6544 26.57C43.0544 26.57 42.5444 26.38 42.1244 26C41.7244 25.62 41.5244 25.18 41.5244 24.68ZM41.7344 42.77V30.95C41.7344 30.59 41.9144 30.3 42.2744 30.08C42.6344 29.86 43.0944 29.75 43.6544 29.75C44.2144 29.75 44.6744 29.86 45.0344 30.08C45.4144 30.3 45.6044 30.59 45.6044 30.95V42.77C45.6044 43.07 45.4044 43.35 45.0044 43.61C44.6244 43.87 44.1744 44 43.6544 44C43.1144 44 42.6544 43.88 42.2744 43.64C41.9144 43.38 41.7344 43.09 41.7344 42.77ZM48.5898 42.77V30.95C48.5898 30.59 48.7598 30.3 49.0998 30.08C49.4598 29.86 49.9298 29.75 50.5098 29.75C50.9898 29.75 51.3898 29.86 51.7098 30.08C52.0498 30.3 52.2198 30.59 52.2198 30.95V31.85C52.5398 31.21 53.0498 30.67 53.7498 30.23C54.4698 29.79 55.2998 29.57 56.2398 29.57C57.6198 29.57 58.8198 30.17 59.8398 31.37C60.8798 32.57 61.3998 34 61.3998 35.66V42.77C61.3998 43.15 61.1998 43.45 60.7998 43.67C60.4198 43.89 59.9698 44 59.4498 44C58.9498 44 58.4998 43.89 58.0998 43.67C57.7198 43.45 57.5298 43.15 57.5298 42.77V35.66C57.5298 34.96 57.2698 34.34 56.7498 33.8C56.2298 33.24 55.6198 32.96 54.9198 32.96C54.2598 32.96 53.6798 33.21 53.1798 33.71C52.6998 34.21 52.4598 34.86 52.4598 35.66V42.77C52.4598 43.07 52.2598 43.35 51.8598 43.61C51.4798 43.87 51.0298 44 50.5098 44C49.9698 44 49.5098 43.88 49.1298 43.64C48.7698 43.38 48.5898 43.09 48.5898 42.77ZM63.783 38.12V35.66C63.783 34 64.303 32.57 65.343 31.37C66.403 30.17 67.663 29.57 69.123 29.57C70.003 29.57 70.773 29.79 71.433 30.23C72.113 30.67 72.633 31.21 72.993 31.85V22.64C72.993 22.28 73.173 21.99 73.533 21.77C73.913 21.55 74.383 21.44 74.943 21.44C75.503 21.44 75.963 21.55 76.323 21.77C76.683 21.99 76.863 22.28 76.863 22.64V42.77C76.863 43.09 76.673 43.38 76.293 43.64C75.933 43.88 75.483 44 74.943 44C74.483 44 74.073 43.87 73.713 43.61C73.373 43.35 73.203 43.07 73.203 42.77V41.9C72.883 42.54 72.333 43.1 71.553 43.58C70.793 44.04 69.953 44.27 69.033 44.27C67.653 44.27 66.433 43.65 65.373 42.41C64.313 41.17 63.783 39.74 63.783 38.12ZM67.653 38.12C67.653 38.82 67.913 39.46 68.433 40.04C68.953 40.6 69.563 40.88 70.263 40.88C70.963 40.88 71.593 40.61 72.153 40.07C72.713 39.51 72.993 39.04 72.993 38.66V35.66C72.993 34.86 72.713 34.21 72.153 33.71C71.613 33.21 70.993 32.96 70.293 32.96C69.573 32.96 68.953 33.24 68.433 33.8C67.913 34.34 67.653 34.96 67.653 35.66V38.12ZM84.6548 42.38C84.6548 42.34 84.6748 42.24 84.7148 42.08L90.5048 23.21C90.6248 22.79 90.9148 22.47 91.3748 22.25C91.8548 22.01 92.3948 21.89 92.9948 21.89C93.5948 21.89 94.1348 22.01 94.6148 22.25C95.0948 22.47 95.3948 22.79 95.5148 23.21L101.305 42.08C101.345 42.24 101.365 42.34 101.365 42.38C101.365 42.82 101.095 43.2 100.555 43.52C100.015 43.84 99.4648 44 98.9048 44C98.1648 44 97.7248 43.74 97.5848 43.22L96.4448 39.23H89.5748L88.4348 43.22C88.2948 43.74 87.8548 44 87.1148 44C86.5348 44 85.9748 43.85 85.4348 43.55C84.9148 43.23 84.6548 42.84 84.6548 42.38ZM90.3848 36.17H95.6048L92.9948 26.96L90.3848 36.17ZM102.091 46.4C102.091 45.02 102.821 43.96 104.281 43.22C103.441 42.82 103.021 42.18 103.021 41.3C103.021 40.42 103.531 39.64 104.551 38.96C103.311 38 102.691 36.73 102.691 35.15V34.52C102.691 33.06 103.231 31.87 104.311 30.95C105.391 30.03 106.801 29.57 108.541 29.57C109.861 29.57 111.001 29.86 111.961 30.44C112.561 29.08 113.171 28.4 113.791 28.4C114.251 28.4 114.621 28.53 114.901 28.79C115.181 29.05 115.321 29.32 115.321 29.6C115.321 29.92 115.161 30.2 114.841 30.44C114.101 30.96 113.631 31.34 113.431 31.58C114.131 32.4 114.481 33.38 114.481 34.52V35.15C114.481 36.59 113.921 37.79 112.801 38.75C111.701 39.69 110.281 40.16 108.541 40.16C107.821 40.16 107.171 40.07 106.591 39.89C106.351 40.09 106.231 40.29 106.231 40.49C106.231 40.83 106.541 41.08 107.161 41.24C107.781 41.4 108.531 41.54 109.411 41.66C110.311 41.76 111.201 41.92 112.081 42.14C112.961 42.34 113.711 42.76 114.331 43.4C114.951 44.04 115.261 44.88 115.261 45.92C115.261 47.48 114.631 48.65 113.371 49.43C112.111 50.23 110.561 50.63 108.721 50.63C106.861 50.63 105.291 50.25 104.011 49.49C102.731 48.73 102.091 47.7 102.091 46.4ZM105.751 46.01C105.751 46.67 106.031 47.19 106.591 47.57C107.151 47.95 107.841 48.14 108.661 48.14C109.481 48.14 110.161 47.95 110.701 47.57C111.241 47.19 111.511 46.68 111.511 46.04C111.511 45.76 111.461 45.51 111.361 45.29C111.261 45.09 111.081 44.92 110.821 44.78C110.581 44.64 110.361 44.52 110.161 44.42C109.981 44.34 109.681 44.26 109.261 44.18C108.841 44.12 108.531 44.08 108.331 44.06C108.151 44.04 107.831 44 107.371 43.94C106.291 44.44 105.751 45.13 105.751 46.01ZM106.441 35.12C106.441 35.9 106.631 36.55 107.011 37.07C107.391 37.57 107.921 37.82 108.601 37.82C109.261 37.82 109.781 37.58 110.161 37.1C110.541 36.6 110.731 35.95 110.731 35.15V34.52C110.731 33.78 110.531 33.16 110.131 32.66C109.751 32.16 109.231 31.91 108.571 31.91C107.911 31.91 107.391 32.16 107.011 32.66C106.631 33.14 106.441 33.76 106.441 34.52V35.12ZM116.692 38.12V35.57C116.692 33.93 117.332 32.52 118.612 31.34C119.892 30.16 121.442 29.57 123.262 29.57C124.962 29.57 126.412 30.11 127.612 31.19C128.832 32.25 129.442 33.59 129.442 35.21C129.442 35.81 129.362 36.31 129.202 36.71C129.062 37.09 128.832 37.36 128.512 37.52C128.212 37.68 127.932 37.78 127.672 37.82C127.412 37.86 127.072 37.88 126.652 37.88H120.562V38.33C120.562 39.19 120.882 39.89 121.522 40.43C122.162 40.95 123.012 41.21 124.072 41.21C124.832 41.21 125.582 41.02 126.322 40.64C127.062 40.26 127.542 40.07 127.762 40.07C128.182 40.07 128.532 40.27 128.812 40.67C129.092 41.05 129.232 41.42 129.232 41.78C129.232 42.34 128.722 42.9 127.702 43.46C126.702 44 125.452 44.27 123.952 44.27C121.812 44.27 120.062 43.71 118.702 42.59C117.362 41.45 116.692 39.96 116.692 38.12ZM120.562 35.6H124.942C125.262 35.6 125.482 35.55 125.602 35.45C125.742 35.33 125.812 35.11 125.812 34.79C125.812 34.09 125.552 33.52 125.032 33.08C124.532 32.64 123.912 32.42 123.172 32.42C122.472 32.42 121.862 32.64 121.342 33.08C120.822 33.5 120.562 34.06 120.562 34.76V35.6ZM131.764 42.77V30.95C131.764 30.59 131.934 30.3 132.274 30.08C132.634 29.86 133.104 29.75 133.684 29.75C134.164 29.75 134.564 29.86 134.884 30.08C135.224 30.3 135.394 30.59 135.394 30.95V31.85C135.714 31.21 136.224 30.67 136.924 30.23C137.644 29.79 138.474 29.57 139.414 29.57C140.794 29.57 141.994 30.17 143.014 31.37C144.054 32.57 144.574 34 144.574 35.66V42.77C144.574 43.15 144.374 43.45 143.974 43.67C143.594 43.89 143.144 44 142.624 44C142.124 44 141.674 43.89 141.274 43.67C140.894 43.45 140.704 43.15 140.704 42.77V35.66C140.704 34.96 140.444 34.34 139.924 33.8C139.404 33.24 138.794 32.96 138.094 32.96C137.434 32.96 136.854 33.21 136.354 33.71C135.874 34.21 135.634 34.86 135.634 35.66V42.77C135.634 43.07 135.434 43.35 135.034 43.61C134.654 43.87 134.204 44 133.684 44C133.144 44 132.684 43.88 132.304 43.64C131.944 43.38 131.764 43.09 131.764 42.77ZM147.437 39.14V24.59C147.437 24.25 147.637 23.97 148.037 23.75C148.437 23.51 148.877 23.39 149.357 23.39C149.877 23.39 150.327 23.51 150.707 23.75C151.107 23.97 151.307 24.25 151.307 24.59V29.75H154.847C155.147 29.75 155.387 29.89 155.567 30.17C155.747 30.45 155.837 30.78 155.837 31.16C155.837 31.54 155.747 31.87 155.567 32.15C155.387 32.43 155.147 32.57 154.847 32.57H151.307V39.14C151.307 39.72 151.427 40.13 151.667 40.37C151.927 40.61 152.367 40.73 152.987 40.73H154.157C154.677 40.73 155.077 40.89 155.357 41.21C155.657 41.53 155.807 41.91 155.807 42.35C155.807 42.81 155.657 43.2 155.357 43.52C155.077 43.84 154.677 44 154.157 44H152.987C149.287 44 147.437 42.38 147.437 39.14ZM157.057 41.69C157.057 41.33 157.187 40.96 157.447 40.58C157.707 40.18 158.007 39.98 158.347 39.98C158.567 39.98 158.837 40.09 159.157 40.31C159.497 40.53 159.937 40.76 160.477 41C161.017 41.22 161.657 41.33 162.397 41.33C163.857 41.33 164.587 40.9 164.587 40.04C164.587 39.56 164.337 39.18 163.837 38.9C163.357 38.62 162.767 38.39 162.067 38.21C161.387 38.03 160.697 37.82 159.997 37.58C159.297 37.32 158.697 36.9 158.197 36.32C157.717 35.72 157.477 34.96 157.477 34.04C157.477 32.82 157.907 31.77 158.767 30.89C159.627 30.01 160.987 29.57 162.847 29.57C164.087 29.57 165.187 29.76 166.147 30.14C167.127 30.52 167.617 30.98 167.617 31.52C167.617 31.86 167.477 32.26 167.197 32.72C166.937 33.16 166.607 33.38 166.207 33.38C166.047 33.38 165.607 33.24 164.887 32.96C164.187 32.66 163.527 32.51 162.907 32.51C162.227 32.51 161.707 32.65 161.347 32.93C160.987 33.21 160.807 33.52 160.807 33.86C160.807 34.2 160.987 34.48 161.347 34.7C161.707 34.92 162.147 35.09 162.667 35.21C163.207 35.33 163.787 35.5 164.407 35.72C165.027 35.92 165.597 36.16 166.117 36.44C166.657 36.72 167.107 37.16 167.467 37.76C167.827 38.34 168.007 39.05 168.007 39.89C168.007 41.25 167.517 42.32 166.537 43.1C165.577 43.88 164.227 44.27 162.487 44.27C160.987 44.27 159.707 44.01 158.647 43.49C157.587 42.97 157.057 42.37 157.057 41.69Z" fill="#696969"/>
<rect x="0.5" y="0.5" width="399" height="399" stroke="white"/>
</svg>
