<svg width="400" height="400" viewBox="0 0 400 400" fill="none" xmlns="http://www.w3.org/2000/svg">
<path d="M360.296 183.656H332.632V217.256H325.512V198.232H290.328V228.352H285.672V157.664H255.096V177.072H239.424V201.208H234.68V186.024H206.88V231.336H198.752V194.496H173.328V166.528H156.04V150.6H136.048V221.256H129.328V191.768H96.3841V233.976H91.8321V199.528H58.4241V168.488H39.7041V313.048H360.296V183.656Z" fill="#EBEBEB"/>
<path d="M352.224 194.304H356.904V187.88H352.224V194.304Z" fill="white"/>
<path d="M344.112 194.304H348.792V187.88H344.112V194.304Z" fill="white"/>
<path d="M335.992 194.304H340.672V187.88H335.992V194.304Z" fill="white"/>
<path d="M352.224 203.968H356.904V197.544H352.224V203.968Z" fill="white"/>
<path d="M344.112 203.968H348.792V197.544H344.112V203.968Z" fill="white"/>
<path d="M335.992 203.968H340.672V197.544H335.992V203.968Z" fill="white"/>
<path d="M352.224 213.632H356.904V207.208H352.224V213.632Z" fill="white"/>
<path d="M344.112 213.632H348.792V207.208H344.112V213.632Z" fill="white"/>
<path d="M335.992 213.632H340.672V207.208H335.992V213.632Z" fill="white"/>
<path d="M352.224 223.304H356.904V216.88H352.224V223.304Z" fill="white"/>
<path d="M344.112 223.304H348.792V216.88H344.112V223.304Z" fill="white"/>
<path d="M335.992 223.304H340.672V216.88H335.992V223.304Z" fill="white"/>
<path d="M190.168 204.456H194.848V199.096H190.168V204.456Z" fill="white"/>
<path d="M182.056 204.456H186.736V199.096H182.056V204.456Z" fill="white"/>
<path d="M173.936 204.456H178.616V199.096H173.936V204.456Z" fill="white"/>
<path d="M190.168 212.512H194.848V207.152H190.168V212.512Z" fill="white"/>
<path d="M182.056 212.512H186.736V207.152H182.056V212.512Z" fill="white"/>
<path d="M173.936 212.512H178.616V207.152H173.936V212.512Z" fill="white"/>
<path d="M190.168 220.576H194.848V215.216H190.168V220.576Z" fill="white"/>
<path d="M182.056 220.576H186.736V215.216H182.056V220.576Z" fill="white"/>
<path d="M173.936 220.576H178.616V215.216H173.936V220.576Z" fill="white"/>
<path d="M190.168 228.64H194.848V223.28H190.168V228.64Z" fill="white"/>
<path d="M182.056 228.64H186.736V223.28H182.056V228.64Z" fill="white"/>
<path d="M173.936 228.64H178.616V223.28H173.936V228.64Z" fill="white"/>
<path d="M190.168 236.904H194.848V231.544H190.168V236.904Z" fill="white"/>
<path d="M182.056 236.904H186.736V231.544H182.056V236.904Z" fill="white"/>
<path d="M173.936 236.904H178.616V231.544H173.936V236.904Z" fill="white"/>
<path d="M190.168 245.168H194.848V239.808H190.168V245.168Z" fill="white"/>
<path d="M182.056 245.168H186.736V239.808H182.056V245.168Z" fill="white"/>
<path d="M173.936 245.168H178.616V239.808H173.936V245.168Z" fill="white"/>
<path d="M190.168 253.424H194.848V248.064H190.168V253.424Z" fill="white"/>
<path d="M182.056 253.424H186.736V248.064H182.056V253.424Z" fill="white"/>
<path d="M173.936 253.424H178.616V248.064H173.936V253.424Z" fill="white"/>
<path d="M190.168 261.688H194.848V256.328H190.168V261.688Z" fill="white"/>
<path d="M182.056 261.688H186.736V256.328H182.056V261.688Z" fill="white"/>
<path d="M173.936 261.688H178.616V256.328H173.936V261.688Z" fill="white"/>
<path d="M294.568 206.368H321.512V202.352H294.568V206.368Z" fill="white"/>
<path d="M294.568 214.168H321.512V210.152H294.568V214.168Z" fill="white"/>
<path d="M294.568 221.96H321.512V217.944H294.568V221.96Z" fill="white"/>
<path d="M294.568 229.752H321.512V225.736H294.568V229.752Z" fill="white"/>
<path d="M294.568 237.552H321.512V233.536H294.568V237.552Z" fill="white"/>
<path d="M294.568 245.344H321.512V241.328H294.568V245.344Z" fill="white"/>
<path d="M294.568 253.144H321.512V249.128H294.568V253.144Z" fill="white"/>
<path d="M294.568 260.928H321.512V256.912H294.568V260.928Z" fill="white"/>
<path d="M100.56 199.528H125.336V195.512H100.56V199.528Z" fill="white"/>
<path d="M100.56 207.328H125.336V203.312H100.56V207.328Z" fill="white"/>
<path d="M100.56 215.128H125.336V211.112H100.56V215.128Z" fill="white"/>
<path d="M100.56 222.92H125.336V218.904H100.56V222.92Z" fill="white"/>
<path d="M100.56 230.712H125.336V226.696H100.56V230.712Z" fill="white"/>
<path d="M100.56 238.512H125.336V234.496H100.56V238.512Z" fill="white"/>
<path d="M100.56 246.304H125.336V242.288H100.56V246.304Z" fill="white"/>
<path d="M100.56 254.104H125.336V250.088H100.56V254.104Z" fill="white"/>
<path d="M100.56 261.504H125.336V257.488H100.56V261.504Z" fill="white"/>
<path d="M100.56 268.912H125.336V264.896H100.56V268.912Z" fill="white"/>
<path d="M100.56 276.32H125.336V272.304H100.56V276.32Z" fill="white"/>
<path d="M100.56 283.72H125.336V279.704H100.56V283.72Z" fill="white"/>
<path d="M100.56 291.128H125.336V287.112H100.56V291.128Z" fill="white"/>
<path d="M60.5122 208.944H86.6802V204.928H60.5122V208.944Z" fill="white"/>
<path d="M60.5122 216.744H86.6802V212.728H60.5122V216.744Z" fill="white"/>
<path d="M60.5122 224.544H86.6802V220.528H60.5122V224.544Z" fill="white"/>
<path d="M60.5122 232.336H86.6802V228.32H60.5122V232.336Z" fill="white"/>
<path d="M60.5122 240.128H86.6802V236.112H60.5122V240.128Z" fill="white"/>
<path d="M60.5122 247.928H86.6802V243.912H60.5122V247.928Z" fill="white"/>
<path d="M60.5122 255.72H86.6802V251.704H60.5122V255.72Z" fill="white"/>
<path d="M60.5122 263.52H86.6802V259.504H60.5122V263.52Z" fill="white"/>
<path d="M60.5122 270.496H86.6802V266.48H60.5122V270.496Z" fill="white"/>
<path d="M60.5122 277.472H86.6802V273.456H60.5122V277.472Z" fill="white"/>
<path d="M60.5122 284.448H86.6802V280.432H60.5122V284.448Z" fill="white"/>
<path d="M218.224 193.544H226.544V189.664H218.224V193.544Z" fill="white"/>
<path d="M218.224 201.072H226.544V197.192H218.224V201.072Z" fill="white"/>
<path d="M218.224 208.6H226.544V204.72H218.224V208.6Z" fill="white"/>
<path d="M218.224 216.128H226.544V212.248H218.224V216.128Z" fill="white"/>
<path d="M218.224 223.656H226.544V219.776H218.224V223.656Z" fill="white"/>
<path d="M218.224 231.184H226.544V227.304H218.224V231.184Z" fill="white"/>
<path d="M218.224 238.712H226.544V234.832H218.224V238.712Z" fill="white"/>
<path d="M218.224 246.24H226.544V242.36H218.224V246.24Z" fill="white"/>
<path d="M206.904 193.544H215.224V189.664H206.904V193.544Z" fill="white"/>
<path d="M206.904 201.072H215.224V197.192H206.904V201.072Z" fill="white"/>
<path d="M206.904 208.6H215.224V204.72H206.904V208.6Z" fill="white"/>
<path d="M206.904 216.128H215.224V212.248H206.904V216.128Z" fill="white"/>
<path d="M206.904 223.656H215.224V219.776H206.904V223.656Z" fill="white"/>
<path d="M206.904 231.184H215.224V227.304H206.904V231.184Z" fill="white"/>
<path d="M206.904 238.712H215.224V234.832H206.904V238.712Z" fill="white"/>
<path d="M206.904 246.24H215.224V242.36H206.904V246.24Z" fill="white"/>
<path d="M272.36 167.856H281.032V161.736H272.36V167.856Z" fill="white"/>
<path d="M259.44 167.856H268.112V161.736H259.44V167.856Z" fill="white"/>
<path d="M272.36 176.84H281.032V170.72H272.36V176.84Z" fill="white"/>
<path d="M259.44 176.84H268.112V170.72H259.44V176.84Z" fill="white"/>
<path d="M272.36 185.832H281.032V179.712H272.36V185.832Z" fill="white"/>
<path d="M259.44 185.832H268.112V179.712H259.44V185.832Z" fill="white"/>
<path d="M272.36 194.816H281.032V188.696H272.36V194.816Z" fill="white"/>
<path d="M259.44 194.816H268.112V188.696H259.44V194.816Z" fill="white"/>
<path d="M272.36 203.808H281.032V197.688H272.36V203.808Z" fill="white"/>
<path d="M259.44 203.808H268.112V197.688H259.44V203.808Z" fill="white"/>
<path d="M272.36 212.8H281.032V206.68H272.36V212.8Z" fill="white"/>
<path d="M259.44 212.8H268.112V206.68H259.44V212.8Z" fill="white"/>
<path d="M272.36 221.784H281.032V215.664H272.36V221.784Z" fill="white"/>
<path d="M259.44 221.784H268.112V215.664H259.44V221.784Z" fill="white"/>
<path d="M272.36 230.776H281.032V224.656H272.36V230.776Z" fill="white"/>
<path d="M259.44 230.776H268.112V224.656H259.44V230.776Z" fill="white"/>
<path d="M243.416 185.832H252.088V179.712H243.416V185.832Z" fill="white"/>
<path d="M243.416 194.816H252.088V188.696H243.416V194.816Z" fill="white"/>
<path d="M243.416 203.808H252.088V197.688H243.416V203.808Z" fill="white"/>
<path d="M243.416 212.8H252.088V206.68H243.416V212.8Z" fill="white"/>
<path d="M243.416 221.784H252.088V215.664H243.416V221.784Z" fill="white"/>
<path d="M243.416 230.776H252.088V224.656H243.416V230.776Z" fill="white"/>
<path d="M272.36 239.656H281.032V233.536H272.36V239.656Z" fill="white"/>
<path d="M259.44 239.656H268.112V233.536H259.44V239.656Z" fill="white"/>
<path d="M243.416 239.656H252.088V233.536H243.416V239.656Z" fill="white"/>
<path d="M272.36 248.528H281.032V242.408H272.36V248.528Z" fill="white"/>
<path d="M259.44 248.528H268.112V242.408H259.44V248.528Z" fill="white"/>
<path d="M243.416 248.528H252.088V242.408H243.416V248.528Z" fill="white"/>
<path d="M272.36 257.408H281.032V251.288H272.36V257.408Z" fill="white"/>
<path d="M259.44 257.408H268.112V251.288H259.44V257.408Z" fill="white"/>
<path d="M243.416 257.408H252.088V251.288H243.416V257.408Z" fill="white"/>
<path d="M272.36 266.288H281.032V260.168H272.36V266.288Z" fill="white"/>
<path d="M259.44 266.288H268.112V260.168H259.44V266.288Z" fill="white"/>
<path d="M243.416 266.288H252.088V260.168H243.416V266.288Z" fill="white"/>
<path d="M272.36 275.168H281.032V269.048H272.36V275.168Z" fill="white"/>
<path d="M259.44 275.168H268.112V269.048H259.44V275.168Z" fill="white"/>
<path d="M243.416 275.168H252.088V269.048H243.416V275.168Z" fill="white"/>
<path d="M165.12 175.824H169.8V170.464H165.12V175.824Z" fill="white"/>
<path d="M157.008 175.824H161.688V170.464H157.008V175.824Z" fill="white"/>
<path d="M165.12 183.888H169.8V178.528H165.12V183.888Z" fill="white"/>
<path d="M157.008 183.888H161.688V178.528H157.008V183.888Z" fill="white"/>
<path d="M165.12 191.952H169.8V186.592H165.12V191.952Z" fill="white"/>
<path d="M157.008 191.952H161.688V186.592H157.008V191.952Z" fill="white"/>
<path d="M165.12 200.024H169.8V194.664H165.12V200.024Z" fill="white"/>
<path d="M157.008 200.024H161.688V194.664H157.008V200.024Z" fill="white"/>
<path d="M165.12 208.288H169.8V202.928H165.12V208.288Z" fill="white"/>
<path d="M157.008 208.288H161.688V202.928H157.008V208.288Z" fill="white"/>
<path d="M165.12 216.544H169.8V211.184H165.12V216.544Z" fill="white"/>
<path d="M157.008 216.544H161.688V211.184H157.008V216.544Z" fill="white"/>
<path d="M165.12 224.808H169.8V219.448H165.12V224.808Z" fill="white"/>
<path d="M157.008 224.808H161.688V219.448H157.008V224.808Z" fill="white"/>
<path d="M165.12 233.072H169.8V227.712H165.12V233.072Z" fill="white"/>
<path d="M157.008 233.072H161.688V227.712H157.008V233.072Z" fill="white"/>
<path d="M165.12 241.424H169.8V236.064H165.12V241.424Z" fill="white"/>
<path d="M157.008 241.424H161.688V236.064H157.008V241.424Z" fill="white"/>
<path d="M165.12 249.768H169.8V244.408H165.12V249.768Z" fill="white"/>
<path d="M157.008 249.768H161.688V244.408H157.008V249.768Z" fill="white"/>
<path d="M165.12 258.12H169.8V252.76H165.12V258.12Z" fill="white"/>
<path d="M157.008 258.12H161.688V252.76H157.008V258.12Z" fill="white"/>
<path d="M165.12 266.48H169.8V261.12H165.12V266.48Z" fill="white"/>
<path d="M157.008 266.48H161.688V261.12H157.008V266.48Z" fill="white"/>
<path d="M50.808 177.648H55.488V171.336H50.808V177.648Z" fill="white"/>
<path d="M42.704 177.648H47.384V171.336H42.704V177.648Z" fill="white"/>
<path d="M50.808 187.152H55.488V180.84H50.808V187.152Z" fill="white"/>
<path d="M42.704 187.152H47.384V180.84H42.704V187.152Z" fill="white"/>
<path d="M50.808 196.648H55.488V190.336H50.808V196.648Z" fill="white"/>
<path d="M42.704 196.648H47.384V190.336H42.704V196.648Z" fill="white"/>
<path d="M50.808 206.152H55.488V199.84H50.808V206.152Z" fill="white"/>
<path d="M42.704 206.152H47.384V199.84H42.704V206.152Z" fill="white"/>
<path d="M50.808 215.888H55.488V209.576H50.808V215.888Z" fill="white"/>
<path d="M42.704 215.888H47.384V209.576H42.704V215.888Z" fill="white"/>
<path d="M50.808 225.624H55.488V219.312H50.808V225.624Z" fill="white"/>
<path d="M42.704 225.624H47.384V219.312H42.704V225.624Z" fill="white"/>
<path d="M50.808 235.352H55.488V229.04H50.808V235.352Z" fill="white"/>
<path d="M42.704 235.352H47.384V229.04H42.704V235.352Z" fill="white"/>
<path d="M50.808 245.096H55.488V238.784H50.808V245.096Z" fill="white"/>
<path d="M42.704 245.096H47.384V238.784H42.704V245.096Z" fill="white"/>
<path d="M50.808 254.936H55.488V248.624H50.808V254.936Z" fill="white"/>
<path d="M42.704 254.936H47.384V248.624H42.704V254.936Z" fill="white"/>
<path d="M50.808 264.768H55.488V258.456H50.808V264.768Z" fill="white"/>
<path d="M42.704 264.768H47.384V258.456H42.704V264.768Z" fill="white"/>
<path d="M50.808 274.608H55.488V268.296H50.808V274.608Z" fill="white"/>
<path d="M42.704 274.608H47.384V268.296H42.704V274.608Z" fill="white"/>
<path d="M50.808 284.448H55.488V278.136H50.808V284.448Z" fill="white"/>
<path d="M42.704 284.448H47.384V278.136H42.704V284.448Z" fill="white"/>
<path d="M147.76 175.824H152.44V170.464H147.76V175.824Z" fill="white"/>
<path d="M139.648 175.824H144.328V170.464H139.648V175.824Z" fill="white"/>
<path d="M147.76 167.56H152.44V162.2H147.76V167.56Z" fill="white"/>
<path d="M139.648 167.56H144.328V162.2H139.648V167.56Z" fill="white"/>
<path d="M147.76 159.296H152.44V153.936H147.76V159.296Z" fill="white"/>
<path d="M139.648 159.296H144.328V153.936H139.648V159.296Z" fill="white"/>
<path d="M147.76 183.888H152.44V178.528H147.76V183.888Z" fill="white"/>
<path d="M139.648 183.888H144.328V178.528H139.648V183.888Z" fill="white"/>
<path d="M147.76 191.952H152.44V186.592H147.76V191.952Z" fill="white"/>
<path d="M139.648 191.952H144.328V186.592H139.648V191.952Z" fill="white"/>
<path d="M147.76 200.024H152.44V194.664H147.76V200.024Z" fill="white"/>
<path d="M139.648 200.024H144.328V194.664H139.648V200.024Z" fill="white"/>
<path d="M147.76 208.288H152.44V202.928H147.76V208.288Z" fill="white"/>
<path d="M139.648 208.288H144.328V202.928H139.648V208.288Z" fill="white"/>
<path d="M147.76 216.544H152.44V211.184H147.76V216.544Z" fill="white"/>
<path d="M139.648 216.544H144.328V211.184H139.648V216.544Z" fill="white"/>
<path d="M147.76 224.808H152.44V219.448H147.76V224.808Z" fill="white"/>
<path d="M139.648 224.808H144.328V219.448H139.648V224.808Z" fill="white"/>
<path d="M147.76 233.072H152.44V227.712H147.76V233.072Z" fill="white"/>
<path d="M139.648 233.072H144.328V227.712H139.648V233.072Z" fill="white"/>
<path d="M147.76 241.424H152.44V236.064H147.76V241.424Z" fill="white"/>
<path d="M139.648 241.424H144.328V236.064H139.648V241.424Z" fill="white"/>
<path d="M147.76 249.768H152.44V244.408H147.76V249.768Z" fill="white"/>
<path d="M139.648 249.768H144.328V244.408H139.648V249.768Z" fill="white"/>
<path d="M147.76 258.12H152.44V252.76H147.76V258.12Z" fill="white"/>
<path d="M139.648 258.12H144.328V252.76H139.648V258.12Z" fill="white"/>
<path d="M147.76 266.48H152.44V261.12H147.76V266.48Z" fill="white"/>
<path d="M139.648 266.48H144.328V261.12H139.648V266.48Z" fill="white"/>
<path d="M356.888 139.08H270.752C270.752 139.08 279.296 115.752 292.44 115.752C305.584 115.752 309.696 131.856 309.696 131.856C309.696 131.856 318.568 123.104 325.856 123.104C333.144 123.104 339.456 134.664 339.456 134.664C339.456 134.664 349.768 128.448 356.888 139.08Z" fill="#EBEBEB"/>
<path d="M308.68 92.944H268.424C268.424 92.944 277.416 79.912 284.504 79.912C291.592 79.912 293.688 88.6 293.688 88.6C293.688 88.6 298.688 84.544 303.288 85.272C307.888 86 308.68 92.944 308.68 92.944Z" fill="#EBEBEB"/>
<path d="M121.52 132.136H43.1201C43.1201 132.136 53.8561 108.136 65.3441 106.664C76.8321 105.192 82.3201 124.472 82.3201 124.472C82.3201 124.472 89.7281 117.648 95.5521 117.648C101.376 117.648 105.88 126.64 105.88 126.64C105.88 126.64 117.52 120.48 121.52 132.136Z" fill="#EBEBEB"/>
<path d="M196.04 72.8H143.072C143.072 72.8 152.168 55.432 162.04 55.2C171.912 54.968 177.096 68.344 177.096 68.344C177.096 68.344 192.448 56 196.04 72.8Z" fill="#EBEBEB"/>
<path d="M232.208 354.624C304.243 354.624 362.64 350.759 362.64 345.992C362.64 341.225 304.243 337.36 232.208 337.36C160.172 337.36 101.776 341.225 101.776 345.992C101.776 350.759 160.172 354.624 232.208 354.624Z" fill="#EBEBEB"/>
<path d="M387.472 313.048L340.6 313.24L293.736 313.312L200 313.44L106.264 313.312L59.4001 313.24L12.5281 313.048L59.4001 312.848L106.264 312.776L200 312.648L293.736 312.776L340.6 312.848L387.472 313.048Z" fill="#263238"/>
<path d="M194.152 189.312C207.688 203.392 248.352 266.056 251.52 267.928C251.52 267.928 251.52 308.912 228.872 300.728C206.224 292.544 185.464 219.016 181.032 195.576C178.696 183.2 183.096 177.824 194.152 189.312Z" fill="#FFCFC9"/>
<path d="M190.704 237.76L232.208 233.04C232.208 233.04 206.464 198.888 193.16 186.696C179.288 173.992 172.488 175.776 178.92 199.84C185.384 224.048 190.704 237.76 190.704 237.76Z" fill="#F4C621"/>
<path d="M188.752 215.152C188.296 216.297 188.005 217.501 187.888 218.728C189.336 216.727 190.237 214.383 190.504 211.928C189.763 212.91 189.173 213.996 188.752 215.152ZM212.064 216.088C210.922 215.631 209.72 215.34 208.496 215.224C210.493 216.674 212.834 217.575 215.288 217.84C214.307 217.098 213.22 216.507 212.064 216.088V216.088ZM205.88 232.232C205.391 231.104 204.745 230.05 203.96 229.104C204.143 230.319 204.499 231.501 205.016 232.616C205.489 233.751 206.131 234.809 206.92 235.752C206.741 234.536 206.39 233.351 205.88 232.232V232.232ZM181.528 180.232C181.32 179.792 181.112 179.36 180.872 178.928C180.587 178.9 180.301 178.9 180.016 178.928C180.208 179.512 180.424 180.072 180.664 180.632C181.144 181.765 181.789 182.822 182.576 183.768C182.396 182.546 182.043 181.355 181.528 180.232V180.232ZM229.36 229.304L228.56 229.624C227.428 230.111 226.369 230.755 225.416 231.536C226.635 231.355 227.823 231.002 228.944 230.488C229.264 230.344 229.576 230.192 229.888 230.024L229.36 229.304ZM197.36 196.336C196.23 196.82 195.175 197.461 194.224 198.24C195.444 198.065 196.632 197.715 197.752 197.2C198.883 196.715 199.938 196.071 200.888 195.288C199.662 195.464 198.468 195.817 197.344 196.336H197.36ZM194.576 196.408C194.529 196.44 194.483 196.475 194.44 196.512H194.584C194.584 196.512 194.56 196.432 194.56 196.408H194.576Z" fill="white"/>
<path d="M192.696 230.296C193.664 230.072 194.68 229.984 195.664 229.848L198.72 229.424C200.776 229.136 202.84 228.88 204.904 228.624C209.032 228.144 213.16 227.64 217.296 227.232C218.432 227.12 219.576 227.008 220.712 226.92C221.848 226.832 223.112 226.832 224.312 226.744C224.384 226.744 224.384 226.848 224.312 226.856C223.296 227.008 222.288 227.24 221.272 227.4C220.256 227.56 219.176 227.704 218.128 227.832C216.072 228.096 214 228.336 211.936 228.568C207.872 229.008 203.8 229.472 199.72 229.832L196.312 230.12C195.12 230.224 193.912 230.4 192.712 230.392C192.703 230.389 192.694 230.383 192.688 230.375C192.682 230.368 192.678 230.358 192.676 230.349C192.674 230.339 192.675 230.329 192.679 230.32C192.682 230.31 192.688 230.302 192.696 230.296V230.296Z" fill="#263238"/>
<path opacity="0.1" d="M210.84 235.472L190.712 237.76C190.712 237.76 185.392 224.048 178.92 199.84C176.192 189.632 175.848 183.432 177.416 180.64L210.84 235.472Z" fill="black"/>
<path d="M202.216 323.12H139.088C138.568 321.088 138.064 319.12 137.56 317.12C136.984 314.856 136.416 312.648 135.872 310.496C135.752 310.016 135.624 309.536 135.504 309.064C135.088 307.416 134.68 305.816 134.28 304.264C134.04 303.312 133.8 302.376 133.568 301.448C133.336 300.52 133.088 299.576 132.856 298.672C132.792 298.432 132.736 298.192 132.672 297.96L132.48 297.16L132.24 296.224C132.152 295.896 132.072 295.576 131.992 295.256C131.832 294.648 131.68 294.048 131.536 293.464C131.312 292.6 131.096 291.752 130.888 290.928C130.8 290.568 130.704 290.208 130.616 289.856C130.464 289.28 130.32 288.72 130.184 288.168C130.088 287.8 130 287.44 129.912 287.088C129.538 285.637 129.192 284.277 128.872 283.008C128.784 282.672 128.704 282.344 128.616 282.024C128.48 281.472 128.344 280.944 128.216 280.424C128.125 280.104 128.045 279.792 127.976 279.488C127.696 278.4 127.44 277.408 127.224 276.536C127.16 276.304 127.104 276.08 127.048 275.864C126.904 275.288 126.768 274.776 126.656 274.32C126.608 274.136 126.568 273.96 126.52 273.8L126.392 273.296C126.392 273.184 126.336 273.072 126.312 272.976L126.2 272.544C126.2 272.475 126.184 272.411 126.152 272.352L126.008 271.784H187.456C187.456 271.784 189.48 278.76 192.72 290.008C193.376 292.296 194.088 294.808 194.848 297.392C197 304.896 199.512 313.648 202.216 323.12Z" fill="#37474F"/>
<path d="M149.424 323.12H147.824C145.488 313.451 143.224 303.763 141.032 294.056C140.498 291.693 139.965 289.331 139.432 286.968L139.288 286.304C139.285 286.281 139.291 286.258 139.304 286.239C139.317 286.22 139.336 286.206 139.359 286.2C139.381 286.194 139.405 286.197 139.426 286.207C139.447 286.217 139.463 286.235 139.472 286.256C139.472 286.328 139.512 286.4 139.536 286.472C140.245 289.011 140.952 291.552 141.656 294.096C144.36 303.744 146.949 313.419 149.424 323.12Z" fill="#263238"/>
<path d="M185.464 271.792L182.752 285.392L180.528 296.528L176.744 315.504L176.352 317.448L175.704 320.688L175.2 323.12H139.08C138.568 321.08 138.056 319.12 137.56 317.12C136.984 314.856 136.416 312.648 135.872 310.496C135.752 310.016 135.624 309.536 135.504 309.064C135.088 307.416 134.68 305.816 134.28 304.264C134.04 303.312 133.8 302.376 133.568 301.448C133.336 300.52 133.088 299.576 132.856 298.672C132.792 298.432 132.736 298.192 132.672 297.96L132.48 297.16L132.24 296.224C132.152 295.896 132.072 295.576 131.992 295.256C131.832 294.648 131.68 294.048 131.536 293.464C131.312 292.6 131.096 291.752 130.888 290.928C130.792 290.56 130.704 290.208 130.616 289.856C130.464 289.28 130.32 288.72 130.184 288.168C130.088 287.8 130 287.44 129.912 287.088C129.538 285.637 129.192 284.277 128.872 283.008C128.784 282.672 128.704 282.344 128.616 282.024C128.48 281.472 128.344 280.944 128.216 280.424C128.125 280.104 128.045 279.792 127.976 279.488C127.696 278.4 127.44 277.408 127.224 276.536C127.16 276.304 127.104 276.08 127.048 275.864C126.904 275.288 126.768 274.776 126.656 274.32C126.608 274.136 126.568 273.96 126.52 273.8L126.392 273.296C126.392 273.184 126.336 273.072 126.312 272.976L126.2 272.544C126.2 272.475 126.184 272.411 126.152 272.352L126.008 271.784L185.464 271.792Z" fill="#263238"/>
<path d="M185.472 271.768C185.472 272.104 185.216 275.768 184.624 281.368C184.456 282.968 184.256 284.792 184.024 286.712C183.664 289.744 183.224 293.112 182.664 296.624C181.72 302.792 180.488 309.52 178.888 316.096C178.32 318.496 177.696 320.808 177.032 323.104H97.7119C98.6479 311.016 99.5039 300.08 100.184 291.464C101.136 279.336 101.784 271.744 101.784 271.744H173.736L185.472 271.768Z" fill="#37474F"/>
<path d="M185.304 279.056C185.216 281.896 185.096 284.728 184.912 287.552C184.72 290.616 184.44 293.672 184.04 296.728C184.04 296.84 184.04 296.952 184 297.064C183.627 299.928 183.197 302.784 182.712 305.632C182.256 308.288 181.912 311.152 180.744 313.632C180.3 314.583 179.669 315.435 178.888 316.136C178.173 316.79 177.298 317.242 176.352 317.448C176.197 317.487 176.039 317.514 175.88 317.528H175.744C175.773 317.545 175.797 317.569 175.813 317.599C175.828 317.629 175.835 317.662 175.832 317.696C175.832 318.648 175.832 319.616 175.72 320.56C175.72 320.6 175.72 320.64 175.72 320.68C175.624 321.48 175.472 322.32 175.32 323.136H173.96V323.088C174.2 322.192 174.4 321.288 174.624 320.384C174.848 319.48 175.168 318.56 175.384 317.624C175.396 317.589 175.418 317.558 175.448 317.536C174.585 317.577 173.729 317.354 172.997 316.894C172.265 316.435 171.691 315.763 171.352 314.968C171.011 313.751 170.989 312.467 171.288 311.24C171.536 309.64 171.776 307.992 172.024 306.368C172.488 303.384 173.088 300.432 173.624 297.464L173.864 296.112C174.928 290.072 176.04 284.032 177.376 278.048C177.424 277.8 177.48 277.552 177.536 277.304C177.592 277.056 177.84 277.184 177.824 277.344C177.784 277.744 177.744 278.144 177.696 278.552C177.461 280.851 177.195 283.139 176.896 285.416C176.512 288.096 176.248 290.792 175.872 293.472C175.744 294.384 175.616 295.296 175.48 296.208C174.864 300.616 174.224 305.008 173.472 309.416C173.12 311.456 171.872 315.112 174.784 315.744C175.457 315.893 176.16 315.806 176.776 315.496C178.073 314.715 179.042 313.49 179.504 312.048C180.224 309.647 180.746 307.191 181.064 304.704C181.544 302.037 181.971 299.347 182.344 296.632C182.824 293.267 183.325 289.904 183.848 286.544C184.109 284.832 184.376 283.12 184.648 281.408L185.032 279.008C185.04 278.84 185.304 278.888 185.304 279.056Z" fill="#263238"/>
<path d="M115.112 300.144C118.415 300.11 121.701 299.666 124.896 298.824C126.368 298.448 127.824 297.976 129.272 297.504C130.706 297.108 132.049 296.434 133.224 295.52C135.448 293.6 136.48 290.584 137.448 287.896C138.499 284.869 139.351 281.777 140 278.64C140 278.488 140.256 278.544 140.264 278.688C140.341 282.236 139.89 285.776 138.928 289.192C138.128 292.096 137.056 295.328 134.712 297.36C132.368 299.392 128.904 300.256 125.744 300.64C122.2 301.052 118.619 301.004 115.088 300.496C115.041 300.493 114.998 300.471 114.967 300.436C114.936 300.401 114.921 300.355 114.924 300.308C114.927 300.261 114.949 300.218 114.984 300.187C115.019 300.156 115.065 300.141 115.112 300.144V300.144Z" fill="#263238"/>
<path d="M109.6 278.736C109.424 283.173 109.237 287.616 109.04 292.064C108.587 302.416 108.088 312.768 107.544 323.12H106.056C106.739 312.747 107.456 302.379 108.208 292.016C108.533 287.584 108.869 283.155 109.216 278.728C109.217 278.677 109.238 278.629 109.275 278.593C109.312 278.558 109.361 278.539 109.412 278.54C109.463 278.541 109.511 278.562 109.546 278.599C109.582 278.636 109.601 278.685 109.6 278.736V278.736Z" fill="#263238"/>
<path d="M199.128 304.624L91.5198 296.464C91.5198 296.464 113.168 210.664 155.912 179.12C166.84 171.064 178.8 176.232 184.184 182.256C197.864 197.6 199.448 304.28 199.128 304.624Z" fill="#F4C621"/>
<path d="M160.888 183.024C160.436 184.168 160.146 185.368 160.024 186.592C160.76 185.615 161.353 184.537 161.784 183.392C162.235 182.248 162.526 181.048 162.648 179.824C161.914 180.803 161.322 181.88 160.888 183.024V183.024ZM149.208 229.312C148.748 230.455 148.459 231.66 148.352 232.888C149.793 230.884 150.691 228.542 150.96 226.088C150.225 227.074 149.635 228.159 149.208 229.312V229.312ZM110.76 249.16C110.305 250.305 110.014 251.509 109.896 252.736C111.344 250.735 112.245 248.391 112.512 245.936C111.784 246.926 111.194 248.01 110.76 249.16V249.16ZM141.792 278.4C141.327 279.54 141.036 280.742 140.928 281.968C142.369 279.964 143.267 277.622 143.536 275.168C142.802 276.156 142.215 277.244 141.792 278.4ZM188.752 215.136C188.296 216.281 188.005 217.485 187.888 218.712C189.336 216.711 190.237 214.367 190.504 211.912C189.762 212.899 189.171 213.991 188.752 215.152V215.136ZM169.6 273.336C169.135 274.476 168.841 275.678 168.728 276.904C169.463 275.928 170.053 274.85 170.48 273.704C170.935 272.562 171.226 271.36 171.344 270.136C170.611 271.113 170.023 272.191 169.6 273.336V273.336ZM130.824 212.96C130.368 214.102 130.077 215.304 129.96 216.528C131.41 214.529 132.309 212.184 132.568 209.728C131.831 210.714 131.243 211.803 130.824 212.96V212.96ZM173.816 197.6C172.675 197.139 171.473 196.848 170.248 196.736C171.226 197.467 172.303 198.054 173.448 198.48C174.591 198.943 175.796 199.234 177.024 199.344C176.044 198.611 174.964 198.024 173.816 197.6V197.6ZM186.008 236.168C184.866 235.709 183.665 235.418 182.44 235.304C183.416 236.038 184.494 236.626 185.64 237.048C186.781 237.51 187.983 237.803 189.208 237.92C188.23 237.194 187.152 236.615 186.008 236.2V236.168ZM189.28 282.264C188.138 281.808 186.936 281.517 185.712 281.4C186.687 282.137 187.765 282.727 188.912 283.152C190.055 283.606 191.256 283.897 192.48 284.016C191.499 283.296 190.422 282.717 189.28 282.296V282.264ZM112.68 278.472C111.538 278.015 110.336 277.724 109.112 277.608C111.109 279.058 113.45 279.959 115.904 280.224C114.917 279.499 113.831 278.92 112.68 278.504V278.472ZM140.368 248.872C139.226 248.413 138.025 248.12 136.8 248C137.777 248.736 138.855 249.329 140 249.76C141.144 250.212 142.344 250.502 143.568 250.624C142.589 249.899 141.511 249.317 140.368 248.896V248.872ZM181.528 180.208C181.416 179.968 181.304 179.736 181.184 179.504C180.792 179.208 180.384 178.92 179.944 178.64C180.142 179.311 180.382 179.968 180.664 180.608C181.144 181.741 181.789 182.798 182.576 183.744C182.393 182.53 182.041 181.348 181.528 180.232V180.208ZM150.08 205.088C149.597 203.956 148.953 202.899 148.168 201.952C148.552 204.392 149.573 206.688 151.128 208.608C150.952 207.39 150.599 206.204 150.08 205.088V205.088ZM177.848 299.752C177.365 298.622 176.724 297.566 175.944 296.616C176.121 297.833 176.471 299.018 176.984 300.136C177.44 301.188 178.029 302.177 178.736 303.08H178.864C178.679 301.929 178.337 300.81 177.848 299.752V299.752ZM167.632 244C167.145 242.87 166.501 241.814 165.72 240.864C166.117 243.299 167.134 245.591 168.672 247.52C168.495 246.303 168.145 245.118 167.632 244ZM94.3358 286.512C94.2878 286.68 94.2398 286.848 94.1838 287.008C94.2878 287.12 94.3838 287.24 94.4798 287.352C94.4478 287.077 94.3997 286.805 94.3358 286.536V286.512ZM126.336 265.168C125.85 264.04 125.206 262.987 124.424 262.04C124.811 264.477 125.831 266.77 127.384 268.688C127.193 267.478 126.832 266.301 126.312 265.192L126.336 265.168ZM133.2 295.968C132.714 294.837 132.071 293.781 131.288 292.832C131.684 295.271 132.704 297.567 134.248 299.496C134.06 298.285 133.699 297.108 133.176 296L133.2 295.968ZM187.016 258.912C185.886 259.399 184.83 260.043 183.88 260.824C185.097 260.644 186.282 260.291 187.4 259.776C188.534 259.293 189.593 258.649 190.544 257.864C189.314 258.047 188.117 258.408 186.992 258.936L187.016 258.912ZM102.136 263.584L101.728 264.688C102.591 264.272 103.397 263.747 104.128 263.128C103.441 263.218 102.765 263.379 102.112 263.608L102.136 263.584ZM157 290.24C155.869 290.721 154.813 291.363 153.864 292.144C155.083 291.966 156.271 291.616 157.392 291.104C158.522 290.614 159.577 289.968 160.528 289.184C159.297 289.365 158.1 289.729 156.976 290.264L157 290.24ZM107.936 297.376L107.384 297.64L109.264 297.784C110.05 297.387 110.785 296.899 111.456 296.328C110.23 296.515 109.036 296.876 107.912 297.4L107.936 297.376ZM126.784 231.592C125.657 232.085 124.602 232.728 123.648 233.504C126.086 233.11 128.382 232.093 130.312 230.552C129.082 230.732 127.886 231.091 126.76 231.616L126.784 231.592ZM154.368 262.232C153.237 262.72 152.181 263.367 151.232 264.152C153.672 263.76 155.969 262.74 157.896 261.192C156.667 261.376 155.471 261.734 154.344 262.256L154.368 262.232ZM168.768 220.112C167.64 220.602 166.584 221.246 165.632 222.024C168.07 221.637 170.365 220.62 172.288 219.072C171.054 219.253 169.852 219.612 168.72 220.136L168.768 220.112Z" fill="white"/>
<path d="M178.088 200.184C171.88 199.264 165.576 186.736 164.488 178.192C164.416 177.6 174.088 159.144 175.6 155.296C175.912 154.496 197.48 170.784 197.48 170.784C197.48 170.784 191.88 177.92 189.264 184.664C189.08 185.224 184.088 201.064 178.088 200.184Z" fill="#FFCFC9"/>
<path d="M197.512 170.784C197.512 170.784 191.912 177.92 189.288 184.656C189.24 184.792 188.92 185.784 188.392 187.2C177.304 181.6 172.784 171.6 170.96 165C173.056 160.8 175.008 156.856 175.632 155.296C175.944 154.504 197.512 170.784 197.512 170.784Z" fill="#263238"/>
<path d="M180.584 125.32C174.272 132.624 167.96 158.968 171.568 167.064C176.808 178.792 190.768 185.84 202.064 178.344C213.048 171.072 220.664 136.592 216.128 128.688C209.456 117.04 189.896 114.536 180.584 125.32Z" fill="#FFCFC9"/>
<path d="M197.448 146.72C196.648 146.784 195.848 146.72 195.048 146.72C194.199 146.836 193.335 146.667 192.592 146.24C192.384 146.06 192.242 145.817 192.187 145.548C192.132 145.279 192.168 144.999 192.288 144.752C192.6 144.301 193.027 143.941 193.525 143.711C194.023 143.48 194.574 143.387 195.12 143.44C196.242 143.374 197.348 143.728 198.224 144.432C198.409 144.607 198.54 144.831 198.602 145.078C198.664 145.325 198.653 145.584 198.571 145.825C198.489 146.066 198.34 146.279 198.141 146.438C197.942 146.596 197.701 146.694 197.448 146.72V146.72Z" fill="#263238"/>
<path d="M196.744 150.584C196.744 150.512 196.584 150.64 196.568 150.72C196.272 152.52 195.624 154.536 193.888 154.808C193.832 154.808 193.816 154.904 193.888 154.912C195.912 155.024 196.744 152.344 196.744 150.584Z" fill="#263238"/>
<path d="M195.512 148.392C192.672 147.592 191.296 153.344 193.912 154.072C196.528 154.8 197.888 149.056 195.512 148.392Z" fill="#263238"/>
<path d="M207.064 152.8C207.064 152.736 207.184 152.92 207.168 152.992C206.688 154.752 206.432 156.856 207.896 157.792C207.944 157.792 207.896 157.912 207.856 157.888C205.96 157.184 206.328 154.4 207.064 152.8Z" fill="#263238"/>
<path d="M209.096 151.328C212.008 151.792 210.864 157.576 208.168 157.144C205.472 156.712 206.656 150.936 209.096 151.328Z" fill="#263238"/>
<path d="M212.048 148.48C211.313 148.138 210.597 147.756 209.904 147.336C209.091 147.036 208.401 146.473 207.944 145.736C207.844 145.479 207.832 145.195 207.91 144.93C207.988 144.665 208.152 144.434 208.376 144.272C209.36 143.632 210.496 143.928 211.504 144.424C212.532 144.892 213.35 145.724 213.8 146.76C213.894 147.004 213.916 147.27 213.861 147.525C213.806 147.78 213.677 148.014 213.49 148.197C213.304 148.38 213.068 148.505 212.812 148.555C212.555 148.605 212.29 148.579 212.048 148.48V148.48Z" fill="#263238"/>
<path d="M190.792 165.984C191.112 166.504 191.4 167.176 192.032 167.384C192.699 167.528 193.389 167.528 194.056 167.384C194.069 167.383 194.083 167.386 194.094 167.393C194.106 167.4 194.115 167.41 194.121 167.422C194.126 167.435 194.127 167.449 194.124 167.462C194.121 167.475 194.114 167.487 194.104 167.496C193.767 167.784 193.359 167.975 192.922 168.05C192.486 168.124 192.037 168.079 191.624 167.92C191.283 167.74 191.004 167.463 190.821 167.124C190.639 166.785 190.562 166.399 190.6 166.016C190.6 165.912 190.744 165.904 190.792 165.984Z" fill="#263238"/>
<path d="M193.928 161.112C194.213 161.922 194.662 162.665 195.247 163.294C195.832 163.923 196.541 164.425 197.328 164.768C198.012 165.077 198.737 165.287 199.48 165.392C199.619 165.423 199.761 165.439 199.904 165.44C200.04 165.449 200.176 165.449 200.312 165.44C200.411 165.446 200.509 165.418 200.59 165.362C200.671 165.305 200.731 165.223 200.76 165.128V165.128C200.764 165.064 200.764 165 200.76 164.936V164.776C201.12 163.416 201.488 161.304 201.488 161.304C201.928 161.672 204.2 163.432 204.336 162.704C205.4 156.704 206.576 150.032 206.368 143.832C206.368 143.787 206.35 143.745 206.319 143.713C206.287 143.682 206.244 143.664 206.2 143.664C206.155 143.664 206.113 143.682 206.081 143.713C206.05 143.745 206.032 143.787 206.032 143.832C204.784 149.56 204.552 155.472 203.384 161.248C202.601 160.605 201.731 160.077 200.8 159.68C200.592 159.68 200.168 163.776 199.952 164.368C199.954 164.389 199.954 164.411 199.952 164.432C197.552 164.176 196.016 163.064 194.152 160.992C194.032 160.856 193.856 160.944 193.928 161.112Z" fill="#263238"/>
<path d="M198.84 164.504C197.854 165.299 196.681 165.828 195.432 166.04C194.748 166.135 194.052 166.015 193.44 165.696C192.112 164.984 192.384 163.672 192.912 162.616C193.199 162.059 193.551 161.539 193.96 161.064C195.177 162.703 196.887 163.908 198.84 164.504Z" fill="#263238"/>
<path d="M195.432 166.04C194.748 166.135 194.052 166.015 193.44 165.696C192.112 164.984 192.384 163.672 192.912 162.616C194.4 163.136 195.656 164.536 195.432 166.04Z" fill="#FF97B8"/>
<path d="M218.544 138.944C207.344 143.632 196.016 130.664 196.016 130.664C194.732 132.632 192.848 134.133 190.642 134.943C188.436 135.753 186.028 135.829 183.776 135.16C183.776 135.16 178.4 151.376 174.016 150.4C167.352 148.976 170.016 125.888 173.032 121.872C176.048 117.856 181.968 117.872 181.968 117.872C181.968 117.872 183.096 114.504 187.88 112.208C193.16 109.664 207.88 117.64 207.88 117.64C209.216 115.724 210.983 114.148 213.04 113.04C213.536 112.761 214.084 112.586 214.65 112.525C215.217 112.464 215.789 112.518 216.334 112.685C216.878 112.852 217.383 113.127 217.818 113.495C218.253 113.863 218.609 114.315 218.864 114.824C217.771 115.875 216.931 117.161 216.408 118.584C214.608 123.288 218.584 124.112 219.472 119.688C219.858 118.046 219.642 116.32 218.864 114.824C221.424 112.344 224.824 112.072 226.448 114.024C229.432 117.6 227.864 135.056 218.544 138.944Z" fill="#263238"/>
<path d="M191.072 159.488C189.694 159.046 188.467 158.226 187.532 157.122C186.597 156.017 185.991 154.672 185.783 153.24C185.575 151.808 185.774 150.346 186.356 149.021C186.938 147.696 187.88 146.561 189.076 145.745C190.271 144.93 191.672 144.466 193.118 144.407C194.564 144.349 195.997 144.697 197.255 145.413C198.512 146.129 199.544 147.184 200.231 148.457C200.919 149.731 201.235 151.172 201.144 152.616V152.616C201.068 153.789 200.726 154.929 200.144 155.95C199.562 156.971 198.755 157.846 197.784 158.508C196.813 159.171 195.704 159.603 194.541 159.773C193.378 159.943 192.191 159.845 191.072 159.488ZM195.488 145.768C194.969 145.6 194.432 145.495 193.888 145.456C192.183 145.335 190.496 145.869 189.171 146.949C187.846 148.03 186.983 149.575 186.759 151.27C186.534 152.964 186.965 154.681 187.963 156.069C188.96 157.457 190.45 158.412 192.128 158.739C193.806 159.066 195.545 158.741 196.991 157.829C198.438 156.918 199.482 155.489 199.91 153.834C200.339 152.179 200.12 150.423 199.298 148.924C198.476 147.425 197.113 146.296 195.488 145.768V145.768Z" fill="#F4C621"/>
<path d="M208.12 162.72C205.352 161.68 203.912 157.92 204.92 153.992C205.35 152.113 206.36 150.416 207.808 149.144C208.393 148.554 209.121 148.127 209.921 147.902C210.721 147.678 211.565 147.666 212.371 147.866C213.177 148.066 213.918 148.471 214.52 149.043C215.123 149.615 215.566 150.333 215.808 151.128C216.486 152.933 216.584 154.905 216.088 156.768C215.064 160.896 211.728 163.64 208.648 162.872C208.468 162.837 208.291 162.786 208.12 162.72V162.72ZM212.448 149L212.072 148.888C211.426 148.757 210.757 148.784 210.124 148.967C209.49 149.149 208.91 149.482 208.432 149.936C207.154 151.07 206.262 152.575 205.88 154.24C204.992 157.824 206.312 161.248 208.848 161.872C211.384 162.496 214.152 160.096 215.04 156.52C215.485 154.869 215.401 153.12 214.8 151.52C214.607 150.958 214.297 150.444 213.892 150.01C213.487 149.575 212.995 149.231 212.448 149V149Z" fill="#F4C621"/>
<path d="M200.72 153.448L200.224 152.544C201.56 151.8 204.472 151.032 205.936 153.344L205.056 153.888C203.752 151.816 200.84 153.376 200.72 153.448Z" fill="#F4C621"/>
<path d="M166.576 148.728L165.776 148.088C166.08 147.712 168.776 144.408 171.104 144.488C173.288 144.568 186.616 148.488 187.184 148.688L186.888 149.68C183.064 148.544 172.76 145.576 171.072 145.52C169.52 145.464 167.304 147.816 166.576 148.728Z" fill="#F4C621"/>
<path d="M176.872 148.896C176.872 148.896 174.72 138.592 170.272 139.032C165.824 139.472 165.072 152.728 168.632 156.112C169.057 156.577 169.572 156.952 170.145 157.213C170.719 157.474 171.34 157.616 171.97 157.631C172.6 157.646 173.226 157.533 173.812 157.3C174.397 157.066 174.929 156.716 175.376 156.272L176.872 148.896Z" fill="#FFCFC9"/>
<path d="M170.152 142.84C170.088 142.8 170.032 142.888 170.08 142.944C172.536 145.408 172.912 148.824 172.792 152.136C172.376 150.664 171.432 149.544 169.512 149.968C169.416 149.968 169.44 150.136 169.512 150.16C170.104 150.215 170.665 150.453 171.115 150.842C171.565 151.23 171.883 151.75 172.024 152.328C172.258 153.293 172.39 154.28 172.416 155.272C172.416 155.6 172.976 155.664 173.008 155.272C173.004 155.245 173.004 155.219 173.008 155.192C174.72 151.496 174.048 144.952 170.152 142.84Z" fill="#263238"/>
<path d="M231.72 221.216C233.744 215.888 280.672 225.536 278.8 233.704C271.928 263.624 252.776 290.36 247.936 296.472C241.584 304.472 228.944 302.696 224.336 297.848C217.656 290.816 229.72 226.496 231.72 221.216Z" fill="#FFCFC9"/>
<path d="M228.416 235.904C227.373 238.771 226.546 241.713 225.944 244.704C225.264 247.664 224.672 250.64 224.192 253.632C223.243 259.684 222.708 265.795 222.592 271.92C222.504 275.344 222.592 278.76 222.592 282.184C222.592 282.264 222.72 282.256 222.72 282.184C222.72 279.152 222.904 276.096 223.152 273.072C223.4 270.048 223.704 266.968 224.096 263.936C224.856 257.976 225.696 252.024 226.776 246.112C227.075 244.453 227.387 242.8 227.712 241.152C228.056 239.44 228.448 237.736 228.672 236C228.672 235.872 228.472 235.76 228.416 235.904Z" fill="#263238"/>
<path d="M220.4 136.888C220.091 140.962 219.481 145.008 218.576 148.992C218.424 149.672 218.256 150.368 218.088 151.056C217.416 153.792 216.616 156.544 215.688 159.192C215.474 159.832 215.25 160.464 215.016 161.088C212.176 168.76 208.424 175.36 204.2 178.16C203.127 178.879 201.989 179.495 200.8 180C194.745 176.468 189.688 171.454 186.105 165.429C182.522 159.404 180.531 152.567 180.32 145.56L179.04 145.208C179.24 144.896 179.448 144.576 179.648 144.24C179.848 143.904 180.096 143.48 180.312 143.08C180.632 132.78 184.793 122.973 191.976 115.584C202.032 112.88 214.072 116.744 219.136 125.568C220.368 127.752 220.744 131.864 220.4 136.888Z" fill="#FFCFC9"/>
<path d="M199.32 144.664C198.47 144.708 197.618 144.708 196.768 144.664C195.784 144.664 195 144.736 194.16 144.152C193.934 143.961 193.779 143.698 193.721 143.408C193.663 143.117 193.705 142.816 193.84 142.552C194.456 141.464 195.656 141.184 196.84 141.16C198.028 141.09 199.2 141.463 200.128 142.208C200.334 142.39 200.481 142.629 200.553 142.894C200.625 143.16 200.617 143.44 200.531 143.702C200.445 143.963 200.285 144.193 200.07 144.364C199.854 144.535 199.594 144.639 199.32 144.664V144.664Z" fill="#263238"/>
<path d="M198.576 148.8C198.576 148.728 198.408 148.864 198.392 148.936C198.08 150.848 197.392 152.984 195.552 153.272C195.496 153.272 195.48 153.376 195.552 153.384C197.696 153.464 198.576 150.624 198.576 148.8Z" fill="#263238"/>
<path d="M197.272 146.44C194.264 145.6 192.808 151.68 195.592 152.456C198.376 153.232 199.792 147.144 197.272 146.44Z" fill="#263238"/>
<path d="M209.512 151.104C209.512 151.04 209.64 151.232 209.616 151.312C209.104 153.176 208.816 155.4 210.416 156.432C210.464 156.432 210.416 156.56 210.376 156.536C208.344 155.744 208.728 152.8 209.512 151.104Z" fill="#263238"/>
<path d="M211.664 149.544C214.744 150.04 213.528 156.168 210.672 155.712C207.816 155.256 209.08 149.128 211.664 149.544Z" fill="#263238"/>
<path d="M214.784 146.528C213.984 146.184 213.288 145.728 212.52 145.32C211.662 145.005 210.932 144.418 210.44 143.648C210.335 143.376 210.323 143.078 210.405 142.798C210.488 142.519 210.66 142.275 210.896 142.104C211.944 141.424 213.144 141.736 214.208 142.264C215.286 142.763 216.141 143.643 216.608 144.736C216.699 144.989 216.715 145.263 216.655 145.525C216.595 145.788 216.461 146.027 216.269 146.216C216.077 146.404 215.835 146.534 215.572 146.589C215.309 146.644 215.035 146.623 214.784 146.528V146.528Z" fill="#263238"/>
<path d="M192.272 165.072C192.616 165.616 192.92 166.328 193.592 166.552C194.295 166.708 195.024 166.708 195.728 166.552C195.742 166.552 195.756 166.555 195.768 166.563C195.78 166.57 195.79 166.581 195.796 166.593C195.801 166.606 195.804 166.621 195.801 166.634C195.799 166.648 195.793 166.661 195.784 166.672C195.427 166.978 194.993 167.181 194.53 167.26C194.066 167.338 193.59 167.29 193.152 167.12C192.792 166.929 192.498 166.635 192.306 166.276C192.113 165.917 192.032 165.509 192.072 165.104C192.064 164.992 192.216 164.992 192.272 165.072Z" fill="#263238"/>
<path d="M195.6 159.904C195.898 160.764 196.372 161.552 196.99 162.22C197.608 162.888 198.358 163.42 199.192 163.784C199.917 164.111 200.684 164.332 201.472 164.44C201.622 164.474 201.774 164.493 201.928 164.496C202.069 164.505 202.211 164.505 202.352 164.496C202.457 164.503 202.561 164.474 202.648 164.415C202.735 164.355 202.8 164.268 202.832 164.168V164.168C202.84 164.104 202.84 164.04 202.832 163.976V163.976V163.808C203.216 162.368 203.632 160.128 203.632 160.128C204.096 160.52 206.504 162.384 206.64 161.616C207.768 155.216 209.04 148.184 208.8 141.616C208.8 141.569 208.781 141.525 208.748 141.492C208.715 141.459 208.671 141.44 208.624 141.44C208.577 141.44 208.533 141.459 208.5 141.492C208.467 141.525 208.448 141.569 208.448 141.616C207.12 147.68 206.848 153.944 205.64 160.016C204.784 159.354 203.838 158.815 202.832 158.416C202.616 158.416 202.16 162.752 201.936 163.384C201.939 163.405 201.939 163.427 201.936 163.448C199.432 163.176 197.768 162.008 195.8 159.8C195.704 159.64 195.52 159.728 195.6 159.904Z" fill="#263238"/>
<path d="M200.8 163.504C199.755 164.339 198.512 164.89 197.192 165.104C196.469 165.208 195.732 165.079 195.088 164.736C193.672 163.984 193.968 162.592 194.528 161.48C194.83 160.889 195.2 160.336 195.632 159.832C196.918 161.577 198.729 162.864 200.8 163.504V163.504Z" fill="#263238"/>
<path d="M197.184 165.128C196.461 165.232 195.725 165.103 195.08 164.76C193.664 164.008 193.96 162.616 194.52 161.504C196.088 162.056 197.424 163.528 197.184 165.128Z" fill="#FF97B8"/>
<path d="M221.664 136.432C221.24 136.608 220.816 136.76 220.4 136.888C208.944 140.44 197.8 127.656 197.8 127.656C196.447 129.747 194.453 131.345 192.117 132.21C189.782 133.075 187.229 133.161 184.84 132.456C183.598 136.117 182.076 139.677 180.288 143.104C180.503 136.301 182.394 129.657 185.794 123.761C189.194 117.864 193.996 112.899 199.776 109.304C203.425 110.585 206.976 112.13 210.4 113.928C211.818 111.899 213.692 110.23 215.872 109.056C216.397 108.76 216.977 108.574 217.576 108.509C218.175 108.443 218.782 108.5 219.358 108.676C219.935 108.852 220.47 109.143 220.931 109.531C221.392 109.92 221.769 110.397 222.04 110.936C220.885 112.058 219.997 113.425 219.44 114.936C217.536 119.912 221.744 120.784 222.68 116.104C223.093 114.363 222.866 112.531 222.04 110.944C224.752 108.328 228.352 108.04 230.04 110.144C233.192 113.84 231.544 132.312 221.664 136.432Z" fill="#263238"/>
<path d="M200.296 144.112C198.964 143.002 197.314 142.347 195.584 142.24C195.063 142.206 194.541 142.225 194.024 142.296C192.727 142.464 191.49 142.94 190.415 143.684C189.341 144.429 188.46 145.421 187.848 146.576C187.671 146.899 187.521 147.236 187.4 147.584C187.122 148.323 186.958 149.1 186.912 149.888C186.8 151.703 187.295 153.504 188.319 155.008C189.343 156.511 190.838 157.631 192.568 158.192C193.217 158.396 193.889 158.522 194.568 158.568H195.08C197.041 158.572 198.939 157.872 200.428 156.597C201.918 155.321 202.901 153.554 203.2 151.616C203.2 151.384 203.256 151.152 203.272 150.912C203.288 150.672 203.272 150.56 203.272 150.392C203.269 149.191 203.001 148.005 202.487 146.919C201.972 145.833 201.224 144.875 200.296 144.112V144.112ZM194.632 157.472C192.912 157.362 191.291 156.629 190.072 155.41C188.854 154.191 188.121 152.57 188.011 150.85C187.901 149.13 188.422 147.429 189.476 146.065C190.529 144.701 192.044 143.768 193.736 143.44C194.323 143.326 194.923 143.288 195.52 143.328C196.107 143.366 196.688 143.476 197.248 143.656C197.962 143.886 198.635 144.229 199.24 144.672C200.483 145.572 201.401 146.852 201.853 148.319C202.306 149.786 202.269 151.36 201.749 152.805C201.229 154.249 200.254 155.485 198.97 156.327C197.687 157.169 196.164 157.571 194.632 157.472V157.472Z" fill="#F4C621"/>
<path d="M218.72 149.336L218.576 148.992C218.086 147.867 217.244 146.932 216.176 146.328C215.831 146.136 215.463 145.991 215.08 145.896C214.523 145.76 213.945 145.728 213.376 145.8C212.216 145.962 211.129 146.46 210.248 147.232C209.586 147.795 209.015 148.456 208.552 149.192C208.199 149.737 207.902 150.316 207.664 150.92C207.501 151.309 207.367 151.711 207.264 152.12C207.235 152.201 207.211 152.284 207.192 152.368C206.718 154.182 206.768 156.093 207.336 157.88C207.573 158.707 207.991 159.472 208.56 160.118C209.128 160.764 209.833 161.276 210.624 161.616C210.792 161.68 210.96 161.728 211.136 161.776C211.799 161.926 212.484 161.943 213.153 161.825C213.822 161.707 214.461 161.456 215.032 161.088C217.069 159.756 218.505 157.68 219.032 155.304C219.554 153.331 219.445 151.244 218.72 149.336V149.336ZM217.92 155.04C217.556 156.6 216.78 158.034 215.672 159.192C215.15 159.8 214.478 160.26 213.723 160.527C212.968 160.794 212.156 160.858 211.368 160.712C208.68 160.048 207.28 156.424 208.224 152.632C208.628 150.869 209.57 149.275 210.92 148.072C211.428 147.591 212.044 147.239 212.717 147.046C213.389 146.852 214.098 146.823 214.784 146.96C214.917 146.992 215.048 147.032 215.176 147.08C215.755 147.327 216.276 147.692 216.706 148.152C217.136 148.612 217.465 149.157 217.672 149.752C217.843 150.173 217.972 150.61 218.056 151.056C218.312 152.376 218.276 153.735 217.952 155.04H217.92Z" fill="#F4C621"/>
<path d="M202.784 151.792L202.264 150.832C203.68 150.032 206.768 149.232 208.312 151.712L207.384 152.288C206 150.064 202.92 151.72 202.784 151.792Z" fill="#F4C621"/>
<path d="M188.44 146.752L188.128 147.8L187.4 147.584C185.6 147.056 182.944 146.288 180.296 145.552L179.016 145.2C179.216 144.888 179.424 144.568 179.624 144.232L180.272 144.416C183.472 145.296 186.568 146.2 187.848 146.576L188.44 146.752Z" fill="#F4C621"/>
<g opacity="0.3">
<path opacity="0.3" d="M230.4 184.632C222.429 186.387 214.117 185.74 206.515 182.771C198.913 179.802 192.361 174.646 187.689 167.954C183.018 161.262 180.435 153.335 180.269 145.175C180.103 137.015 182.36 128.989 186.755 122.112C191.15 115.235 197.486 109.816 204.961 106.54C212.436 103.264 220.715 102.278 228.75 103.707C236.786 105.137 244.217 108.916 250.104 114.569C255.991 120.222 260.07 127.493 261.824 135.464C262.99 140.756 263.102 146.225 262.153 151.56C261.205 156.895 259.215 161.991 256.297 166.557C253.379 171.123 249.59 175.069 245.146 178.171C240.703 181.272 235.692 183.467 230.4 184.632V184.632Z" fill="white"/>
<path opacity="0.3" d="M185.336 164.144C190.563 173.685 199.345 180.778 209.773 183.881C220.2 186.983 231.431 185.844 241.024 180.712L185.336 164.144Z" fill="#EBEBEB"/>
<path opacity="0.3" d="M186.52 122.52L262.792 145.216C262.858 141.939 262.536 138.665 261.832 135.464C261.034 131.791 259.728 128.248 257.952 124.936L201.648 108.176C195.462 111.585 190.253 116.524 186.52 122.52V122.52Z" fill="#EBEBEB"/>
<path opacity="0.3" d="M180.568 149.152L253.216 170.752C254.947 168.673 256.472 166.431 257.768 164.056L180.408 141.032C180.185 143.737 180.238 146.458 180.568 149.152Z" fill="#EBEBEB"/>
<path opacity="0.3" d="M183.88 127.512L262.28 150.848C262.36 150.352 262.432 149.856 262.488 149.36L184.504 126.16C184.288 126.6 184.072 127.048 183.88 127.512Z" fill="#EBEBEB"/>
<path opacity="0.3" d="M214.704 103.648L249.504 114C248.6 113.16 247.648 112.4 246.664 111.6L218.4 103.2C217.161 103.286 215.927 103.435 214.704 103.648Z" fill="#EBEBEB"/>
</g>
<path d="M236.08 235.642L246.674 233.309L236.414 186.721L225.82 189.054L236.08 235.642Z" fill="#EBEBEB"/>
<path d="M266.336 134.472C264.385 125.612 259.85 117.529 253.305 111.246C246.761 104.963 238.5 100.761 229.567 99.1732C220.635 97.5849 211.432 98.6811 203.123 102.323C194.813 105.965 187.77 111.989 182.885 119.634C177.999 127.279 175.49 136.2 175.675 145.271C175.859 154.342 178.73 163.154 183.923 170.593C189.116 178.032 196.398 183.765 204.849 187.066C213.3 190.366 222.539 191.087 231.4 189.136C243.279 186.516 253.633 179.287 260.184 169.036C266.735 158.786 268.948 146.353 266.336 134.472V134.472ZM230.4 184.632C222.429 186.389 214.117 185.743 206.514 182.775C198.911 179.808 192.358 174.652 187.685 167.961C183.012 161.269 180.429 153.342 180.261 145.182C180.094 137.022 182.35 128.996 186.745 122.118C191.139 115.24 197.475 109.82 204.95 106.543C212.425 103.266 220.704 102.28 228.739 103.709C236.775 105.137 244.207 108.917 250.094 114.569C255.982 120.222 260.061 127.493 261.816 135.464C262.982 140.755 263.094 146.224 262.146 151.559C261.198 156.894 259.209 161.989 256.291 166.555C253.374 171.121 249.586 175.067 245.144 178.169C240.701 181.27 235.691 183.467 230.4 184.632V184.632Z" fill="#455A64"/>
<path d="M240.456 268.424L256.48 264.896L247.392 223.592L231.36 227.12L240.456 268.424Z" fill="#263238"/>
<path d="M247.448 138.928C247.431 138.881 247.417 138.833 247.408 138.784C247.216 138.096 247.616 139.448 247.472 139C247.328 138.552 247.12 137.92 246.92 137.4C246.22 135.544 245.363 133.751 244.36 132.04C244.224 131.8 244.072 131.56 243.936 131.32C243.888 131.24 244.288 131.88 243.936 131.376L243.656 130.944C243.288 130.392 242.912 129.848 242.52 129.344C241.653 128.173 240.71 127.061 239.696 126.016L238.96 125.28C238.624 124.952 239.352 125.64 238.888 125.216L238.424 124.792C237.824 124.272 237.208 123.768 236.568 123.288C235.928 122.808 235.168 122.28 234.44 121.824C234.104 121.616 233.768 121.416 233.424 121.224C232.832 120.88 233.68 121.344 233.24 121.12L232.608 120.8C230.697 119.86 228.698 119.109 226.64 118.56H226.536L226.312 118.512L225.392 118.312C224.792 118.192 224.2 118.088 223.592 118C222.321 117.818 221.042 117.701 219.76 117.648C219.404 117.608 219.059 117.497 218.745 117.324C218.432 117.15 218.156 116.916 217.932 116.636C217.482 116.07 217.274 115.347 217.356 114.628C217.438 113.909 217.802 113.251 218.368 112.801C218.934 112.35 219.657 112.142 220.376 112.224C228.55 112.477 236.366 115.634 242.424 121.128C246.448 124.897 249.594 129.504 251.64 134.624C252.108 135.767 252.498 136.94 252.808 138.136C252.918 138.851 252.741 139.58 252.316 140.165C251.89 140.75 251.25 141.142 250.536 141.256C249.823 141.352 249.101 141.169 248.52 140.746C247.939 140.323 247.543 139.692 247.416 138.984L247.448 138.928Z" fill="white"/>
<path d="M248.568 146.968C248.649 147.494 248.884 147.984 249.244 148.376C249.604 148.768 250.073 149.045 250.59 149.17C251.107 149.296 251.65 149.265 252.15 149.082C252.65 148.899 253.084 148.571 253.397 148.141C253.71 147.711 253.889 147.197 253.91 146.665C253.931 146.133 253.794 145.607 253.516 145.153C253.238 144.7 252.831 144.339 252.348 144.116C251.864 143.894 251.325 143.82 250.8 143.904C250.098 144.016 249.47 144.401 249.052 144.976C248.634 145.55 248.46 146.266 248.568 146.968V146.968Z" fill="white"/>
<path d="M275.648 243.056C275.648 243.056 287.104 224.224 272.84 206.256C266.968 198.864 253.112 185.608 225 187.456C218.328 187.896 209.136 193.248 220.288 196.488C228.208 198.792 233.928 197.856 238.296 200.032C238.296 200.032 227.408 208.232 228.112 214.896C228.424 217.872 228.656 224.376 230.376 230.568C230.376 230.568 232.632 232.168 234.464 231.896C234.464 231.896 239.4 246.136 257.152 250.512L275.648 243.056Z" fill="#FFCFC9"/>
<path d="M266.816 203.84C262.224 202.008 252.416 198.296 243.336 198.04C233.248 197.76 213.736 199.944 213.616 207.392C213.52 212.856 221.04 212.672 221.04 212.672C221.04 212.672 213.168 215.272 214.168 220.224C215.072 224.736 220.88 224.224 220.88 224.224C220.88 224.224 216.376 226.624 218.088 230.8C220.144 235.824 229.24 230 235.688 233.264C237.176 234.032 266.816 203.84 266.816 203.84Z" fill="#FFCFC9"/>
<path d="M244.8 208.744C240.2 207.736 229.152 208.12 221.136 212.496C220.952 212.592 220.928 212.784 221.136 212.728C228.838 210.482 236.784 209.176 244.8 208.84C244.872 208.84 244.872 208.8 244.8 208.744Z" fill="#263238"/>
<path d="M244.24 218.92C240.176 218.456 228.808 219.36 220.84 224.072C220.656 224.176 220.648 224.368 220.84 224.304C228.42 221.662 236.276 219.888 244.256 219.016C244.268 219.014 244.28 219.007 244.287 218.996C244.295 218.986 244.298 218.973 244.296 218.96C244.294 218.947 244.287 218.936 244.276 218.928C244.266 218.921 244.252 218.918 244.24 218.92V218.92Z" fill="#263238"/>
<path d="M260.616 251.736C256.544 250.769 252.613 249.283 248.92 247.312C245.202 245.3 241.911 242.583 239.232 239.312C238.432 238.312 237.632 237.272 236.936 236.208C236.24 235.144 235.472 233.936 234.648 232.88C234.584 232.8 234.432 232.88 234.48 232.952C235.407 235.172 236.548 237.297 237.888 239.296C239.089 241.165 240.525 242.872 242.16 244.376C245.388 247.248 249.213 249.369 253.36 250.584C255.715 251.24 258.125 251.676 260.56 251.888C260.68 251.92 260.728 251.76 260.616 251.736Z" fill="#263238"/>
<path d="M143.84 191.472C123.232 219.144 88.8399 291.264 83.7839 301.872C80.3519 309.072 117.976 328.032 119.568 322.8C121.616 316.096 155.256 227.6 159.968 195.336C162.544 177.648 150.968 181.896 143.84 191.472Z" fill="#FFCFC9"/>
<path d="M120.584 319.2C119.712 325.72 115.28 338.856 111.984 340.864C108.688 342.872 91.3679 342.464 82.6399 342.464C73.9119 342.464 72.2399 340.024 72.3439 337.024C72.4479 334.024 90.7999 333.448 90.7999 333.448C90.7999 333.448 66.3359 340.424 60.1839 341.6C54.0319 342.776 39.8639 346.32 37.7839 341.224C36.8639 338.92 40.7439 336.592 40.7439 336.592C40.7439 336.592 34.7999 338.328 33.8479 335.376C32.7759 332.008 37.5039 330.16 37.5039 330.16C37.5039 330.16 33.7839 330.904 33.6959 328.16C33.5359 322 56.7999 318.992 56.7999 318.992C56.7999 318.992 38.9919 327.664 38.3999 322.656C37.5999 315.736 74.1119 308.144 77.9119 305.128C80.6767 302.823 83.2628 300.312 85.6479 297.616L120.584 319.2Z" fill="#FFCFC9"/>
<path d="M72.4719 338.512C72.4102 338.087 72.4506 337.654 72.5897 337.247C72.7288 336.841 72.9627 336.474 73.2719 336.176C73.8992 335.601 74.6186 335.136 75.3999 334.8C77.0139 334.114 78.6876 333.579 80.3999 333.2C83.8399 332.328 87.3679 331.712 90.8799 330.8C87.2597 330.746 83.6471 331.149 80.1279 332C78.3297 332.412 76.5982 333.075 74.9839 333.968C74.1481 334.427 73.4156 335.054 72.8319 335.808C72.5449 336.19 72.3611 336.639 72.298 337.113C72.235 337.586 72.2949 338.068 72.4719 338.512V338.512Z" fill="#263238"/>
<path d="M40.7998 336.56C43.3198 335.944 45.7998 335.24 48.2718 334.52C50.7438 333.8 53.2078 333.048 55.6718 332.304L63.0398 330C65.4958 329.2 67.9518 328.464 70.4318 327.72C67.8572 328.003 65.3047 328.46 62.7918 329.088C60.2638 329.664 57.7838 330.384 55.3118 331.136C52.8398 331.888 50.3918 332.736 47.9758 333.632C45.5598 334.528 43.1198 335.472 40.7998 336.56Z" fill="#263238"/>
<path d="M64.4958 321.6C62.1228 321.749 59.7642 322.075 57.4398 322.576C55.1074 323.04 52.8025 323.633 50.5358 324.352C48.2636 325.057 46.0333 325.89 43.8558 326.848C41.6705 327.782 39.5557 328.873 37.5278 330.112C39.7758 329.312 41.9678 328.472 44.1998 327.712C46.4318 326.952 48.6558 326.2 50.9038 325.512C53.1518 324.824 55.3998 324.144 57.6638 323.48C59.9278 322.816 62.1998 322.24 64.4958 321.6Z" fill="#263238"/>
<path d="M60.8959 315.776C57.0738 316.084 53.3085 316.891 49.6959 318.176C46.0481 319.384 42.5755 321.068 39.3679 323.184C42.9839 321.896 46.5039 320.536 50.0959 319.336C53.6879 318.136 57.2479 316.952 60.8959 315.776Z" fill="#263238"/>
<path d="M152.6 238.904L110.84 237.752C110.84 237.752 133.6 201.528 145.792 188.24C158.52 174.4 165.448 175.592 161.104 200.112C156.728 224.8 152.6 238.904 152.6 238.904Z" fill="#F4C621"/>
<path d="M126.76 231.616C125.633 232.109 124.578 232.752 123.624 233.528C126.062 233.134 128.358 232.117 130.288 230.576C129.068 230.751 127.88 231.101 126.76 231.616ZM150.08 205.088C149.597 203.956 148.953 202.899 148.168 201.952C148.552 204.392 149.573 206.688 151.128 208.608C150.952 207.39 150.599 206.204 150.08 205.088V205.088ZM130.824 212.96C130.368 214.102 130.077 215.304 129.96 216.528C131.41 214.529 132.309 212.184 132.568 209.728C131.831 210.714 131.243 211.803 130.824 212.96V212.96ZM149.224 229.312C148.764 230.455 148.475 231.66 148.368 232.888C149.809 230.884 150.707 228.542 150.976 226.088C150.236 227.073 149.64 228.159 149.208 229.312H149.224ZM161.464 181.752C161.264 182.168 161.08 182.592 160.904 183.024C160.452 184.168 160.162 185.368 160.04 186.592C160.776 185.615 161.369 184.537 161.8 183.392C161.84 183.288 161.872 183.192 161.904 183.088C161.79 182.631 161.637 182.184 161.448 181.752H161.464Z" fill="white"/>
<path d="M149.984 231.64C148.992 231.496 147.976 231.496 146.984 231.448L143.904 231.28C141.834 231.179 139.757 231.096 137.672 231.032C133.512 230.904 129.36 230.76 125.208 230.704C124.064 230.704 122.92 230.704 121.776 230.704C120.632 230.704 119.376 230.824 118.176 230.832C118.104 230.832 118.112 230.944 118.176 230.944C119.2 231.008 120.224 231.16 121.256 231.224C122.288 231.288 123.36 231.352 124.416 231.392C126.496 231.472 128.576 231.544 130.656 231.592C134.744 231.688 138.84 231.8 142.928 231.808H146.4C147.592 231.808 148.8 231.872 150 231.768C150.032 231.744 150.048 231.648 149.984 231.64Z" fill="#263238"/>
<path d="M160.696 211.744C160.696 211.664 160.6 211.616 160.56 211.696C159.785 213.123 159.122 214.607 158.576 216.136C158.72 215.408 158.888 214.68 159.024 213.944C159.48 211.592 159.896 209.224 160.36 206.872C160.355 206.858 160.346 206.846 160.334 206.837C160.321 206.828 160.307 206.824 160.292 206.824C160.277 206.824 160.262 206.828 160.25 206.837C160.238 206.846 160.229 206.858 160.224 206.872C159.144 210.92 157.888 214.928 156.928 219.008C155.968 223.088 155 227.168 154.104 231.264C153.616 233.528 153.176 236.352 152.68 238.608C151.472 238.752 149.92 238.608 148.616 238.776C148.504 238.776 148.536 238.976 148.616 238.976C149.992 239.016 151.632 239.328 153.08 239.24C153.264 239.24 156.768 224.688 158.224 217.72C159.12 215.736 159.952 213.752 160.696 211.744Z" fill="#263238"/>
<path d="M190.4 189.12C189.816 191.032 189.152 192.92 188.392 194.768C187.757 196.433 186.978 198.039 186.064 199.568C184.336 202.296 181.68 204.552 178.312 204.544C175.112 204.544 172.184 202.688 170.136 200.32C167.896 197.736 166.408 194.496 165.072 191.376C164.272 189.448 163.472 187.48 162.832 185.488C162.504 184.48 162.16 183.472 161.872 182.448C161.584 181.424 161.336 180.392 160.984 179.392C160.984 179.312 160.808 179.32 160.832 179.392C161.424 181.696 163.144 188.992 163.832 190.848C165.096 194.248 166.52 197.76 168.8 200.624C170.96 203.328 173.896 205.376 177.408 205.712C180.92 206.048 183.928 204.2 185.864 201.416C187.002 199.662 187.891 197.759 188.504 195.76C189.248 193.568 189.872 191.32 190.44 189.072C190.472 189.104 190.4 189.096 190.4 189.12Z" fill="#263238"/>
<path d="M321.488 344.4H264.12L261.56 293.968H321.488V344.4Z" fill="#DBDBDB"/>
<path d="M321.488 293.968L342.096 268.168L358.496 293.968L355.936 344.4H321.488V293.968Z" fill="#C7C7C7"/>
<path d="M281.584 259.976H342.824L364.912 296.008H357.8L342.824 271.064L325.552 298.984H256.504L281.584 259.976Z" fill="#A6A6A6"/>
<path d="M288.68 271.376H275.512L268.488 279.792H283.688L288.68 271.376Z" fill="#C7C7C7"/>
<path d="M278.704 278.352V288.6H271.376V278.352L275.04 273.768L278.704 278.352Z" fill="#DBDBDB"/>
<path d="M278.704 278.344H284.464L278.704 288.6V278.344Z" fill="#C7C7C7"/>
<path d="M276.936 278.512H272.768V285.544H276.936V278.512Z" fill="#FBFAFF"/>
<path d="M274.624 279H273.28V281.264H274.624V279Z" fill="#EBEBEB"/>
<path d="M276.416 279H275.072V281.264H276.416V279Z" fill="#EBEBEB"/>
<path d="M274.624 281.672H273.28V285.024H274.624V281.672Z" fill="#EBEBEB"/>
<path d="M276.416 281.672H275.072V285.024H276.416V281.672Z" fill="#EBEBEB"/>
<path d="M320.92 271.376H307.752L301.16 279.792H315.896L320.92 271.376Z" fill="#C7C7C7"/>
<path d="M310.944 278.352V288.6H303.616V278.352L307.28 273.768L310.944 278.352Z" fill="#DBDBDB"/>
<path d="M310.944 278.344H316.712L310.944 288.6V278.344Z" fill="#C7C7C7"/>
<path d="M309.176 278.512H305.008V285.544H309.176V278.512Z" fill="#FBFAFF"/>
<path d="M306.864 279H305.52V281.264H306.864V279Z" fill="#EBEBEB"/>
<path d="M308.664 279H307.32V281.264H308.664V279Z" fill="#EBEBEB"/>
<path d="M306.864 281.672H305.52V285.024H306.864V281.672Z" fill="#EBEBEB"/>
<path d="M308.664 281.672H307.32V285.024H308.664V281.672Z" fill="#EBEBEB"/>
<path d="M331.84 258.52H324.512V268.168H331.84V258.52Z" fill="#DBDBDB"/>
<path d="M331.84 258.52H337.6V260.072L331.84 268.168V258.52Z" fill="#C7C7C7"/>
<path d="M331.84 255.24H323.688V258.52H331.84V255.24Z" fill="#C7C7C7"/>
<path d="M338.232 255.24H331.84V258.52H338.232V255.24Z" fill="#A6A6A6"/>
<path d="M279.256 303.112H270.184V318.432H279.256V303.112Z" fill="#FBFAFF"/>
<path d="M274.224 304.176H271.304V309.112H274.224V304.176Z" fill="#EBEBEB"/>
<path d="M278.136 304.176H275.216V309.112H278.136V304.176Z" fill="#EBEBEB"/>
<path d="M274.224 310H271.304V317.312H274.224V310Z" fill="#EBEBEB"/>
<path d="M278.136 310H275.216V317.312H278.136V310Z" fill="#EBEBEB"/>
<path d="M312.952 303.112H303.88V318.432H312.952V303.112Z" fill="#FBFAFF"/>
<path d="M307.92 304.176H305V309.112H307.92V304.176Z" fill="#EBEBEB"/>
<path d="M311.832 304.176H308.912V309.112H311.832V304.176Z" fill="#EBEBEB"/>
<path d="M307.92 310H305V317.312H307.92V310Z" fill="#EBEBEB"/>
<path d="M311.832 310H308.912V317.312H311.832V310Z" fill="#EBEBEB"/>
<path d="M279.256 324.4H270.184V339.72H279.256V324.4Z" fill="#FBFAFF"/>
<path d="M274.224 325.464H271.304V330.4H274.224V325.464Z" fill="#EBEBEB"/>
<path d="M278.136 325.464H275.216V330.4H278.136V325.464Z" fill="#EBEBEB"/>
<path d="M274.224 331.288H271.304V338.6H274.224V331.288Z" fill="#EBEBEB"/>
<path d="M278.136 331.288H275.216V338.6H278.136V331.288Z" fill="#EBEBEB"/>
<path d="M312.952 324.4H303.88V339.72H312.952V324.4Z" fill="#FBFAFF"/>
<path d="M307.92 325.464H305V330.4H307.92V325.464Z" fill="#EBEBEB"/>
<path d="M311.832 325.464H308.912V330.4H311.832V325.464Z" fill="#EBEBEB"/>
<path d="M307.92 331.288H305V338.6H307.92V331.288Z" fill="#EBEBEB"/>
<path d="M311.832 331.288H308.912V338.6H311.832V331.288Z" fill="#EBEBEB"/>
<path d="M296.056 303.112H286.984V318.432H296.056V303.112Z" fill="#FBFAFF"/>
<path d="M291.024 304.176H288.104V309.112H291.024V304.176Z" fill="#EBEBEB"/>
<path d="M294.944 304.176H292.024V309.112H294.944V304.176Z" fill="#EBEBEB"/>
<path d="M291.024 310H288.104V317.312H291.024V310Z" fill="#EBEBEB"/>
<path d="M294.944 310H292.024V317.312H294.944V310Z" fill="#EBEBEB"/>
<path d="M296.056 324.504H286.984V339.824H296.056V324.504Z" fill="#FBFAFF"/>
<path d="M291.024 325.56H288.104V330.496H291.024V325.56Z" fill="#EBEBEB"/>
<path d="M294.944 325.56H292.024V330.496H294.944V325.56Z" fill="#EBEBEB"/>
<path d="M291.024 331.392H288.104V338.704H291.024V331.392Z" fill="#EBEBEB"/>
<path d="M294.944 331.392H292.024V338.704H294.944V331.392Z" fill="#EBEBEB"/>
<path d="M337.792 318.432H346.864V303.112H337.792V318.432Z" fill="#FBFAFF"/>
<path d="M345.744 304.176H342.824V309.112H345.744V304.176Z" fill="#EBEBEB"/>
<path d="M341.824 304.176H338.904V309.112H341.824V304.176Z" fill="#EBEBEB"/>
<path d="M345.744 310H342.824V317.312H345.744V310Z" fill="#EBEBEB"/>
<path d="M341.824 310H338.904V317.312H341.824V310Z" fill="#EBEBEB"/>
<path d="M337.792 294.752H346.864V281.784H337.792V294.752Z" fill="#FBFAFF"/>
<path d="M345.744 282.84H342.824V287.776H345.744V282.84Z" fill="#EBEBEB"/>
<path d="M341.824 282.84H338.904V287.776H341.824V282.84Z" fill="#EBEBEB"/>
<path d="M345.744 288.72H342.824V293.656H345.744V288.72Z" fill="#EBEBEB"/>
<path d="M341.824 288.72H338.904V293.656H341.824V288.72Z" fill="#EBEBEB"/>
<path d="M336.501 344.494L347.501 344.546L347.595 324.57L336.595 324.518L336.501 344.494Z" fill="#FBFAFF"/>
<path d="M340.895 325.901L340.881 328.893L343.249 328.904L343.263 325.912L340.895 325.901Z" fill="#EBEBEB"/>
<path d="M337.801 325.885L337.787 328.877L340.155 328.888L340.169 325.896L337.801 325.885Z" fill="#EBEBEB"/>
<path d="M339.522 339.756L344.521 339.78L344.525 339.06L339.525 339.036L339.522 339.756Z" fill="#EBEBEB"/>
<path d="M342.376 324.376V327.368H344.744V324.376H342.376Z" fill="#EBEBEB"/>
<path d="M340.887 329.679L340.873 332.671L343.241 332.682L343.255 329.69L340.887 329.679Z" fill="#EBEBEB"/>
<path d="M337.769 329.655L337.755 332.647L340.123 332.658L340.137 329.666L337.769 329.655Z" fill="#EBEBEB"/>
<path d="M343.99 329.695L343.976 332.687L346.344 332.698L346.358 329.706L343.99 329.695Z" fill="#EBEBEB"/>
<path d="M340.871 333.465L340.857 336.457L343.225 336.468L343.239 333.476L340.871 333.465Z" fill="#EBEBEB"/>
<path d="M337.761 333.449L337.747 336.441L340.115 336.452L340.129 333.46L337.761 333.449Z" fill="#EBEBEB"/>
<path d="M343.974 333.481L343.96 336.473L346.328 336.484L346.342 333.492L343.974 333.481Z" fill="#EBEBEB"/>
<path d="M163.6 344.536H112.64L110.36 319.84H163.6V344.536Z" fill="#DBDBDB"/>
<path d="M163.584 319.808L181.888 296.896L196.464 319.808L194.184 344.504H163.584V319.808Z" fill="#C7C7C7"/>
<path d="M127.848 289.648H183.2L203.704 324.296H198.112L182.448 298.216L167.4 324.296H106.072L127.848 289.648Z" fill="#A6A6A6"/>
<path d="M126.208 329.008H118.144V340.528H126.208V329.008Z" fill="#FBFAFF"/>
<path d="M121.728 329.952H119.136V334.336H121.728V329.952Z" fill="#DBDBDB"/>
<path d="M125.208 329.952H122.616V334.336H125.208V329.952Z" fill="#DBDBDB"/>
<path d="M121.728 335.168H119.136V339.552H121.728V335.168Z" fill="#DBDBDB"/>
<path d="M125.208 335.168H122.616V339.552H125.208V335.168Z" fill="#DBDBDB"/>
<path d="M155.824 329.008H147.76V340.528H155.824V329.008Z" fill="#FBFAFF"/>
<path d="M151.344 329.952H148.752V334.336H151.344V329.952Z" fill="#DBDBDB"/>
<path d="M154.824 329.952H152.232V334.336H154.824V329.952Z" fill="#DBDBDB"/>
<path d="M151.344 335.168H148.752V339.552H151.344V335.168Z" fill="#DBDBDB"/>
<path d="M154.824 335.168H152.232V339.552H154.824V335.168Z" fill="#DBDBDB"/>
<path d="M141.064 328.392H132.176V344.536H141.064V328.392Z" fill="#FBFAFF"/>
<path d="M137.576 329.504H135.664V331.92H137.576V329.504Z" fill="#DBDBDB"/>
<path d="M140.088 329.504H138.176V331.92H140.088V329.504Z" fill="#DBDBDB"/>
<path d="M138.64 340.104H134.6V340.688H138.64V340.104Z" fill="#DBDBDB"/>
<path d="M135.064 329.504H133.152V331.92H135.064V329.504Z" fill="#DBDBDB"/>
<path d="M137.576 332.56H135.664V334.976H137.576V332.56Z" fill="#DBDBDB"/>
<path d="M140.088 332.56H138.176V334.976H140.088V332.56Z" fill="#DBDBDB"/>
<path d="M135.064 332.56H133.152V334.976H135.064V332.56Z" fill="#DBDBDB"/>
<path d="M137.576 335.616H135.664V338.032H137.576V335.616Z" fill="#DBDBDB"/>
<path d="M140.088 335.616H138.176V338.032H140.088V335.616Z" fill="#DBDBDB"/>
<path d="M135.064 335.616H133.152V338.032H135.064V335.616Z" fill="#DBDBDB"/>
<path d="M139.56 288.264H133.048V296.832H139.56V288.264Z" fill="#DBDBDB"/>
<path d="M139.56 288.264H144.68V289.64L139.56 296.832V288.264Z" fill="#C7C7C7"/>
<path d="M139.56 285.344H132.32V288.256H139.56V285.344Z" fill="#C7C7C7"/>
<path d="M145.24 285.344H139.56V288.256H145.24V285.344Z" fill="#A6A6A6"/>
<path d="M183.744 344.544H200.272L201.848 327.512H183.744V344.544Z" fill="#C7C7C7"/>
<path d="M183.744 327.512L175.576 323.824L175.76 344.544H183.744V327.512Z" fill="#DBDBDB"/>
<path d="M196.4 331.92H189.448V344.536H196.4V331.92Z" fill="#FBFAFF"/>
<path d="M193.672 332.784H192.176V334.672H193.672V332.784Z" fill="#DBDBDB"/>
<path d="M195.632 332.784H194.136V334.672H195.632V332.784Z" fill="#DBDBDB"/>
<path d="M194.504 340.224H191.344V340.68H194.504V340.224Z" fill="#DBDBDB"/>
<path d="M191.712 332.784H190.216V334.672H191.712V332.784Z" fill="#DBDBDB"/>
<path d="M174.328 322.976H198.344L206.104 328.88H183.048L174.328 322.976Z" fill="#A6A6A6"/>
<path d="M183.048 328.88H174.328V322.976L183.048 328.88Z" fill="#C7C7C7"/>
<path d="M177.888 314.344C177.888 315.159 178.13 315.956 178.583 316.634C179.036 317.311 179.68 317.84 180.433 318.151C181.186 318.463 182.015 318.544 182.815 318.384C183.614 318.225 184.348 317.831 184.924 317.254C185.5 316.677 185.892 315.943 186.05 315.143C186.208 314.343 186.125 313.514 185.812 312.762C185.499 312.009 184.97 311.366 184.291 310.914C183.612 310.463 182.815 310.222 182 310.224C180.909 310.226 179.863 310.661 179.092 311.434C178.321 312.206 177.888 313.253 177.888 314.344V314.344Z" fill="#FBFAFF"/>
<path d="M178.808 314.344C178.808 315.193 179.145 316.007 179.745 316.607C180.345 317.207 181.159 317.544 182.008 317.544C182.278 317.546 182.547 317.511 182.808 317.44C183.553 317.238 184.2 316.773 184.629 316.131C185.059 315.489 185.242 314.714 185.144 313.948C185.047 313.182 184.676 312.477 184.099 311.963C183.523 311.449 182.78 311.161 182.008 311.152C181.738 311.151 181.469 311.186 181.208 311.256C180.836 311.346 180.485 311.51 180.176 311.736C179.756 312.029 179.412 312.419 179.174 312.873C178.936 313.327 178.811 313.832 178.808 314.344Z" fill="#C7C7C7"/>
<path d="M181.56 318.104H182.448V310.52H181.56V318.104Z" fill="#FBFAFF"/>
<path d="M185.8 314.752V313.864H178.216V314.752H185.8Z" fill="#FBFAFF"/>
<path d="M207.296 344.544H181.544L179.784 325.496H207.296V344.544Z" fill="#F4C621"/>
<path opacity="0.2" d="M207.296 344.544H181.544L179.784 325.496H207.296V344.544Z" fill="black"/>
<path d="M207.296 325.496L221.416 307.816L232.656 325.496L230.904 344.544H207.296V325.496Z" fill="#F4C621"/>
<path d="M209 327.824H174.056L195.312 301.096H221.56L237.336 327.824H233.328L221.56 309.512L209 327.824Z" fill="#F4C621"/>
<path opacity="0.4" d="M209 327.824H174.056L195.312 301.096H221.56L237.336 327.824H233.328L221.56 309.512L209 327.824Z" fill="black"/>
<path d="M244.264 277.456H236.984V287.04H244.264V277.456Z" fill="#F4C621"/>
<path opacity="0.2" d="M244.264 277.456H236.984V287.04H244.264V277.456Z" fill="black"/>
<path d="M249.992 277.456H244.264V287.04H249.992V277.456Z" fill="#F4C621"/>
<path d="M244.264 274.192H236.168V277.448H244.264V274.192Z" fill="#F4C621"/>
<path opacity="0.5" d="M244.264 274.192H236.168V277.448H244.264V274.192Z" fill="black"/>
<path d="M250.616 274.192H244.264V277.448H250.616V274.192Z" fill="#F4C621"/>
<path opacity="0.4" d="M250.616 274.192H244.264V277.448H250.616V274.192Z" fill="black"/>
<path d="M269.848 344.52H212.848L210.296 316.896H269.848V344.52Z" fill="#F4C621"/>
<path opacity="0.2" d="M269.848 344.52H212.848L210.296 316.896H269.848V344.52Z" fill="black"/>
<path d="M269.848 316.896L290.32 291.256L306.624 316.896L304.072 344.52H269.848V316.896Z" fill="#F4C621"/>
<path d="M290.072 292.88L306.904 318.912H312.784L290.576 283.12H229.944L199.224 321.88H273.28L290.072 292.88Z" fill="#F4C621"/>
<path opacity="0.5" d="M290.072 292.88L306.904 318.912H312.784L290.576 283.12H229.944L199.224 321.88H273.28L290.072 292.88Z" fill="black"/>
<path d="M285 320.776H294.016V307.888H285V320.776Z" fill="#FBFAFF"/>
<path d="M292.904 308.936H290V313.84H292.904V308.936Z" fill="#F4C621"/>
<path d="M289.016 308.936H286.112V313.84H289.016V308.936Z" fill="#F4C621"/>
<path d="M292.904 314.776H290V319.68H292.904V314.776Z" fill="#F4C621"/>
<path d="M289.016 314.776H286.112V319.68H289.016V314.776Z" fill="#F4C621"/>
<path d="M228.016 327.144H219V340.032H228.016V327.144Z" fill="#FBFAFF"/>
<path d="M223.016 328.2H220.112V333.104H223.016V328.2Z" fill="#F4C621"/>
<path d="M226.912 328.2H224.008V333.104H226.912V328.2Z" fill="#F4C621"/>
<path d="M223.016 334.04H220.112V338.944H223.016V334.04Z" fill="#F4C621"/>
<path d="M226.912 334.04H224.008V338.944H226.912V334.04Z" fill="#F4C621"/>
<path d="M244.584 327.144H235.568V340.032H244.584V327.144Z" fill="#FBFAFF"/>
<path d="M239.576 328.2H236.672V333.104H239.576V328.2Z" fill="#F4C621"/>
<path d="M243.472 328.2H240.568V333.104H243.472V328.2Z" fill="#F4C621"/>
<path d="M239.576 334.04H236.672V338.944H239.576V334.04Z" fill="#F4C621"/>
<path d="M243.472 334.04H240.568V338.944H243.472V334.04Z" fill="#F4C621"/>
<path d="M261.144 327.144H252.128V340.032H261.144V327.144Z" fill="#FBFAFF"/>
<path d="M256.144 328.2H253.24V333.104H256.144V328.2Z" fill="#F4C621"/>
<path d="M260.032 328.2H257.128V333.104H260.032V328.2Z" fill="#F4C621"/>
<path d="M256.144 334.04H253.24V338.944H256.144V334.04Z" fill="#F4C621"/>
<path d="M260.032 334.04H257.128V338.944H260.032V334.04Z" fill="#F4C621"/>
<path d="M284.536 344.512H294.48V326.456H284.536V344.512Z" fill="#FBFAFF"/>
<path d="M290.584 327.704H288.44V330.408H290.584V327.704Z" fill="#F4C621"/>
<path d="M287.776 327.704H285.632V330.408H287.776V327.704Z" fill="#F4C621"/>
<path d="M287.248 340.216H291.768V339.56H287.248V340.216Z" fill="#F4C621"/>
<path d="M293.384 327.704H291.24V330.408H293.384V327.704Z" fill="#F4C621"/>
<path d="M290.584 331.12H288.44V333.824H290.584V331.12Z" fill="#F4C621"/>
<path d="M287.776 331.12H285.632V333.824H287.776V331.12Z" fill="#F4C621"/>
<path d="M293.384 331.12H291.24V333.824H293.384V331.12Z" fill="#F4C621"/>
<path d="M290.584 334.536H288.44V337.24H290.584V334.536Z" fill="#F4C621"/>
<path d="M287.776 334.536H285.632V337.24H287.776V334.536Z" fill="#F4C621"/>
<path d="M293.384 334.536H291.24V337.24H293.384V334.536Z" fill="#F4C621"/>
<path d="M253.416 292.4H240.328L233.6 300.8H248.416L253.416 292.4Z" fill="#F4C621"/>
<path opacity="0.4" d="M253.416 292.4H240.328L233.6 300.8H248.416L253.416 292.4Z" fill="black"/>
<path d="M243.504 299.328V309.512H236.216V299.328L239.864 294.776L243.504 299.328Z" fill="#F4C621"/>
<path opacity="0.2" d="M243.504 299.328V309.512H236.216V299.328L239.864 294.776L243.504 299.328Z" fill="black"/>
<path d="M243.504 299.328H249.232L243.504 309.512V299.328Z" fill="#F4C621"/>
<path d="M241.736 299.488H237.6V306.472H241.736V299.488Z" fill="#FBFAFF"/>
<path d="M239.448 299.968H238.112V302.216H239.448V299.968Z" fill="#F4C621"/>
<path d="M241.232 299.968H239.896V302.216H241.232V299.968Z" fill="#F4C621"/>
<path d="M239.448 302.632H238.112V305.968H239.448V302.632Z" fill="#F4C621"/>
<path d="M241.232 302.632H239.896V305.968H241.232V302.632Z" fill="#F4C621"/>
<path d="M329.296 195.136C332.859 198.166 335.51 202.126 336.952 206.575C338.395 211.024 338.573 215.786 337.466 220.33C336.359 224.874 334.011 229.021 330.683 232.308C327.356 235.595 323.181 237.892 318.624 238.944L313.024 250.408L307.592 239.024C303.53 238.154 299.749 236.284 296.592 233.584C294.067 231.436 291.991 228.812 290.48 225.862C288.97 222.911 288.055 219.692 287.789 216.388C287.251 209.715 289.386 203.103 293.724 198.004C298.062 192.906 304.247 189.739 310.92 189.201C317.592 188.663 324.205 190.798 329.304 195.136H329.296Z" fill="white"/>
<path d="M329.296 195.136C332.858 198.167 335.513 202.123 336.968 206.568C337.332 207.674 337.626 208.801 337.848 209.944C338.039 211.093 338.16 212.252 338.208 213.416C338.317 215.75 338.099 218.087 337.56 220.36C337.03 222.639 336.188 224.833 335.056 226.88C334.484 227.901 333.839 228.879 333.128 229.808C332.441 230.756 331.681 231.649 330.856 232.48C327.52 235.84 323.311 238.201 318.704 239.296L318.952 239.104L313.416 250.6L313.016 251.44L312.616 250.6L307.144 239.24L307.48 239.504C302.713 238.471 298.341 236.093 294.883 232.654C291.424 229.214 289.023 224.856 287.963 220.094C286.904 215.333 287.23 210.367 288.904 205.786C290.578 201.204 293.529 197.197 297.408 194.24C300.485 191.934 304.038 190.343 307.808 189.584C311.576 188.821 315.469 188.925 319.191 189.886C322.914 190.848 326.369 192.643 329.296 195.136V195.136ZM329.296 195.136C326.389 192.654 322.95 190.873 319.246 189.93C315.542 188.986 311.67 188.906 307.93 189.695C304.19 190.485 300.681 192.122 297.674 194.481C294.666 196.841 292.241 199.859 290.584 203.304C288.932 206.71 288.078 210.447 288.088 214.232C288.134 217.999 288.997 221.711 290.616 225.112C292.257 228.497 294.645 231.464 297.6 233.792C300.56 236.108 304.002 237.732 307.672 238.544L307.912 238.6L308.008 238.816L313.408 250.216H312.608L318.296 238.792L318.368 238.632H318.536C323.058 237.642 327.214 235.409 330.536 232.184C331.361 231.379 332.123 230.513 332.816 229.592C333.532 228.688 334.182 227.734 334.76 226.736C335.92 224.735 336.792 222.58 337.352 220.336C337.932 218.091 338.18 215.773 338.088 213.456C338.046 212.299 337.937 211.145 337.76 210C337.544 208.861 337.258 207.736 336.904 206.632C335.478 202.171 332.845 198.192 329.296 195.136V195.136Z" fill="#263238"/>
<path d="M319.8 207.952C319.52 207.667 319.209 207.415 318.872 207.2C318.426 206.911 317.957 206.657 317.472 206.44C316.297 205.907 315.038 205.582 313.752 205.48V212.68L314.416 212.816C315.562 213.089 316.691 213.426 317.8 213.824C318.713 214.145 319.573 214.601 320.352 215.176C321.029 215.697 321.577 216.368 321.952 217.136C322.353 218.025 322.547 218.993 322.52 219.968C322.552 221.05 322.327 222.125 321.864 223.104C321.436 223.963 320.811 224.709 320.04 225.28C319.223 225.875 318.304 226.315 317.328 226.576C316.248 226.873 315.135 227.032 314.016 227.048V230.696H312.216V226.976C310.577 226.877 308.961 226.546 307.416 225.992C305.927 225.457 304.534 224.687 303.288 223.712L305.056 220.384C305.39 220.727 305.764 221.031 306.168 221.288C306.71 221.641 307.276 221.954 307.864 222.224C308.555 222.543 309.269 222.81 310 223.024C310.784 223.256 311.587 223.42 312.4 223.512V216.312C312.264 216.272 312.112 216.224 311.968 216.192C311.821 216.162 311.677 216.121 311.536 216.072C310.451 215.791 309.382 215.45 308.336 215.048C307.512 214.741 306.744 214.301 306.064 213.744C305.478 213.261 305.01 212.651 304.696 211.96C304.359 211.175 304.198 210.326 304.224 209.472C304.202 208.436 304.404 207.407 304.816 206.456C305.2 205.588 305.768 204.812 306.48 204.184C307.216 203.532 308.068 203.024 308.992 202.688C310.021 202.313 311.099 202.087 312.192 202.016V198.504H313.992V202.016C315.421 202.089 316.829 202.394 318.16 202.92C319.355 203.386 320.487 204.002 321.528 204.752L319.8 207.952ZM308.344 208.848C308.315 209.27 308.394 209.693 308.574 210.076C308.753 210.459 309.026 210.791 309.368 211.04C310.322 211.64 311.372 212.073 312.472 212.32V205.48C311.348 205.452 310.247 205.802 309.344 206.472C309.011 206.769 308.749 207.136 308.576 207.547C308.403 207.958 308.323 208.403 308.344 208.848V208.848ZM318.4 220.376C318.421 219.918 318.32 219.463 318.106 219.058C317.892 218.653 317.574 218.313 317.184 218.072C316.122 217.441 314.974 216.966 313.776 216.664V223.536C314.969 223.594 316.156 223.317 317.2 222.736C317.589 222.483 317.905 222.131 318.116 221.717C318.327 221.302 318.425 220.84 318.4 220.376V220.376Z" fill="#F4C621"/>
<path d="M26.56 40.31V31.94C26.56 29.56 27.19 27.82 28.45 26.72C29.73 25.62 31.44 25.07 33.58 25.07C35.72 25.07 37.43 25.62 38.71 26.72C39.99 27.82 40.63 29.56 40.63 31.94V40.31C40.63 42.69 39.99 44.43 38.71 45.53C37.43 46.63 35.72 47.18 33.58 47.18C31.44 47.18 29.73 46.63 28.45 45.53C27.19 44.43 26.56 42.69 26.56 40.31ZM30.46 40.31C30.46 42.61 31.5 43.76 33.58 43.76C35.68 43.76 36.73 42.61 36.73 40.31V31.94C36.73 29.64 35.68 28.49 33.58 28.49C31.5 28.49 30.46 29.64 30.46 31.94V40.31ZM43.668 45.77V33.95C43.668 33.59 43.838 33.3 44.178 33.08C44.538 32.86 45.008 32.75 45.588 32.75C46.068 32.75 46.468 32.86 46.788 33.08C47.128 33.3 47.298 33.59 47.298 33.95V34.85C47.618 34.21 48.128 33.67 48.828 33.23C49.548 32.79 50.378 32.57 51.318 32.57C52.698 32.57 53.898 33.17 54.918 34.37C55.958 35.57 56.478 37 56.478 38.66V45.77C56.478 46.15 56.278 46.45 55.878 46.67C55.498 46.89 55.048 47 54.528 47C54.028 47 53.578 46.89 53.178 46.67C52.798 46.45 52.608 46.15 52.608 45.77V38.66C52.608 37.96 52.348 37.34 51.828 36.8C51.308 36.24 50.698 35.96 49.998 35.96C49.338 35.96 48.758 36.21 48.258 36.71C47.778 37.21 47.538 37.86 47.538 38.66V45.77C47.538 46.07 47.338 46.35 46.938 46.61C46.558 46.87 46.108 47 45.588 47C45.048 47 44.588 46.88 44.208 46.64C43.848 46.38 43.668 46.09 43.668 45.77ZM59.6411 45.77V25.64C59.6411 25.28 59.8111 24.99 60.1511 24.77C60.5111 24.55 60.9811 24.44 61.5611 24.44C62.1011 24.44 62.5611 24.55 62.9411 24.77C63.3211 24.99 63.5111 25.28 63.5111 25.64V45.77C63.5111 46.07 63.3111 46.35 62.9111 46.61C62.5311 46.87 62.0811 47 61.5611 47C61.0211 47 60.5611 46.88 60.1811 46.64C59.8211 46.38 59.6411 46.09 59.6411 45.77ZM66.5732 27.68C66.5732 27.16 66.7732 26.72 67.1732 26.36C67.5932 25.98 68.1032 25.79 68.7032 25.79C69.2832 25.79 69.7732 25.98 70.1732 26.36C70.5932 26.72 70.8032 27.16 70.8032 27.68C70.8032 28.18 70.5932 28.62 70.1732 29C69.7732 29.38 69.2832 29.57 68.7032 29.57C68.1032 29.57 67.5932 29.38 67.1732 29C66.7732 28.62 66.5732 28.18 66.5732 27.68ZM66.7832 45.77V33.95C66.7832 33.59 66.9632 33.3 67.3232 33.08C67.6832 32.86 68.1432 32.75 68.7032 32.75C69.2632 32.75 69.7232 32.86 70.0832 33.08C70.4632 33.3 70.6532 33.59 70.6532 33.95V45.77C70.6532 46.07 70.4532 46.35 70.0532 46.61C69.6732 46.87 69.2232 47 68.7032 47C68.1632 47 67.7032 46.88 67.3232 46.64C66.9632 46.38 66.7832 46.09 66.7832 45.77ZM73.6387 45.77V33.95C73.6387 33.59 73.8087 33.3 74.1487 33.08C74.5087 32.86 74.9787 32.75 75.5587 32.75C76.0387 32.75 76.4387 32.86 76.7587 33.08C77.0987 33.3 77.2687 33.59 77.2687 33.95V34.85C77.5887 34.21 78.0987 33.67 78.7987 33.23C79.5187 32.79 80.3487 32.57 81.2887 32.57C82.6687 32.57 83.8687 33.17 84.8887 34.37C85.9287 35.57 86.4487 37 86.4487 38.66V45.77C86.4487 46.15 86.2487 46.45 85.8487 46.67C85.4687 46.89 85.0187 47 84.4987 47C83.9987 47 83.5487 46.89 83.1487 46.67C82.7687 46.45 82.5787 46.15 82.5787 45.77V38.66C82.5787 37.96 82.3187 37.34 81.7987 36.8C81.2787 36.24 80.6687 35.96 79.9687 35.96C79.3087 35.96 78.7287 36.21 78.2287 36.71C77.7487 37.21 77.5087 37.86 77.5087 38.66V45.77C77.5087 46.07 77.3087 46.35 76.9087 46.61C76.5287 46.87 76.0787 47 75.5587 47C75.0187 47 74.5587 46.88 74.1787 46.64C73.8187 46.38 73.6387 46.09 73.6387 45.77ZM88.8018 41.12V38.57C88.8018 36.93 89.4418 35.52 90.7218 34.34C92.0018 33.16 93.5518 32.57 95.3718 32.57C97.0718 32.57 98.5218 33.11 99.7218 34.19C100.942 35.25 101.552 36.59 101.552 38.21C101.552 38.81 101.472 39.31 101.312 39.71C101.172 40.09 100.942 40.36 100.622 40.52C100.322 40.68 100.042 40.78 99.7818 40.82C99.5218 40.86 99.1818 40.88 98.7618 40.88H92.6718V41.33C92.6718 42.19 92.9918 42.89 93.6318 43.43C94.2718 43.95 95.1218 44.21 96.1818 44.21C96.9418 44.21 97.6918 44.02 98.4318 43.64C99.1718 43.26 99.6518 43.07 99.8718 43.07C100.292 43.07 100.642 43.27 100.922 43.67C101.202 44.05 101.342 44.42 101.342 44.78C101.342 45.34 100.832 45.9 99.8118 46.46C98.8118 47 97.5618 47.27 96.0618 47.27C93.9218 47.27 92.1718 46.71 90.8118 45.59C89.4718 44.45 88.8018 42.96 88.8018 41.12ZM92.6718 38.6H97.0518C97.3718 38.6 97.5918 38.55 97.7118 38.45C97.8518 38.33 97.9218 38.11 97.9218 37.79C97.9218 37.09 97.6618 36.52 97.1418 36.08C96.6418 35.64 96.0218 35.42 95.2818 35.42C94.5818 35.42 93.9718 35.64 93.4518 36.08C92.9318 36.5 92.6718 37.06 92.6718 37.76V38.6ZM108.649 45.38C108.649 45.34 108.669 45.24 108.709 45.08L114.499 26.21C114.619 25.79 114.909 25.47 115.369 25.25C115.849 25.01 116.389 24.89 116.989 24.89C117.589 24.89 118.129 25.01 118.609 25.25C119.089 25.47 119.389 25.79 119.509 26.21L125.299 45.08C125.339 45.24 125.359 45.34 125.359 45.38C125.359 45.82 125.089 46.2 124.549 46.52C124.009 46.84 123.459 47 122.899 47C122.159 47 121.719 46.74 121.579 46.22L120.439 42.23H113.569L112.429 46.22C112.289 46.74 111.849 47 111.109 47C110.529 47 109.969 46.85 109.429 46.55C108.909 46.23 108.649 45.84 108.649 45.38ZM114.379 39.17H119.599L116.989 29.96L114.379 39.17ZM126.838 41.18V33.98C126.838 33.68 127.028 33.4 127.408 33.14C127.808 32.88 128.268 32.75 128.788 32.75C129.288 32.75 129.728 32.88 130.108 33.14C130.508 33.4 130.708 33.68 130.708 33.98V41.18C130.708 41.88 130.968 42.51 131.488 43.07C132.008 43.61 132.628 43.88 133.348 43.88C134.068 43.88 134.678 43.61 135.178 43.07C135.698 42.51 135.958 41.88 135.958 41.18V33.95C135.958 33.63 136.148 33.35 136.528 33.11C136.928 32.87 137.388 32.75 137.908 32.75C138.468 32.75 138.928 32.87 139.288 33.11C139.648 33.35 139.828 33.63 139.828 33.95V41.18C139.828 42.8 139.188 44.22 137.908 45.44C136.628 46.66 135.108 47.27 133.348 47.27C131.588 47.27 130.058 46.66 128.758 45.44C127.478 44.22 126.838 42.8 126.838 41.18ZM142.241 41.12V38.72C142.241 36.88 142.781 35.4 143.861 34.28C144.941 33.14 146.561 32.57 148.721 32.57C150.081 32.57 151.221 32.81 152.141 33.29C153.061 33.77 153.521 34.31 153.521 34.91C153.521 35.33 153.371 35.75 153.071 36.17C152.771 36.59 152.411 36.8 151.991 36.8C151.871 36.8 151.511 36.66 150.911 36.38C150.331 36.1 149.701 35.96 149.021 35.96C147.081 35.96 146.111 36.88 146.111 38.72V41.12C146.111 42.96 147.091 43.88 149.051 43.88C149.731 43.88 150.361 43.73 150.941 43.43C151.521 43.13 151.891 42.98 152.051 42.98C152.531 42.98 152.921 43.18 153.221 43.58C153.541 43.98 153.701 44.39 153.701 44.81C153.701 45.43 153.211 46 152.231 46.52C151.271 47.02 150.111 47.27 148.751 47.27C146.571 47.27 144.941 46.71 143.861 45.59C142.781 44.47 142.241 42.98 142.241 41.12ZM155.699 42.14V27.59C155.699 27.25 155.899 26.97 156.299 26.75C156.699 26.51 157.139 26.39 157.619 26.39C158.139 26.39 158.589 26.51 158.969 26.75C159.369 26.97 159.569 27.25 159.569 27.59V32.75H163.109C163.409 32.75 163.649 32.89 163.829 33.17C164.009 33.45 164.099 33.78 164.099 34.16C164.099 34.54 164.009 34.87 163.829 35.15C163.649 35.43 163.409 35.57 163.109 35.57H159.569V42.14C159.569 42.72 159.689 43.13 159.929 43.37C160.189 43.61 160.629 43.73 161.249 43.73H162.419C162.939 43.73 163.339 43.89 163.619 44.21C163.919 44.53 164.069 44.91 164.069 45.35C164.069 45.81 163.919 46.2 163.619 46.52C163.339 46.84 162.939 47 162.419 47H161.249C157.549 47 155.699 45.38 155.699 42.14ZM165.919 27.68C165.919 27.16 166.119 26.72 166.519 26.36C166.939 25.98 167.449 25.79 168.049 25.79C168.629 25.79 169.119 25.98 169.519 26.36C169.939 26.72 170.149 27.16 170.149 27.68C170.149 28.18 169.939 28.62 169.519 29C169.119 29.38 168.629 29.57 168.049 29.57C167.449 29.57 166.939 29.38 166.519 29C166.119 28.62 165.919 28.18 165.919 27.68ZM166.129 45.77V33.95C166.129 33.59 166.309 33.3 166.669 33.08C167.029 32.86 167.489 32.75 168.049 32.75C168.609 32.75 169.069 32.86 169.429 33.08C169.809 33.3 169.999 33.59 169.999 33.95V45.77C169.999 46.07 169.799 46.35 169.399 46.61C169.019 46.87 168.569 47 168.049 47C167.509 47 167.049 46.88 166.669 46.64C166.309 46.38 166.129 46.09 166.129 45.77ZM172.444 41.12V38.66C172.444 37.02 173.084 35.6 174.364 34.4C175.644 33.18 177.174 32.57 178.954 32.57C180.694 32.57 182.214 33.17 183.514 34.37C184.814 35.57 185.464 37 185.464 38.66V41.12C185.464 42.74 184.814 44.17 183.514 45.41C182.214 46.65 180.694 47.27 178.954 47.27C177.214 47.27 175.694 46.65 174.394 45.41C173.094 44.17 172.444 42.74 172.444 41.12ZM176.314 41.12C176.314 41.84 176.574 42.48 177.094 43.04C177.614 43.6 178.234 43.88 178.954 43.88C179.654 43.88 180.264 43.6 180.784 43.04C181.324 42.48 181.594 41.84 181.594 41.12V38.66C181.594 37.98 181.324 37.36 180.784 36.8C180.264 36.24 179.654 35.96 178.954 35.96C178.234 35.96 177.614 36.24 177.094 36.8C176.574 37.34 176.314 37.96 176.314 38.66V41.12ZM187.926 45.77V33.95C187.926 33.59 188.096 33.3 188.436 33.08C188.796 32.86 189.266 32.75 189.846 32.75C190.326 32.75 190.726 32.86 191.046 33.08C191.386 33.3 191.556 33.59 191.556 33.95V34.85C191.876 34.21 192.386 33.67 193.086 33.23C193.806 32.79 194.636 32.57 195.576 32.57C196.956 32.57 198.156 33.17 199.176 34.37C200.216 35.57 200.736 37 200.736 38.66V45.77C200.736 46.15 200.536 46.45 200.136 46.67C199.756 46.89 199.306 47 198.786 47C198.286 47 197.836 46.89 197.436 46.67C197.056 46.45 196.866 46.15 196.866 45.77V38.66C196.866 37.96 196.606 37.34 196.086 36.8C195.566 36.24 194.956 35.96 194.256 35.96C193.596 35.96 193.016 36.21 192.516 36.71C192.036 37.21 191.796 37.86 191.796 38.66V45.77C191.796 46.07 191.596 46.35 191.196 46.61C190.816 46.87 190.366 47 189.846 47C189.306 47 188.846 46.88 188.466 46.64C188.106 46.38 187.926 46.09 187.926 45.77Z" fill="#696969"/>
<rect x="0.5" y="0.5" width="399" height="399" stroke="white"/>
</svg>
