<svg width="32" height="30" viewBox="0 0 32 30" fill="none" xmlns="http://www.w3.org/2000/svg">
<g clip-path="url(#clip0)">
<path d="M30.6484 10.3893L16.1831 4.29508C15.9385 4.192 15.6608 4.192 15.4162 4.29508L0.95086 10.3893C0.177929 10.7149 0.177748 11.7842 0.95086 12.1098L6.15609 14.3027V20.1564C6.15609 23.3109 10.392 25.7818 15.7996 25.7818C21.2073 25.7818 25.4432 23.3109 25.4432 20.1564V14.3027L26.4076 13.8964V23.9067C26.4076 24.4245 26.8393 24.8443 27.3719 24.8443C27.9045 24.8443 28.3363 24.4245 28.3363 23.9067V13.0839L30.6484 12.1098C31.4214 11.7842 31.4215 10.715 30.6484 10.3893ZM15.7996 6.17713L27.8396 11.2496L26.8847 11.6518L15.9192 10.3192C15.3907 10.2554 14.9088 10.6195 14.8427 11.1332C14.7766 11.647 15.1515 12.1156 15.68 12.1799L23.4034 13.1185L15.7996 16.3219C8.9975 13.4562 10.4463 14.0665 3.75973 11.2495L15.7996 6.17713ZM23.5145 20.1565C23.5145 21.0398 22.7687 21.9493 21.4684 22.6516C18.3716 24.3243 13.2367 24.3292 10.1309 22.6516C8.83055 21.9493 8.0848 21.0398 8.0848 20.1565V15.1153L15.4162 18.204C15.6604 18.3069 15.938 18.3073 16.1831 18.204L23.5145 15.1153V20.1565Z" fill="black"/>
</g>
<defs>
<clipPath id="clip0">
<rect width="30.8571" height="30" fill="white" transform="translate(0.371094)"/>
</clipPath>
</defs>
</svg>
