<svg width="26" height="24" viewBox="0 0 26 24" fill="none" xmlns="http://www.w3.org/2000/svg">
<g clip-path="url(#clip0)">
<path d="M24.4733 13.6528C24.2209 13.5914 23.9685 13.6528 23.7477 13.8061C22.9274 14.4809 21.981 15.033 20.94 15.401C19.962 15.7691 18.8894 15.9531 17.7537 15.9531C15.1983 15.9531 12.8638 14.9409 11.1918 13.3154C9.51982 11.6898 8.47876 9.42016 8.47876 6.93581C8.47876 5.89299 8.66804 4.88085 8.98352 3.96072C9.33054 2.97925 9.83529 2.08979 10.4978 1.32301C10.7817 0.985629 10.7186 0.494893 10.3716 0.218854C10.1508 0.0654987 9.89839 0.00415662 9.64601 0.0654987C6.96449 0.770932 4.62998 2.33515 2.95798 4.42078C1.34906 6.47574 0.371094 9.02144 0.371094 11.8125C0.371094 15.1556 1.75918 18.1921 4.03059 20.4004C6.30199 22.6087 9.42518 23.9582 12.8638 23.9582C15.7662 23.9582 18.4477 22.9768 20.5929 21.3512C22.7697 19.695 24.3471 17.3333 25.0096 14.6342C25.1673 14.1742 24.9149 13.7448 24.4733 13.6528ZM19.6465 20.063C17.8168 21.4739 15.4823 22.3327 12.9269 22.3327C9.92994 22.3327 7.21687 21.1365 5.26093 19.2349C3.305 17.3333 2.07465 14.6956 2.07465 11.7818C2.07465 9.35882 2.89488 7.15051 4.31451 5.37159C5.29248 4.14474 6.52282 3.1326 7.94245 2.42717C7.78472 2.76455 7.62698 3.10193 7.50079 3.46998C7.09068 4.57414 6.90139 5.73964 6.90139 6.96648C6.90139 9.88023 8.13174 12.5486 10.0877 14.4502C12.0436 16.3518 14.7882 17.548 17.7852 17.548C19.1102 17.548 20.3721 17.3333 21.5394 16.9039C21.9495 16.7505 22.3596 16.5972 22.7382 16.4132C21.981 17.824 20.94 19.0815 19.6465 20.063Z" fill="black"/>
</g>
<defs>
<clipPath id="clip0">
<rect width="24.6857" height="24" fill="white" transform="translate(0.371094)"/>
</clipPath>
</defs>
</svg>
