<svg width="25" height="24" viewBox="0 0 25 24" fill="none" xmlns="http://www.w3.org/2000/svg">
<path d="M21.6827 20.7285L20.3697 6.6825C20.3327 6.2955 19.9994 6 19.5998 6H17.2855V4.5C17.2855 3.294 16.8057 2.1615 15.934 1.314C15.0623 0.4665 13.8974 0 12.657 0C10.1051 0 8.0284 2.019 8.0284 4.5V6H5.71412C5.31452 6 4.98126 6.2955 4.94577 6.6825L3.6328 20.7285C3.55412 21.5655 3.84418 22.4025 4.42737 23.0235C5.01057 23.6445 5.84063 24 6.70617 24H18.6093C19.4749 24 20.3049 23.6445 20.8881 23.0235C21.4713 22.4025 21.7598 21.5655 21.6827 20.7285ZM9.57126 4.5C9.57126 2.8455 10.9552 1.5 12.657 1.5C13.4855 1.5 14.2615 1.8105 14.8432 2.3745C15.4249 2.9385 15.7427 3.6945 15.7427 4.5V6H9.57126V4.5ZM19.7479 22.0125C19.4517 22.326 19.0475 22.5 18.6078 22.5H6.70617C6.268 22.5 5.86223 22.326 5.56755 22.011C5.27132 21.696 5.13092 21.2895 5.17103 20.8635L6.4192 7.5H8.0284V9.75C8.0284 10.164 8.374 10.5 8.79983 10.5C9.22566 10.5 9.57126 10.164 9.57126 9.75V7.5H15.7427V9.75C15.7427 10.164 16.0883 10.5 16.5141 10.5C16.9399 10.5 17.2855 10.164 17.2855 9.75V7.5H18.8947L20.1445 20.865C20.1846 21.2895 20.0442 21.6975 19.7479 22.0125Z" fill="black"/>
</svg>
