<svg width="18" height="18" viewBox="0 0 18 18" fill="none" xmlns="http://www.w3.org/2000/svg">
<path d="M9 0C4.03884 0 0 4.03884 0 9C0 13.9612 4.03884 18 9 18C13.9612 18 18 13.9612 18 9C18 4.03884 13.9612 0 9 0ZM9 16.1368C5.06529 16.1368 1.86322 12.9347 1.86322 9C1.86322 5.06529 5.06529 1.86322 9 1.86322C12.9347 1.86322 16.1368 5.06529 16.1368 9C16.1368 12.9347 12.9347 16.1368 9 16.1368Z" fill="black"/>
<path d="M10.536 8.49436C10.1009 8.25263 9.63974 8.07411 9.1823 7.88445C8.91825 7.77659 8.66536 7.64643 8.44222 7.46792C8.00338 7.11461 8.08519 6.5456 8.60214 6.31874C8.74718 6.25552 8.89966 6.23321 9.05586 6.22577C9.65462 6.1923 10.2199 6.30387 10.7629 6.5642C11.0306 6.69436 11.1199 6.65345 11.2129 6.37453C11.3096 6.07701 11.3914 5.77577 11.4769 5.47825C11.5364 5.27742 11.4621 5.14354 11.2724 5.06172C10.9265 4.90924 10.5695 4.79767 10.1939 4.74189C9.70668 4.66379 9.70668 4.66379 9.70296 4.17288C9.69924 3.47743 9.69924 3.47743 9.00751 3.48115C8.9071 3.48115 8.80668 3.47743 8.70627 3.48115C8.38272 3.4923 8.32693 3.54809 8.31949 3.87164C8.31577 4.01668 8.31949 4.16544 8.31949 4.31048C8.31577 4.74561 8.31577 4.73817 7.89924 4.88693C6.89511 5.25139 6.27404 5.93569 6.2071 7.03279C6.14759 8.00345 6.65338 8.658 7.44924 9.13403C7.94015 9.42783 8.48313 9.60262 9.00379 9.8332C9.20834 9.92246 9.40172 10.0266 9.56908 10.1679C10.0711 10.5807 9.97817 11.2687 9.38313 11.5291C9.06329 11.6667 8.72858 11.7039 8.38643 11.6592C7.85462 11.5923 7.34511 11.4547 6.86908 11.2055C6.59015 11.0605 6.50834 11.0977 6.41164 11.4026C6.32982 11.6667 6.25544 11.9307 6.18478 12.1948C6.08809 12.5518 6.12156 12.6373 6.46371 12.801C6.89511 13.0092 7.35999 13.1171 7.8323 13.1952C8.20048 13.2547 8.21536 13.2696 8.21908 13.6526C8.21908 13.8274 8.2228 14.0022 8.2228 14.1733C8.22652 14.3927 8.33065 14.5191 8.55751 14.5229C8.81412 14.5266 9.07073 14.5266 9.32734 14.5229C9.53561 14.5191 9.64346 14.4039 9.64718 14.1919C9.64718 13.9539 9.65834 13.7158 9.6509 13.4778C9.63974 13.2361 9.74387 13.1134 9.97817 13.0501C10.5137 12.9051 10.9711 12.615 11.3245 12.1873C12.2914 10.9973 11.9195 9.26048 10.536 8.49436Z" fill="black"/>
</svg>
