<svg width="25" height="24" viewBox="0 0 25 24" fill="none" xmlns="http://www.w3.org/2000/svg">
<g clip-path="url(#clip0)">
<path d="M24.7829 11.692L14.2883 1.66404C13.3884 0.804027 11.9242 0.804074 11.0243 1.664L0.529769 11.692C0.244871 11.9643 0.240917 12.4094 0.520898 12.6864C0.800878 12.9633 1.25877 12.9672 1.54362 12.695L2.36032 11.9146V19.9207C2.36032 21.6081 3.77242 22.981 5.50809 22.981H19.8046C21.5403 22.981 22.9523 21.6081 22.9523 19.9207V11.9146L23.7691 12.695C23.9099 12.8295 24.093 12.8967 24.2759 12.8967C24.4631 12.8967 24.6502 12.8264 24.7918 12.6864C25.0718 12.4094 25.0678 11.9643 24.7829 11.692ZM21.5059 19.9207C21.5059 20.8327 20.7426 21.5748 19.8045 21.5748H5.50809C4.56998 21.5748 3.80675 20.8327 3.80675 19.9207V10.5325L12.0382 2.66693C12.1234 2.58551 12.222 2.52443 12.3273 2.4837C12.6167 2.37176 12.9566 2.41371 13.2081 2.60965C13.231 2.62746 13.2531 2.64654 13.2744 2.66693L21.5059 10.5324V19.9207H21.5059Z" fill="black"/>
<path d="M10.4833 9.2334V11.4961H8.15583C7.75642 11.4961 7.43262 11.8109 7.43262 12.1992V15.0054C7.43262 15.3938 7.75642 15.7086 8.15583 15.7086H10.4833V17.9712C10.4833 18.3595 10.8071 18.6744 11.2065 18.6744H14.0929C14.4923 18.6744 14.8162 18.3595 14.8162 17.9712V15.7086H17.1433C17.5427 15.7086 17.8665 15.3938 17.8665 15.0054V12.1992C17.8665 11.8109 17.5427 11.4961 17.1433 11.4961H14.8162V9.2334C14.8162 8.84509 14.4923 8.53027 14.0929 8.53027H11.2065C10.8071 8.53027 10.4833 8.84509 10.4833 9.2334ZM11.9298 12.1992V9.93652H13.3697V12.1992C13.3697 12.5875 13.6935 12.9024 14.0929 12.9024H16.42V14.3023H14.0929C13.6935 14.3023 13.3697 14.6171 13.3697 15.0054V17.2681H11.9298V15.0054C11.9298 14.6171 11.6059 14.3023 11.2065 14.3023H8.87905V12.9024H11.2065C11.6059 12.9024 11.9298 12.5875 11.9298 12.1992Z" fill="black"/>
</g>
<defs>
<clipPath id="clip0">
<rect width="24.6857" height="24" fill="white" transform="translate(0.313477)"/>
</clipPath>
</defs>
</svg>
