<svg width="20" height="20" viewBox="0 0 20 20" fill="none" xmlns="http://www.w3.org/2000/svg">
<g clip-path="url(#clip0)">
<path d="M19.9649 6.65019C19.9621 6.64036 19.956 6.63146 19.9537 6.62162C19.9392 6.57666 19.9209 6.53311 19.897 6.49142C19.897 6.48955 19.8961 6.48815 19.8951 6.48674C19.8862 6.47222 19.8759 6.46005 19.8661 6.44553C19.845 6.41274 19.824 6.37902 19.7991 6.34905C19.7804 6.32751 19.7589 6.30924 19.7387 6.28957C19.7186 6.2699 19.6994 6.24883 19.6764 6.23056C19.6474 6.20667 19.6132 6.18747 19.5823 6.16827C19.5668 6.1589 19.5533 6.14719 19.5373 6.13876L12.6167 2.5185C12.368 2.38876 12.0734 2.38642 11.8228 2.511L10.2932 3.27674L6.04914 1.17904C5.79811 1.054 5.50071 1.05868 5.25296 1.19075L0.461841 3.74648C0.174749 3.89916 -0.00368885 4.19984 5.78702e-05 4.52533C0.00380459 4.85083 0.188331 5.14682 0.47917 5.29388L7.74687 8.96098L0.936738 12.6389C0.920815 12.6482 0.908169 12.659 0.892714 12.6679C0.85993 12.688 0.826678 12.7077 0.797173 12.7335C0.773756 12.7527 0.754554 12.7747 0.733479 12.7958C0.714277 12.8164 0.694138 12.8332 0.676809 12.8543C0.650582 12.8861 0.629039 12.9222 0.608432 12.9573C0.600002 12.9695 0.590166 12.9817 0.582673 12.9953C0.581736 12.9967 0.581736 12.9976 0.5808 12.9985C0.555978 13.0463 0.536776 13.0955 0.520384 13.1451C0.511017 13.1751 0.505865 13.2074 0.499308 13.2374C0.494157 13.2664 0.486663 13.2931 0.483385 13.3226C0.480107 13.3535 0.482917 13.3859 0.482917 13.4158C0.483385 13.4425 0.481043 13.4659 0.483385 13.4926C0.4876 13.532 0.496967 13.5694 0.506334 13.6088C0.510549 13.6242 0.511485 13.6411 0.516169 13.6575C0.533029 13.7104 0.555509 13.7647 0.582673 13.8167C0.583141 13.8177 0.58361 13.8186 0.58361 13.8195C0.585951 13.8238 0.58923 13.8256 0.590635 13.8294C0.62295 13.8879 0.664164 13.9418 0.710062 13.9928C0.723643 14.0078 0.737694 14.0219 0.752212 14.0359C0.791084 14.0729 0.834172 14.1057 0.880069 14.1366C0.894588 14.1464 0.908638 14.1567 0.924093 14.1656C0.929713 14.1685 0.933928 14.1741 0.939548 14.1755L9.59073 18.8088C9.6282 18.8289 9.668 18.8387 9.70641 18.8542C9.73123 18.8636 9.75465 18.8753 9.77994 18.8828C9.853 18.902 9.92746 18.9127 10.001 18.9127C10.0019 18.9127 10.0029 18.9127 10.0029 18.9127C10.0731 18.9127 10.1466 18.9029 10.2178 18.8837C10.2417 18.8781 10.2637 18.8673 10.2862 18.8579C10.3227 18.8467 10.3602 18.8355 10.3958 18.8181L18.9931 14.4527C19.4221 14.234 19.5935 13.71 19.3744 13.281C19.3645 13.2608 19.35 13.2444 19.3388 13.2252C19.2858 12.9789 19.1285 12.7541 18.8835 12.6304L14.5678 10.4536L19.5411 7.68241C19.543 7.68148 19.5448 7.68054 19.5467 7.6796L19.5556 7.67539C19.5654 7.66836 19.5757 7.65993 19.586 7.65291C19.6221 7.62996 19.6572 7.60701 19.6933 7.57891C19.7125 7.56299 19.7275 7.54285 19.7457 7.52458C19.7687 7.50257 19.7921 7.48196 19.8113 7.45761C19.8343 7.42764 19.8535 7.39626 19.8727 7.36441C19.882 7.34849 19.8937 7.33537 19.9017 7.31805C19.9026 7.31664 19.9031 7.31477 19.9036 7.31336C19.9242 7.27543 19.9373 7.23562 19.9523 7.19487C19.9869 7.09231 20.001 6.9874 19.9982 6.88296C19.9982 6.86001 20.001 6.838 19.9982 6.81645C19.993 6.75978 19.9818 6.70452 19.9649 6.65019ZM2.76561 4.49395L5.67962 2.94L8.43908 4.30381L5.59625 5.92239L2.76561 4.49395ZM16.8804 13.569L10.0136 17.0553L3.19273 13.4027L9.64459 9.91733L16.8804 13.569ZM12.6921 9.50238L10.0347 8.16246L7.464 6.86516L10.7077 5.01896L12.2022 4.27009L17.2982 6.93541L12.6921 9.50238Z" fill="black"/>
</g>
<defs>
<clipPath id="clip0">
<rect width="20" height="20" fill="white"/>
</clipPath>
</defs>
</svg>
