<svg width="26" height="24" viewBox="0 0 26 24" fill="none" xmlns="http://www.w3.org/2000/svg">
<g clip-path="url(#clip0)">
<path d="M24.3856 20.4059L14.7059 10.995L3.63492 0.231593C3.48217 0.0830839 3.27752 0 3.06448 0H2.99386C2.70315 0 2.4415 0.176358 2.33243 0.445828C1.85612 1.62258 1.6526 2.82614 1.74397 3.92625C1.84811 5.18025 2.33812 6.26592 3.16109 7.06603L11.4236 15.099C11.7387 15.4054 12.2405 15.4054 12.5556 15.099C12.8834 14.7803 13.4096 14.795 13.7192 15.1315L21.316 23.3903C22.128 24.1797 23.5255 24.2265 24.3856 23.3903C25.232 22.5675 25.232 21.2287 24.3856 20.4059Z" fill="black"/>
<path d="M8.59535 14.3388C8.20722 13.9615 7.58932 13.9615 7.2012 14.3388L0.983813 20.3835C0.137557 21.2063 0.137557 22.5451 0.983813 23.3678C1.78774 24.1494 3.17848 24.2184 4.05337 23.3678L10.2304 17.3624C10.6343 16.9697 10.6343 16.3211 10.2304 15.9284L8.59535 14.3388Z" fill="black"/>
<path d="M24.4765 4.47962C24.1996 4.21047 23.7589 4.21047 23.482 4.47961L20.5542 7.32612C20.2773 7.59526 19.8366 7.59526 19.5598 7.32613C19.2717 7.04604 19.2717 6.58338 19.5597 6.30329L22.43 3.51279C22.7181 3.23271 22.7181 2.77007 22.43 2.48999C22.1531 2.22085 21.7124 2.22085 21.4356 2.48999L18.5077 5.33651C18.2309 5.60565 17.7902 5.60564 17.5134 5.33651C17.2253 5.05643 17.2253 4.59378 17.5134 4.31371L20.3836 1.5232C20.6717 1.24313 20.6717 0.780513 20.3836 0.500448C20.1068 0.231323 19.6661 0.231323 19.3893 0.500448L14.7705 4.991C14.1446 5.59948 13.7709 6.40742 13.718 7.26608C13.6938 7.66091 13.7559 8.08205 14.0395 8.3578L16.4315 10.6833C16.7127 10.9567 17.1275 11.0178 17.5187 10.9898C17.5279 10.9892 17.5372 10.9886 17.5464 10.988C18.4296 10.9368 19.2606 10.5734 19.8865 9.9649L24.4764 5.50247C24.7645 5.22238 24.7645 4.75971 24.4765 4.47962Z" fill="black"/>
</g>
<defs>
<clipPath id="clip0">
<rect width="24.6857" height="24" fill="white" transform="translate(0.341797)"/>
</clipPath>
</defs>
</svg>
