<svg width="22" height="22" viewBox="0 0 22 22" fill="none" xmlns="http://www.w3.org/2000/svg">
<g clip-path="url(#clip0)">
<path d="M5.33473 1.57119C1.67914 3.76769 0.492075 8.52875 2.68858 12.1843C3.4307 13.4194 4.49707 14.4192 5.7729 15.0759L16.1313 20.3944C16.3297 20.4963 16.5666 20.4883 16.7576 20.3736C16.7591 20.3727 16.7605 20.3718 16.762 20.3709C16.9538 20.2537 17.0706 20.045 17.0702 19.8202L17.0536 8.17581C17.0504 6.7846 16.668 5.4158 15.9479 4.21735C13.7514 0.561755 8.99032 -0.625311 5.33473 1.57119ZM15.7646 8.17828L15.7796 18.7649L6.36223 13.9294C5.30029 13.3829 4.4047 12.5543 3.78615 11.5249C1.95573 8.47853 2.9479 4.49918 5.99422 2.66877C9.04055 0.838349 13.0162 1.83272 14.8466 4.87905C15.4468 5.87795 15.7618 7.02046 15.7646 8.17828Z" fill="black"/>
<path d="M7.32655 4.88618C5.49875 5.98443 4.90522 8.36496 6.00347 10.1928C7.0947 12.0089 9.45805 12.6286 11.31 11.5158C13.1849 10.3893 13.7124 8.00542 12.6331 6.20926C11.5349 4.38146 9.15434 3.78793 7.32655 4.88618ZM10.6506 10.4183C9.42565 11.1543 7.83505 10.7549 7.10104 9.53327C6.36888 8.31474 6.76751 6.71592 7.98604 5.98376C9.20457 5.25159 10.7997 5.65243 11.5319 6.87096C12.2552 8.07472 11.8949 9.6706 10.6506 10.4183Z" fill="black"/>
</g>
<defs>
<clipPath id="clip0">
<rect width="22" height="22" fill="white"/>
</clipPath>
</defs>
</svg>
