<svg width="18" height="18" viewBox="0 0 18 18" fill="none" xmlns="http://www.w3.org/2000/svg">
<g clip-path="url(#clip0)">
<path d="M6.71984 5.72548L2.40064 1.40625H5.16797C5.5563 1.40625 5.87109 1.09146 5.87109 0.703125C5.87109 0.314789 5.5563 0 5.16797 0H2.10938C0.946266 0 0 0.946266 0 2.10938V5.16797C0 5.5563 0.314789 5.87109 0.703125 5.87109C1.09146 5.87109 1.40625 5.5563 1.40625 5.16797V2.40064L5.72548 6.71987C5.86276 6.85716 6.04269 6.92578 6.22266 6.92578C6.40262 6.92578 6.58255 6.85716 6.71984 6.71987C6.99444 6.44527 6.99444 6.00005 6.71984 5.72548Z" fill="black"/>
<path d="M6.71984 11.2802C6.44523 11.0056 6.00005 11.0056 5.72548 11.2801L1.40625 15.5994V12.832C1.40625 12.4437 1.09146 12.1289 0.703125 12.1289C0.314789 12.1289 0 12.4437 0 12.832V15.8906C0 17.0537 0.946266 18 2.10938 18H5.16797C5.5563 18 5.87109 17.6852 5.87109 17.2969C5.87109 16.9085 5.5563 16.5938 5.16797 16.5938H2.40064L6.71984 12.2746C6.99444 12 6.99444 11.5547 6.71984 11.2802Z" fill="black"/>
<path d="M17.2969 12.129C16.9085 12.129 16.5937 12.4437 16.5937 12.8321V15.5994L12.2745 11.2802C11.9999 11.0056 11.5547 11.0056 11.2802 11.2802C11.0056 11.5548 11.0056 12 11.2802 12.2746L15.5994 16.5938H12.832C12.4437 16.5938 12.1289 16.9086 12.1289 17.2969C12.1289 17.6853 12.4437 18.0001 12.832 18.0001H15.8906C17.0537 18.0001 18 17.0538 18 15.8907V12.8321C18 12.4437 17.6852 12.129 17.2969 12.129Z" fill="black"/>
<path d="M15.8906 0H12.832C12.4437 0 12.1289 0.314789 12.1289 0.703125C12.1289 1.09146 12.4437 1.40625 12.832 1.40625H15.5994L11.2802 5.72544C11.0056 6.00005 11.0056 6.44527 11.2802 6.71984C11.4175 6.85716 11.5974 6.92578 11.7774 6.92578C11.9573 6.92578 12.1372 6.85716 12.2745 6.71987L16.5938 2.40064V5.16797C16.5938 5.5563 16.9085 5.87109 17.2969 5.87109C17.6852 5.87109 18 5.5563 18 5.16797V2.10938C18 0.946266 17.0537 0 15.8906 0Z" fill="black"/>
</g>
<defs>
<clipPath id="clip0">
<rect width="18" height="18" fill="white"/>
</clipPath>
</defs>
</svg>
