<svg width="25" height="25" viewBox="0 0 25 25" fill="none" xmlns="http://www.w3.org/2000/svg">
<g clip-path="url(#clip0)">
<path d="M5.05444 -0.969727L7.09007 4.68983V8.38216H8.80428V4.50824L10.7685 -0.969727H9.05427L7.98289 2.75287H7.87575L6.76865 -0.969727H5.05444ZM12.947 1.30015C12.2595 1.30015 11.7104 1.46661 11.3042 1.78439C10.8979 2.09839 10.6971 2.5221 10.6971 3.05552V6.62679C10.6971 7.21318 10.9069 7.70498 11.3042 8.04925C11.706 8.39729 12.2104 8.56375 12.8755 8.56375C13.563 8.56375 14.1255 8.38594 14.5183 8.04925C14.9112 7.71255 15.0897 7.24722 15.0897 6.65706V3.08578C15.0897 2.55993 14.8844 2.14757 14.4826 1.81465C14.0853 1.47796 13.5764 1.30015 12.947 1.30015ZM16.3754 1.48174V7.26236C16.3754 7.67472 16.4825 7.96602 16.6611 8.17031C16.8397 8.3746 17.0986 8.47296 17.4468 8.47296C17.728 8.47296 18.0048 8.40486 18.3039 8.2611C18.6075 8.11356 18.9199 7.90549 19.1967 7.62554V8.38216H20.6967V1.48174H19.1967V6.71759C19.0539 6.86513 18.9021 6.98619 18.7325 7.08077C18.5628 7.17913 18.4155 7.23209 18.3039 7.23209C18.1655 7.23209 18.045 7.21318 17.9825 7.1413C17.9155 7.06942 17.9111 6.93701 17.9111 6.77812V1.48174H16.3754ZM12.8755 2.51075C13.0764 2.51075 13.255 2.54101 13.3755 2.63181C13.5005 2.72639 13.5541 2.84745 13.5541 2.99499V6.77812C13.5541 6.96349 13.4961 7.09968 13.3755 7.20183C13.255 7.30775 13.0809 7.35315 12.8755 7.35315C12.6747 7.35315 12.5184 7.30397 12.4113 7.20183C12.2997 7.09968 12.2684 6.96727 12.2684 6.77812V2.99499C12.2684 2.84745 12.3309 2.72639 12.447 2.63181C12.5631 2.54101 12.6925 2.51075 12.8755 2.51075ZM12.697 9.80462C9.73282 9.80083 6.82668 9.82353 3.98305 9.92568C1.99652 9.92568 0.376053 11.2838 0.376053 12.9522C0.255522 14.2725 0.193025 15.5966 0.197489 16.9169C0.193025 18.2372 0.255522 19.5613 0.376053 20.8816C0.376053 22.55 1.99652 23.9081 3.98305 23.9081C6.82668 24.0065 9.73282 24.033 12.697 24.0292C15.6656 24.0367 18.5717 24.0065 21.4109 23.9081C23.3974 23.9081 25.0179 22.55 25.0179 20.8816C25.1384 19.5613 25.2009 18.2372 25.1965 16.9169C25.2054 15.5966 25.1384 14.2725 25.0179 12.9522C25.0179 11.2838 23.3974 9.92568 21.4109 9.92568C18.5717 9.82353 15.6656 9.80083 12.697 9.80462ZM2.12598 11.9534H7.37577C7.46952 11.9534 7.55433 12.0253 7.55433 12.1048V13.4667C7.55433 13.5461 7.46952 13.618 7.37577 13.618H5.76869V21.4566C5.76869 21.5361 5.71959 21.608 5.62584 21.608H3.91162C3.81788 21.608 3.73306 21.5361 3.73306 21.4566V13.618H2.12598C2.03224 13.618 1.98313 13.5461 1.98313 13.4667V12.1048C1.98313 12.0253 2.03224 11.9534 2.12598 11.9534ZM13.1612 11.9534H14.6969C14.7906 11.9534 14.8755 12.0253 14.8755 12.1048V14.7378C15.0005 14.6395 15.1344 14.56 15.2683 14.4957C15.5272 14.3746 15.7906 14.3141 16.054 14.3141C16.5897 14.3141 16.9825 14.4957 17.2682 14.8286C17.5405 15.1502 17.6968 15.6004 17.6968 16.1905V20.0342C17.6968 20.5563 17.5673 20.9611 17.3039 21.2448C17.0316 21.5399 16.6254 21.6988 16.1254 21.6988C15.8085 21.6988 15.5272 21.6269 15.2683 21.5172C15.1299 21.4566 15.0005 21.3999 14.8755 21.3053V21.4566C14.8755 21.5361 14.7906 21.608 14.6969 21.608H13.1612C13.0675 21.608 12.9827 21.5361 12.9827 21.4566V12.1048C12.9827 12.0253 13.0675 11.9534 13.1612 11.9534ZM20.9466 14.2233C21.6877 14.2233 22.2948 14.42 22.6966 14.7983C23.0983 15.1767 23.3037 15.7139 23.3037 16.4024V18.188C23.3037 18.2675 23.2189 18.3091 23.1251 18.3091H20.411V19.4894C20.411 19.9131 20.4645 20.0796 20.5181 20.1553C20.5627 20.2158 20.6386 20.3066 20.8752 20.3066C21.0672 20.3066 21.2011 20.2612 21.2681 20.1855C21.2993 20.1439 21.3752 19.9926 21.3752 19.4894V19.0052C21.3752 18.9257 21.46 18.8539 21.5538 18.8539H23.1251C23.2189 18.8539 23.3037 18.9257 23.3037 19.0052V19.5197C23.3037 20.265 23.0671 20.8324 22.6609 21.2145C22.2546 21.6004 21.643 21.7896 20.8395 21.7896C20.1119 21.7896 19.5449 21.5966 19.1253 21.1843C18.7101 20.7795 18.4825 20.2196 18.4825 19.5197V16.4024C18.4825 15.7668 18.7012 15.2637 19.161 14.8589C19.6208 14.4541 20.2235 14.2233 20.9466 14.2233ZM7.37577 14.4049H8.87571C8.96945 14.4049 9.05427 14.4768 9.05427 14.5562V19.8526C9.05427 20.0266 9.06767 20.0985 9.08999 20.125C9.09891 20.1363 9.13909 20.1855 9.26855 20.1855C9.31319 20.1855 9.4114 20.1704 9.58997 20.0645C9.73728 19.9812 9.86674 19.8791 9.98281 19.7618V14.5562C9.98281 14.4768 10.0676 14.4049 10.1614 14.4049H11.697C11.7908 14.4049 11.8399 14.4768 11.8399 14.5562V21.4566C11.8399 21.5361 11.7908 21.608 11.697 21.608H10.1614C10.0676 21.608 9.98281 21.5361 9.98281 21.4566V21.0632C9.78192 21.2297 9.5855 21.3545 9.37569 21.4566C9.04535 21.6155 8.73286 21.6988 8.41144 21.6988C8.00521 21.6988 7.69272 21.5815 7.48291 21.3356C7.28202 21.1048 7.19721 20.7757 7.19721 20.3368V14.5562C7.19721 14.4768 7.28202 14.4049 7.37577 14.4049ZM15.2683 15.7063C15.2103 15.7139 15.1522 15.7403 15.0897 15.7668C15.0183 15.7971 14.9469 15.8538 14.8755 15.9181V20.0947C14.9647 20.1742 15.0406 20.2423 15.1255 20.2763C15.2192 20.3141 15.3085 20.3368 15.4112 20.3368C15.6031 20.3368 15.679 20.2687 15.6969 20.246C15.7415 20.1969 15.7683 20.0834 15.7683 19.8526V16.2813C15.7683 16.0846 15.746 15.9219 15.6611 15.8274C15.5763 15.7328 15.4424 15.6798 15.2683 15.7063ZM20.9109 15.7366C20.7279 15.7366 20.594 15.7706 20.5181 15.8576C20.4645 15.9219 20.411 16.0808 20.411 16.4024V16.9472H21.3752V16.4024C21.3752 16.0846 21.3261 15.9295 21.2681 15.8576C21.1966 15.7744 21.085 15.7366 20.9109 15.7366Z" fill="#FFFCEE"/>
</g>
<defs>
<clipPath id="clip0">
<rect width="25" height="25" fill="white"/>
</clipPath>
</defs>
</svg>
