<svg width="24" height="24" viewBox="0 0 24 24" fill="none" xmlns="http://www.w3.org/2000/svg">
<g clip-path="url(#clip0)">
<path d="M21.564 0.230957H2.89738C1.42405 0.230957 0.230713 1.42429 0.230713 2.89762V21.5643C0.230713 23.0376 1.42405 24.231 2.89738 24.231H21.564C23.0374 24.231 24.2307 23.0376 24.2307 21.5643V2.89762C24.2307 1.42429 23.0374 0.230957 21.564 0.230957ZM18.964 8.91629C18.964 9.03096 18.964 9.14429 18.964 9.37363C18.964 13.7163 15.6494 18.7456 9.59205 18.7456C7.76405 18.7456 6.04938 18.1736 4.56405 17.2603C4.79205 17.2603 5.13605 17.2603 5.36405 17.2603C6.84938 17.2603 8.33605 16.6883 9.47871 15.8883C7.99338 15.8883 6.85071 14.8603 6.39338 13.603C6.62138 13.603 6.85071 13.7176 6.96538 13.7176C7.30805 13.7176 7.53738 13.7176 7.88005 13.603C6.39471 13.2603 5.25205 12.003 5.25205 10.403C5.70938 10.631 6.16671 10.7456 6.73738 10.8603C5.82271 10.0603 5.25205 9.14563 5.25205 8.00296C5.25205 7.43096 5.36671 6.86029 5.70938 6.40296C7.30938 8.34562 9.70938 9.71762 12.452 9.83096C12.452 9.60296 12.3374 9.37363 12.3374 9.03096C12.3374 7.20296 13.8227 5.71629 15.652 5.71629C16.5667 5.71629 17.48 6.05896 18.052 6.74429C18.852 6.62962 19.5374 6.28696 20.1094 5.94429C19.8814 6.74429 19.3094 7.31629 18.624 7.77229C19.3094 7.65762 19.8814 7.54429 20.5667 7.20029C20.1067 7.88829 19.536 8.45896 18.964 8.91629Z" fill="#FFFCEE"/>
</g>
<defs>
<clipPath id="clip0">
<rect width="24" height="24" fill="white"/>
</clipPath>
</defs>
</svg>
