<svg width="24" height="24" viewBox="0 0 24 24" fill="none" xmlns="http://www.w3.org/2000/svg">
<g clip-path="url(#clip0)">
<path d="M6.99387 -0.269531C2.98903 -0.269531 -0.269287 2.98878 -0.269287 6.99363V16.4673C-0.269287 20.4722 2.98903 23.7305 6.99387 23.7305H16.4676C20.4724 23.7305 23.7307 20.4722 23.7307 16.4673V6.99363C23.7307 2.98878 20.4724 -0.269531 16.4676 -0.269531H6.99387ZM18.0465 4.15152C18.7444 4.15152 19.3097 4.71678 19.3097 5.41468C19.3097 6.11194 18.7444 6.67784 18.0465 6.67784C17.3486 6.67784 16.7833 6.11194 16.7833 5.41468C16.7833 4.71678 17.3486 4.15152 18.0465 4.15152ZM11.7307 5.41468C15.2132 5.41468 18.0465 8.24794 18.0465 11.7305C18.0465 15.213 15.2132 18.0463 11.7307 18.0463C8.24819 18.0463 5.41492 15.213 5.41492 11.7305C5.41492 8.24794 8.24819 5.41468 11.7307 5.41468ZM11.7307 7.30942C11.1501 7.30942 10.5752 7.42377 10.0388 7.64595C9.50246 7.86813 9.01509 8.19378 8.60456 8.60431C8.19402 9.01485 7.86837 9.50222 7.64619 10.0386C7.42401 10.575 7.30966 11.1499 7.30966 11.7305C7.30966 12.311 7.42401 12.8859 7.64619 13.4223C7.86837 13.9587 8.19402 14.4461 8.60456 14.8566C9.01509 15.2672 9.50246 15.5928 10.0388 15.815C10.5752 16.0372 11.1501 16.1515 11.7307 16.1515C12.3113 16.1515 12.8862 16.0372 13.4226 15.815C13.959 15.5928 14.4463 15.2672 14.8569 14.8566C15.2674 14.4461 15.5931 13.9587 15.8152 13.4223C16.0374 12.8859 16.1518 12.311 16.1518 11.7305C16.1518 11.1499 16.0374 10.575 15.8152 10.0386C15.5931 9.50222 15.2674 9.01485 14.8569 8.60431C14.4463 8.19378 13.959 7.86813 13.4226 7.64595C12.8862 7.42377 12.3113 7.30942 11.7307 7.30942V7.30942Z" fill="#FFFCEE"/>
</g>
<defs>
<clipPath id="clip0">
<rect width="24" height="24" fill="white"/>
</clipPath>
</defs>
</svg>
