<svg width="24" height="24" viewBox="0 0 24 24" fill="none" xmlns="http://www.w3.org/2000/svg">
<path d="M19.5 0H4.5C2.01563 0 0 2.01563 0 4.5V19.5C0 21.9844 2.01563 24 4.5 24H19.5C21.9844 24 24 21.9844 24 19.5V4.5C24 2.01563 21.9844 0 19.5 0ZM18.8906 12.9267H16.6442V21.238H12.8942V12.9267H11.4375V10.125H12.8942V8.34014C12.8942 6.00361 13.8642 4.61538 16.6226 4.61538H19.4135V7.40625H17.7909C16.72 7.40625 16.6478 7.80288 16.6478 8.55288L16.6442 10.125H19.1971L18.8906 12.9267Z" fill="#FFFCEE"/>
</svg>
