<svg width="24" height="24" viewBox="0 0 24 24" fill="none" xmlns="http://www.w3.org/2000/svg">
<g clip-path="url(#clip0)">
<path d="M13.03 1.87022L2.04 0.200225C1.53 0.120225 1.01 0.260225 0.62 0.590225C0.23 0.930224 0 1.42022 0 1.93022V23.0002C0 23.5502 0.45 24.0002 1 24.0002H4.25V18.7502C4.25 17.7802 5.03 17.0002 6 17.0002H8.5C9.47 17.0002 10.25 17.7802 10.25 18.7502V24.0002H14.5V3.60022C14.5 2.74022 13.88 2.01022 13.03 1.87022ZM5.5 14.7502H4C3.586 14.7502 3.25 14.4142 3.25 14.0002C3.25 13.5862 3.586 13.2502 4 13.2502H5.5C5.914 13.2502 6.25 13.5862 6.25 14.0002C6.25 14.4142 5.914 14.7502 5.5 14.7502ZM5.5 11.7502H4C3.586 11.7502 3.25 11.4142 3.25 11.0002C3.25 10.5862 3.586 10.2502 4 10.2502H5.5C5.914 10.2502 6.25 10.5862 6.25 11.0002C6.25 11.4142 5.914 11.7502 5.5 11.7502ZM5.5 8.75022H4C3.586 8.75022 3.25 8.41422 3.25 8.00022C3.25 7.58622 3.586 7.25022 4 7.25022H5.5C5.914 7.25022 6.25 7.58622 6.25 8.00022C6.25 8.41422 5.914 8.75022 5.5 8.75022ZM5.5 5.75022H4C3.586 5.75022 3.25 5.41422 3.25 5.00022C3.25 4.58622 3.586 4.25022 4 4.25022H5.5C5.914 4.25022 6.25 4.58622 6.25 5.00022C6.25 5.41422 5.914 5.75022 5.5 5.75022ZM10.5 14.7502H9C8.586 14.7502 8.25 14.4142 8.25 14.0002C8.25 13.5862 8.586 13.2502 9 13.2502H10.5C10.914 13.2502 11.25 13.5862 11.25 14.0002C11.25 14.4142 10.914 14.7502 10.5 14.7502ZM10.5 11.7502H9C8.586 11.7502 8.25 11.4142 8.25 11.0002C8.25 10.5862 8.586 10.2502 9 10.2502H10.5C10.914 10.2502 11.25 10.5862 11.25 11.0002C11.25 11.4142 10.914 11.7502 10.5 11.7502ZM10.5 8.75022H9C8.586 8.75022 8.25 8.41422 8.25 8.00022C8.25 7.58622 8.586 7.25022 9 7.25022H10.5C10.914 7.25022 11.25 7.58622 11.25 8.00022C11.25 8.41422 10.914 8.75022 10.5 8.75022ZM10.5 5.75022H9C8.586 5.75022 8.25 5.41422 8.25 5.00022C8.25 4.58622 8.586 4.25022 9 4.25022H10.5C10.914 4.25022 11.25 4.58622 11.25 5.00022C11.25 5.41422 10.914 5.75022 10.5 5.75022Z" fill="#BC992F"/>
<path d="M22.62 10.8421L15.5 9.35107V24.0001H22.25C23.215 24.0001 24 23.2151 24 22.2501V12.5521C24 11.7261 23.437 11.0231 22.62 10.8421ZM20.25 21.0001H18.75C18.336 21.0001 18 20.6641 18 20.2501C18 19.8361 18.336 19.5001 18.75 19.5001H20.25C20.664 19.5001 21 19.8361 21 20.2501C21 20.6641 20.664 21.0001 20.25 21.0001ZM20.25 18.0001H18.75C18.336 18.0001 18 17.6641 18 17.2501C18 16.8361 18.336 16.5001 18.75 16.5001H20.25C20.664 16.5001 21 16.8361 21 17.2501C21 17.6641 20.664 18.0001 20.25 18.0001ZM20.25 15.0001H18.75C18.336 15.0001 18 14.6641 18 14.2501C18 13.8361 18.336 13.5001 18.75 13.5001H20.25C20.664 13.5001 21 13.8361 21 14.2501C21 14.6641 20.664 15.0001 20.25 15.0001Z" fill="#BC992F"/>
</g>
<defs>
<clipPath id="clip0">
<rect width="24" height="24" fill="white"/>
</clipPath>
</defs>
</svg>
