<svg width="24" height="24" viewBox="0 0 24 24" fill="none" xmlns="http://www.w3.org/2000/svg">
<g clip-path="url(#clip0)">
<path d="M19.4803 0H4.96421C2.55998 0 0.609375 2.01563 0.609375 4.5V19.5C0.609375 21.9844 2.55998 24 4.96421 24H19.4803C21.8846 24 23.8352 21.9844 23.8352 19.5V4.5C23.8352 2.01563 21.8846 0 19.4803 0ZM7.79067 20.3726H4.18258L4.16164 9.20914H7.76974L7.79067 20.3726ZM5.8959 7.7488H5.87496C4.69553 7.7488 3.93482 6.90865 3.93482 5.86298C3.93482 4.79207 4.71995 3.98077 5.92032 3.98077C7.1207 3.98077 7.85697 4.79207 7.8814 5.86298C7.8814 6.90865 7.11721 7.7488 5.8959 7.7488ZM20.3004 20.3726H16.6609V14.3077C16.6609 12.8401 16.284 11.8413 15.0138 11.8413C14.0438 11.8413 13.5204 12.5156 13.2691 13.1683C13.1749 13.4026 13.1505 13.7236 13.1505 14.0517V20.3726H9.49353L9.47259 9.20914H13.1295L13.1505 10.7849C13.6181 10.0385 14.3962 8.98197 16.2596 8.98197C18.5696 8.98197 20.2969 10.5397 20.2969 13.8894V20.3726H20.3004Z" fill="#4E93FB"/>
</g>
<defs>
<clipPath id="clip0">
<rect width="23.2258" height="24" fill="white" transform="translate(0.609375)"/>
</clipPath>
</defs>
</svg>
