<svg width="48" height="48" viewBox="0 0 48 48" fill="none" xmlns="http://www.w3.org/2000/svg">
<path d="M24 0C10.7702 0 0 10.7702 0 24C0 37.2298 10.7702 48 24 48C37.2298 48 48 37.2298 48 24C48 10.7702 37.2298 0 24 0ZM24 43.0314C13.5074 43.0314 4.9686 34.4926 4.9686 24C4.9686 13.5074 13.5074 4.9686 24 4.9686C34.4926 4.9686 43.0314 13.5074 43.0314 24C43.0314 34.4926 34.4926 43.0314 24 43.0314Z" fill="#9D7E00"/>
<path d="M28.0961 22.6513C26.9357 22.0067 25.706 21.5307 24.4861 21.0249C23.782 20.7373 23.1076 20.3902 22.5126 19.9141C21.3423 18.972 21.5605 17.4546 22.939 16.8497C23.3258 16.6811 23.7324 16.6216 24.149 16.6017C25.7457 16.5125 27.2531 16.81 28.701 17.5042C29.4151 17.8513 29.6531 17.7422 29.901 16.9984C30.1589 16.205 30.3771 15.4017 30.6052 14.6083C30.7638 14.0728 30.5655 13.7158 30.0597 13.4976C29.1374 13.091 28.1853 12.7935 27.1837 12.6447C25.8845 12.4364 25.8845 12.4364 25.8746 11.1274C25.8647 9.27281 25.8647 9.27281 24.02 9.28273C23.7523 9.28273 23.4845 9.27281 23.2167 9.28273C22.3539 9.31248 22.2052 9.46124 22.1853 10.3241C22.1754 10.7108 22.1853 11.1075 22.1853 11.4943C22.1754 12.6546 22.1754 12.6348 21.0647 13.0315C18.387 14.0034 16.7308 15.8282 16.5523 18.7538C16.3936 21.3422 17.7423 23.0877 19.8647 24.3571C21.1737 25.1406 22.6217 25.6067 24.0101 26.2216C24.5556 26.4596 25.0713 26.7373 25.5176 27.1141C26.8564 28.215 26.6085 30.0497 25.0217 30.7439C24.1688 31.1108 23.2762 31.21 22.3638 31.091C20.9456 30.9125 19.587 30.5455 18.3175 29.8811C17.5737 29.4943 17.3556 29.5935 17.0977 30.4067C16.8795 31.1108 16.6812 31.815 16.4928 32.5191C16.2349 33.4712 16.3242 33.6993 17.2366 34.1356C18.387 34.691 19.6266 34.9786 20.8861 35.1869C21.868 35.3455 21.9076 35.3852 21.9175 36.4067C21.9175 36.8728 21.9275 37.3389 21.9275 37.7951C21.9374 38.3802 22.2151 38.7174 22.82 38.7274C23.5043 38.7373 24.1886 38.7373 24.8729 38.7274C25.4283 38.7174 25.7159 38.41 25.7258 37.8447C25.7258 37.21 25.7556 36.5753 25.7357 35.9406C25.706 35.2959 25.9837 34.9687 26.6085 34.8001C28.0366 34.4133 29.2564 33.6398 30.1985 32.4993C32.7771 29.3257 31.7853 24.6943 28.0961 22.6513Z" fill="#9D7E00"/>
</svg>
