<svg width="48" height="48" viewBox="0 0 48 48" fill="none" xmlns="http://www.w3.org/2000/svg">
<g clip-path="url(#clip0)">
<path d="M27.5 37H3.5C1.57 37 0 38.57 0 40.5V44.5C0 46.43 1.57 48 3.5 48H27.5C29.43 48 31 46.43 31 44.5V40.5C31 38.57 29.43 37 27.5 37ZM28 44.5C28 44.776 27.776 45 27.5 45H3.5C3.224 45 3 44.776 3 44.5V40.5C3 40.224 3.224 40 3.5 40H27.5C27.776 40 28 40.224 28 40.5V44.5Z" fill="#9D7E00"/>
<path d="M30.682 18.896C31.658 17.71 32.474 16.5 32.91 15.39C32.924 15.39 32.938 15.394 32.95 15.394C33.842 15.394 34.736 15.054 35.414 14.374L36.818 12.972C38.178 11.612 38.178 9.40195 36.818 8.04195L29.798 1.02195C28.438 -0.338047 26.228 -0.338047 24.87 1.02195L23.466 2.42595C22.78 3.11195 22.442 4.01395 22.45 4.91595C21.788 5.18195 21.222 5.53595 20.91 5.73395C18.152 7.48795 14.482 11.16 12.73 13.918C12.532 14.226 12.18 14.79 11.916 15.448C11.014 15.442 10.112 15.778 9.424 16.464L8.022 17.87C7.364 18.528 7 19.402 7 20.334C7 21.266 7.364 22.14 8.022 22.798L15.042 29.818C15.722 30.498 16.614 30.838 17.506 30.838C18.398 30.838 19.292 30.498 19.97 29.818L21.374 28.414C22.062 27.726 22.4 26.818 22.39 25.914C23.046 25.65 23.614 25.308 23.922 25.112C24.532 24.724 25.198 24.228 25.884 23.668C30.938 29.554 38.158 37.492 39.454 38.79C40.602 39.938 42.104 41.01 43.708 41.01C44.666 41.01 45.664 40.626 46.642 39.646C47.002 39.286 47.842 38.446 47.978 37.09C48.126 35.618 47.388 34.058 45.786 32.458C44.506 31.172 36.586 23.966 30.682 18.896ZM25.586 4.54595L26.99 3.14195C27.084 3.04795 27.208 2.99995 27.334 2.99995C27.458 2.99995 27.584 3.04795 27.678 3.14195L34.698 10.162C34.888 10.352 34.888 10.66 34.698 10.85L33.294 12.252C33.104 12.44 32.796 12.44 32.606 12.252L25.586 5.23195C25.398 5.04195 25.398 4.73595 25.586 4.54595ZM19.252 26.292L17.848 27.696C17.658 27.882 17.35 27.882 17.162 27.696L10.142 20.676C10.018 20.552 10 20.408 10 20.334C10 20.26 10.018 20.116 10.142 19.99L11.546 18.586C11.64 18.492 11.766 18.444 11.89 18.444C12.014 18.444 12.14 18.492 12.234 18.586L19.254 25.606C19.442 25.794 19.442 26.104 19.252 26.292ZM21.11 23.22L14.618 16.728C15.15 14.548 21.548 8.14795 23.728 7.61595L30.22 14.108C29.694 16.276 23.288 22.69 21.11 23.22ZM44.524 37.526C44.082 37.97 43.476 38.566 41.576 36.668C40.454 35.546 33.324 27.732 28.114 21.66C28.204 21.572 28.57 21.212 28.662 21.118C34.754 26.344 42.554 33.466 43.666 34.576C44.938 35.848 45.018 36.546 44.994 36.788C44.97 37.06 44.776 37.274 44.524 37.526Z" fill="#9D7E00"/>
</g>
<defs>
<clipPath id="clip0">
<rect width="48" height="48" fill="white"/>
</clipPath>
</defs>
</svg>
