<svg width="48" height="48" viewBox="0 0 48 48" fill="none" xmlns="http://www.w3.org/2000/svg">
<g clip-path="url(#clip0)">
<path d="M10.0037 12L0.799999 12C0.587826 12 0.384342 12.1054 0.234314 12.2929C0.0842857 12.4805 0 12.7348 0 13L0 47C0 47.2652 0.0842857 47.5196 0.234314 47.7071C0.384342 47.8946 0.587826 48 0.799999 48H20C20.6565 47.9993 21.3028 47.7973 21.8823 47.4118L33 40H47.2C47.4122 40 47.6157 39.8946 47.7657 39.7071C47.9157 39.5196 48 39.2652 48 39L48 13C48 12.7348 47.9157 12.4805 47.7657 12.2929C47.6157 12.1054 47.4122 12 47.2 12H44.3928L41.5635 0.701302C41.5321 0.575969 41.4813 0.459589 41.4139 0.35881C41.3466 0.258031 41.264 0.174825 41.1709 0.113944C41.0778 0.0530629 40.976 0.0156986 40.8714 0.00398543C40.7667 -0.00772778 40.6613 0.00643913 40.561 0.0456772L10.0037 12ZM37.3669 10.7257L38.8945 10.128L39.3633 12L26.0755 12L35.8865 8.16179L36.3645 10.0702C36.4279 10.3232 36.5691 10.5345 36.7571 10.6574C36.9451 10.7803 37.1644 10.8049 37.3669 10.7257ZM20 46H1.6V40C1.60217 37.6467 2.34081 35.3878 3.65797 33.7063C4.97514 32.0249 6.7663 31.0543 8.6485 31.002C8.85666 31.0522 9.07225 30.997 9.2479 30.8486L16.9284 24.3625C17.1895 24.138 17.4835 23.9804 17.7935 23.8986C18.1036 23.8169 18.4235 23.8127 18.7349 23.8864C19.0462 23.96 19.3428 24.11 19.6076 24.3276C19.8723 24.5453 20.1 24.8263 20.2774 25.1545C20.4548 25.4827 20.5784 25.8516 20.6412 26.2398C20.7039 26.6281 20.7046 27.028 20.6431 27.4165C20.5815 27.8051 20.4591 28.1746 20.2827 28.5037C20.1064 28.8327 19.8796 29.1149 19.6156 29.3339C19.6087 29.3398 19.6018 29.3464 19.595 29.352L13.1314 35.1901C13.0289 35.2828 12.9454 35.4045 12.8878 35.5452C12.8302 35.686 12.8001 35.8419 12.8 36V39C12.8 39.2652 12.8843 39.5196 13.0343 39.7071C13.1843 39.8946 13.3878 40 13.6 40L29.6 40L21.1294 45.6471C20.7817 45.8783 20.3939 45.9995 20 46ZM7.2 20L7.2 18L40.8 18V20C40.8 20.2652 40.8843 20.5196 41.0343 20.7071C41.1843 20.8947 41.3878 21 41.6 21H43.2V31H41.6C41.3878 31 41.1843 31.1054 41.0343 31.2929C40.8843 31.4804 40.8 31.7348 40.8 32V34L17.18 34L20.5223 30.9813C20.6601 30.8634 20.792 30.7349 20.9171 30.5965C21.6539 31.3684 22.5592 31.8458 23.5156 31.9669C24.4721 32.0881 25.4356 31.8474 26.2813 31.276C27.127 30.7047 27.816 29.829 28.2589 28.7624C28.7018 27.6959 28.8782 26.4877 28.7653 25.2943C28.6524 24.101 28.2554 22.9775 27.6257 22.0695C26.996 21.1615 26.1627 20.5108 25.2337 20.2018C24.3046 19.8928 23.3228 19.9396 22.4154 20.3363C21.5079 20.733 20.7167 21.4612 20.1442 22.4265C19.5027 22.0041 18.7816 21.8069 18.0576 21.8559C17.3336 21.9049 16.6338 22.1982 16.0325 22.7047L8.5745 29.0035C7.26006 29.044 5.96986 29.4546 4.8 30.2049V21H6.4C6.61217 21 6.81566 20.8947 6.96569 20.7071C7.11572 20.5196 7.2 20.2652 7.2 20ZM21.5864 24.0484C21.5218 23.9289 21.4529 23.8144 21.3813 23.7034C21.7535 23.04 22.2782 22.5336 22.8857 22.2512C23.4933 21.9688 24.1552 21.9236 24.7837 22.1218C25.4123 22.32 25.9778 22.7521 26.4056 23.3609C26.8333 23.9697 27.103 24.7266 27.179 25.5313C27.2551 26.336 27.1338 27.1506 26.8312 27.8672C26.5287 28.5838 26.0592 29.1687 25.4848 29.5444C24.9105 29.9201 24.2584 30.0689 23.6149 29.9711C22.9715 29.8733 22.3669 29.5335 21.8813 28.9968C22.1808 28.2112 22.3111 27.3415 22.2594 26.4736C22.2077 25.6058 21.9757 24.7699 21.5864 24.0484ZM46.4 14L46.4 38L14.4 38V36.5111L14.9659 36L41.6 36C41.8122 36 42.0157 35.8947 42.1657 35.7071C42.3157 35.5196 42.4 35.2652 42.4 35V33H44C44.2122 33 44.4157 32.8947 44.5657 32.7071C44.7157 32.5196 44.8 32.2652 44.8 32V20C44.8 19.7348 44.7157 19.4805 44.5657 19.2929C44.4157 19.1054 44.2122 19 44 19H42.4V17C42.4 16.7348 42.3157 16.4805 42.1657 16.2929C42.0157 16.1054 41.8122 16 41.6 16L6.4 16C6.18782 16 5.98434 16.1054 5.83431 16.2929C5.68428 16.4805 5.6 16.7348 5.6 17L5.6 19H4C3.78783 19 3.58434 19.1054 3.43431 19.2929C3.28429 19.4805 3.2 19.7348 3.2 20V31.5236C2.59208 32.1525 2.054 32.88 1.6 33.6868L1.6 14L46.4 14ZM42.7163 12H41.04L40.1826 8.57629C40.1192 8.3232 39.978 8.11194 39.79 7.98899C39.602 7.86604 39.3827 7.84146 39.1802 7.92067L37.6525 8.51829L37.1746 6.60992C37.1432 6.4846 37.0924 6.36823 37.025 6.26747C36.9576 6.1667 36.875 6.08351 36.782 6.02264C36.6889 5.96177 36.5871 5.92442 36.4825 5.91271C36.3778 5.90101 36.2724 5.91518 36.1721 5.95442L20.7188 12L15.3606 12L40.2755 2.25305L42.7163 12Z" fill="#9D7E00"/>
</g>
<defs>
<clipPath id="clip0">
<rect width="48" height="48" fill="white" transform="translate(48) rotate(90)"/>
</clipPath>
</defs>
</svg>
