<svg width="48" height="48" viewBox="0 0 48 48" fill="none" xmlns="http://www.w3.org/2000/svg">
<path d="M40.2899 3.23438H7.66324C4.25198 3.23438 1.47656 6.00925 1.47656 9.42105V29.3879C1.47656 32.792 4.2399 35.5625 7.64126 35.5746V44.6353L20.6625 35.5746H40.2899C43.7011 35.5746 46.4766 32.7991 46.4766 29.3879V9.42105C46.4766 6.00925 43.7011 3.23438 40.2899 3.23438ZM43.8398 29.3879C43.8398 31.3451 42.2474 32.9378 40.2899 32.9378H19.8353L10.278 39.5884V32.9378H7.66324C5.70575 32.9378 4.11328 31.3451 4.11328 29.3879V9.42105C4.11328 7.46329 5.70575 5.87109 7.66324 5.87109H40.2899C42.2474 5.87109 43.8398 7.46329 43.8398 9.42105V29.3879Z" fill="#9D7E00"/>
<path d="M13.5205 12.5508H34.4325V15.1875H13.5205V12.5508Z" fill="#9D7E00"/>
<path d="M13.5205 18.1758H34.4325V20.8125H13.5205V18.1758Z" fill="#9D7E00"/>
<path d="M13.5205 23.8008H34.4325V26.4375H13.5205V23.8008Z" fill="#9D7E00"/>
</svg>
