<svg width="48" height="48" viewBox="0 0 48 48" fill="none" xmlns="http://www.w3.org/2000/svg">
<path d="M21.1382 0C9.48291 0 0 9.48291 0 21.1382C0 32.7941 9.48291 42.2764 21.1382 42.2764C32.7941 42.2764 42.2764 32.7941 42.2764 21.1382C42.2764 9.48291 32.7941 0 21.1382 0ZM21.1382 38.374C11.6345 38.374 3.90244 30.642 3.90244 21.1383C3.90244 11.6346 11.6345 3.90244 21.1382 3.90244C30.6419 3.90244 38.3739 11.6345 38.3739 21.1382C38.3739 30.6419 30.6419 38.374 21.1382 38.374Z" fill="#9D7E00"/>
<path d="M47.4282 44.6694L36.2412 33.4824C35.4789 32.7201 34.2444 32.7201 33.4821 33.4824C32.7198 34.244 32.7198 35.4798 33.4821 36.2414L44.6691 47.4284C45.0502 47.8095 45.5492 48.0001 46.0487 48.0001C46.5475 48.0001 47.047 47.8095 47.4282 47.4284C48.1905 46.6668 48.1905 45.431 47.4282 44.6694Z" fill="#9D7E00"/>
<path d="M21 29.9986C20.7437 29.9986 20.4967 29.9058 20.3041 29.7371C19.577 29.1013 18.8759 28.5038 18.2574 27.9767L18.2542 27.974C16.4408 26.4286 14.8748 25.094 13.7853 23.7794C12.5673 22.3097 12 20.9162 12 19.3939C12 17.9149 12.5072 16.5504 13.4279 15.5516C14.3597 14.541 15.6383 13.9844 17.0284 13.9844C18.0675 13.9844 19.019 14.3129 19.8566 14.9606C20.2793 15.2876 20.6624 15.6878 21 16.1546C21.3377 15.6878 21.7207 15.2876 22.1435 14.9606C22.9811 14.3129 23.9326 13.9844 24.9717 13.9844C26.3617 13.9844 27.6404 14.541 28.5722 15.5516C29.4929 16.5504 30 17.9149 30 19.3939C30 20.9162 29.4328 22.3097 28.2148 23.7792C27.1253 25.094 25.5594 26.4285 23.7463 27.9737C23.1267 28.5016 22.4245 29.1001 21.6957 29.7374C21.5033 29.9058 21.2561 29.9986 21 29.9986ZM17.0284 15.0388C15.9363 15.0388 14.9329 15.4747 14.203 16.2662C13.4623 17.0697 13.0543 18.1805 13.0543 19.3939C13.0543 20.6742 13.5301 21.8193 14.597 23.1066C15.6282 24.3509 17.1621 25.658 18.938 27.1715L18.9413 27.1743C19.5622 27.7034 20.266 28.3033 20.9985 28.9438C21.7354 28.302 22.4403 27.7012 23.0624 27.1713C24.8382 25.6578 26.3719 24.3509 27.4031 23.1066C28.4698 21.8193 28.9457 20.6742 28.9457 19.3939C28.9457 18.1805 28.5377 17.0697 27.7969 16.2662C27.0672 15.4747 26.0637 15.0388 24.9717 15.0388C24.1716 15.0388 23.437 15.2931 22.7884 15.7946C22.2104 16.2418 21.8078 16.807 21.5717 17.2025C21.4503 17.4059 21.2366 17.5273 21 17.5273C20.7634 17.5273 20.5497 17.4059 20.4283 17.2025C20.1924 16.807 19.7897 16.2418 19.2115 15.7946C18.5629 15.2931 17.8284 15.0388 17.0284 15.0388Z" fill="#9D7E00"/>
</svg>
