<svg width="48" height="48" viewBox="0 0 48 48" fill="none" xmlns="http://www.w3.org/2000/svg">
<path d="M42.8571 0H5.14285C2.30253 0 0 2.30253 0 5.14285V42.8571C0 45.6975 2.30253 48 5.14285 48H42.8571C45.6975 48 48 45.6975 48 42.8571V5.14285C48 2.30253 45.6975 0 42.8571 0ZM44.5714 42.8571C44.5714 43.804 43.8039 44.5715 42.857 44.5715H5.14285C4.19605 44.5715 3.42854 43.804 3.42854 42.8571V5.14285C3.42854 4.19605 4.19605 3.42854 5.14285 3.42854H42.8571C43.804 3.42854 44.5715 4.19605 44.5715 5.14285V42.8571H44.5714Z" fill="#9D7E00"/>
<path d="M37.7147 10.2861H22.2861C21.3393 10.2861 20.5718 11.0536 20.5718 12.0005C20.5718 12.9473 21.3393 13.7148 22.2861 13.7148H37.7147C38.6615 13.7148 39.429 12.9473 39.429 12.0005C39.429 11.0536 38.6614 10.2861 37.7147 10.2861Z" fill="#9D7E00"/>
<path d="M37.7147 22.2861H22.2861C21.3393 22.2861 20.5718 23.0536 20.5718 24.0005C20.5718 24.9473 21.3393 25.7147 22.2861 25.7147H37.7147C38.6615 25.7147 39.429 24.9472 39.429 24.0003C39.429 23.0535 38.6614 22.2861 37.7147 22.2861Z" fill="#9D7E00"/>
<path d="M37.7536 34.2852H22.6754C21.7501 34.2852 21 35.0527 21 35.9995C21 36.9463 21.7501 37.7138 22.6754 37.7138H37.7536C38.6789 37.7138 39.429 36.9463 39.429 35.9995C39.429 35.0527 38.6788 34.2852 37.7536 34.2852Z" fill="#9D7E00"/>
<path d="M12.44 30.68C12.3067 29.2933 12.3733 28.12 12.64 27.16C12.9067 26.1733 13.2667 25.3333 13.72 24.64C14.2 23.92 14.7333 23.3067 15.32 22.8C15.9333 22.2667 16.4933 21.76 17 21.28C17.5333 20.8 17.9733 20.3067 18.32 19.8C18.6667 19.2667 18.84 18.64 18.84 17.92C18.84 16.9867 18.5733 16.24 18.04 15.68C17.5333 15.12 16.6133 14.84 15.28 14.84C14.8533 14.84 14.4 14.8933 13.92 15C13.44 15.08 12.96 15.2133 12.48 15.4C12 15.56 11.5333 15.76 11.08 16C10.6533 16.2133 10.2667 16.44 9.92 16.68L7.92 12.84C8.93333 12.1467 10.0933 11.5733 11.4 11.12C12.7333 10.6667 14.3333 10.44 16.2 10.44C18.7067 10.44 20.6667 11.0533 22.08 12.28C23.4933 13.48 24.2 15.1067 24.2 17.16C24.2 18.52 24.0133 19.6533 23.64 20.56C23.2933 21.44 22.8533 22.2 22.32 22.84C21.7867 23.4533 21.2 24 20.56 24.48C19.92 24.96 19.3333 25.48 18.8 26.04C18.2667 26.5733 17.8133 27.2 17.44 27.92C17.0667 28.64 16.88 29.56 16.88 30.68H12.44ZM11.64 36.36C11.64 35.4267 11.9333 34.6933 12.52 34.16C13.1067 33.6 13.88 33.32 14.84 33.32C15.8533 33.32 16.6533 33.6 17.24 34.16C17.8267 34.6933 18.12 35.4267 18.12 36.36C18.12 37.2933 17.8267 38.04 17.24 38.6C16.6533 39.16 15.8533 39.44 14.84 39.44C13.88 39.44 13.1067 39.16 12.52 38.6C11.9333 38.04 11.64 37.2933 11.64 36.36Z" fill="#9D7E00"/>
<path d="M12.44 30.68L11.4446 30.7757L11.5315 31.68H12.44V30.68ZM12.64 27.16L13.6035 27.4277L13.6054 27.4209L12.64 27.16ZM13.72 24.64L12.8879 24.0853L12.883 24.0928L13.72 24.64ZM15.32 22.8L15.9736 23.5568L15.9762 23.5546L15.32 22.8ZM17 21.28L16.331 20.5367L16.3215 20.5453L16.3123 20.554L17 21.28ZM18.32 19.8L19.1453 20.3647L19.152 20.3549L19.1584 20.345L18.32 19.8ZM18.04 15.68L17.2985 16.3509L17.307 16.3604L17.3159 16.3697L18.04 15.68ZM13.92 15L14.0844 15.9864L14.1108 15.982L14.1369 15.9762L13.92 15ZM12.48 15.4L12.7962 16.3487L12.8195 16.3409L12.8424 16.332L12.48 15.4ZM11.08 16L11.5272 16.8944L11.5376 16.8892L11.5479 16.8838L11.08 16ZM9.92 16.68L9.03309 17.1419L9.55689 18.1476L10.4892 17.5022L9.92 16.68ZM7.92 12.84L7.35532 12.0147L6.62345 12.5154L7.03309 13.3019L7.92 12.84ZM11.4 11.12L11.0781 10.1732L11.0722 10.1752L11.4 11.12ZM22.08 12.28L21.4245 13.0353L21.4328 13.0423L22.08 12.28ZM23.64 20.56L22.7153 20.1792L22.7124 20.1863L22.7096 20.1935L23.64 20.56ZM22.32 22.84L23.0746 23.4962L23.0815 23.4883L23.0882 23.4802L22.32 22.84ZM20.56 24.48L21.16 25.28V25.28L20.56 24.48ZM18.8 26.04L19.5071 26.7471L19.5157 26.7385L19.5241 26.7297L18.8 26.04ZM16.88 30.68V31.68H17.88V30.68H16.88ZM12.52 34.16L13.1927 34.8999L13.2017 34.8918L13.2105 34.8834L12.52 34.16ZM17.24 34.16L16.5495 34.8834L16.5583 34.8918L16.5673 34.8999L17.24 34.16ZM17.24 38.6L16.5495 37.8766H16.5495L17.24 38.6ZM12.52 38.6L13.2105 37.8766H13.2105L12.52 38.6ZM13.4354 30.5843C13.3095 29.2747 13.3799 28.2326 13.6035 27.4276L11.6765 26.8924C11.3668 28.0074 11.3038 29.312 11.4446 30.7757L13.4354 30.5843ZM13.6054 27.4209C13.8507 26.513 14.1729 25.7747 14.557 25.1872L12.883 24.0928C12.3605 24.892 11.9626 25.8336 11.6746 26.8991L13.6054 27.4209ZM14.5521 25.1947C14.9877 24.5412 15.4627 23.9981 15.9736 23.5568L14.6664 22.0432C14.004 22.6152 13.4123 23.2988 12.888 24.0853L14.5521 25.1947ZM15.9762 23.5546C16.5985 23.0134 17.1693 22.4972 17.6877 22.006L16.3123 20.554C15.8174 21.0228 15.2681 21.5199 14.6638 22.0454L15.9762 23.5546ZM17.669 22.0233C18.2517 21.4989 18.747 20.9468 19.1453 20.3647L17.4947 19.2353C17.1996 19.6665 16.815 20.1011 16.331 20.5367L17.669 22.0233ZM19.1584 20.345C19.624 19.6287 19.84 18.8072 19.84 17.92H17.84C17.84 18.4728 17.7093 18.9046 17.4816 19.255L19.1584 20.345ZM19.84 17.92C19.84 16.7862 19.5099 15.7734 18.7641 14.9903L17.3159 16.3697C17.6367 16.7066 17.84 17.1871 17.84 17.92H19.84ZM18.7815 15.0091C17.9824 14.1258 16.6935 13.84 15.28 13.84V15.84C16.5332 15.84 17.0843 16.1142 17.2985 16.3509L18.7815 15.0091ZM15.28 13.84C14.7703 13.84 14.2438 13.9037 13.7031 14.0238L14.1369 15.9762C14.5562 15.883 14.9364 15.84 15.28 15.84V13.84ZM13.7556 14.0136C13.2041 14.1055 12.6578 14.2579 12.1176 14.468L12.8424 16.332C13.2622 16.1688 13.6759 16.0545 14.0844 15.9864L13.7556 14.0136ZM12.1638 14.4513C11.6308 14.629 11.1135 14.8508 10.6121 15.1162L11.5479 16.8838C11.9532 16.6692 12.3692 16.491 12.7962 16.3487L12.1638 14.4513ZM10.6328 15.1056C10.1692 15.3374 9.74103 15.5876 9.35079 15.8578L10.4892 17.5022C10.7923 17.2924 11.1375 17.0893 11.5272 16.8944L10.6328 15.1056ZM10.8069 16.2181L8.80691 12.3781L7.03309 13.3019L9.03309 17.1419L10.8069 16.2181ZM8.48468 13.6653C9.41613 13.028 10.4946 12.4926 11.7278 12.0648L11.0722 10.1752C9.69205 10.6541 8.45054 11.2653 7.35532 12.0147L8.48468 13.6653ZM11.7219 12.0668C12.924 11.658 14.4094 11.44 16.2 11.44V9.44C14.2573 9.44 12.5426 9.67529 11.0781 10.1732L11.7219 12.0668ZM16.2 11.44C18.5484 11.44 20.247 12.0132 21.4245 13.0352L22.7355 11.5248C21.0863 10.0934 18.8649 9.44 16.2 9.44V11.44ZM21.4328 13.0423C22.5966 14.0304 23.2 15.3647 23.2 17.16H25.2C25.2 14.8487 24.3901 12.9296 22.7272 11.5177L21.4328 13.0423ZM23.2 17.16C23.2 18.4365 23.0237 19.4304 22.7153 20.1792L24.5647 20.9407C25.003 19.8763 25.2 18.6035 25.2 17.16H23.2ZM22.7096 20.1935C22.3968 20.9874 22.0082 21.6521 21.5518 22.1998L23.0882 23.4802C23.6984 22.7479 24.1898 21.8926 24.5704 20.9265L22.7096 20.1935ZM21.5654 22.1838C21.0776 22.7447 20.5426 23.243 19.96 23.68L21.16 25.28C21.8574 24.757 22.4957 24.1619 23.0746 23.4962L21.5654 22.1838ZM19.96 23.68C19.2772 24.1921 18.6487 24.7488 18.0759 25.3503L19.5241 26.7297C20.0179 26.2112 20.5628 25.7279 21.16 25.28L19.96 23.68ZM18.0929 25.3329C17.4818 25.944 16.9692 26.6555 16.5522 27.4597L18.3278 28.3803C18.6574 27.7445 19.0515 27.2027 19.5071 26.7471L18.0929 25.3329ZM16.5522 27.4597C16.0825 28.3656 15.88 29.4576 15.88 30.68H17.88C17.88 29.6624 18.0508 28.9144 18.3278 28.3803L16.5522 27.4597ZM16.88 29.68H12.44V31.68H16.88V29.68ZM12.64 36.36C12.64 35.6538 12.8517 35.2099 13.1927 34.8999L11.8473 33.4201C11.015 34.1768 10.64 35.1995 10.64 36.36H12.64ZM13.2105 34.8834C13.5776 34.5329 14.0868 34.32 14.84 34.32V32.32C13.6732 32.32 12.6357 32.6671 11.8295 33.4366L13.2105 34.8834ZM14.84 34.32C15.6635 34.32 16.1924 34.5425 16.5495 34.8834L17.9305 33.4366C17.1142 32.6575 16.0432 32.32 14.84 32.32V34.32ZM16.5673 34.8999C16.9083 35.2099 17.12 35.6538 17.12 36.36H19.12C19.12 35.1995 18.745 34.1768 17.9127 33.4201L16.5673 34.8999ZM17.12 36.36C17.12 37.0651 16.9082 37.5343 16.5495 37.8766L17.9305 39.3234C18.7452 38.5457 19.12 37.5216 19.12 36.36H17.12ZM16.5495 37.8766C16.1924 38.2175 15.6635 38.44 14.84 38.44V40.44C16.0432 40.44 17.1142 40.1025 17.9305 39.3234L16.5495 37.8766ZM14.84 38.44C14.0868 38.44 13.5776 38.2271 13.2105 37.8766L11.8295 39.3234C12.6357 40.0929 13.6732 40.44 14.84 40.44V38.44ZM13.2105 37.8766C12.8518 37.5343 12.64 37.0651 12.64 36.36H10.64C10.64 37.5216 11.0148 38.5457 11.8295 39.3234L13.2105 37.8766Z" fill="white"/>
</svg>
