<svg width="48" height="48" viewBox="0 0 48 48" fill="none" xmlns="http://www.w3.org/2000/svg">
<path d="M42.8571 0H5.14285C2.30253 0 0 2.30253 0 5.14285V42.8571C0 45.6975 2.30253 48 5.14285 48H42.8571C45.6975 48 48 45.6975 48 42.8571V5.14285C48 2.30253 45.6975 0 42.8571 0ZM44.5714 42.8571C44.5714 43.804 43.8039 44.5715 42.857 44.5715H5.14285C4.19605 44.5715 3.42854 43.804 3.42854 42.8571V5.14285C3.42854 4.19605 4.19605 3.42854 5.14285 3.42854H42.8571C43.804 3.42854 44.5715 4.19605 44.5715 5.14285V42.8571H44.5714Z" fill="#9D7E00"/>
<path d="M15.4285 10.2861H10.2856C9.3388 10.2861 8.57129 11.0536 8.57129 12.0005C8.57129 12.9473 9.3388 13.7148 10.2856 13.7148H15.4285C16.3753 13.7148 17.1428 12.9473 17.1428 12.0005C17.1428 11.0536 16.3753 10.2861 15.4285 10.2861Z" fill="#9D7E00"/>
<path d="M37.7147 10.2861H22.2861C21.3393 10.2861 20.5718 11.0536 20.5718 12.0005C20.5718 12.9473 21.3393 13.7148 22.2861 13.7148H37.7147C38.6615 13.7148 39.429 12.9473 39.429 12.0005C39.429 11.0536 38.6614 10.2861 37.7147 10.2861Z" fill="#9D7E00"/>
<path d="M15.4285 22.2861H10.2856C9.3388 22.2861 8.57129 23.0536 8.57129 24.0005C8.57129 24.9473 9.3388 25.7147 10.2856 25.7147H15.4285C16.3753 25.7147 17.1428 24.9472 17.1428 24.0003C17.1428 23.0535 16.3753 22.2861 15.4285 22.2861Z" fill="#9D7E00"/>
<path d="M37.7147 22.2861H22.2861C21.3393 22.2861 20.5718 23.0536 20.5718 24.0005C20.5718 24.9473 21.3393 25.7147 22.2861 25.7147H37.7147C38.6615 25.7147 39.429 24.9472 39.429 24.0003C39.429 23.0535 38.6614 22.2861 37.7147 22.2861Z" fill="#9D7E00"/>
<path d="M15.4285 34.2852H10.2856C9.3388 34.2852 8.57129 35.0527 8.57129 35.9995C8.57129 36.9463 9.3388 37.7138 10.2856 37.7138H15.4285C16.3753 37.7138 17.1428 36.9463 17.1428 35.9995C17.1428 35.0527 16.3753 34.2852 15.4285 34.2852Z" fill="#9D7E00"/>
<path d="M37.7147 34.2852H22.2861C21.3393 34.2852 20.5718 35.0527 20.5718 35.9995C20.5718 36.9463 21.3393 37.7138 22.2861 37.7138H37.7147C38.6615 37.7138 39.429 36.9463 39.429 35.9995C39.429 35.0527 38.6614 34.2852 37.7147 34.2852Z" fill="#9D7E00"/>
</svg>
