<svg width="48" height="48" viewBox="0 0 48 48" fill="none" xmlns="http://www.w3.org/2000/svg">
<path d="M24 0C10.7662 0 0 10.7662 0 24C0 37.2337 10.7662 48 24 48C37.2337 48 48 37.2337 48 24C48 10.7662 37.2337 0 24 0ZM24 44.5715C12.6565 44.5715 3.42853 35.3435 3.42853 24C3.42853 12.6565 12.6565 3.42853 24 3.42853C35.3435 3.42853 44.5715 12.6565 44.5715 24C44.5715 35.3435 35.3435 44.5715 24 44.5715Z" fill="#9D7E00"/>
<path d="M24.0001 12.5713C23.0532 12.5713 22.2858 13.3387 22.2858 14.2856V33.7142C22.2858 34.661 23.0532 35.4285 24.0001 35.4285C24.9469 35.4285 25.7144 34.661 25.7144 33.7142V14.2856C25.7144 13.3387 24.9469 12.5713 24.0001 12.5713Z" fill="#9D7E00"/>
<path d="M33.714 22.2852H14.2855C13.3386 22.2852 12.5712 23.0526 12.5712 23.9995C12.5712 24.9463 13.3386 25.7138 14.2855 25.7138H33.714C34.6609 25.7138 35.4284 24.9463 35.4284 23.9995C35.4284 23.0526 34.6609 22.2852 33.714 22.2852Z" fill="#9D7E00"/>
</svg>
