<svg width="24" height="13" viewBox="0 0 24 13" fill="none" xmlns="http://www.w3.org/2000/svg">
<path d="M13.8927 0.108503C10.8015 -0.237239 7.78015 0.244896 4.90553 1.53193C3.81901 2.03216 2.41855 2.76865 1.24798 4.08953C1.17686 4.17327 1.10869 4.2532 1.04052 4.34073C0.302448 5.28832 -0.0364244 6.37548 0.0030922 7.66684C0.003081 7.67443 0.00305846 7.68963 0.0060002 7.70101C0.0407862 8.18712 0.0311874 8.67714 0.0245092 9.19374C0.0180772 9.5432 0.014588 9.90406 0.019979 10.2611C0.0441713 11.9133 0.876899 12.9825 2.14907 12.9794L5.70523 12.9707C6.32058 12.9844 6.84757 12.7325 7.22697 12.2453C7.60638 11.7582 7.8056 11.0778 7.80678 10.2802L7.81079 7.56051C7.96471 7.50696 8.11569 7.44202 8.25779 7.3809C8.43541 7.3045 8.60119 7.23573 8.76102 7.18976C10.3386 6.73392 12.0133 6.6311 13.8768 6.86967C14.8351 7.01168 15.5685 7.22261 16.2248 7.55527C16.1972 8.23525 16.1992 8.90756 16.2041 9.56087C16.2067 9.79256 16.2064 10.0281 16.2061 10.2636C16.2048 11.084 16.402 11.7786 16.7771 12.2601C17.1521 12.7416 17.6902 12.9986 18.3322 12.9932L20.0955 12.989C20.3025 12.9885 20.5008 12.9918 20.7049 12.9951C21.1013 13.0017 21.5126 13.0045 21.9002 12.9846C22.5037 12.9755 23.0189 12.716 23.3983 12.2289C23.7747 11.7455 23.9798 11.0803 23.9958 10.2864L24 7.44522C24.0015 6.41206 23.7425 5.49348 23.2259 4.70847C22.5765 3.73006 21.696 2.93454 20.4516 2.20447C18.5302 1.06963 16.4454 0.402375 13.8927 0.108503ZM22.4407 5.55742C22.7978 6.10731 22.9745 6.72222 22.9734 7.45152L22.9692 10.2775C22.9627 10.7106 22.8586 11.0641 22.6748 11.3C22.494 11.5321 22.2246 11.6581 21.8844 11.6552C21.5027 11.6751 21.124 11.6684 20.7187 11.6656C20.5146 11.6623 20.3075 11.6628 20.0974 11.6595L18.3341 11.6638C17.9673 11.6647 17.6864 11.5476 17.5033 11.3126C17.3202 11.0775 17.229 10.7169 17.2297 10.2459C17.2301 10.0104 17.2275 9.77109 17.2278 9.53559C17.2259 8.8253 17.221 8.15679 17.2545 7.4692C17.2545 7.45401 17.2546 7.44641 17.2546 7.43122C17.2555 6.80069 16.9837 6.55065 16.7472 6.39929C16.7354 6.39172 16.7265 6.38795 16.7147 6.38038C15.9402 5.97203 15.1033 5.71198 13.9882 5.55136C12.0064 5.29028 10.2222 5.40477 8.53809 5.89125C8.32795 5.94874 8.12663 6.04039 7.93421 6.12062C7.75659 6.19702 7.59081 6.2658 7.43098 6.31176C7.41322 6.3194 7.39842 6.32324 7.38066 6.33088C7.23264 6.39201 7.11416 6.48346 7.01931 6.60524C6.78218 6.90969 6.77865 7.30093 6.77846 7.43007L6.77427 10.2713C6.77362 10.7119 6.67842 11.0692 6.49465 11.3051C6.26937 11.5943 5.94681 11.6521 5.70718 11.6413L2.14215 11.6537C1.4321 11.6555 1.05118 11.1588 1.03778 10.213C1.02939 9.8826 1.03284 9.55213 1.03927 9.20267C1.04596 8.67847 1.05563 8.13528 1.01798 7.58461C0.992695 6.67685 1.22751 5.9356 1.75216 5.26201C1.80255 5.19731 1.85886 5.1326 1.9122 5.0717C2.94645 3.90308 4.22849 3.22766 5.22914 2.76942C7.96166 1.5435 10.841 1.0845 13.7842 1.41541C16.2157 1.69818 18.194 2.32771 20.009 3.39444C21.1264 4.04505 21.8946 4.73449 22.4407 5.55742Z" fill="#BC992F"/>
</svg>
