<svg width="20" height="20" viewBox="0 0 20 20" fill="none" xmlns="http://www.w3.org/2000/svg">
<g clip-path="url(#clip0)">
<path d="M19.8633 8.73427L7.67578 1.69818C7.32584 1.49683 6.91035 1.44243 6.52037 1.5469C6.13038 1.65137 5.79773 1.9062 5.59531 2.25552L4.19219 4.68568L3.25812 6.30333C3.05666 6.6534 3.00224 7.06907 3.10681 7.4592C3.21138 7.84932 3.4664 8.18206 3.81594 8.38443L7.99453 10.7968L7.34469 11.9049C7.25825 12.0516 7.1351 12.1732 6.98738 12.2578C6.83965 12.3425 6.67244 12.3872 6.50219 12.3876H4.0625V10.5282C4.0625 10.4557 4.03369 10.3861 3.98241 10.3348C3.93113 10.2835 3.86158 10.2547 3.78906 10.2547H2.30469V9.90193C2.30432 9.58088 2.17662 9.27309 1.9496 9.04608C1.72259 8.81906 1.4148 8.69136 1.09375 8.69099H0.273438C0.237523 8.69097 0.201957 8.69803 0.168773 8.71176C0.135589 8.7255 0.105437 8.74564 0.0800422 8.77103C0.0546471 8.79643 0.0345066 8.82658 0.0207724 8.85976C0.00703815 8.89295 -2.04953e-05 8.92851 4.4698e-08 8.96443V18.2327C-2.04953e-05 18.2686 0.00703815 18.3042 0.0207724 18.3374C0.0345066 18.3706 0.0546471 18.4007 0.0800422 18.4261C0.105437 18.4515 0.135589 18.4716 0.168773 18.4854C0.201957 18.4991 0.237523 18.5062 0.273438 18.5061H1.09375C1.4148 18.5058 1.72259 18.3781 1.9496 18.1511C2.17662 17.924 2.30432 17.6163 2.30469 17.2952V16.4266H3.78906C3.86158 16.4266 3.93113 16.3978 3.98241 16.3465C4.03369 16.2952 4.0625 16.2257 4.0625 16.1532V14.8094H6.50219C7.09454 14.8082 7.67635 14.6527 8.19037 14.3583C8.70439 14.0639 9.13291 13.6408 9.43375 13.1305L10.092 12.008L12.3825 13.3304C12.6131 13.4642 12.8749 13.5348 13.1416 13.5351C13.2756 13.535 13.409 13.5173 13.5384 13.4826C13.7872 13.4164 14.0149 13.2879 14.2002 13.1093C14.4997 13.2483 14.826 13.3205 15.1562 13.3208C15.3587 13.3207 15.5602 13.294 15.7556 13.2415C16.2542 13.109 16.6932 12.8116 17.0011 12.3977L17.5611 12.721C17.5922 12.739 17.6265 12.7506 17.6621 12.7553C17.6978 12.76 17.734 12.7577 17.7687 12.7484C17.8034 12.7391 17.8359 12.723 17.8644 12.7011C17.8929 12.6792 17.9168 12.652 17.9347 12.6208L19.9628 9.10818C19.9808 9.07709 19.9925 9.04276 19.9973 9.00715C20.002 8.97153 19.9997 8.93533 19.9905 8.90061C19.9812 8.86589 19.9653 8.83333 19.9434 8.80479C19.9216 8.77625 19.8944 8.75229 19.8633 8.73427ZM1.75781 17.2952C1.75765 17.4713 1.68763 17.6401 1.56313 17.7646C1.43863 17.8891 1.26982 17.9591 1.09375 17.9593H0.546875V9.23786H1.09375C1.26982 9.23803 1.43863 9.30805 1.56313 9.43255C1.68763 9.55705 1.75765 9.72586 1.75781 9.90193V17.2952ZM3.51562 15.8797H2.30469V10.8016H3.51562V15.8797ZM8.96187 12.8538C8.70951 13.282 8.34998 13.6371 7.91869 13.8841C7.48741 14.1312 6.99922 14.2616 6.50219 14.2627H4.0625V12.9346H6.50219C6.76775 12.934 7.02859 12.8643 7.25903 12.7323C7.48947 12.6003 7.68156 12.4106 7.81641 12.1818L8.46875 11.0705L9.61906 11.7346L8.96187 12.8538ZM12.6562 12.8568L4.08938 7.91083C3.86527 7.78114 3.70177 7.56783 3.63475 7.31773C3.56773 7.06763 3.60266 6.80115 3.73188 6.57677L4.52875 5.19599L12.3798 9.7288L14.7869 11.1185L13.9898 12.4999L13.9888 12.5016C13.968 12.5369 13.9449 12.5708 13.9198 12.6032V12.6043C13.7756 12.7924 13.568 12.9218 13.3355 12.9682C13.1031 13.0147 12.8617 12.9751 12.6562 12.8568ZM15.6152 12.7132C15.257 12.81 14.8773 12.79 14.5312 12.6561L15.2614 11.3916L16.5259 12.1216C16.293 12.4108 15.9738 12.6181 15.6148 12.7132H15.6152ZM17.5988 12.1101L15.8305 11.0891L15.2969 10.7811L9.25984 7.29583L4.8025 4.7224L6.06891 2.52896C6.19866 2.30491 6.41198 2.14148 6.66208 2.07451C6.91218 2.00755 7.17863 2.04253 7.40297 2.17177L19.353 9.0713L17.5988 12.1101Z" fill="#474747"/>
<path d="M16.4302 10.6238C16.5894 10.7163 16.7703 10.7651 16.9544 10.7652C17.0469 10.7651 17.1389 10.7529 17.2282 10.7289C17.4632 10.666 17.6691 10.5235 17.8108 10.3258C17.9525 10.128 18.0213 9.88728 18.0054 9.64452C17.9895 9.40175 17.89 9.17201 17.7237 8.99442C17.5574 8.81684 17.3347 8.70241 17.0935 8.67062C16.8523 8.63884 16.6075 8.69167 16.4009 8.82011C16.1943 8.94855 16.0386 9.14466 15.9604 9.37502C15.8822 9.60539 15.8862 9.85575 15.9719 10.0834C16.0576 10.3112 16.2195 10.5021 16.4302 10.6238ZM16.5191 9.46081C16.5522 9.40346 16.5963 9.35322 16.6489 9.31299C16.7015 9.27277 16.7615 9.24335 16.8255 9.22643C16.8683 9.21497 16.9124 9.20914 16.9568 9.20909C17.068 9.2091 17.176 9.24581 17.2643 9.31352C17.3525 9.38123 17.4159 9.47615 17.4446 9.58357C17.4734 9.69099 17.4659 9.8049 17.4234 9.90763C17.3808 10.0104 17.3055 10.0962 17.2092 10.1518C17.1129 10.2074 17.0009 10.2296 16.8907 10.2151C16.7804 10.2005 16.678 10.15 16.5994 10.0714C16.5208 9.99274 16.4703 9.89035 16.4558 9.78009C16.4413 9.66984 16.4636 9.55788 16.5193 9.46159L16.5191 9.46081Z" fill="#474747"/>
<path d="M7.10938 7.85447L4.86876 6.56057C4.83765 6.54233 4.80324 6.53042 4.76751 6.52554C4.73178 6.52065 4.69544 6.52288 4.66058 6.5321C4.62571 6.54132 4.59302 6.55734 4.56437 6.57925C4.53573 6.60115 4.5117 6.6285 4.49367 6.65973C4.47564 6.69096 4.46396 6.72545 4.45931 6.76121C4.45466 6.79697 4.45714 6.8333 4.46658 6.8681C4.47603 6.9029 4.49227 6.93549 4.51436 6.96399C4.53646 6.99249 4.56397 7.01634 4.59532 7.03416L6.83657 8.32791C6.89912 8.36061 6.97189 8.36786 7.03966 8.34814C7.10742 8.32843 7.16495 8.28327 7.20018 8.22211C7.23542 8.16096 7.24565 8.08855 7.22873 8.02003C7.2118 7.95151 7.16904 7.89219 7.10938 7.85447Z" fill="#474747"/>
</g>
<defs>
<clipPath id="clip0">
<rect width="20" height="20" fill="white"/>
</clipPath>
</defs>
</svg>
