<svg width="20" height="20" viewBox="0 0 20 20" fill="none" xmlns="http://www.w3.org/2000/svg">
<g clip-path="url(#clip0)">
<path d="M19.2478 0.971085H12.7747C12.3592 0.971085 12.0225 1.30791 12.0225 1.72338V3.70724C12.1622 3.74351 12.2974 3.80647 12.4204 3.89784C12.9319 4.27798 13.0385 5.00089 12.6584 5.51251L12.0225 6.36819V8.66262H13.8971V8.61503C13.8971 7.94917 14.6666 7.57302 15.1921 7.98227L17.2575 9.59108C17.6695 9.91201 17.6701 10.5351 17.2575 10.8566L15.1921 12.4654C14.6667 12.8745 13.8971 12.4987 13.8971 11.8326V11.7851H12.0225V18.2765C12.0225 18.692 12.3593 19.0288 12.7748 19.0288H19.2478C19.6633 19.0288 20.0001 18.692 20.0001 18.2765V1.72338C20.0001 1.30791 19.6633 0.971085 19.2478 0.971085Z" fill="#474747"/>
<path d="M9.11714 4.1637C9.75495 3.52589 9.75495 2.49181 9.11714 1.854C8.47934 1.21619 7.44525 1.21619 6.80744 1.854C6.16963 2.49181 6.16963 3.52589 6.80744 4.1637C7.44525 4.80151 8.47934 4.80151 9.11714 4.1637Z" fill="#474747"/>
<path d="M12.1736 4.22961C11.8453 3.9856 11.3812 4.05396 11.1372 4.38237L9.67652 6.34792L8.26462 5.86514L8.98577 5.95862C8.88044 5.60274 8.57629 5.32269 8.1848 5.26756L6.15958 4.98739C5.74743 4.93038 5.32812 5.01365 4.969 5.22377L2.57902 6.62241C2.33653 6.76457 2.19543 7.0317 2.21465 7.3121L2.44574 10.6814C2.47376 11.0901 2.82804 11.398 3.23545 11.3698C3.64361 11.3418 3.95183 10.9883 3.92381 10.5801L3.7241 7.66845L4.69806 7.0974L4.16708 10.6873C4.14098 10.8638 4.12189 11.0412 4.10983 11.2191L3.94162 13.7027L0.737711 14.2554C0.253916 14.3389 -0.0706223 14.7987 0.0128405 15.2825C0.0963033 15.7663 0.556112 16.0909 1.03998 16.0074L4.93245 15.3359C5.33654 15.2662 5.64053 14.9291 5.66824 14.5199L5.85187 11.8083L6.90343 11.9809L7.92216 14.142L8.35462 18.2332C8.40615 18.7205 8.84276 19.0753 9.33211 19.0237C9.82032 18.9721 10.1743 18.5345 10.1227 18.0463L9.67437 13.8056C9.66388 13.7066 9.63688 13.61 9.59443 13.52L8.38279 10.9496L8.80926 7.86703L7.78521 7.26699L9.70877 7.92475C10.0149 8.02938 10.3517 7.92319 10.543 7.66564L12.3262 5.26599C12.5704 4.93766 12.502 4.47362 12.1736 4.22961Z" fill="#474747"/>
<path d="M14.3694 11.3129V11.8328C14.3694 12.1076 14.6853 12.2614 14.9017 12.0929L16.9671 10.4841C17.1365 10.3521 17.1365 10.0959 16.9671 9.96392L14.9017 8.35512C14.6856 8.18678 14.3694 8.34021 14.3694 8.61521V9.13516H11.5768C11.3828 9.13516 11.2256 9.29242 11.2256 9.48642V10.9616C11.2256 11.1556 11.3828 11.3129 11.5768 11.3129H14.3694V11.3129Z" fill="#474747"/>
</g>
<defs>
<clipPath id="clip0">
<rect width="20" height="20" fill="white"/>
</clipPath>
</defs>
</svg>
