<svg width="20" height="20" viewBox="0 0 20 20" fill="none" xmlns="http://www.w3.org/2000/svg">
<g clip-path="url(#clip0)">
<path d="M18.8281 8.04688H18.4375V6.28906C18.4375 5.4274 17.7364 4.72656 16.875 4.72656C16.5738 4.72656 16.2921 4.81216 16.0535 4.96048C15.8937 4.26758 15.2715 3.75 14.5312 3.75H14.5308C13.6696 3.75 12.9683 4.45084 12.9683 5.3125V8.04688H7.03171V5.3125C7.03171 4.45084 6.33041 3.75 5.46875 3.75C4.72855 3.75 4.10629 4.26758 3.94653 4.96048C3.70789 4.81216 3.42621 4.72656 3.125 4.72656C2.26364 4.72656 1.5625 5.4274 1.5625 6.28906V8.04688H1.17188C0.525818 8.04688 0 8.57269 0 9.21875V10.7812C0 11.4273 0.525818 11.9531 1.17188 11.9531H1.5625V13.7109C1.5625 14.5726 2.26364 15.2734 3.125 15.2734C3.42621 15.2734 3.70789 15.1878 3.94653 15.0395C4.10629 15.7324 4.72855 16.25 5.46875 16.25H5.46921C6.33041 16.25 7.03171 15.5492 7.03171 14.6875V11.9531H12.9683V14.6875C12.9683 15.5492 13.6696 16.25 14.5312 16.25C15.2715 16.25 15.8937 15.7324 16.0535 15.0395C16.2921 15.1878 16.5738 15.2734 16.875 15.2734C17.7364 15.2734 18.4375 14.5726 18.4375 13.7109V11.9531H18.8281C19.4742 11.9531 20 11.4273 20 10.7812V9.21875C20 8.57269 19.4742 8.04688 18.8281 8.04688ZM1.5625 11.1719H1.17188C0.956573 11.1719 0.78125 10.9966 0.78125 10.7812V9.21875C0.78125 9.00345 0.956573 8.82812 1.17188 8.82812H1.5625V11.1719ZM3.90625 13.7109C3.90625 13.9265 3.81882 14.1219 3.67737 14.2633C3.53592 14.4048 3.34061 14.4922 3.125 14.4922C2.69409 14.4922 2.34375 14.1418 2.34375 13.7109V6.28906C2.34375 5.85815 2.69409 5.50781 3.125 5.50781C3.55591 5.50781 3.90625 5.85815 3.90625 6.28906V13.7109ZM6.25046 14.6875C6.25046 15.1184 5.89966 15.4688 5.46921 15.4688H5.46875C5.0383 15.4688 4.6875 15.1184 4.6875 14.6875V5.3125C4.6875 4.88159 5.0383 4.53125 5.46921 4.53125C5.89966 4.53125 6.25046 4.88159 6.25046 5.3125V14.6875ZM12.966 9.60938H10.2344C10.0188 9.60938 9.84375 9.78439 9.84375 10C9.84375 10.2156 10.0188 10.3906 10.2344 10.3906H12.966V11.1719H7.02972V8.82812H12.966V9.60938ZM15.3125 14.6875C15.3125 15.1184 14.9617 15.4688 14.5308 15.4688C14.1003 15.4688 13.7495 15.1184 13.7495 14.6875V10.02C13.7492 10.0285 13.7485 10.0371 13.7473 10.0453V9.95468C13.7485 9.96292 13.7492 9.97147 13.7495 9.98001V5.3125C13.7495 4.88159 14.1003 4.53125 14.5308 4.53125H14.5312C14.9617 4.53125 15.3125 4.88159 15.3125 5.3125V14.6875ZM17.6562 13.7109C17.6562 14.1418 17.3059 14.4922 16.875 14.4922C16.4441 14.4922 16.0938 14.1418 16.0938 13.7109V6.28906C16.0938 5.85815 16.4441 5.50781 16.875 5.50781C17.3059 5.50781 17.6562 5.85815 17.6562 6.28906V13.7109ZM19.2188 10.7812C19.2188 10.9966 19.0434 11.1719 18.8281 11.1719H18.4375V8.82812H18.8281C19.0434 8.82812 19.2188 9.00345 19.2188 9.21875V10.7812Z" fill="#474747"/>
<path d="M8.67252 10.3906C8.45676 10.3906 8.28174 10.2158 8.28174 10C8.28174 9.78424 8.45645 9.60938 8.67221 9.60938H8.67252C8.88828 9.60938 9.06314 9.78424 9.06314 10C9.06314 10.2158 8.88828 10.3906 8.67252 10.3906Z" fill="#474747"/>
</g>
<defs>
<clipPath id="clip0">
<rect width="20" height="20" fill="white"/>
</clipPath>
</defs>
</svg>
