<svg width="20" height="20" viewBox="0 0 20 20" fill="none" xmlns="http://www.w3.org/2000/svg">
<path d="M19.5652 0H0.434796C0.194796 0 0 0.194796 0 0.434796V19.5652C0 19.8052 0.194796 20 0.434796 20H3.91304C4.15304 20 4.34784 19.8052 4.34784 19.5652V19.1304H15.6522V19.5652C15.6522 19.8052 15.847 20 16.087 20H19.5652C19.8052 20 20 19.8052 20 19.5652V0.434796C20 0.194796 19.8052 0 19.5652 0ZM19.1304 19.1304H16.5217V18.6956C16.5217 18.4556 16.3269 18.2608 16.0869 18.2608H3.91304C3.67304 18.2608 3.47824 18.4556 3.47824 18.6956V19.1304H0.869551V0.869551H19.1304V19.1304Z" fill="#474747"/>
<path d="M16.087 4.3478H3.91307C3.67307 4.3478 3.47827 4.5426 3.47827 4.7826V18.6956C3.47827 18.9356 3.67307 19.1304 3.91307 19.1304H16.087C16.327 19.1304 16.5218 18.9356 16.5218 18.6956V4.78256C16.5217 4.54256 16.327 4.3478 16.087 4.3478ZM15.6522 18.2608H4.34786V5.21735H15.6522V18.2608Z" fill="#474747"/>
<path d="M9.99998 4.3478C9.75998 4.3478 9.56519 4.5426 9.56519 4.7826V18.6956C9.56519 18.9356 9.75998 19.1304 9.99998 19.1304C10.24 19.1304 10.4348 18.9356 10.4348 18.6956V4.78256C10.4348 4.54256 10.24 4.3478 9.99998 4.3478Z" fill="#474747"/>
<path d="M17.8262 9.56528C18.0663 9.56528 18.261 9.37062 18.261 9.13049C18.261 8.89036 18.0663 8.69569 17.8262 8.69569C17.586 8.69569 17.3914 8.89036 17.3914 9.13049C17.3914 9.37062 17.586 9.56528 17.8262 9.56528Z" fill="#474747"/>
<path d="M17.8262 11.3044C18.0663 11.3044 18.261 11.1097 18.261 10.8696C18.261 10.6295 18.0663 10.4348 17.8262 10.4348C17.586 10.4348 17.3914 10.6295 17.3914 10.8696C17.3914 11.1097 17.586 11.3044 17.8262 11.3044Z" fill="#474747"/>
<path d="M8.56872 2.73662L7.69917 1.86706C7.5296 1.6975 7.25394 1.6975 7.08437 1.86706L6.21482 2.73662C6.04526 2.90618 6.04526 3.18185 6.21482 3.35141C6.38439 3.52098 6.66005 3.52098 6.82962 3.35141L7.39134 2.78879L7.95307 3.35141C8.0383 3.43575 8.14958 3.47838 8.26089 3.47838C8.37221 3.47838 8.48349 3.43579 8.56872 3.35141C8.73829 3.18185 8.73829 2.90618 8.56872 2.73662Z" fill="#474747"/>
<path d="M13.7851 1.86706C13.6155 1.6975 13.3398 1.6975 13.1703 1.86706L12.6085 2.42879L12.0459 1.86706C11.8764 1.6975 11.6007 1.6975 11.4311 1.86706C11.2616 2.03663 11.2616 2.3123 11.4311 2.48186L12.3007 3.35141C12.3859 3.43575 12.4972 3.47838 12.6085 3.47838C12.7198 3.47838 12.8311 3.43579 12.9155 3.35141L13.785 2.48186C13.9546 2.31226 13.9546 2.03663 13.7851 1.86706Z" fill="#474747"/>
</svg>
