<svg width="20" height="20" viewBox="0 0 20 20" fill="none" xmlns="http://www.w3.org/2000/svg">
<path d="M14.183 8.96362C14.1187 8.96362 14.0526 8.97426 13.9866 8.9951L13.2401 9.23158L12.465 7.06006C12.2454 6.44489 11.5962 5.94434 11.018 5.94434H3.76357C3.18527 5.94434 2.53623 6.44489 2.31665 7.06006L1.54255 9.22854L0.80529 8.99502C0.739314 8.97417 0.673264 8.96354 0.608903 8.96354C0.256052 8.96354 0 9.27353 0 9.70049V10.2065C0 10.705 0.352704 11.1106 0.786135 11.1106H0.870605L0.745478 11.4611C0.541459 12.0324 0.375381 13.0001 0.375381 13.6181V17.932C0.375381 18.4305 0.728085 18.8361 1.16152 18.8361H2.18822C2.62165 18.8361 2.97435 18.4305 2.97435 17.932V16.8548H11.8071V17.932C11.8071 18.4305 12.1599 18.8361 12.5933 18.8361H13.6198C14.0533 18.8361 14.406 18.4305 14.406 17.932V13.6182C14.406 13.0003 14.2399 12.0326 14.0359 11.4612L13.9108 11.1107H14.0057C14.4391 11.1107 14.7919 10.7051 14.7919 10.2066V9.70057C14.7919 9.27361 14.5358 8.96362 14.183 8.96362ZM2.1061 10.6197L3.2787 7.33511C3.41006 6.96714 3.80049 6.66601 4.14637 6.66601H10.6352C10.9811 6.66601 11.3715 6.96705 11.5029 7.33511L12.6755 10.6197C12.8068 10.9876 12.6313 11.2887 12.2854 11.2887H2.49623C2.15028 11.2887 1.97481 10.9876 2.1061 10.6197ZM4.72364 14.7742C4.72364 14.9732 4.58207 15.1358 4.40924 15.1358H2.18176C2.00878 15.1358 1.86729 14.9731 1.86729 14.7742V13.5449C1.86729 13.3461 2.00878 13.1834 2.18176 13.1834H4.40924C4.58207 13.1834 4.72364 13.3461 4.72364 13.5449V14.7742ZM12.8932 14.7742C12.8932 14.9732 12.7516 15.1358 12.5788 15.1358H10.3513C10.1784 15.1358 10.0369 14.9731 10.0369 14.7742V13.5449C10.0369 13.3461 10.1784 13.1834 10.3513 13.1834H12.5788C12.7516 13.1834 12.8932 13.3461 12.8932 13.5449V14.7742Z" fill="black"/>
<path d="M19.0167 2.16406H15.2933C14.7511 2.16406 14.3101 2.67137 14.3101 3.29481V7.57675C14.3101 8.20027 14.7512 8.70758 15.2933 8.70758H16.788V18.318C16.788 18.5511 16.9523 18.74 17.155 18.74C17.3577 18.74 17.5219 18.5511 17.5219 18.318V8.70766H19.0167C19.5589 8.70766 19.9999 8.20036 19.9999 7.57683V3.29489C19.9999 2.67137 19.5589 2.16406 19.0167 2.16406ZM18.1734 5.71437C17.9592 5.93608 17.6438 6.0485 17.2359 6.0485H16.6967C16.632 6.0485 16.5793 6.10918 16.5793 6.18362V7.22921C16.5793 7.3428 16.4989 7.43513 16.4002 7.43513H15.9918C15.893 7.43513 15.8127 7.34272 15.8127 7.22921V3.64277C15.8127 3.52909 15.893 3.43668 15.9918 3.43668H17.0204C17.7019 3.43668 17.9562 3.55475 18.1652 3.75874C18.3857 3.97386 18.4974 4.30335 18.4974 4.73824C18.4973 5.16318 18.3884 5.49148 18.1734 5.71437Z" fill="black"/>
<path d="M17.5898 4.3027C17.4902 4.21628 17.3142 4.17239 17.0666 4.17239H16.6968C16.632 4.17239 16.5793 4.23299 16.5793 4.30734V5.16667C16.5793 5.24102 16.632 5.30162 16.6968 5.30162H16.9183C16.9997 5.30162 17.1312 5.2947 17.2114 5.28618C17.2893 5.27799 17.5091 5.24136 17.5898 5.17131C17.6866 5.08708 17.7357 4.94142 17.7357 4.73844C17.7357 4.53353 17.6866 4.38693 17.5898 4.3027Z" fill="black"/>
</svg>
