<svg width="20" height="20" viewBox="0 0 20 20" fill="none" xmlns="http://www.w3.org/2000/svg">
<g clip-path="url(#clip0)">
<path d="M19.9601 12.9159C19.8346 12.1749 19.3568 9.05074 19.3102 7.28974C19.3177 6.54248 19.1397 6.05726 18.7808 5.8475C18.5064 5.68715 18.1498 5.71035 17.8024 5.91125C17.5774 6.04147 17.3934 6.25379 17.2403 6.56453C17.2114 6.51829 17.1828 6.47262 17.154 6.42701C17.0234 6.2198 16.8925 6.0067 16.7659 5.80069C16.4679 5.31553 16.1597 4.81385 15.8245 4.33755C15.7813 4.27614 15.7367 4.21234 15.6909 4.14697C15.2591 3.52971 14.7696 2.8301 14.3852 2.53834C13.9637 2.21822 13.5092 2.13387 13.1384 2.30715C12.9784 2.3819 12.8472 2.49945 12.756 2.64327C12.7371 2.63431 12.7176 2.62576 12.6975 2.61768C12.2749 2.44753 11.7947 2.48449 11.4739 2.71187C11.2031 2.90381 11.0624 3.21397 11.0772 3.58653C10.9029 3.67896 10.6694 3.84712 10.5027 4.13529C10.2911 4.50118 10.2411 4.95444 10.3536 5.48469C10.1961 5.63628 10.0821 5.81794 9.99962 5.99752C9.9171 5.81805 9.80309 5.63633 9.64551 5.48463C9.7579 4.95438 9.70796 4.50108 9.49632 4.13524C9.32961 3.84707 9.09608 3.67891 8.92176 3.58648C8.93688 3.21434 8.79618 2.90391 8.52522 2.71182C8.20447 2.48444 7.72416 2.44737 7.30145 2.61757C7.28138 2.62565 7.26199 2.6342 7.24312 2.64317C7.15184 2.4994 7.02064 2.38179 6.86065 2.30709C6.48992 2.13392 6.03541 2.21816 5.6139 2.53828C5.2295 2.8301 4.74002 3.52971 4.30819 4.14697C4.26247 4.21234 4.2178 4.27619 4.17458 4.33755C3.83898 4.81447 3.53038 5.31683 3.232 5.80262C3.10579 6.008 2.97532 6.22043 2.84515 6.42701C2.81643 6.47262 2.78776 6.51829 2.75888 6.56453C2.60573 6.25379 2.42182 6.04147 2.19662 5.91125C1.84934 5.71045 1.49289 5.68715 1.21843 5.8475C0.859529 6.05721 0.681407 6.54242 0.689017 7.28974C0.642467 9.04714 0.164606 12.174 0.0390807 12.916C-0.0362449 13.3619 -0.00423803 13.7759 0.136926 14.1817C0.41894 14.9936 1.53485 16.7125 2.17494 17.6649L2.65681 17.341C1.60992 15.7833 0.872926 14.531 0.685368 13.9911C0.577098 13.6798 0.552962 13.3598 0.611555 13.0128C0.738852 12.2616 1.22312 9.09009 1.26973 7.29954C1.26983 7.29594 1.26983 7.29229 1.26978 7.28869C1.26144 6.55259 1.4527 6.38322 1.51155 6.34882C1.64182 6.27271 1.84642 6.37931 1.90606 6.41382C2.10326 6.52788 2.27325 6.81844 2.4116 7.27686C2.84041 8.84347 2.93737 10.5152 2.82931 12.1296C3.72769 11.9491 4.59458 12.5891 5.17894 13.2093C4.68544 12.6127 3.85775 11.8739 3.01926 11.9264C3.21135 10.4379 3.20077 8.87131 2.92574 7.39133C2.93158 7.38378 2.93758 7.37632 2.94268 7.36808L3.05429 7.18866C3.15479 7.02701 3.24529 6.88147 3.33662 6.73655C3.46856 6.52715 3.59992 6.31332 3.72696 6.10653C4.0207 5.6283 4.32445 5.13381 4.64968 4.67164C4.69316 4.60982 4.73809 4.54564 4.78417 4.47981C5.151 3.95555 5.65331 3.23753 5.9653 3.00066C6.20941 2.81529 6.44629 2.75415 6.61523 2.83312C6.72668 2.88515 6.88515 3.06244 6.70969 3.84937C6.32707 5.56575 5.2869 7.11881 4.38315 8.60551C5.42493 7.18167 7.19662 5.2071 7.32137 3.29154C7.3418 3.27022 7.41634 3.19734 7.51862 3.15616C7.75513 3.06098 8.03109 3.07297 8.18972 3.18546C8.30013 3.2637 8.34986 3.38845 8.34178 3.56641C8.3399 3.60624 8.32916 3.6825 8.3228 3.72118C8.32233 3.724 8.32259 3.72676 8.32223 3.72957C8.32202 3.72952 8.32176 3.72947 8.3215 3.72937C7.95645 5.47186 7.18974 7.10385 6.37701 8.67562C7.2658 7.22411 8.11179 5.71405 8.6191 4.08092C8.83241 4.17819 9.31371 4.5152 9.04108 5.51544C9.0403 5.51831 9.04009 5.52123 9.03941 5.52409C8.69886 6.78565 8.21474 8.00942 7.66922 9.19529C8.27849 8.15163 8.83788 7.07054 9.28572 5.94649C9.58051 6.27109 9.62951 6.80661 9.63253 6.84393C9.65588 7.36631 9.50664 8.57444 8.25316 10.8164C7.88717 11.4708 8.16736 11.9859 8.43837 12.484C8.62598 12.8288 8.83867 13.2197 8.90993 13.7397C9.03384 14.6442 8.55196 16.1787 7.73808 17.4716L8.22944 17.7809C9.1236 16.3606 9.62831 14.7049 9.48521 13.6609C9.39952 13.0356 9.1494 12.5759 8.94845 12.2065C8.67238 11.6991 8.55879 11.4596 8.76 11.0999C9.43022 9.90106 9.80059 8.96848 9.99977 8.26308C10.1989 8.96796 10.5693 9.90069 11.2398 11.1C11.4409 11.4596 11.3274 11.6991 11.0513 12.2066C10.8504 12.5759 10.6003 13.0356 10.5146 13.661C10.3714 14.7048 10.8761 16.3606 11.7704 17.781L12.2617 17.4717C11.4477 16.1787 10.9659 14.6442 11.0899 13.7398C11.1611 13.2198 11.3738 12.8289 11.5614 12.4841C11.8323 11.986 12.1125 11.471 11.7466 10.8166C10.4932 8.5747 10.3439 7.36652 10.3673 6.84409C10.3703 6.80677 10.4193 6.2712 10.7141 5.94665C11.1619 7.07069 11.7213 8.15183 12.3306 9.19545C11.7851 8.00958 11.301 6.78581 10.9604 5.52425C10.9597 5.52138 10.9595 5.51846 10.9587 5.5156C10.6853 4.51291 11.1697 4.17663 11.3805 4.08082C11.8879 5.714 12.7339 7.22405 13.6226 8.67583C12.8099 7.10411 11.7462 4.2985 11.6579 3.56693C11.6365 3.3897 11.6996 3.26391 11.81 3.18561C11.9687 3.07312 12.2445 3.06113 12.4811 3.15637C12.5846 3.19802 12.6601 3.27246 12.6783 3.29144C12.803 5.20715 14.5746 7.18178 15.6165 8.60572C14.6591 7.03061 13.1921 5.04722 13.1957 3.11081C13.1956 3.11081 13.1956 3.11076 13.1955 3.11076C13.2053 2.98951 13.2765 2.88379 13.3846 2.83333C13.5535 2.75425 13.7904 2.8155 14.0345 3.00087C14.3464 3.23769 14.8488 3.95571 15.2156 4.47996C15.2616 4.5458 15.3066 4.61002 15.3501 4.67185C15.6749 5.13339 15.9782 5.6272 16.2715 6.10475C16.399 6.31217 16.5307 6.52668 16.6631 6.73671C16.7523 6.87834 16.8408 7.0206 16.9385 7.17792L17.0569 7.36824C17.062 7.37648 17.068 7.38393 17.0738 7.39149C16.7988 8.87142 16.7884 10.4381 16.9804 11.9266C16.1419 11.8741 15.3142 12.6129 14.8207 13.2094C15.4051 12.5892 16.2719 11.9492 17.1703 12.1298C17.0623 10.5156 17.1591 8.84394 17.5878 7.27754C17.7263 6.81876 17.8963 6.52804 18.0935 6.41398C18.1532 6.37947 18.3578 6.27281 18.4881 6.34897C18.5469 6.38333 18.7382 6.55274 18.7298 7.2888C18.7298 7.29239 18.7298 7.29604 18.7299 7.29964C18.7766 9.0938 19.2608 12.2626 19.3879 13.0129C19.4465 13.3599 19.4223 13.6799 19.314 13.9913C19.1265 14.5312 18.3895 15.7834 17.3426 17.3411L17.8245 17.665C18.4645 16.7126 19.5805 14.9937 19.8624 14.182C20.0034 13.776 20.0355 13.362 19.9601 12.9159Z" fill="#474747"/>
</g>
<defs>
<clipPath id="clip0">
<rect width="20" height="20" fill="white"/>
</clipPath>
</defs>
</svg>
