<svg width="20" height="20" viewBox="0 0 20 20" fill="none" xmlns="http://www.w3.org/2000/svg">
<g clip-path="url(#clip0)">
<path d="M17.9558 3.23864L10.2996 0.0598476C10.1078 -0.0197618 9.89219 -0.0198009 9.70043 0.0598476L2.04418 3.23864C1.75258 3.35973 1.5625 3.64442 1.5625 3.96016V7.82442C1.5625 13.1452 4.77848 17.9314 9.70477 19.9422C9.89398 20.0194 10.106 20.0194 10.2952 19.9422C15.2214 17.9315 18.4375 13.1453 18.4375 7.82442V3.96016C18.4375 3.64442 18.2475 3.35973 17.9558 3.23864ZM16.875 7.82442C16.875 12.3477 14.2188 16.5116 10 18.3703C5.89398 16.5613 3.125 12.4702 3.125 7.82442V4.48172L10 1.62727L16.875 4.48172V7.82442ZM9.13648 10.4578L12.4945 7.09985C12.7995 6.79477 13.2942 6.79473 13.5993 7.09985C13.9044 7.40496 13.9044 7.89961 13.5993 8.20469L9.68891 12.115C9.38375 12.4202 8.8891 12.4201 8.58406 12.115L6.4007 9.93168C6.09559 9.62657 6.09559 9.13192 6.4007 8.82684C6.70582 8.52176 7.20047 8.52172 7.50555 8.82684L9.13648 10.4578Z" fill="#474747"/>
</g>
<defs>
<clipPath id="clip0">
<rect width="20" height="20" fill="white"/>
</clipPath>
</defs>
</svg>
