<svg width="18" height="18" viewBox="0 0 18 18" fill="none" xmlns="http://www.w3.org/2000/svg">
<path d="M17.4727 0H13.2363C12.9451 0 12.709 0.236109 12.709 0.527344V4.23633H9C8.70877 4.23633 8.47266 4.47244 8.47266 4.76367V8.47266H4.76367C4.47244 8.47266 4.23633 8.70877 4.23633 9V12.709H0.527344C0.236109 12.709 0 12.9451 0 13.2363V17.4727C0 17.7639 0.236109 18 0.527344 18H17.4727C17.7639 18 18 17.7639 18 17.4727V0.527344C18 0.236109 17.7639 0 17.4727 0ZM16.9453 16.9453H1.05469V13.7637H4.76367C5.05491 13.7637 5.29102 13.5276 5.29102 13.2363V9.52734H9C9.29123 9.52734 9.52734 9.29123 9.52734 9V5.29102H13.2363C13.5276 5.29102 13.7637 5.05491 13.7637 4.76367V1.05469H16.9453V16.9453Z" fill="#474747"/>
</svg>
