<svg width="20" height="20" viewBox="0 0 20 20" fill="none" xmlns="http://www.w3.org/2000/svg">
<g clip-path="url(#clip0)">
<path d="M0.746714 14.2904C8.34738 12.1298 11.1255 16.496 19.5623 14.2937C19.8755 14.212 20.063 13.8919 19.9813 13.5788C19.8996 13.2657 19.5795 13.0782 19.2664 13.1599C17.61 13.5922 16.1743 13.7523 14.8742 13.754L13.1755 11.0161C14.1796 12.2638 16.0458 12.3357 17.1393 11.173C17.62 10.6618 17.8729 9.994 17.8514 9.2926C17.7793 6.94127 14.8984 5.88623 13.3118 7.5733C12.5475 8.38603 12.4089 9.54162 12.8392 10.474L10.5148 6.72779L13.9641 5.73244C15.0353 5.42334 15.5416 4.19717 14.9973 3.22189C14.6021 2.51377 13.7819 2.17619 13.0028 2.40103L7.78082 3.90795C6.42687 4.29869 5.82054 5.8726 6.56398 7.07088L8.14234 9.61474C7.00457 10.321 3.39586 12.5588 3.35753 12.5854C2.45171 12.6811 1.48164 12.8632 0.426362 13.1632C0.115112 13.2517 -0.0655131 13.5757 0.0229635 13.887C0.111401 14.1983 0.435581 14.3789 0.746714 14.2904ZM14.1654 8.37619C14.717 7.78971 15.6377 7.7631 16.2225 8.31307C16.8084 8.86404 16.8367 9.7842 16.2856 10.3702C15.7347 10.956 14.8145 10.9844 14.2286 10.4333C13.6427 9.88228 13.6144 8.96213 14.1654 8.37619ZM9.44695 9.49486L7.55972 6.4531C7.2264 5.91588 7.49777 5.20935 8.10566 5.03392L13.3277 3.52701C13.5803 3.45404 13.8459 3.56353 13.974 3.79299C14.1507 4.10967 13.9855 4.50654 13.6392 4.6065L9.44656 5.81638C9.0734 5.92408 8.90672 6.35885 9.11113 6.68826L13.4582 13.6946C10.7244 13.4651 8.50301 12.6406 5.69027 12.5153L9.25801 10.3016C9.53297 10.131 9.61758 9.76982 9.44695 9.49486Z" fill="#474747"/>
<path d="M19.2657 15.8942C11.1937 18.0013 8.36125 13.6416 0.42563 15.8975C0.11438 15.986 -0.0662455 16.3101 0.0222311 16.6213C0.110708 16.9326 0.434887 17.1133 0.746059 17.0247C8.34672 14.8641 11.1248 19.2303 19.5617 17.0281C19.8748 16.9463 20.0624 16.6262 19.9806 16.3131C19.8989 16 19.5788 15.8125 19.2657 15.8942Z" fill="#474747"/>
</g>
<defs>
<clipPath id="clip0">
<rect width="20" height="20" fill="white"/>
</clipPath>
</defs>
</svg>
