<svg width="20" height="20" viewBox="0 0 20 20" fill="none" xmlns="http://www.w3.org/2000/svg">
<path d="M19.4141 0C18.8529 0 1.14523 0 0.585938 0C0.262344 0 0 0.262344 0 0.585938C0 1.14711 0 18.8548 0 19.4141C0 19.7377 0.262344 20 0.585938 20C1.14711 20 18.8548 20 19.4141 20C19.7377 20 20 19.7377 20 19.4141V6.48438V0.585938C20 0.262344 19.7377 0 19.4141 0ZM1.17188 1.17188H5.89844C5.89844 1.53953 5.89844 12.5564 5.89844 12.9297H1.17188V1.17188ZM12.9297 18.8281H1.17188V14.1016C1.53953 14.1016 12.5564 14.1016 12.9297 14.1016V18.8281ZM12.9297 12.9297H7.07031V7.07031H12.9297V12.9297ZM18.8281 18.8281H14.1016C14.1016 18.4605 14.1016 7.44359 14.1016 7.07031H18.8281V18.8281ZM18.8281 5.89844C18.4605 5.89844 7.44359 5.89844 7.07031 5.89844V1.17188H18.8281V5.89844Z" fill="#474747"/>
</svg>
