<svg width="48" height="48" viewBox="0 0 48 48" fill="none" xmlns="http://www.w3.org/2000/svg">
<path d="M46.8679 10.6185C30.582 7.38155 31.6362 7.55058 31.2674 7.61265C31.1495 7.63233 29.704 7.92286 26.3349 8.59665C24.9225 4.52377 21.0475 1.59155 16.5 1.59155C11.9482 1.59155 8.07019 4.5293 6.66103 8.60818L1.68037 7.61846C0.81225 7.44633 0 8.10999 0 8.9978V41.9978C0 42.6688 0.474094 43.2463 1.13213 43.377C17.2804 46.5867 16.2232 46.3795 16.3302 46.3925C16.6698 46.4342 15.6203 46.6079 31.5008 43.4317L46.3196 46.377C47.1882 46.5495 48 45.8847 48 44.9978V11.9978C48 11.3268 47.5259 10.7493 46.8679 10.6185ZM16.5 4.40405C20.6872 4.40405 24.0938 7.81055 24.0938 11.9978C24.0938 15.5306 18.4408 24.4982 16.5 27.4655C14.5613 24.5015 8.90625 15.5313 8.90625 11.9978C8.90625 7.81055 12.3128 4.40405 16.5 4.40405ZM2.8125 10.7109L6.11344 11.3669C6.10087 11.5756 6.09375 11.7858 6.09375 11.9977C6.09375 14.3428 7.62778 18.1272 10.7836 23.5673C12.6263 26.7438 14.4429 29.4711 15.0938 30.4318V43.2844L2.8125 40.8435V10.7109ZM17.9062 30.4318C18.557 29.4711 20.3737 26.7439 22.2164 23.5673C25.3722 18.1272 26.9062 14.3428 26.9062 11.9978C26.9062 11.7818 26.8988 11.5675 26.8858 11.3548L30.0938 10.7131V40.845L17.9062 43.2825V30.4318ZM45.1875 43.2845L32.9062 40.8436V10.711L45.1875 13.152V43.2845Z" fill="#9D7E00"/>
<path d="M16.5 16.4041C18.9296 16.4041 20.9062 14.4274 20.9062 11.9978C20.9062 9.56818 18.9296 7.59155 16.5 7.59155C14.0704 7.59155 12.0938 9.56818 12.0938 11.9978C12.0938 14.4274 14.0704 16.4041 16.5 16.4041ZM16.5 10.4041C17.3788 10.4041 18.0938 11.119 18.0938 11.9978C18.0938 12.8766 17.3788 13.5916 16.5 13.5916C15.6212 13.5916 14.9062 12.8766 14.9062 11.9978C14.9062 11.119 15.6212 10.4041 16.5 10.4041Z" fill="#9D7E00"/>
</svg>
