<svg width="48" height="48" viewBox="0 0 48 48" fill="none" xmlns="http://www.w3.org/2000/svg">
<g clip-path="url(#clip0)">
<path d="M24 18.8749C18.1542 18.8749 13.3983 23.6308 13.3983 29.4766C13.3983 35.3224 18.1542 40.0784 24 40.0784C29.8457 40.0784 34.6017 35.3226 34.6017 29.4767C34.6017 23.6308 29.8458 18.8749 24 18.8749ZM24 38.2034C19.1881 38.2034 15.2733 34.2886 15.2733 29.4767C15.2733 24.6647 19.1881 20.75 24 20.75C28.8119 20.75 32.7267 24.6648 32.7267 29.4767C32.7267 34.2886 28.8119 38.2034 24 38.2034Z" fill="#9D7E00"/>
<path d="M25.4584 28.7181C25.301 28.6624 25.1515 28.609 25.0099 28.558V25.5456C25.381 25.6587 25.638 25.8476 25.7641 26.0273C26.0615 26.4512 26.6463 26.5537 27.07 26.2562C27.4939 25.9588 27.5964 25.3741 27.2989 24.9502C26.8569 24.3203 26.0556 23.7946 25.0099 23.6242V23.4261C25.0099 22.9084 24.5901 22.4886 24.0724 22.4886C23.5547 22.4886 23.1349 22.9084 23.1349 23.4261V23.6955C22.9925 23.7271 22.8477 23.7648 22.7009 23.809C21.5246 24.1634 20.6366 25.3061 20.5417 26.5879C20.4478 27.8536 21.1218 28.9534 22.3444 29.5299C22.5176 29.6117 22.7893 29.7246 23.135 29.8595V33.4667C22.6526 33.3227 22.2098 33.0812 21.922 32.7239C21.5969 32.3206 21.007 32.2571 20.6036 32.5819C20.2004 32.9066 20.1369 33.4969 20.4616 33.9001C21.1448 34.7481 22.1532 35.2017 23.135 35.3946V35.5268C23.135 36.0446 23.5548 36.4643 24.0725 36.4643C24.5902 36.4643 25.01 36.0446 25.01 35.5268V35.4661C27.0816 35.2039 27.9859 33.8563 28.1387 32.6534C28.3525 30.9697 27.2502 29.3515 25.4584 28.7181ZM22.4115 26.7267C22.4461 26.2605 22.7489 25.8162 23.1349 25.6444V27.8299C22.4924 27.523 22.3867 27.061 22.4115 26.7267ZM26.2785 32.4172C26.204 33.0045 25.7483 33.4115 25.0099 33.5663V30.5547C25.9891 30.9749 26.3572 31.7983 26.2785 32.4172Z" fill="#9D7E00"/>
<path d="M46.8111 46.125H46.7451V43.3197C46.7451 42.8019 46.3252 42.3822 45.8076 42.3822H45.5604V38.9238C45.5604 38.406 45.1406 37.9863 44.6229 37.9863H43.4623V20.9566H44.6229C45.1406 20.9566 45.5604 20.5369 45.5604 20.0191V16.5607H45.8076C46.3252 16.5607 46.7451 16.1409 46.7451 15.6232V11.8804C46.7451 11.3626 46.3252 10.9429 45.8076 10.9429H43.8394L24.4571 0.118969C24.173 -0.0396562 23.827 -0.0396562 23.5429 0.118969L4.16071 10.9428H2.19253C1.67484 10.9428 1.25503 11.3625 1.25503 11.8803V15.6231C1.25503 16.1408 1.67484 16.5606 2.19253 16.5606H2.43965V20.019C2.43965 20.5368 2.85946 20.9565 3.37715 20.9565H4.53778V37.9862H3.37715C2.85946 37.9862 2.43965 38.4059 2.43965 38.9237V42.3821H2.19253C1.67484 42.3821 1.25503 42.8018 1.25503 43.3196V46.125H1.18903C0.671338 46.125 0.251526 46.5447 0.251526 47.0625C0.251526 47.5803 0.671338 48 1.18903 48H46.8111C47.3287 48 47.7486 47.5803 47.7486 47.0625C47.7486 46.5447 47.3287 46.125 46.8111 46.125ZM43.6854 42.3822H36.8866V39.8613H43.6854V42.3822ZM12.9885 42.3822V38.9238C12.9885 38.406 12.5687 37.9863 12.051 37.9863H10.8903V20.9566H12.051C12.5687 20.9566 12.9885 20.5369 12.9885 20.0191V16.5607H35.0115V20.0191C35.0115 20.5369 35.4313 20.9566 35.949 20.9566H37.1097V37.9863H35.949C35.4313 37.9863 35.0115 38.406 35.0115 38.9238V42.3822H12.9885ZM41.5873 37.9863H38.9847V20.9566H41.5873V37.9863ZM43.6854 19.0816H36.8866V16.5607H43.6854V19.0816ZM24 2.01131L39.9936 10.9429H8.00634L24 2.01131ZM3.13003 12.8178H44.8701V14.6856H3.13003V12.8178ZM4.31465 16.5607H11.1135V19.0816H4.31465V16.5607ZM6.41268 20.9566H9.01528V37.9863H6.41268V20.9566ZM4.31465 39.8613H11.1135V42.3822H4.31465V39.8613ZM3.13003 46.125V44.2572H44.8701V46.125H3.13003Z" fill="#9D7E00"/>
</g>
<defs>
<clipPath id="clip0">
<rect width="48" height="48" fill="white"/>
</clipPath>
</defs>
</svg>
