<svg width="48" height="48" viewBox="0 0 48 48" fill="none" xmlns="http://www.w3.org/2000/svg">
<path d="M9.375 10.5938C9.375 9.55811 10.2144 8.71875 11.25 8.71875H36.75C37.7856 8.71875 38.625 9.55811 38.625 10.5938C38.625 11.6294 37.7856 12.4688 36.75 12.4688H11.25C10.2144 12.4688 9.375 11.6294 9.375 10.5938ZM38.625 18.0938C38.625 17.0581 37.7856 16.2188 36.75 16.2188H11.25C10.2144 16.2188 9.375 17.0581 9.375 18.0938C9.375 19.1294 10.2144 19.9688 11.25 19.9688H36.75C37.7856 19.9688 38.625 19.1294 38.625 18.0938ZM11.25 23.7188C10.2144 23.7188 9.375 24.5581 9.375 25.5938C9.375 26.6294 10.2144 27.4688 11.25 27.4688H19.875C20.9106 27.4688 21.75 26.6294 21.75 25.5938C21.75 24.5581 20.9106 23.7188 19.875 23.7188H11.25ZM46.3539 38.399C48.5457 40.5908 48.5457 44.1592 46.3524 46.3524C45.256 47.4489 43.8153 47.9974 42.375 47.9974C40.9347 47.9974 39.494 47.4489 38.3976 46.3524L28.1444 36.0802C27.9159 35.8513 27.7507 35.5675 27.6647 35.2559L25.5681 27.6881C25.3857 27.0289 25.5762 26.3229 26.0658 25.8453C26.5551 25.3682 27.2655 25.1946 27.9199 25.3934L35.3005 27.6354C35.5961 27.7251 35.8649 27.8862 36.0828 28.1049L46.3539 38.399ZM31.1466 33.7797L38.0387 40.6846L40.6908 38.0325L33.7603 31.0865L30.0919 29.9722L31.1466 33.7797ZM43.7007 41.0493L43.3396 40.6871L40.6879 43.3389L41.0504 43.7021C41.7803 44.432 42.9697 44.432 43.7007 43.7007C44.432 42.9697 44.432 41.7803 43.7007 41.0493ZM40.5 0H7.5C3.36438 0 0 3.36438 0 7.5V40.5C0 44.6356 3.36438 48 7.5 48H30.4688C31.5044 48 32.3438 47.1606 32.3438 46.125C32.3438 45.0894 31.5044 44.25 30.4688 44.25H7.5C5.43237 44.25 3.75 42.5676 3.75 40.5V7.5C3.75 5.43237 5.43237 3.75 7.5 3.75H40.5C42.5676 3.75 44.25 5.43237 44.25 7.5V30.5625C44.25 31.5981 45.0894 32.4375 46.125 32.4375C47.1606 32.4375 48 31.5981 48 30.5625V7.5C48 3.36438 44.6356 0 40.5 0Z" fill="#9D7E00"/>
</svg>
