<svg width="48" height="48" viewBox="0 0 48 48" fill="none" xmlns="http://www.w3.org/2000/svg">
<g clip-path="url(#clip0)">
<path d="M14.3958 19.4438H16.2587C16.6706 19.4438 17.0453 19.6139 17.3164 19.8849C17.5874 20.1559 17.7575 20.5307 17.7575 20.9425V24.275C18.5334 24.3945 19.3281 24.4982 20.1173 24.5912C20.9891 24.6923 21.8474 24.7747 22.6632 24.8437V23.9269C22.6632 23.3504 22.8971 22.8294 23.2746 22.452C23.6546 22.0747 24.1754 21.8408 24.7493 21.8408H31.4277C32.0018 21.8408 32.5226 22.0746 32.9 22.452C33.2773 22.8294 33.5112 23.3504 33.5112 23.9269V24.8465C36.7242 24.5781 40.6094 24.0731 43.3732 23.1644C44.2874 22.8666 46.594 22.0428 46.594 20.8496V12.9994C46.594 12.9197 46.5064 12.8745 46.4347 12.8745C34.2022 12.8745 21.9723 12.8745 9.74231 12.8745C9.67059 12.8745 9.58294 12.9197 9.58294 12.9994V16.223H10.0879C10.7229 16.223 11.3023 16.4834 11.7222 16.9007C11.98 17.1611 12.1794 17.4801 12.2937 17.8361C12.889 17.8626 13.4285 18.1152 13.8245 18.5138C14.0848 18.7715 14.2815 19.0905 14.3958 19.4438ZM19.6443 11.4687V9.56601C19.6443 8.73145 19.9846 7.97686 20.532 7.42936C20.9412 7.02014 21.4702 6.72511 22.0574 6.60286C22.1663 6.22823 22.3684 5.89336 22.6394 5.62233C23.0541 5.20776 23.628 4.94995 24.2605 4.94995H31.9168C32.5493 4.94995 33.1233 5.20776 33.5378 5.62233C33.8063 5.89336 34.0109 6.22823 34.1198 6.60286C34.7072 6.7252 35.2333 7.02014 35.6425 7.42936C36.1928 7.97686 36.5329 8.73145 36.5329 9.56601V11.4687H46.4347C46.8573 11.4687 47.2452 11.6362 47.5297 11.9098C47.8193 12.1889 48.0001 12.5743 48.0001 12.9994V20.8495C48.0001 21.878 47.3516 22.7151 46.2727 23.3954V36.4702C46.2727 36.8954 46.1 37.2809 45.821 37.5599C45.5392 37.839 45.1539 38.0142 44.7288 38.0142H17.7575V41.5514C17.7575 41.9632 17.5874 42.338 17.3164 42.6089C17.0452 42.88 16.6705 43.05 16.2587 43.05H1.49878C1.08684 43.05 0.712219 42.8799 0.441188 42.6089C0.167437 42.338 0 41.9632 0 41.5514V32.8402C0 32.4522 0.316219 32.1359 0.70425 32.1359C1.09228 32.1359 1.40578 32.4522 1.40578 32.8402V41.5514C1.40578 41.5993 1.44834 41.6417 1.49878 41.6417H16.2586C16.3064 41.6417 16.3516 41.5993 16.3516 41.5514V37.31V20.9426C16.3516 20.8948 16.3064 20.8523 16.2586 20.8523H14.3957C14.2814 21.2057 14.0848 21.5247 13.8244 21.7825C13.4071 22.2024 12.8277 22.4627 12.1899 22.4627H5.56753C4.92975 22.4627 4.35047 22.2024 3.93047 21.7825C3.67266 21.5247 3.47597 21.2057 3.36178 20.8523H1.49878C1.44834 20.8523 1.40578 20.8948 1.40578 20.9426V29.6538C1.40578 30.0419 1.09219 30.3581 0.70425 30.3581C0.316312 30.3581 0 30.0418 0 29.6538V20.9426C0 20.5307 0.167437 20.1559 0.441188 19.885C0.712312 19.614 1.08694 19.4439 1.49878 19.4439H3.36169C3.47597 19.0905 3.67256 18.7715 3.93038 18.5137C4.32909 18.1151 4.86853 17.8626 5.46375 17.836C5.57812 17.48 5.77734 17.1611 6.03516 16.9006C6.45506 16.4834 7.03434 16.2229 7.66959 16.2229H8.17453V12.9994C8.17453 12.5743 8.35519 12.1889 8.6475 11.9098C8.92922 11.6362 9.31987 11.4687 9.74241 11.4687H19.6443ZM22.1106 8.04867C21.89 8.13089 21.6907 8.25848 21.5259 8.4233C21.2336 8.71551 21.0502 9.1222 21.0502 9.56601V11.4687H35.1244V9.56601C35.1244 9.1222 34.9436 8.71551 34.6487 8.4233C34.4866 8.25848 34.2874 8.13089 34.0641 8.04867C33.9498 8.35683 33.7664 8.63592 33.5379 8.86439C33.1234 9.28167 32.5493 9.53948 31.9169 9.53948H24.2606C23.6281 9.53948 23.0542 9.28167 22.6395 8.86439C22.4081 8.63583 22.2275 8.35683 22.1106 8.04867ZM31.9167 6.35564H24.2604C24.0159 6.35564 23.7953 6.4567 23.6332 6.61879C23.4712 6.77826 23.3729 7.00148 23.3729 7.24336C23.3729 7.47989 23.4659 7.70311 23.6332 7.87045C23.7953 8.03254 24.0159 8.13361 24.2604 8.13361H31.9167C32.1611 8.13361 32.3818 8.03254 32.5438 7.87045C32.7033 7.70836 32.8042 7.48776 32.8042 7.24336C32.8042 7.00148 32.7033 6.77826 32.5438 6.61879C32.3818 6.4567 32.1612 6.35564 31.9167 6.35564ZM22.6632 26.2522C21.8022 26.1832 20.8881 26.0927 19.9579 25.9865C19.2351 25.9014 18.4963 25.8058 17.7575 25.6941V36.6058H44.7286C44.8029 36.6058 44.8668 36.5448 44.8668 36.4703V24.1103C44.5319 24.2486 44.1785 24.3787 43.8064 24.501C40.8884 25.4578 36.8278 25.9838 33.5112 26.2575V27.7245C33.5112 28.2986 33.2774 28.8221 32.9 29.1994C32.5226 29.5766 32.0018 29.8107 31.4277 29.8107H29.6817C29.2937 29.8107 28.9775 29.497 28.9775 29.1064C28.9775 28.7184 29.2937 28.4048 29.6817 28.4048H31.4277C31.6137 28.4048 31.7838 28.3277 31.9061 28.2056C32.0284 28.0805 32.1054 27.9105 32.1054 27.7245V23.9269C32.1054 23.7409 32.0284 23.5708 31.9061 23.4459C31.7838 23.3235 31.6138 23.2467 31.4277 23.2467H24.7493C24.5634 23.2467 24.3933 23.3235 24.271 23.4459C24.1462 23.5708 24.0691 23.7408 24.0691 23.9269V27.7245C24.0691 27.9105 24.1462 28.0805 24.271 28.2056C24.3933 28.3277 24.5633 28.4048 24.7493 28.4048H26.4953C26.8834 28.4048 27.1996 28.7185 27.1996 29.1064C27.1996 29.497 26.8834 29.8107 26.4953 29.8107H24.7493C24.1754 29.8107 23.6545 29.5767 23.2746 29.1994C22.8972 28.8221 22.6632 28.2986 22.6632 27.7245V26.2522ZM3.74709 34.4559C3.35906 34.4559 3.04284 34.1422 3.04284 33.7543C3.04284 33.3637 3.35906 33.05 3.74709 33.05H14.0105C14.3985 33.05 14.7148 33.3637 14.7148 33.7543C14.7148 34.1423 14.3985 34.4559 14.0105 34.4559H3.74709ZM5.90241 39.5477C5.51437 39.5477 5.19816 39.234 5.19816 38.8461C5.19816 38.4581 5.51437 38.1419 5.90241 38.1419H11.8552C12.2433 38.1419 12.5595 38.4581 12.5595 38.8461C12.5595 39.2341 12.2433 39.5477 11.8552 39.5477H5.90241ZM3.74709 37.0018C3.35906 37.0018 3.04284 36.6881 3.04284 36.3001C3.04284 35.9121 3.35906 35.5959 3.74709 35.5959H14.0105C14.3985 35.5959 14.7148 35.9121 14.7148 36.3001C14.7148 36.6882 14.3985 37.0018 14.0105 37.0018H3.74709ZM7.75725 30.2518C7.85025 30.6264 7.62178 31.0091 7.24434 31.1021C6.98925 31.1658 6.72619 31.2004 6.46303 31.2004C5.50903 31.2004 4.64531 30.7833 4.02609 30.1082C3.42019 29.4493 3.04284 28.5431 3.04284 27.5464C3.04284 26.55 3.42019 25.6463 4.02609 24.9873C4.64531 24.3122 5.50903 23.8951 6.46303 23.8951C6.72619 23.8951 6.98925 23.927 7.24434 23.9935C7.62169 24.0865 7.85025 24.4665 7.75725 24.8438C7.66153 25.2184 7.28166 25.4497 6.90422 25.3541C6.76069 25.3195 6.60928 25.3008 6.46303 25.3008C5.91563 25.3008 5.42137 25.5427 5.05725 25.936C4.68253 26.3452 4.44872 26.914 4.44872 27.5464C4.44872 28.1789 4.68253 28.7504 5.05725 29.1569C5.42137 29.5501 5.91563 29.7948 6.46303 29.7948C6.93881 29.7947 7.57134 29.5104 7.75725 30.2518ZM8.97713 25.0457C8.83884 24.6843 9.02222 24.2804 9.38109 24.1423C9.74241 24.004 10.1464 24.1847 10.2847 24.5462L11.8207 28.5456L13.3568 24.5462C13.495 24.1848 13.8989 24.0041 14.2604 24.1423C14.6218 24.2804 14.8025 24.6842 14.6644 25.0457L12.4747 30.746C12.4056 30.9268 12.2647 31.0756 12.0707 31.15C11.7092 31.2883 11.3053 31.1075 11.1671 30.746L8.97713 25.0457ZM6.05916 19.2391H5.56753C5.31778 19.2391 5.09194 19.3427 4.92712 19.5075C4.76231 19.6724 4.65872 19.8983 4.65872 20.148C4.65872 20.3978 4.76231 20.6237 4.92712 20.7885C5.09194 20.9534 5.31778 21.057 5.56753 21.057H12.1901C12.44 21.057 12.6658 20.9534 12.8306 20.7885C12.9953 20.6237 13.0989 20.3978 13.0989 20.148C13.0989 19.8983 12.9953 19.6724 12.8306 19.5075C12.6658 19.3427 12.44 19.2391 12.1901 19.2391H11.6984C11.3104 19.2391 10.9942 18.9256 10.9942 18.5377C10.9942 18.288 10.8932 18.062 10.7284 17.8972C10.5637 17.7299 10.3351 17.6288 10.088 17.6288H7.66969C7.42247 17.6288 7.194 17.7299 7.02919 17.8972C6.86437 18.062 6.76341 18.288 6.76341 18.5377C6.76341 18.9256 6.44719 19.2391 6.05916 19.2391Z" fill="#9D7E00"/>
</g>
<defs>
<clipPath id="clip0">
<rect width="48" height="48" fill="white"/>
</clipPath>
</defs>
</svg>
