<svg width="48" height="48" viewBox="0 0 48 48" fill="none" xmlns="http://www.w3.org/2000/svg">
<g clip-path="url(#clip0)">
<path d="M27.5 37.0001H3.5C1.57 37.0001 0 38.5701 0 40.5001V44.5001C0 46.4301 1.57 48.0001 3.5 48.0001H27.5C29.43 48.0001 31 46.4301 31 44.5001V40.5001C31 38.5701 29.43 37.0001 27.5 37.0001ZM28 44.5001C28 44.7761 27.776 45.0001 27.5 45.0001H3.5C3.224 45.0001 3 44.7761 3 44.5001V40.5001C3 40.2241 3.224 40.0001 3.5 40.0001H27.5C27.776 40.0001 28 40.2241 28 40.5001V44.5001Z" fill="#9D7E00"/>
<path d="M30.6819 18.8958C31.6579 17.7098 32.4739 16.4998 32.9099 15.3898C32.9239 15.3898 32.9379 15.3938 32.9499 15.3938C33.8419 15.3938 34.7359 15.0538 35.4139 14.3738L36.8179 12.9718C38.1779 11.6118 38.1779 9.40183 36.8179 8.04183L29.7979 1.02183C28.4379 -0.338169 26.2279 -0.338169 24.8699 1.02183L23.4659 2.42583C22.7799 3.11183 22.4419 4.01383 22.4499 4.91583C21.7879 5.18183 21.2219 5.53583 20.9099 5.73383C18.1519 7.48783 14.4819 11.1598 12.7299 13.9178C12.5319 14.2258 12.1799 14.7898 11.9159 15.4478C11.0139 15.4418 10.1119 15.7778 9.42394 16.4638L8.02194 17.8698C7.36394 18.5278 6.99994 19.4018 6.99994 20.3338C6.99994 21.2658 7.36394 22.1398 8.02194 22.7978L15.0419 29.8178C15.7219 30.4978 16.6139 30.8378 17.5059 30.8378C18.3979 30.8378 19.2919 30.4978 19.9699 29.8178L21.3739 28.4138C22.0619 27.7258 22.3999 26.8178 22.3899 25.9138C23.0459 25.6498 23.6139 25.3078 23.9219 25.1118C24.5319 24.7238 25.1979 24.2278 25.8839 23.6678C30.9379 29.5538 38.1579 37.4918 39.4539 38.7898C40.6019 39.9378 42.1039 41.0098 43.7079 41.0098C44.6659 41.0098 45.6639 40.6258 46.6419 39.6458C47.0019 39.2858 47.8419 38.4458 47.9779 37.0898C48.1259 35.6178 47.3879 34.0578 45.7859 32.4578C44.5059 31.1718 36.5859 23.9658 30.6819 18.8958ZM25.5859 4.54583L26.9899 3.14183C27.0839 3.04783 27.2079 2.99983 27.3339 2.99983C27.4579 2.99983 27.5839 3.04783 27.6779 3.14183L34.6979 10.1618C34.8879 10.3518 34.8879 10.6598 34.6979 10.8498L33.2939 12.2518C33.1039 12.4398 32.7959 12.4398 32.6059 12.2518L25.5859 5.23183C25.3979 5.04183 25.3979 4.73583 25.5859 4.54583ZM19.2519 26.2918L17.8479 27.6958C17.6579 27.8818 17.3499 27.8818 17.1619 27.6958L10.1419 20.6758C10.0179 20.5518 9.99994 20.4078 9.99994 20.3338C9.99994 20.2598 10.0179 20.1158 10.1419 19.9898L11.5459 18.5858C11.6399 18.4918 11.7659 18.4438 11.8899 18.4438C12.0139 18.4438 12.1399 18.4918 12.2339 18.5858L19.2539 25.6058C19.4419 25.7938 19.4419 26.1038 19.2519 26.2918ZM21.1099 23.2198L14.6179 16.7278C15.1499 14.5478 21.5479 8.14783 23.7279 7.61583L30.2199 14.1078C29.6939 16.2758 23.2879 22.6898 21.1099 23.2198ZM44.5239 37.5258C44.0819 37.9698 43.4759 38.5658 41.5759 36.6678C40.4539 35.5458 33.3239 27.7318 28.1139 21.6598C28.2039 21.5718 28.5699 21.2118 28.6619 21.1178C34.7539 26.3438 42.5539 33.4658 43.6659 34.5758C44.9379 35.8478 45.0179 36.5458 44.9939 36.7878C44.9699 37.0598 44.7759 37.2738 44.5239 37.5258Z" fill="#9D7E00"/>
</g>
<defs>
<clipPath id="clip0">
<rect width="48" height="48" fill="white"/>
</clipPath>
</defs>
</svg>
