<svg width="48" height="48" viewBox="0 0 48 48" fill="none" xmlns="http://www.w3.org/2000/svg">
<path d="M44.8051 15.644H36L27.1266 6.26193C27.0458 4.44826 25.6745 3 24 3C22.3257 3 20.9543 4.44826 20.8735 6.26183L11.1731 15.6438H3.1949C1.43325 15.644 0 17.2148 0 19.1458V41.498C0 43.4291 1.43325 44.9999 3.1949 44.9999H6.60861C7.08899 44.9999 7.47824 44.5731 7.47824 44.0467C7.47824 43.5203 7.08899 43.0935 6.60861 43.0935H3.1949C2.39221 43.0935 1.73915 42.3777 1.73915 41.4979V19.1458C1.73915 18.266 2.39221 17.5502 3.1949 17.5502H18.606L18.6088 17.5505L18.6117 17.5502H29.3882L29.3911 17.5505L29.3939 17.5502H44.8051C45.6078 17.5502 46.2608 18.266 46.2608 19.1458V41.498C46.2608 42.3778 45.6078 43.0936 44.8051 43.0936H9.39139C8.91101 43.0936 8.52176 43.5204 8.52176 44.0468C8.52176 44.5732 8.91101 45 9.39139 45H44.8051C46.5667 45 48 43.4291 48 41.4981V19.1458C47.9999 17.2148 46.5667 15.644 44.8051 15.644ZM24 4.90646C24.767 4.90646 25.3912 5.59061 25.3912 6.43138C25.3912 7.27214 24.767 7.95629 24 7.95629C23.2329 7.95629 22.6087 7.27214 22.6087 6.43138C22.6087 5.59061 23.2329 4.90646 24 4.90646ZM15 15.7794L21.8803 8.95355C22.4384 9.51749 23.1829 9.86265 23.9999 9.86265C24.8168 9.86265 25.5615 9.51749 26.1194 8.95355L32.5 15.644L15 15.7794Z" fill="#9D7E00"/>
<path d="M31.9767 23.6285C31.4433 23.6285 31.0112 24.1299 31.0112 24.7484V31.8595L26.7191 24.1415C26.4869 23.7242 26.0454 23.534 25.6349 23.6743C25.2243 23.8145 24.9422 24.2519 24.9422 24.7484V35.6616C24.9422 36.2801 25.3744 36.7815 25.9077 36.7815C26.4411 36.7815 26.8732 36.2801 26.8732 35.6616V28.5506L31.1653 36.2685C31.3464 36.5941 31.6548 36.7814 31.9767 36.7814C32.0674 36.7814 32.1592 36.7664 32.2495 36.7357C32.6601 36.5956 32.9422 36.1582 32.9422 35.6616V24.7484C32.9422 24.1301 32.51 23.6285 31.9767 23.6285Z" fill="#9D7E00"/>
<path d="M10.4673 31.255C11.9272 30.6192 12.9422 29.2327 12.9422 27.6274C12.9422 25.4226 11.0283 23.6288 8.67593 23.6288H6.13714C5.47706 23.6288 4.9422 24.1302 4.9422 24.7487V35.6617C4.9422 36.2802 5.47706 36.7816 6.13714 36.7816C6.79721 36.7816 7.33207 36.2802 7.33207 35.6617V31.6258H7.96394L10.603 36.1948C10.8191 36.5693 11.2303 36.7817 11.6549 36.7817C11.8468 36.7817 12.0419 36.7382 12.2226 36.6465C12.8031 36.3521 13.0187 35.6725 12.7045 35.1286L10.4673 31.255ZM8.67902 29.3858C8.67631 29.3858 8.67374 29.3859 8.67103 29.3859H7.33207V25.8683H8.67593C9.71061 25.8683 10.5525 26.6573 10.5525 27.6271C10.5525 28.5959 9.71216 29.3841 8.67902 29.3858Z" fill="#9D7E00"/>
<path d="M21.7368 31.3541C22.4027 31.3541 22.9422 30.8527 22.9422 30.2342C22.9422 29.6157 22.4027 29.1143 21.7368 29.1143H17.3529V25.8685H21.7368V25.8683C22.4027 25.8683 22.9422 25.367 22.9422 24.7484C22.9422 24.1299 22.4027 23.6285 21.7368 23.6285H16.1476C15.4817 23.6285 14.9422 24.1299 14.9422 24.7484V35.6616C14.9422 36.2801 15.4817 36.7815 16.1476 36.7815H21.7368C22.4027 36.7815 22.9422 36.2801 22.9422 35.6616C22.9422 35.0431 22.4027 34.5417 21.7368 34.5417H17.3529V31.354H21.7368V31.3541Z" fill="#9D7E00"/>
<path d="M38.9421 32.5947C38.4625 32.5947 38.0738 33.0961 38.0738 33.7146V35.6615C38.0738 36.28 38.4625 36.7814 38.9421 36.7814C39.4218 36.7814 39.8105 36.28 39.8105 35.6615V33.7146C39.8105 33.0961 39.4217 32.5947 38.9421 32.5947Z" fill="#9D7E00"/>
<path d="M42.0738 23.6285H35.8105C35.3309 23.6285 34.9422 24.1299 34.9422 24.7484C34.9422 25.3669 35.3309 25.8683 35.8105 25.8683H38.0739V30.7282C38.0739 31.3467 38.4626 31.8481 38.9422 31.8481C39.4219 31.8481 39.8106 31.3467 39.8106 30.7282V25.8683H42.0739C42.5535 25.8683 42.9422 25.3669 42.9422 24.7484C42.942 24.13 42.5533 23.6285 42.0738 23.6285Z" fill="#9D7E00"/>
</svg>
