<svg width="48" height="48" viewBox="0 0 48 48" fill="none" xmlns="http://www.w3.org/2000/svg">
<path d="M42.8571 0H5.14285C2.30253 0 0 2.30253 0 5.14285V42.8571C0 45.6975 2.30253 48 5.14285 48H42.8571C45.6975 48 48 45.6975 48 42.8571V5.14285C48 2.30253 45.6975 0 42.8571 0ZM44.5714 42.8571C44.5714 43.804 43.8039 44.5715 42.857 44.5715H5.14285C4.19605 44.5715 3.42854 43.804 3.42854 42.8571V5.14285C3.42854 4.19605 4.19605 3.42854 5.14285 3.42854H42.8571C43.804 3.42854 44.5715 4.19605 44.5715 5.14285V42.8571H44.5714Z" fill="#9D7E00"/>
<path d="M15.4285 10.286H10.2857C9.33884 10.286 8.57133 11.0535 8.57133 12.0003C8.57133 12.9471 9.33884 13.7147 10.2857 13.7147H15.4285C16.3753 13.7147 17.1428 12.9471 17.1428 12.0003C17.1428 11.0535 16.3753 10.286 15.4285 10.286Z" fill="#9D7E00"/>
<path d="M37.7146 10.286H22.2861C21.3393 10.286 20.5717 11.0535 20.5717 12.0003C20.5717 12.9471 21.3393 13.7147 22.2861 13.7147H37.7146C38.6615 13.7147 39.429 12.9471 39.429 12.0003C39.429 11.0535 38.6614 10.286 37.7146 10.286Z" fill="#9D7E00"/>
<path d="M15.4285 22.286H10.2857C9.33884 22.286 8.57133 23.0535 8.57133 24.0003C8.57133 24.9471 9.33884 25.7145 10.2857 25.7145H15.4285C16.3753 25.7145 17.1428 24.947 17.1428 24.0002C17.1428 23.0534 16.3753 22.286 15.4285 22.286Z" fill="#9D7E00"/>
<path d="M37.7146 22.286H22.2861C21.3393 22.286 20.5717 23.0535 20.5717 24.0003C20.5717 24.9471 21.3393 25.7145 22.2861 25.7145H37.7146C38.6615 25.7145 39.429 24.947 39.429 24.0002C39.429 23.0534 38.6614 22.286 37.7146 22.286Z" fill="#9D7E00"/>
<path d="M15.4285 34.2854H10.2857C9.33884 34.2854 8.57133 35.0529 8.57133 35.9997C8.57133 36.9465 9.33884 37.7141 10.2857 37.7141H15.4285C16.3753 37.7141 17.1428 36.9465 17.1428 35.9997C17.1428 35.0529 16.3753 34.2854 15.4285 34.2854Z" fill="#9D7E00"/>
<path d="M37.7146 34.2854H22.2861C21.3393 34.2854 20.5717 35.0529 20.5717 35.9997C20.5717 36.9465 21.3393 37.7141 22.2861 37.7141H37.7146C38.6615 37.7141 39.429 36.9465 39.429 35.9997C39.429 35.0529 38.6614 34.2854 37.7146 34.2854Z" fill="#9D7E00"/>
</svg>
