<svg width="48" height="48" viewBox="0 0 48 48" fill="none" xmlns="http://www.w3.org/2000/svg">
<path d="M23.9991 20.0006C27.3137 20.0006 29.9991 17.3151 29.9991 14.0006C29.9991 10.6861 27.3137 8.00061 23.9991 8.00061C20.6846 8.00061 17.9991 10.6861 17.9991 14.0006C17.9991 17.3151 20.6846 20.0006 23.9991 20.0006ZM23.9991 12.0006C25.1046 12.0006 25.9991 12.8952 25.9991 14.0006C25.9991 15.106 25.1046 16.0006 23.9991 16.0006C22.8937 16.0006 21.9992 15.106 21.9992 14.0006C21.9992 12.8952 22.8937 12.0006 23.9991 12.0006Z" fill="#9D7E00"/>
<path d="M21.3965 37.2672L22.2103 38.8949C22.9475 40.3692 25.0514 40.3689 25.7882 38.8945L27.5122 35.4445C29.2434 31.9849 30.8815 29.255 34.615 23.3864L34.7121 23.2337C35.2607 22.3713 35.5259 21.9539 35.841 21.4561C37.2431 19.2415 37.9991 16.6756 37.9991 14.0005C37.9991 5.65373 30.7476 -0.860868 22.363 0.0933192C16.1241 0.804976 11.0016 5.7966 10.1381 12.0113C9.62149 15.7316 10.5698 19.3607 12.7187 22.2785C15.6094 26.1969 17.8353 30.1474 21.3965 37.2672ZM14.1002 12.5616C14.7122 8.15638 18.3902 4.57241 22.8159 4.06757C28.821 3.38413 33.9992 8.03601 33.9992 14.0005C33.9992 15.912 33.4616 17.7369 32.4614 19.3167C32.1483 19.8113 31.8844 20.2268 31.3373 21.0867L31.2401 21.2394C27.4763 27.1559 25.7854 29.9696 23.9951 33.5349C20.883 27.4071 18.7197 23.6753 15.9387 19.9052C14.4034 17.8205 13.7285 15.2378 14.1002 12.5616Z" fill="#9D7E00"/>
<path d="M36.4575 29.3475C35.3828 29.0926 34.3049 29.7573 34.05 30.8321C33.7951 31.9068 34.4598 32.9847 35.5345 33.2396C40.8982 34.5115 44 36.5465 44 37.9995C44 40.7631 35.0985 43.9995 24 43.9995C12.9002 43.9995 4.00003 40.7635 4.00003 37.9995C4.00003 36.5457 7.09875 34.5112 12.4597 33.2396C13.5344 32.9847 14.199 31.9067 13.9441 30.832C13.6892 29.7572 12.6112 29.0926 11.5365 29.3476C4.51922 31.0121 0 33.9792 0 37.9996C0 44.075 10.7938 47.9997 24 47.9997C37.205 47.9997 48 44.0748 48 37.9996C48 33.9792 43.478 31.0123 36.4575 29.3475Z" fill="#9D7E00"/>
</svg>
