<svg width="48" height="48" viewBox="0 0 48 48" fill="none" xmlns="http://www.w3.org/2000/svg">
<path d="M19 16H3C1.346 16 0 14.654 0 13V3C0 1.346 1.346 0 3 0H19C20.654 0 22 1.346 22 3V13C22 14.654 20.654 16 19 16ZM3 2C2.45 2 2 2.448 2 3V13C2 13.552 2.45 14 3 14H19C19.55 14 20 13.552 20 13V3C20 2.448 19.55 2 19 2H3Z" fill="#9D7E00"/>
<path d="M19 48H3C1.346 48 0 46.654 0 45V23C0 21.346 1.346 20 3 20H19C20.654 20 22 21.346 22 23V45C22 46.654 20.654 48 19 48ZM3 22C2.45 22 2 22.448 2 23V45C2 45.552 2.45 46 3 46H19C19.55 46 20 45.552 20 45V23C20 22.448 19.55 22 19 22H3Z" fill="#9D7E00"/>
<path d="M45 48.0001H29C27.346 48.0001 26 46.6541 26 45.0001V35.0001C26 33.3461 27.346 32.0001 29 32.0001H45C46.654 32.0001 48 33.3461 48 35.0001V45.0001C48 46.6541 46.654 48.0001 45 48.0001ZM29 34.0001C28.45 34.0001 28 34.4481 28 35.0001V45.0001C28 45.5521 28.45 46.0001 29 46.0001H45C45.55 46.0001 46 45.5521 46 45.0001V35.0001C46 34.4481 45.55 34.0001 45 34.0001H29Z" fill="#9D7E00"/>
<path d="M45 28H29C27.346 28 26 26.654 26 25V3C26 1.346 27.346 0 29 0H45C46.654 0 48 1.346 48 3V25C48 26.654 46.654 28 45 28ZM29 2C28.45 2 28 2.448 28 3V25C28 25.552 28.45 26 29 26H45C45.55 26 46 25.552 46 25V3C46 2.448 45.55 2 45 2H29Z" fill="#9D7E00"/>
</svg>
