<svg width="48" height="48" viewBox="0 0 48 48" fill="none" xmlns="http://www.w3.org/2000/svg">
<path d="M42.8571 0H5.14285C2.30253 0 0 2.30253 0 5.14285V42.8571C0 45.6975 2.30253 48 5.14285 48H42.8571C45.6975 48 48 45.6975 48 42.8571V5.14285C48 2.30253 45.6975 0 42.8571 0ZM44.5714 42.8571C44.5714 43.804 43.8039 44.5715 42.857 44.5715H5.14285C4.19605 44.5715 3.42854 43.804 3.42854 42.8571V5.14285C3.42854 4.19605 4.19605 3.42854 5.14285 3.42854H42.8571C43.804 3.42854 44.5715 4.19605 44.5715 5.14285V42.8571H44.5714Z" fill="#9D7E00"/>
<path d="M12 20.2212C11.1716 20.2212 10.5 20.8928 10.5 21.7212V26.1637C10.5 26.9921 11.1716 27.6637 12 27.6637H19.5294C19.8056 27.6637 20.0294 27.8876 20.0294 28.1637V36C20.0294 36.8284 20.701 37.5 21.5294 37.5H26.4118C27.2402 37.5 27.9118 36.8284 27.9118 36V28.1637C27.9118 27.8876 28.1356 27.6637 28.4118 27.6637H36C36.8284 27.6637 37.5 26.9921 37.5 26.1637V21.7212C37.5 20.8928 36.8284 20.2212 36 20.2212H28.4118C28.1356 20.2212 27.9118 19.9974 27.9118 19.7212V12C27.9118 11.1716 27.2402 10.5 26.4118 10.5H21.5294C20.701 10.5 20.0294 11.1716 20.0294 12V19.7212C20.0294 19.9974 19.8056 20.2212 19.5294 20.2212H12Z" fill="#9D7E00" stroke="white"/>
</svg>
