<svg width="48" height="48" viewBox="0 0 48 48" fill="none" xmlns="http://www.w3.org/2000/svg">
<path d="M42.8571 0H5.14285C2.30253 0 0 2.30253 0 5.14285V42.8571C0 45.6975 2.30253 48 5.14285 48H42.8571C45.6975 48 48 45.6975 48 42.8571V5.14285C48 2.30253 45.6975 0 42.8571 0ZM44.5714 42.8571C44.5714 43.804 43.8039 44.5715 42.857 44.5715H5.14285C4.19605 44.5715 3.42854 43.804 3.42854 42.8571V5.14285C3.42854 4.19605 4.19605 3.42854 5.14285 3.42854H42.8571C43.804 3.42854 44.5715 4.19605 44.5715 5.14285V42.8571H44.5714Z" fill="#9D7E00"/>
<path d="M15.4285 10.286H10.2857C9.33884 10.286 8.57133 11.0535 8.57133 12.0003C8.57133 12.9471 9.33884 13.7147 10.2857 13.7147H15.4285C16.3753 13.7147 17.1428 12.9471 17.1428 12.0003C17.1428 11.0535 16.3753 10.286 15.4285 10.286Z" fill="#9D7E00"/>
<path d="M37.7146 10.286H22.2861C21.3393 10.286 20.5717 11.0535 20.5717 12.0003C20.5717 12.9471 21.3393 13.7147 22.2861 13.7147H37.7146C38.6615 13.7147 39.429 12.9471 39.429 12.0003C39.429 11.0535 38.6614 10.286 37.7146 10.286Z" fill="#9D7E00"/>
<path d="M15.4285 22.2859H10.2857C9.33884 22.2859 8.57133 23.0535 8.57133 24.0003C8.57133 24.9471 9.33884 25.7145 10.2857 25.7145H15.4285C16.3753 25.7145 17.1428 24.947 17.1428 24.0002C17.1428 23.0534 16.3753 22.2859 15.4285 22.2859Z" fill="#9D7E00"/>
<path d="M37.7146 22.2859H22.2861C21.3393 22.2859 20.5717 23.0535 20.5717 24.0003C20.5717 24.9471 21.3393 25.7145 22.2861 25.7145H37.7146C38.6615 25.7145 39.429 24.947 39.429 24.0002C39.429 23.0534 38.6614 22.2859 37.7146 22.2859Z" fill="#9D7E00"/>
<path d="M15.4285 34.2854H10.2857C9.33884 34.2854 8.57133 35.0529 8.57133 35.9997C8.57133 36.9465 9.33884 37.7141 10.2857 37.7141H15.4285C16.3753 37.7141 17.1428 36.9465 17.1428 35.9997C17.1428 35.0529 16.3753 34.2854 15.4285 34.2854Z" fill="#9D7E00"/>
<path d="M37.7146 34.2854H22.2861C21.3393 34.2854 20.5717 35.0529 20.5717 35.9997C20.5717 36.9465 21.3393 37.7141 22.2861 37.7141H37.7146C38.6615 37.7141 39.429 36.9465 39.429 35.9997C39.429 35.0529 38.6614 34.2854 37.7146 34.2854Z" fill="#9D7E00"/>
<circle cx="33" cy="15" r="10.5" fill="white" stroke="#A7A7A7"/>
<path d="M31.74 17.105C31.69 16.585 31.715 16.145 31.815 15.785C31.915 15.415 32.05 15.1 32.22 14.84C32.4 14.57 32.6 14.34 32.82 14.15C33.05 13.95 33.26 13.76 33.45 13.58C33.65 13.4 33.815 13.215 33.945 13.025C34.075 12.825 34.14 12.59 34.14 12.32C34.14 11.97 34.04 11.69 33.84 11.48C33.65 11.27 33.305 11.165 32.805 11.165C32.645 11.165 32.475 11.185 32.295 11.225C32.115 11.255 31.935 11.305 31.755 11.375C31.575 11.435 31.4 11.51 31.23 11.6C31.07 11.68 30.925 11.765 30.795 11.855L30.045 10.415C30.425 10.155 30.86 9.93998 31.35 9.76998C31.85 9.59997 32.45 9.51497 33.15 9.51497C34.09 9.51497 34.825 9.74497 35.355 10.205C35.885 10.655 36.15 11.265 36.15 12.035C36.15 12.545 36.08 12.97 35.94 13.31C35.81 13.64 35.645 13.925 35.445 14.165C35.245 14.395 35.025 14.6 34.785 14.78C34.545 14.96 34.325 15.155 34.125 15.365C33.925 15.565 33.755 15.8 33.615 16.07C33.475 16.34 33.405 16.685 33.405 17.105H31.74ZM31.44 19.235C31.44 18.885 31.55 18.61 31.77 18.41C31.99 18.2 32.28 18.095 32.64 18.095C33.02 18.095 33.32 18.2 33.54 18.41C33.76 18.61 33.87 18.885 33.87 19.235C33.87 19.585 33.76 19.865 33.54 20.075C33.32 20.285 33.02 20.39 32.64 20.39C32.28 20.39 31.99 20.285 31.77 20.075C31.55 19.865 31.44 19.585 31.44 19.235Z" fill="#9D7E00"/>
</svg>
