<svg width="48" height="48" viewBox="0 0 48 48" fill="none" xmlns="http://www.w3.org/2000/svg">
<path d="M44.8051 16.644H36L27.1266 7.26193C27.0458 5.44826 25.6745 4 24 4C22.3257 4 20.9543 5.44826 20.8735 7.26183L11.1731 16.6438H3.1949C1.43325 16.644 0 18.2148 0 20.1458V42.498C0 44.4291 1.43325 45.9999 3.1949 45.9999H6.60861C7.08899 45.9999 7.47824 45.5731 7.47824 45.0467C7.47824 44.5203 7.08899 44.0935 6.60861 44.0935H3.1949C2.39221 44.0935 1.73915 43.3777 1.73915 42.4979V20.1458C1.73915 19.266 2.39221 18.5502 3.1949 18.5502H18.606L18.6088 18.5505L18.6117 18.5502H29.3882L29.3911 18.5505L29.3939 18.5502H44.8051C45.6078 18.5502 46.2608 19.266 46.2608 20.1458V42.498C46.2608 43.3778 45.6078 44.0936 44.8051 44.0936H9.39139C8.91101 44.0936 8.52176 44.5204 8.52176 45.0468C8.52176 45.5732 8.91101 46 9.39139 46H44.8051C46.5667 46 48 44.4291 48 42.4981V20.1458C47.9999 18.2148 46.5667 16.644 44.8051 16.644ZM24 5.90646C24.767 5.90646 25.3912 6.59061 25.3912 7.43138C25.3912 8.27214 24.767 8.95629 24 8.95629C23.2329 8.95629 22.6087 8.27214 22.6087 7.43138C22.6087 6.59061 23.2329 5.90646 24 5.90646ZM15 16.7794L21.8803 9.95355C22.4384 10.5175 23.1829 10.8626 23.9999 10.8626C24.8168 10.8626 25.5615 10.5175 26.1194 9.95355L32.5 16.644L15 16.7794Z" fill="#9D7E00"/>
<path d="M31.9767 23.6285C31.4433 23.6285 31.0112 24.1299 31.0112 24.7484V31.8595L26.7191 24.1415C26.4869 23.7241 26.0454 23.5339 25.6349 23.6742C25.2243 23.8144 24.9422 24.2518 24.9422 24.7484V35.6615C24.9422 36.28 25.3744 36.7814 25.9077 36.7814C26.4411 36.7814 26.8732 36.28 26.8732 35.6615V28.5506L31.1653 36.2685C31.3464 36.5941 31.6548 36.7813 31.9767 36.7813C32.0674 36.7813 32.1592 36.7664 32.2495 36.7357C32.6601 36.5955 32.9422 36.1581 32.9422 35.6615V24.7484C32.9422 24.13 32.51 23.6285 31.9767 23.6285Z" fill="#9D7E00"/>
<path d="M10.4673 31.2549C11.9272 30.6191 12.9422 29.2327 12.9422 27.6273C12.9422 25.4225 11.0283 23.6287 8.67593 23.6287H6.13714C5.47706 23.6287 4.9422 24.1301 4.9422 24.7486V35.6617C4.9422 36.2802 5.47706 36.7816 6.13714 36.7816C6.79721 36.7816 7.33207 36.2802 7.33207 35.6617V31.6258H7.96394L10.603 36.1947C10.8191 36.5692 11.2303 36.7817 11.6549 36.7817C11.8468 36.7817 12.0419 36.7381 12.2226 36.6465C12.8031 36.352 13.0187 35.6724 12.7045 35.1285L10.4673 31.2549ZM8.67902 29.3857C8.67631 29.3857 8.67374 29.3859 8.67103 29.3859H7.33207V25.8683H8.67593C9.71061 25.8683 10.5525 26.6572 10.5525 27.6271C10.5525 28.5958 9.71216 29.3841 8.67902 29.3857Z" fill="#9D7E00"/>
<path d="M21.7368 31.3541C22.4027 31.3541 22.9422 30.8527 22.9422 30.2342C22.9422 29.6157 22.4027 29.1143 21.7368 29.1143H17.3529V25.8684H21.7368V25.8683C22.4027 25.8683 22.9422 25.3669 22.9422 24.7484C22.9422 24.1299 22.4027 23.6285 21.7368 23.6285H16.1476C15.4817 23.6285 14.9422 24.1299 14.9422 24.7484V35.6615C14.9422 36.28 15.4817 36.7814 16.1476 36.7814H21.7368C22.4027 36.7814 22.9422 36.28 22.9422 35.6615C22.9422 35.043 22.4027 34.5416 21.7368 34.5416H17.3529V31.354H21.7368V31.3541Z" fill="#9D7E00"/>
<path d="M38.9421 32.5947C38.4625 32.5947 38.0738 33.0961 38.0738 33.7146V35.6615C38.0738 36.28 38.4625 36.7814 38.9421 36.7814C39.4218 36.7814 39.8105 36.28 39.8105 35.6615V33.7146C39.8105 33.0961 39.4217 32.5947 38.9421 32.5947Z" fill="#9D7E00"/>
<path d="M42.0738 23.6285H35.8105C35.3309 23.6285 34.9422 24.1299 34.9422 24.7484C34.9422 25.3669 35.3309 25.8682 35.8105 25.8682H38.0739V30.7282C38.0739 31.3467 38.4626 31.8481 38.9422 31.8481C39.4219 31.8481 39.8106 31.3467 39.8106 30.7282V25.8682H42.0739C42.5535 25.8682 42.9422 25.3669 42.9422 24.7484C42.942 24.13 42.5533 23.6285 42.0738 23.6285Z" fill="#9D7E00"/>
<circle cx="37" cy="11" r="10.5" fill="white" stroke="#A7A7A7"/>
<path d="M35.604 12.313C35.5573 11.8276 35.5806 11.417 35.674 11.081C35.7673 10.7356 35.8933 10.4416 36.052 10.199C36.22 9.94698 36.4066 9.73231 36.612 9.55498C36.8266 9.36831 37.0226 9.19098 37.2 9.02298C37.3866 8.85498 37.5406 8.68231 37.662 8.50498C37.7833 8.31831 37.844 8.09898 37.844 7.84698C37.844 7.52031 37.7506 7.25898 37.564 7.06298C37.3866 6.86698 37.0646 6.76898 36.598 6.76898C36.4486 6.76898 36.29 6.78764 36.122 6.82498C35.954 6.85298 35.786 6.89964 35.618 6.96498C35.45 7.02097 35.2866 7.09097 35.128 7.17497C34.9786 7.24964 34.8433 7.32898 34.722 7.41298L34.022 6.06897C34.3766 5.82631 34.7826 5.62564 35.24 5.46698C35.7066 5.30831 36.2666 5.22897 36.92 5.22897C37.7973 5.22897 38.4833 5.44364 38.978 5.87297C39.4726 6.29298 39.72 6.86231 39.72 7.58098C39.72 8.05698 39.6546 8.45364 39.524 8.77098C39.4026 9.07898 39.2486 9.34498 39.062 9.56898C38.8753 9.78364 38.67 9.97498 38.446 10.143C38.222 10.311 38.0166 10.493 37.83 10.689C37.6433 10.8756 37.4846 11.095 37.354 11.347C37.2233 11.599 37.158 11.921 37.158 12.313H35.604ZM35.324 14.301C35.324 13.9743 35.4266 13.7176 35.632 13.531C35.8373 13.335 36.108 13.237 36.444 13.237C36.7986 13.237 37.0786 13.335 37.284 13.531C37.4893 13.7176 37.592 13.9743 37.592 14.301C37.592 14.6276 37.4893 14.889 37.284 15.085C37.0786 15.281 36.7986 15.379 36.444 15.379C36.108 15.379 35.8373 15.281 35.632 15.085C35.4266 14.889 35.324 14.6276 35.324 14.301Z" fill="#9D7E00"/>
</svg>
