<svg width="48" height="48" viewBox="0 0 48 48" fill="none" xmlns="http://www.w3.org/2000/svg">
<path d="M44.8051 16.644H36L27.1266 7.26193C27.0458 5.44826 25.6745 4 24 4C22.3257 4 20.9543 5.44826 20.8735 7.26183L11.1731 16.6438H3.1949C1.43325 16.644 0 18.2148 0 20.1458V42.498C0 44.4291 1.43325 45.9999 3.1949 45.9999H6.60861C7.08899 45.9999 7.47824 45.5731 7.47824 45.0467C7.47824 44.5203 7.08899 44.0935 6.60861 44.0935H3.1949C2.39221 44.0935 1.73915 43.3777 1.73915 42.4979V20.1458C1.73915 19.266 2.39221 18.5502 3.1949 18.5502H18.606L18.6088 18.5505L18.6117 18.5502H29.3882L29.3911 18.5505L29.3939 18.5502H44.8051C45.6078 18.5502 46.2608 19.266 46.2608 20.1458V42.498C46.2608 43.3778 45.6078 44.0936 44.8051 44.0936H9.39139C8.91101 44.0936 8.52176 44.5204 8.52176 45.0468C8.52176 45.5732 8.91101 46 9.39139 46H44.8051C46.5667 46 48 44.4291 48 42.4981V20.1458C47.9999 18.2148 46.5667 16.644 44.8051 16.644ZM24 5.90646C24.767 5.90646 25.3912 6.59061 25.3912 7.43138C25.3912 8.27214 24.767 8.95629 24 8.95629C23.2329 8.95629 22.6087 8.27214 22.6087 7.43138C22.6087 6.59061 23.2329 5.90646 24 5.90646ZM15 16.7794L21.8803 9.95355C22.4384 10.5175 23.1829 10.8626 23.9999 10.8626C24.8168 10.8626 25.5615 10.5175 26.1194 9.95355L32.5 16.644L15 16.7794Z" fill="#9D7E00"/>
<path d="M27.0549 37.8965C27.2753 38.1596 27.5743 38.3075 27.8859 38.3075L31.6465 38.3074C32.2954 38.3074 32.8216 37.6791 32.8217 36.9042C32.8216 36.1294 32.2954 35.5011 31.6465 35.501L29.0611 35.5011L29.0611 25.6792C29.0611 24.9045 28.5348 24.2761 27.8859 24.276C27.2369 24.276 26.7107 24.9043 26.7107 25.6793L26.7108 36.9043C26.7108 37.2765 26.8347 37.6335 27.0549 37.8965Z" fill="#9D7E00"/>
<path d="M40.8127 36.9042C40.8126 36.1294 40.2864 35.5012 39.6374 35.501L37.5221 35.501L37.522 32.6948L39.6373 32.6948C40.2863 32.6948 40.8125 32.0666 40.8126 31.2916C40.8125 30.5168 40.2863 29.8886 39.6373 29.8884L37.522 29.8884L37.522 27.0822L39.6373 27.0822C40.2863 27.0822 40.8126 26.454 40.8126 25.6789C40.8124 24.9043 40.2863 24.2759 39.6374 24.2758L36.347 24.2758C36.0353 24.2758 35.7364 24.4236 35.516 24.6868C35.2956 24.9499 35.1719 25.3068 35.1718 25.6789L35.1719 36.904C35.1719 37.2913 35.3034 37.6423 35.5161 37.8962C35.7287 38.1501 36.0227 38.3071 36.3471 38.3071L39.6375 38.3071C40.2865 38.3073 40.8127 37.6791 40.8127 36.9042Z" fill="#9D7E00"/>
<path d="M22.0676 37.3381C22.268 38.075 22.9311 38.4783 23.5485 38.2389C24.1657 37.9994 24.5034 37.2078 24.3027 36.4707L21.2473 25.2456C21.09 24.6675 20.6388 24.2762 20.1298 24.2762C19.6207 24.2762 19.1694 24.6676 19.0122 25.2456L15.9568 36.4707C15.8154 36.99 15.9412 37.5363 16.2439 37.8975C16.3708 38.049 16.5289 38.1681 16.7112 38.2387C17.3284 38.4783 17.9914 38.075 18.1921 37.3382L18.4375 36.4367L21.8224 36.4367L22.0676 37.3381ZM19.2012 33.6304L20.1298 30.2191L21.0584 33.6306L19.2012 33.6304Z" fill="#9D7E00"/>
<path d="M7.67318 35.501C7.02419 35.501 6.49795 36.1291 6.49795 36.9042C6.49803 37.2916 6.62949 37.6425 6.84213 37.8964C7.05478 38.1503 7.34869 38.3073 7.6731 38.3073L10.0235 38.3074C11.9675 38.3074 13.5489 36.4191 13.549 34.098C13.549 31.8918 12.12 30.078 10.3092 29.9035C10.2558 29.8947 10.2018 29.8885 10.1464 29.8886L10.0235 29.8885C9.70954 29.8885 9.41446 29.7426 9.1925 29.4775C8.97055 29.2125 8.84832 28.8602 8.84832 28.4854C8.84832 27.7117 9.37548 27.0823 10.0236 27.0822L12.3739 27.0822C13.0228 27.0822 13.5491 26.454 13.5491 25.679C13.5489 24.9043 13.0228 24.2759 12.3739 24.2758L10.0235 24.2757C8.07958 24.2757 6.49801 26.1641 6.49793 28.4853C6.49802 29.6097 6.86472 30.6667 7.53058 31.4617C8.19552 32.2556 9.07933 32.6934 10.02 32.6945C10.0212 32.6945 10.0223 32.6947 10.0235 32.6947C10.6715 32.6945 11.1987 33.3241 11.1986 34.0979C11.1986 34.4727 11.0765 34.8249 10.8545 35.0899C10.6325 35.355 10.3374 35.501 10.0236 35.5009L7.67318 35.501Z" fill="#9D7E00"/>
<circle cx="37" cy="11" r="10.5" fill="white" stroke="#A7A7A7"/>
<path d="M35.74 13.105C35.69 12.585 35.715 12.145 35.815 11.785C35.915 11.415 36.05 11.1 36.22 10.84C36.4 10.57 36.6 10.34 36.82 10.15C37.05 9.94998 37.26 9.75998 37.45 9.57998C37.65 9.39998 37.815 9.21498 37.945 9.02498C38.075 8.82498 38.14 8.58998 38.14 8.31998C38.14 7.96998 38.04 7.68998 37.84 7.47998C37.65 7.26998 37.305 7.16498 36.805 7.16498C36.645 7.16498 36.475 7.18498 36.295 7.22498C36.115 7.25498 35.935 7.30498 35.755 7.37498C35.575 7.43497 35.4 7.50997 35.23 7.59997C35.07 7.67998 34.925 7.76498 34.795 7.85498L34.045 6.41497C34.425 6.15498 34.86 5.93998 35.35 5.76998C35.85 5.59997 36.45 5.51497 37.15 5.51497C38.09 5.51497 38.825 5.74497 39.355 6.20497C39.885 6.65498 40.15 7.26498 40.15 8.03498C40.15 8.54498 40.08 8.96998 39.94 9.30998C39.81 9.63998 39.645 9.92498 39.445 10.165C39.245 10.395 39.025 10.6 38.785 10.78C38.545 10.96 38.325 11.155 38.125 11.365C37.925 11.565 37.755 11.8 37.615 12.07C37.475 12.34 37.405 12.685 37.405 13.105H35.74ZM35.44 15.235C35.44 14.885 35.55 14.61 35.77 14.41C35.99 14.2 36.28 14.095 36.64 14.095C37.02 14.095 37.32 14.2 37.54 14.41C37.76 14.61 37.87 14.885 37.87 15.235C37.87 15.585 37.76 15.865 37.54 16.075C37.32 16.285 37.02 16.39 36.64 16.39C36.28 16.39 35.99 16.285 35.77 16.075C35.55 15.865 35.44 15.585 35.44 15.235Z" fill="#9D7E00"/>
</svg>
