<svg width="48" height="48" viewBox="0 0 48 48" fill="none" xmlns="http://www.w3.org/2000/svg">
<path d="M43.7812 0H26.7188C24.3925 0 22.5 1.89253 22.5 4.21875V15.5625C22.5 17.8887 24.3925 19.7812 26.7188 19.7812H28.2188V24C28.2188 24.5688 28.5614 25.0815 29.0869 25.2992C29.6123 25.5169 30.2172 25.3965 30.6194 24.9944L35.8325 19.7812H43.7812C46.1075 19.7812 48 17.8887 48 15.5625V4.21875C48 1.89253 46.1075 0 43.7812 0V0ZM45.1875 15.5625C45.1875 16.3379 44.5567 16.9688 43.7812 16.9688H35.25C34.8771 16.9688 34.5194 17.1169 34.2557 17.3806L31.0312 20.605V18.375C31.0312 17.5984 30.4016 16.9688 29.625 16.9688H26.7188C25.9433 16.9688 25.3125 16.3379 25.3125 15.5625V4.21875C25.3125 3.44334 25.9433 2.8125 26.7188 2.8125H43.7812C44.5567 2.8125 45.1875 3.44334 45.1875 4.21875V15.5625Z" fill="#9D7E00"/>
<path d="M37.0682 7.53689L33.8437 10.7613L32.7287 9.64626C32.1796 9.09708 31.2891 9.09708 30.74 9.64626C30.1908 10.1955 30.1908 11.0858 30.74 11.635L32.8493 13.7444C33.3984 14.2934 34.2889 14.2935 34.838 13.7444L39.0568 9.52561C39.606 8.97642 39.606 8.08608 39.0568 7.53689C38.5077 6.9877 37.6173 6.9877 37.0682 7.53689Z" fill="#9D7E00"/>
<path d="M2.81269 40.965C2.81269 40.9662 2.8125 40.9674 2.8125 40.9688V46.5938C2.8125 47.3704 3.44212 48 4.21875 48H21.0938C21.6991 48 22.2364 47.6127 22.4278 47.0385L23.9829 42.3731C26.2738 42.3318 28.125 40.4568 28.125 38.1562C28.125 36.8041 27.4849 35.5994 26.4925 34.8268L28.055 30.0633C28.1955 29.6348 28.1221 29.1651 27.8576 28.8C27.5932 28.4348 27.1697 28.2188 26.7188 28.2188H25.1711C24.5179 25.0132 21.677 22.5938 18.2813 22.5938H7.03125C3.15422 22.5938 0 25.748 0 29.625V35.3438C0 37.6392 1.10597 39.681 2.81269 40.965ZM5.625 42.2335C6.0795 42.3262 6.54975 42.375 7.03125 42.375H9.76069L8.82834 45.1875H5.625V42.2335ZM11.7914 45.1875C11.8151 45.1159 16.4362 31.1783 16.4842 31.0312H24.7776L23.8243 33.9375H21.0938C20.3171 33.9375 19.6875 34.5671 19.6875 35.3438V40.9688C19.6875 41.7202 20.2773 42.3321 21.0189 42.3713L20.0801 45.1875H11.7914ZM23.9062 39.5625C23.4815 39.5625 23.1367 39.5625 22.5 39.5625V36.75H23.9062C24.6817 36.75 25.3125 37.3808 25.3125 38.1562C25.3125 38.9317 24.6817 39.5625 23.9062 39.5625ZM2.8125 29.625C2.8125 27.2988 4.70503 25.4062 7.03125 25.4062H18.2812C20.1145 25.4062 21.6776 26.5821 22.2581 28.2188H15.4688C14.8626 28.2188 14.3246 28.6072 14.1339 29.1825L12.5577 33.9375H8.4375V29.625C8.4375 28.8484 7.80788 28.2188 7.03125 28.2188C6.25462 28.2188 5.625 28.8484 5.625 29.625V35.3438C5.625 36.1204 6.25462 36.75 7.03125 36.75H11.6254L10.693 39.5625H7.03125C4.70503 39.5625 2.8125 37.67 2.8125 35.3438V29.625Z" fill="#9D7E00"/>
<path d="M19.6875 15.5625C19.6875 11.6855 16.5333 8.53125 12.6562 8.53125C8.77922 8.53125 5.625 11.6855 5.625 15.5625C5.625 19.4395 8.77922 22.5938 12.6562 22.5938C16.5333 22.5938 19.6875 19.4395 19.6875 15.5625ZM12.6562 19.7812C10.33 19.7812 8.4375 17.8887 8.4375 15.5625C8.4375 13.2363 10.33 11.3438 12.6562 11.3438C14.9825 11.3438 16.875 13.2363 16.875 15.5625C16.875 17.8887 14.9825 19.7812 12.6562 19.7812Z" fill="#9D7E00"/>
</svg>
